M48
; DRILL file KiCad 10.0.0 date 2026-04-21T11:06:48
; FORMAT={-:-/ absolute / metric / decimal}
; #@! TF.CreationDate,2026-04-21T11:06:48-03:00
; #@! TF.GenerationSoftware,Kicad,Pcbnew,10.0.0
; #@! TF.FileFunction,Plated,1,2,PTH
FMAT,2
METRIC
; #@! TA.AperFunction,Plated,PTH,ComponentDrill
T1C0.800
; #@! TA.AperFunction,Plated,PTH,ComponentDrill
T2C1.000
; #@! TA.AperFunction,Plated,PTH,ComponentDrill
T3C1.100
; #@! TA.AperFunction,Plated,PTH,ComponentDrill
T4C1.200
; #@! TA.AperFunction,Plated,PTH,ComponentDrill
T5C1.300
%
G90
G05
T1
X87.5Y-66.69
X87.5Y-74.31
X95.5Y-66.62
X95.5Y-74.24
X95.64Y-78.71
X95.64Y-81.25
X95.64Y-83.79
X103.5Y-95.0
X103.5Y-97.54
X103.5Y-100.08
X103.5Y-103.25
X103.5Y-110.87
X110.493Y-62.444
X110.493Y-64.984
X110.493Y-67.524
X110.5Y-51.62
X110.5Y-59.24
X110.5Y-78.005
X110.5Y-80.545
X110.5Y-83.085
X117.5Y-85.96
X117.5Y-88.5
X117.5Y-94.96
X117.5Y-97.5
X117.5Y-100.04
X117.5Y-103.19
X117.5Y-110.81
X125.25Y-62.67
X125.25Y-65.21
X125.25Y-67.75
X125.299Y-51.54
X125.299Y-59.16
X125.5Y-77.96
X125.5Y-80.5
X125.5Y-83.04
X130.5Y-89.96
X130.5Y-92.5
X130.5Y-100.88
X130.5Y-108.5
X137.69Y-96.5
X138.36Y-82.96
X138.36Y-85.5
X138.36Y-88.04
X138.5Y-56.96
X138.5Y-59.5
X138.5Y-62.04
X138.5Y-69.55
X141.0Y-69.55
X142.96Y-85.5
X145.31Y-96.5
X145.5Y-85.5
X146.0Y-69.38
X146.0Y-77.0
X170.937Y-96.412
X178.557Y-96.412
X181.317Y-77.912
X181.317Y-85.532
X181.442Y-89.412
X183.857Y-77.912
X183.857Y-85.532
X183.937Y-98.912
X183.937Y-106.532
X183.982Y-89.412
X186.397Y-77.912
X186.397Y-85.532
X188.937Y-77.912
X188.937Y-85.532
X188.937Y-89.412
X188.937Y-97.032
X193.937Y-82.292
X193.937Y-89.912
T2
X95.5Y-88.0
X98.04Y-88.0
X100.58Y-88.0
X107.0Y-87.795
X133.5Y-74.5
X146.0Y-119.0
X167.937Y-96.412
X170.937Y-74.912
T3
X157.5Y-51.92
X157.5Y-54.46
X157.5Y-57.0
T4
X157.5Y-74.88
X157.5Y-90.12
X163.0Y-74.88
X163.0Y-90.12
T5
X81.5Y-48.75
X86.5Y-48.75
X152.556Y-114.939
X157.556Y-114.939
M30
