%TF.GenerationSoftware,KiCad,Pcbnew,10.0.0*%
%TF.CreationDate,2026-05-11T13:12:19-03:00*%
%TF.ProjectId,Dise_o_v4,44697365-f16f-45f7-9634-2e6b69636164,rev?*%
%TF.SameCoordinates,Original*%
%TF.FileFunction,Soldermask,Bot*%
%TF.FilePolarity,Negative*%
%FSLAX46Y46*%
G04 Gerber Fmt 4.6, Leading zero omitted, Abs format (unit mm)*
G04 Created by KiCad (PCBNEW 10.0.0) date 2026-05-11 13:12:19*
%MOMM*%
%LPD*%
G01*
G04 APERTURE LIST*
G04 Aperture macros list*
%AMRoundRect*
0 Rectangle with rounded corners*
0 $1 Rounding radius*
0 $2 $3 $4 $5 $6 $7 $8 $9 X,Y pos of 4 corners*
0 Add a 4 corners polygon primitive as box body*
4,1,4,$2,$3,$4,$5,$6,$7,$8,$9,$2,$3,0*
0 Add four circle primitives for the rounded corners*
1,1,$1+$1,$2,$3*
1,1,$1+$1,$4,$5*
1,1,$1+$1,$6,$7*
1,1,$1+$1,$8,$9*
0 Add four rect primitives between the rounded corners*
20,1,$1+$1,$2,$3,$4,$5,0*
20,1,$1+$1,$4,$5,$6,$7,0*
20,1,$1+$1,$6,$7,$8,$9,0*
20,1,$1+$1,$8,$9,$2,$3,0*%
G04 Aperture macros list end*
%ADD10RoundRect,0.250001X-1.149999X-1.149999X1.149999X-1.149999X1.149999X1.149999X-1.149999X1.149999X0*%
%ADD11C,2.800000*%
%ADD12R,1.700000X1.700000*%
%ADD13C,1.600000*%
%ADD14R,1.500000X1.500000*%
%ADD15C,1.500000*%
%ADD16RoundRect,0.250000X0.550000X-0.950000X0.550000X0.950000X-0.550000X0.950000X-0.550000X-0.950000X0*%
%ADD17O,1.600000X2.400000*%
%ADD18C,1.400000*%
%ADD19C,2.400000*%
%ADD20R,1.905000X2.000000*%
%ADD21O,1.905000X2.000000*%
G04 APERTURE END LIST*
D10*
%TO.C,J1*%
X84750000Y-41467500D03*
D11*
X89750000Y-41467500D03*
%TD*%
D12*
%TO.C,TP_GND5*%
X86500000Y-85500000D03*
%TD*%
%TO.C,Gen_In1*%
X91500000Y-74500000D03*
%TD*%
D13*
%TO.C,C_COMP1*%
X123500000Y-54145000D03*
X123500000Y-56645000D03*
%TD*%
D14*
%TO.C,Q3*%
X99016307Y-56205651D03*
D15*
X99016307Y-53665651D03*
X99016307Y-51125651D03*
%TD*%
D16*
%TO.C,U2*%
X165380000Y-73000000D03*
D17*
X167920000Y-73000000D03*
X170460000Y-73000000D03*
X173000000Y-73000000D03*
X173000000Y-65380000D03*
X170460000Y-65380000D03*
X167920000Y-65380000D03*
X165380000Y-65380000D03*
%TD*%
D13*
%TO.C,Rf1*%
X167925000Y-76420000D03*
X165385000Y-76420000D03*
%TD*%
D18*
%TO.C,J_LC1*%
X125000000Y-69750000D03*
X125000000Y-67210000D03*
%TD*%
D13*
%TO.C,R_COMP1*%
X123500000Y-43000000D03*
X123500000Y-50620000D03*
%TD*%
D14*
%TO.C,Q4*%
X111564554Y-56242903D03*
D15*
X111564554Y-53702903D03*
X111564554Y-51162903D03*
%TD*%
D12*
%TO.C,TP_Vo1*%
X132500000Y-95500000D03*
%TD*%
D14*
%TO.C,Q9*%
X125140000Y-74000000D03*
D15*
X125140000Y-76540000D03*
X125140000Y-79080000D03*
%TD*%
D13*
%TO.C,C_Op2*%
X165500000Y-56250000D03*
X165500000Y-58750000D03*
%TD*%
D18*
%TO.C,J_QD1*%
X116250000Y-60500000D03*
X118790000Y-60500000D03*
%TD*%
D13*
%TO.C,Rref1*%
X160380000Y-94500000D03*
X168000000Y-94500000D03*
%TD*%
D12*
%TO.C,TP_Vx1*%
X141000000Y-63000000D03*
%TD*%
D13*
%TO.C,R2*%
X86880000Y-79500000D03*
X94500000Y-79500000D03*
%TD*%
D14*
%TO.C,Q7*%
X111521549Y-77000000D03*
D15*
X111521549Y-79540000D03*
X111521549Y-82080000D03*
%TD*%
D13*
%TO.C,RE4*%
X111381549Y-85500000D03*
X111381549Y-93120000D03*
%TD*%
%TO.C,Rx1*%
X152190000Y-63500000D03*
X159810000Y-63500000D03*
%TD*%
D18*
%TO.C,J_LC2*%
X153250000Y-76675000D03*
X155790000Y-76675000D03*
%TD*%
D10*
%TO.C,J2*%
X140500000Y-96000000D03*
D11*
X145500000Y-96000000D03*
%TD*%
D18*
%TO.C,J_FC1*%
X104452279Y-70585651D03*
X104452279Y-73125651D03*
%TD*%
D13*
%TO.C,Ro1*%
X160380000Y-90000000D03*
X168000000Y-90000000D03*
%TD*%
D18*
%TO.C,J_Vref1*%
X91250000Y-65484557D03*
X93790000Y-65484557D03*
%TD*%
D13*
%TO.C,R_LC2*%
X158310000Y-84500000D03*
X150690000Y-84500000D03*
%TD*%
D14*
%TO.C,Q1*%
X99000000Y-62920000D03*
D15*
X99000000Y-65460000D03*
X99000000Y-68000000D03*
%TD*%
D13*
%TO.C,R3*%
X124015320Y-82690000D03*
X124015320Y-90310000D03*
%TD*%
%TO.C,R_LC3*%
X161500000Y-76690000D03*
X161500000Y-84310000D03*
%TD*%
%TO.C,R4*%
X117950654Y-83005334D03*
X117950654Y-90625334D03*
%TD*%
%TO.C,R5*%
X166310000Y-44500000D03*
X158690000Y-44500000D03*
%TD*%
D19*
%TO.C,RS2*%
X145500000Y-71000000D03*
X145500000Y-86240000D03*
%TD*%
D12*
%TO.C,TP_GND4*%
X118000000Y-95500000D03*
%TD*%
D14*
%TO.C,U1*%
X84500000Y-62920000D03*
D15*
X84500000Y-65460000D03*
X84500000Y-68000000D03*
%TD*%
D20*
%TO.C,Q6*%
X138420000Y-49500000D03*
D21*
X140960000Y-49500000D03*
X143500000Y-49500000D03*
%TD*%
D12*
%TO.C,Gen_In2*%
X84500000Y-75000000D03*
%TD*%
D13*
%TO.C,RE3*%
X98881549Y-85500000D03*
X98881549Y-93120000D03*
%TD*%
%TO.C,RE2*%
X111452279Y-40505651D03*
X111452279Y-48125651D03*
%TD*%
D18*
%TO.C,J_LT1*%
X117963251Y-70749999D03*
X117963251Y-73289999D03*
%TD*%
D13*
%TO.C,RE1*%
X98952279Y-40505651D03*
X98952279Y-48125651D03*
%TD*%
%TO.C,R1*%
X84500000Y-50000000D03*
X84500000Y-57620000D03*
%TD*%
D14*
%TO.C,Q2*%
X111395069Y-62905656D03*
D15*
X111395069Y-65445656D03*
X111395069Y-67985656D03*
%TD*%
D14*
%TO.C,Q5*%
X128640000Y-57960000D03*
D15*
X128640000Y-60500000D03*
X128640000Y-63040000D03*
%TD*%
D13*
%TO.C,R6*%
X158559384Y-49000000D03*
X166179384Y-49000000D03*
%TD*%
D14*
%TO.C,Q8*%
X98881549Y-77000000D03*
D15*
X98881549Y-79540000D03*
X98881549Y-82080000D03*
%TD*%
D13*
%TO.C,Rx2*%
X152322728Y-69250000D03*
X159942728Y-69250000D03*
%TD*%
D19*
%TO.C,RS1*%
X136500000Y-71000000D03*
X136500000Y-86240000D03*
%TD*%
M02*
