%TF.GenerationSoftware,KiCad,Pcbnew,10.0.0*%
%TF.CreationDate,2026-05-11T13:12:19-03:00*%
%TF.ProjectId,Dise_o_v4,44697365-f16f-45f7-9634-2e6b69636164,rev?*%
%TF.SameCoordinates,Original*%
%TF.FileFunction,Copper,L1,Top*%
%TF.FilePolarity,Positive*%
%FSLAX46Y46*%
G04 Gerber Fmt 4.6, Leading zero omitted, Abs format (unit mm)*
G04 Created by KiCad (PCBNEW 10.0.0) date 2026-05-11 13:12:19*
%MOMM*%
%LPD*%
G01*
G04 APERTURE LIST*
G04 Aperture macros list*
%AMRoundRect*
0 Rectangle with rounded corners*
0 $1 Rounding radius*
0 $2 $3 $4 $5 $6 $7 $8 $9 X,Y pos of 4 corners*
0 Add a 4 corners polygon primitive as box body*
4,1,4,$2,$3,$4,$5,$6,$7,$8,$9,$2,$3,0*
0 Add four circle primitives for the rounded corners*
1,1,$1+$1,$2,$3*
1,1,$1+$1,$4,$5*
1,1,$1+$1,$6,$7*
1,1,$1+$1,$8,$9*
0 Add four rect primitives between the rounded corners*
20,1,$1+$1,$2,$3,$4,$5,0*
20,1,$1+$1,$4,$5,$6,$7,0*
20,1,$1+$1,$6,$7,$8,$9,0*
20,1,$1+$1,$8,$9,$2,$3,0*%
G04 Aperture macros list end*
%TA.AperFunction,ComponentPad*%
%ADD10RoundRect,0.250001X-1.149999X-1.149999X1.149999X-1.149999X1.149999X1.149999X-1.149999X1.149999X0*%
%TD*%
%TA.AperFunction,ComponentPad*%
%ADD11C,2.800000*%
%TD*%
%TA.AperFunction,ComponentPad*%
%ADD12R,1.700000X1.700000*%
%TD*%
%TA.AperFunction,ComponentPad*%
%ADD13C,1.600000*%
%TD*%
%TA.AperFunction,ComponentPad*%
%ADD14R,1.500000X1.500000*%
%TD*%
%TA.AperFunction,ComponentPad*%
%ADD15C,1.500000*%
%TD*%
%TA.AperFunction,ComponentPad*%
%ADD16RoundRect,0.250000X0.550000X-0.950000X0.550000X0.950000X-0.550000X0.950000X-0.550000X-0.950000X0*%
%TD*%
%TA.AperFunction,ComponentPad*%
%ADD17O,1.600000X2.400000*%
%TD*%
%TA.AperFunction,ComponentPad*%
%ADD18C,1.400000*%
%TD*%
%TA.AperFunction,ComponentPad*%
%ADD19C,2.400000*%
%TD*%
%TA.AperFunction,ComponentPad*%
%ADD20R,1.905000X2.000000*%
%TD*%
%TA.AperFunction,ComponentPad*%
%ADD21O,1.905000X2.000000*%
%TD*%
G04 APERTURE END LIST*
D10*
%TO.P,J1,1,Pin_1_1*%
%TO.N,GND*%
X84750000Y-41467500D03*
D11*
%TO.P,J1,2,Pin_2_2*%
%TO.N,/Vreg*%
X89750000Y-41467500D03*
%TD*%
D12*
%TO.P,TP_GND5,1,1_1*%
%TO.N,GND*%
X86500000Y-85500000D03*
%TD*%
%TO.P,Gen_In1,1,1_1*%
%TO.N,/Vref*%
X91500000Y-74500000D03*
%TD*%
D13*
%TO.P,C_COMP1,1*%
%TO.N,Net-(C_COMP1-Pad1)*%
X123500000Y-54145000D03*
%TO.P,C_COMP1,2*%
%TO.N,Net-(J_LC1-B)*%
X123500000Y-56645000D03*
%TD*%
D14*
%TO.P,Q3,1,C_1*%
%TO.N,Net-(Q1-C)*%
X99016307Y-56205651D03*
D15*
%TO.P,Q3,2,B_2*%
X99016307Y-53665651D03*
%TO.P,Q3,3,E_3*%
%TO.N,Net-(Q3-E)*%
X99016307Y-51125651D03*
%TD*%
D16*
%TO.P,U2,1*%
%TO.N,Net-(R_LC3-Pad1)*%
X165380000Y-73000000D03*
D17*
%TO.P,U2,2,-_2*%
%TO.N,Net-(U2A--)*%
X167920000Y-73000000D03*
%TO.P,U2,3,+_3*%
%TO.N,Net-(U2A-+)*%
X170460000Y-73000000D03*
%TO.P,U2,4,V-_4*%
%TO.N,GND*%
X173000000Y-73000000D03*
%TO.P,U2,5,+_5*%
%TO.N,Net-(U2B-+)*%
X173000000Y-65380000D03*
%TO.P,U2,6,-_6*%
%TO.N,Net-(U2B--)*%
X170460000Y-65380000D03*
%TO.P,U2,7*%
X167920000Y-65380000D03*
%TO.P,U2,8,V+_8*%
%TO.N,/Vreg*%
X165380000Y-65380000D03*
%TD*%
D13*
%TO.P,Rf1,1*%
%TO.N,Net-(U2A--)*%
X167925000Y-76420000D03*
%TO.P,Rf1,2*%
%TO.N,Net-(R_LC3-Pad1)*%
X165385000Y-76420000D03*
%TD*%
D18*
%TO.P,J_LC1,1,A_1*%
%TO.N,Net-(J_LC1-A)*%
X125000000Y-69750000D03*
%TO.P,J_LC1,2,B_2*%
%TO.N,Net-(J_LC1-B)*%
X125000000Y-67210000D03*
%TD*%
D13*
%TO.P,R_COMP1,1*%
%TO.N,GND*%
X123500000Y-43000000D03*
%TO.P,R_COMP1,2*%
%TO.N,Net-(C_COMP1-Pad1)*%
X123500000Y-50620000D03*
%TD*%
D14*
%TO.P,Q4,1,C_1*%
%TO.N,Net-(J_QD1-A)*%
X111564554Y-56242903D03*
D15*
%TO.P,Q4,2,B_2*%
%TO.N,Net-(Q1-C)*%
X111564554Y-53702903D03*
%TO.P,Q4,3,E_3*%
%TO.N,Net-(Q4-E)*%
X111564554Y-51162903D03*
%TD*%
D12*
%TO.P,TP_Vo1,1,1_1*%
%TO.N,/Vo*%
X132500000Y-95500000D03*
%TD*%
D14*
%TO.P,Q9,1,C_1*%
%TO.N,Net-(J_LC1-A)*%
X125140000Y-74000000D03*
D15*
%TO.P,Q9,2,B_2*%
%TO.N,/Vf*%
X125140000Y-76540000D03*
%TO.P,Q9,3,E_3*%
%TO.N,GND*%
X125140000Y-79080000D03*
%TD*%
D13*
%TO.P,C_Op2,1*%
%TO.N,GND*%
X165500000Y-56250000D03*
%TO.P,C_Op2,2*%
%TO.N,/Vreg*%
X165500000Y-58750000D03*
%TD*%
D18*
%TO.P,J_QD1,1,A_1*%
%TO.N,Net-(J_QD1-A)*%
X116250000Y-60500000D03*
%TO.P,J_QD1,2,B_2*%
%TO.N,Net-(J_LC1-B)*%
X118790000Y-60500000D03*
%TD*%
D13*
%TO.P,Rref1,1*%
%TO.N,/Vref*%
X160380000Y-94500000D03*
%TO.P,Rref1,2*%
%TO.N,Net-(U2A--)*%
X168000000Y-94500000D03*
%TD*%
D12*
%TO.P,TP_Vx1,1,1_1*%
%TO.N,/Vx*%
X141000000Y-63000000D03*
%TD*%
D13*
%TO.P,R2,1*%
%TO.N,/Vreg*%
X86880000Y-79500000D03*
%TO.P,R2,2*%
%TO.N,Net-(Q7-B)*%
X94500000Y-79500000D03*
%TD*%
D14*
%TO.P,Q7,1,C_1*%
%TO.N,Net-(J_FC1-B)*%
X111521549Y-77000000D03*
D15*
%TO.P,Q7,2,B_2*%
%TO.N,Net-(Q7-B)*%
X111521549Y-79540000D03*
%TO.P,Q7,3,E_3*%
%TO.N,Net-(Q7-E)*%
X111521549Y-82080000D03*
%TD*%
D13*
%TO.P,RE4,1*%
%TO.N,Net-(Q7-E)*%
X111381549Y-85500000D03*
%TO.P,RE4,2*%
%TO.N,GND*%
X111381549Y-93120000D03*
%TD*%
%TO.P,Rx1,1*%
%TO.N,/Vx*%
X152190000Y-63500000D03*
%TO.P,Rx1,2*%
%TO.N,Net-(U2A-+)*%
X159810000Y-63500000D03*
%TD*%
D18*
%TO.P,J_LC2,1,A_1*%
%TO.N,/Vf*%
X153250000Y-76675000D03*
%TO.P,J_LC2,2,B_2*%
%TO.N,Net-(J_LC2-B)*%
X155790000Y-76675000D03*
%TD*%
D10*
%TO.P,J2,1,Pin_1_1*%
%TO.N,GND*%
X140500000Y-96000000D03*
D11*
%TO.P,J2,2,Pin_2_2*%
%TO.N,/Vo*%
X145500000Y-96000000D03*
%TD*%
D18*
%TO.P,J_FC1,1,A_1*%
%TO.N,Net-(J_FC1-A)*%
X104452279Y-70585651D03*
%TO.P,J_FC1,2,B_2*%
%TO.N,Net-(J_FC1-B)*%
X104452279Y-73125651D03*
%TD*%
D13*
%TO.P,Ro1,1*%
%TO.N,/Vo*%
X160380000Y-90000000D03*
%TO.P,Ro1,2*%
%TO.N,Net-(U2A--)*%
X168000000Y-90000000D03*
%TD*%
D18*
%TO.P,J_Vref1,1,A_1*%
%TO.N,Net-(J_Vref1-A)*%
X91250000Y-65484557D03*
%TO.P,J_Vref1,2,B_2*%
%TO.N,/Vref*%
X93790000Y-65484557D03*
%TD*%
D13*
%TO.P,R_LC2,1*%
%TO.N,Net-(J_LC2-B)*%
X158310000Y-84500000D03*
%TO.P,R_LC2,2*%
%TO.N,GND*%
X150690000Y-84500000D03*
%TD*%
D14*
%TO.P,Q1,1,C_1*%
%TO.N,Net-(Q1-C)*%
X99000000Y-62920000D03*
D15*
%TO.P,Q1,2,B_2*%
%TO.N,/Vref*%
X99000000Y-65460000D03*
%TO.P,Q1,3,E_3*%
%TO.N,Net-(J_FC1-A)*%
X99000000Y-68000000D03*
%TD*%
D13*
%TO.P,R3,1*%
%TO.N,Net-(J_LT1-B)*%
X124015320Y-82690000D03*
%TO.P,R3,2*%
%TO.N,/Vo*%
X124015320Y-90310000D03*
%TD*%
%TO.P,R_LC3,1*%
%TO.N,Net-(R_LC3-Pad1)*%
X161500000Y-76690000D03*
%TO.P,R_LC3,2*%
%TO.N,Net-(J_LC2-B)*%
X161500000Y-84310000D03*
%TD*%
%TO.P,R4,1*%
%TO.N,Net-(J_LT1-B)*%
X117950654Y-83005334D03*
%TO.P,R4,2*%
%TO.N,GND*%
X117950654Y-90625334D03*
%TD*%
%TO.P,R5,1*%
%TO.N,Net-(U2B-+)*%
X166310000Y-44500000D03*
%TO.P,R5,2*%
%TO.N,/Vreg*%
X158690000Y-44500000D03*
%TD*%
D19*
%TO.P,RS2,1*%
%TO.N,/Vx*%
X145500000Y-71000000D03*
%TO.P,RS2,2*%
%TO.N,/Vo*%
X145500000Y-86240000D03*
%TD*%
D12*
%TO.P,TP_GND4,1,1_1*%
%TO.N,GND*%
X118000000Y-95500000D03*
%TD*%
D14*
%TO.P,U1,1,REF_1*%
%TO.N,Net-(J_Vref1-A)*%
X84500000Y-62920000D03*
D15*
%TO.P,U1,2,A_2*%
%TO.N,GND*%
X84500000Y-65460000D03*
%TO.P,U1,3,K_3*%
%TO.N,Net-(J_Vref1-A)*%
X84500000Y-68000000D03*
%TD*%
D20*
%TO.P,Q6,1,B_1*%
%TO.N,Net-(Q5-C)*%
X138420000Y-49500000D03*
D21*
%TO.P,Q6,2,C_2*%
%TO.N,/Vx*%
X140960000Y-49500000D03*
%TO.P,Q6,3,E_3*%
%TO.N,/Vreg*%
X143500000Y-49500000D03*
%TD*%
D12*
%TO.P,Gen_In2,1,1_1*%
%TO.N,Net-(J_Vref1-A)*%
X84500000Y-75000000D03*
%TD*%
D13*
%TO.P,RE3,1*%
%TO.N,Net-(Q8-E)*%
X98881549Y-85500000D03*
%TO.P,RE3,2*%
%TO.N,GND*%
X98881549Y-93120000D03*
%TD*%
%TO.P,RE2,1*%
%TO.N,/Vreg*%
X111452279Y-40505651D03*
%TO.P,RE2,2*%
%TO.N,Net-(Q4-E)*%
X111452279Y-48125651D03*
%TD*%
D18*
%TO.P,J_LT1,1,A_1*%
%TO.N,Net-(J_LT1-A)*%
X117963251Y-70749999D03*
%TO.P,J_LT1,2,B_2*%
%TO.N,Net-(J_LT1-B)*%
X117963251Y-73289999D03*
%TD*%
D13*
%TO.P,RE1,1*%
%TO.N,/Vreg*%
X98952279Y-40505651D03*
%TO.P,RE1,2*%
%TO.N,Net-(Q3-E)*%
X98952279Y-48125651D03*
%TD*%
%TO.P,R1,1*%
%TO.N,/Vreg*%
X84500000Y-50000000D03*
%TO.P,R1,2*%
%TO.N,Net-(J_Vref1-A)*%
X84500000Y-57620000D03*
%TD*%
D14*
%TO.P,Q2,1,C_1*%
%TO.N,Net-(J_QD1-A)*%
X111395069Y-62905656D03*
D15*
%TO.P,Q2,2,B_2*%
%TO.N,Net-(J_LT1-A)*%
X111395069Y-65445656D03*
%TO.P,Q2,3,E_3*%
%TO.N,Net-(J_FC1-A)*%
X111395069Y-67985656D03*
%TD*%
D14*
%TO.P,Q5,1,C_1*%
%TO.N,Net-(Q5-C)*%
X128640000Y-57960000D03*
D15*
%TO.P,Q5,2,B_2*%
%TO.N,Net-(J_LC1-B)*%
X128640000Y-60500000D03*
%TO.P,Q5,3,E_3*%
%TO.N,/Vx*%
X128640000Y-63040000D03*
%TD*%
D13*
%TO.P,R6,1*%
%TO.N,GND*%
X158559384Y-49000000D03*
%TO.P,R6,2*%
%TO.N,Net-(U2B-+)*%
X166179384Y-49000000D03*
%TD*%
D14*
%TO.P,Q8,1,C_1*%
%TO.N,Net-(Q7-B)*%
X98881549Y-77000000D03*
D15*
%TO.P,Q8,2,B_2*%
X98881549Y-79540000D03*
%TO.P,Q8,3,E_3*%
%TO.N,Net-(Q8-E)*%
X98881549Y-82080000D03*
%TD*%
D13*
%TO.P,Rx2,1*%
%TO.N,GND*%
X152322728Y-69250000D03*
%TO.P,Rx2,2*%
%TO.N,Net-(U2A-+)*%
X159942728Y-69250000D03*
%TD*%
D19*
%TO.P,RS1,1*%
%TO.N,/Vx*%
X136500000Y-71000000D03*
%TO.P,RS1,2*%
%TO.N,/Vo*%
X136500000Y-86240000D03*
%TD*%
M02*
