%TF.GenerationSoftware,KiCad,Pcbnew,10.0.0*%
%TF.CreationDate,2026-05-11T13:12:19-03:00*%
%TF.ProjectId,Dise_o_v4,44697365-f16f-45f7-9634-2e6b69636164,rev?*%
%TF.SameCoordinates,Original*%
%TF.FileFunction,Copper,L2,Bot*%
%TF.FilePolarity,Positive*%
%FSLAX46Y46*%
G04 Gerber Fmt 4.6, Leading zero omitted, Abs format (unit mm)*
G04 Created by KiCad (PCBNEW 10.0.0) date 2026-05-11 13:12:19*
%MOMM*%
%LPD*%
G01*
G04 APERTURE LIST*
G04 Aperture macros list*
%AMRoundRect*
0 Rectangle with rounded corners*
0 $1 Rounding radius*
0 $2 $3 $4 $5 $6 $7 $8 $9 X,Y pos of 4 corners*
0 Add a 4 corners polygon primitive as box body*
4,1,4,$2,$3,$4,$5,$6,$7,$8,$9,$2,$3,0*
0 Add four circle primitives for the rounded corners*
1,1,$1+$1,$2,$3*
1,1,$1+$1,$4,$5*
1,1,$1+$1,$6,$7*
1,1,$1+$1,$8,$9*
0 Add four rect primitives between the rounded corners*
20,1,$1+$1,$2,$3,$4,$5,0*
20,1,$1+$1,$4,$5,$6,$7,0*
20,1,$1+$1,$6,$7,$8,$9,0*
20,1,$1+$1,$8,$9,$2,$3,0*%
G04 Aperture macros list end*
%TA.AperFunction,EtchedComponent*%
%ADD10C,0.000000*%
%TD*%
%TA.AperFunction,ComponentPad*%
%ADD11RoundRect,0.250001X-1.149999X-1.149999X1.149999X-1.149999X1.149999X1.149999X-1.149999X1.149999X0*%
%TD*%
%TA.AperFunction,ComponentPad*%
%ADD12C,2.800000*%
%TD*%
%TA.AperFunction,ComponentPad*%
%ADD13R,1.700000X1.700000*%
%TD*%
%TA.AperFunction,ComponentPad*%
%ADD14C,1.600000*%
%TD*%
%TA.AperFunction,ComponentPad*%
%ADD15R,1.500000X1.500000*%
%TD*%
%TA.AperFunction,ComponentPad*%
%ADD16C,1.500000*%
%TD*%
%TA.AperFunction,ComponentPad*%
%ADD17RoundRect,0.250000X0.550000X-0.950000X0.550000X0.950000X-0.550000X0.950000X-0.550000X-0.950000X0*%
%TD*%
%TA.AperFunction,ComponentPad*%
%ADD18O,1.600000X2.400000*%
%TD*%
%TA.AperFunction,ComponentPad*%
%ADD19C,1.400000*%
%TD*%
%TA.AperFunction,ComponentPad*%
%ADD20C,2.400000*%
%TD*%
%TA.AperFunction,ComponentPad*%
%ADD21R,1.905000X2.000000*%
%TD*%
%TA.AperFunction,ComponentPad*%
%ADD22O,1.905000X2.000000*%
%TD*%
%TA.AperFunction,Conductor*%
%ADD23C,1.000000*%
%TD*%
%TA.AperFunction,Conductor*%
%ADD24C,2.540000*%
%TD*%
%TA.AperFunction,Conductor*%
%ADD25C,2.200000*%
%TD*%
G04 APERTURE END LIST*
D10*
%TA.AperFunction,EtchedComponent*%
%TO.C,G\u002A\u002A\u002A*%
G36*
X85406737Y-98149406D02*
G01*
X85348066Y-98322247D01*
X85272023Y-98485885D01*
X85023312Y-98848307D01*
X84783764Y-99024464D01*
X84575726Y-99107587D01*
X84414526Y-99105237D01*
X84216468Y-99024923D01*
X83929280Y-98796464D01*
X83728208Y-98486344D01*
X83628802Y-98264091D01*
X83588505Y-98117350D01*
X83603088Y-98082333D01*
X83709097Y-98130229D01*
X83900132Y-98253981D01*
X84070914Y-98378666D01*
X84287110Y-98538718D01*
X84444933Y-98646316D01*
X84500000Y-98675000D01*
X84583985Y-98627740D01*
X84758990Y-98505483D01*
X84929085Y-98378666D01*
X85152918Y-98217632D01*
X85327158Y-98110009D01*
X85396911Y-98082333D01*
X85406737Y-98149406D01*
G37*
%TD.AperFunction*%
%TA.AperFunction,EtchedComponent*%
G36*
X88007877Y-90671841D02*
G01*
X88530781Y-90849605D01*
X88995220Y-91013732D01*
X89378555Y-91155707D01*
X89658150Y-91267015D01*
X89811368Y-91339140D01*
X89833594Y-91358631D01*
X89825071Y-91463637D01*
X89801600Y-91709413D01*
X89765929Y-92068321D01*
X89720806Y-92512723D01*
X89668978Y-93014985D01*
X89667671Y-93027552D01*
X89502155Y-94619104D01*
X89205084Y-94593885D01*
X88908012Y-94568666D01*
X88651339Y-93494176D01*
X88552525Y-93090607D01*
X88464602Y-92750135D01*
X88396184Y-92504819D01*
X88355887Y-92386719D01*
X88352333Y-92381488D01*
X88255180Y-92362905D01*
X88026204Y-92342858D01*
X87702863Y-92324133D01*
X87431043Y-92312979D01*
X86552086Y-92282666D01*
X85983431Y-93722000D01*
X85804015Y-94180480D01*
X85650286Y-94581705D01*
X85531642Y-94900440D01*
X85457483Y-95111451D01*
X85436875Y-95189265D01*
X85513770Y-95168673D01*
X85666847Y-95083357D01*
X85837103Y-94970570D01*
X85965539Y-94867568D01*
X85990390Y-94839758D01*
X86030893Y-94725371D01*
X86088011Y-94494183D01*
X86107902Y-94397614D01*
X86527179Y-94397614D01*
X86531562Y-94513891D01*
X86544531Y-94526333D01*
X86632686Y-94480470D01*
X86820877Y-94358893D01*
X87072293Y-94185617D01*
X87135141Y-94141012D01*
X87393412Y-93935758D01*
X87620344Y-93718556D01*
X87793842Y-93516572D01*
X87891812Y-93356973D01*
X87892161Y-93266925D01*
X87854641Y-93256333D01*
X87748838Y-93295577D01*
X87544152Y-93396318D01*
X87286983Y-93533065D01*
X87023730Y-93680330D01*
X86800793Y-93812623D01*
X86664573Y-93904455D01*
X86649029Y-93918621D01*
X86597635Y-94031807D01*
X86553111Y-94214196D01*
X86527179Y-94397614D01*
X86107902Y-94397614D01*
X86149384Y-94196226D01*
X86149427Y-94195998D01*
X86257408Y-93623724D01*
X87112495Y-93153755D01*
X87459696Y-92970751D01*
X87757798Y-92828155D01*
X87973263Y-92741071D01*
X88069375Y-92722848D01*
X88165792Y-92823775D01*
X88259063Y-93014205D01*
X88262351Y-93023481D01*
X88306415Y-93220262D01*
X88276343Y-93414672D01*
X88173790Y-93656357D01*
X88033560Y-93884378D01*
X87822503Y-94118142D01*
X87518729Y-94376994D01*
X87100349Y-94680274D01*
X86748908Y-94915413D01*
X86533075Y-95072822D01*
X86386261Y-95234376D01*
X86305426Y-95427582D01*
X86287531Y-95679944D01*
X86329536Y-96018967D01*
X86428402Y-96472154D01*
X86531828Y-96879760D01*
X86644577Y-97309903D01*
X86744798Y-97689404D01*
X86823405Y-97984062D01*
X86871311Y-98159677D01*
X86878526Y-98184659D01*
X86874760Y-98241057D01*
X86830986Y-98331143D01*
X86737661Y-98466048D01*
X86585241Y-98656905D01*
X86364183Y-98914843D01*
X86064943Y-99250996D01*
X85677979Y-99676494D01*
X85193748Y-100202468D01*
X84602705Y-100840051D01*
X84593495Y-100849964D01*
X84530792Y-100853224D01*
X84409821Y-100775895D01*
X84219485Y-100607660D01*
X83948689Y-100338197D01*
X83586334Y-99957189D01*
X83289688Y-99637496D01*
X82827404Y-99127981D01*
X82483888Y-98730992D01*
X82255525Y-98442023D01*
X82138702Y-98256569D01*
X82122255Y-98182197D01*
X82129478Y-98156131D01*
X82609760Y-98156131D01*
X82610085Y-98158136D01*
X82675190Y-98273483D01*
X82837269Y-98485842D01*
X83075753Y-98770331D01*
X83370076Y-99102071D01*
X83566644Y-99315292D01*
X84495955Y-100309041D01*
X85448428Y-99301520D01*
X85822271Y-98895121D01*
X86113508Y-98555716D01*
X86309819Y-98298603D01*
X86398884Y-98139082D01*
X86402950Y-98116134D01*
X86377911Y-97903458D01*
X86324473Y-97692800D01*
X86251234Y-97453673D01*
X86166624Y-97156132D01*
X86142297Y-97066333D01*
X86040649Y-96685333D01*
X85947658Y-97108666D01*
X85897995Y-97312064D01*
X85834431Y-97455368D01*
X85723961Y-97571811D01*
X85533583Y-97694626D01*
X85230292Y-97857047D01*
X85176741Y-97884943D01*
X84498816Y-98237887D01*
X83822074Y-97884943D01*
X83500630Y-97714163D01*
X83296669Y-97587660D01*
X83177164Y-97472125D01*
X83109086Y-97334248D01*
X83059406Y-97140720D01*
X83052341Y-97108666D01*
X82959350Y-96685333D01*
X82857079Y-97066333D01*
X82772852Y-97369523D01*
X82688879Y-97655981D01*
X82668822Y-97721030D01*
X82616336Y-97960577D01*
X82609760Y-98156131D01*
X82129478Y-98156131D01*
X82158461Y-98051531D01*
X82228226Y-97791093D01*
X82322491Y-97434995D01*
X82432195Y-97017348D01*
X82468171Y-96879760D01*
X82605687Y-96328476D01*
X82688507Y-95910950D01*
X82713591Y-95599676D01*
X82703045Y-95530968D01*
X83140702Y-95530968D01*
X83141070Y-95558497D01*
X83176364Y-95697420D01*
X83230080Y-95943044D01*
X83276528Y-96171544D01*
X83334942Y-96437190D01*
X83388731Y-96556168D01*
X83455297Y-96525408D01*
X83552042Y-96341838D01*
X83653631Y-96105011D01*
X83771622Y-95822619D01*
X83438048Y-95635139D01*
X83230481Y-95534864D01*
X83140702Y-95530968D01*
X82703045Y-95530968D01*
X82677901Y-95367150D01*
X82578397Y-95185867D01*
X82412039Y-95028323D01*
X82251091Y-94915413D01*
X81744619Y-94571994D01*
X81367274Y-94285834D01*
X81097164Y-94037590D01*
X80912401Y-93807919D01*
X80826209Y-93656357D01*
X80718469Y-93398091D01*
X80712964Y-93354049D01*
X81127825Y-93354049D01*
X81178201Y-93483646D01*
X81279508Y-93616129D01*
X81472923Y-93806507D01*
X81719679Y-94022904D01*
X81981015Y-94233449D01*
X82218165Y-94406265D01*
X82392365Y-94509479D01*
X82444716Y-94525055D01*
X82472569Y-94453647D01*
X82459316Y-94277434D01*
X82454687Y-94251166D01*
X82420987Y-94086530D01*
X82373271Y-93970457D01*
X82279797Y-93871248D01*
X82108822Y-93757204D01*
X81828607Y-93596628D01*
X81761366Y-93558787D01*
X81433716Y-93379794D01*
X81231343Y-93287608D01*
X81135597Y-93279828D01*
X81127825Y-93354049D01*
X80712964Y-93354049D01*
X80694476Y-93206143D01*
X80737648Y-93023481D01*
X80829691Y-92830811D01*
X80926967Y-92724392D01*
X80930624Y-92722848D01*
X81041356Y-92746062D01*
X81265346Y-92838577D01*
X81569054Y-92985291D01*
X81887504Y-93153755D01*
X82742591Y-93623724D01*
X82850572Y-94195998D01*
X82911944Y-94493985D01*
X82969069Y-94725240D01*
X83009589Y-94839729D01*
X83009609Y-94839758D01*
X83108129Y-94929929D01*
X83269975Y-95043465D01*
X83436147Y-95143109D01*
X83547644Y-95191608D01*
X83563124Y-95189265D01*
X83540581Y-95105575D01*
X83464519Y-94889910D01*
X83344337Y-94567501D01*
X83189435Y-94163582D01*
X83049987Y-93807368D01*
X83529148Y-93807368D01*
X83557430Y-93915724D01*
X83636467Y-94146973D01*
X83754039Y-94466822D01*
X83893398Y-94829440D01*
X84260464Y-95766144D01*
X83935732Y-96515847D01*
X83796774Y-96839110D01*
X83687511Y-97097967D01*
X83622584Y-97257470D01*
X83611000Y-97290918D01*
X83678513Y-97341367D01*
X83848016Y-97437815D01*
X83928500Y-97480195D01*
X84130166Y-97576508D01*
X84229675Y-97591442D01*
X84271469Y-97528365D01*
X84276830Y-97506606D01*
X84266919Y-97374767D01*
X84234497Y-97343345D01*
X84034243Y-97240162D01*
X83985753Y-97109154D01*
X84029146Y-96991357D01*
X84127848Y-96866567D01*
X84256703Y-96881641D01*
X84302598Y-96904634D01*
X84523835Y-96954430D01*
X84678429Y-96908261D01*
X84840245Y-96863013D01*
X84940911Y-96940242D01*
X84972794Y-96994984D01*
X85001215Y-97178733D01*
X84888317Y-97297368D01*
X84775166Y-97319036D01*
X84723672Y-97391352D01*
X84711666Y-97491387D01*
X84711666Y-97662441D01*
X85050333Y-97489666D01*
X85253162Y-97381043D01*
X85374110Y-97306330D01*
X85389000Y-97291220D01*
X85357571Y-97207677D01*
X85273049Y-97003905D01*
X85150077Y-96714870D01*
X85064267Y-96515847D01*
X84763997Y-95822619D01*
X85228377Y-95822619D01*
X85358710Y-96126976D01*
X85455014Y-96352887D01*
X85525897Y-96520926D01*
X85534148Y-96540818D01*
X85574653Y-96613045D01*
X85612505Y-96596269D01*
X85657321Y-96468265D01*
X85718718Y-96206807D01*
X85757472Y-96024651D01*
X85876136Y-95458558D01*
X85552256Y-95640588D01*
X85228377Y-95822619D01*
X84763997Y-95822619D01*
X84739535Y-95766144D01*
X85106601Y-94829440D01*
X85249943Y-94457872D01*
X85367078Y-94143237D01*
X85445736Y-93919265D01*
X85473666Y-93820380D01*
X85421217Y-93727984D01*
X85281229Y-93543542D01*
X85079741Y-93300605D01*
X84989499Y-93196549D01*
X84505331Y-92645075D01*
X84018647Y-93183537D01*
X83797241Y-93437535D01*
X83627812Y-93649082D01*
X83537267Y-93783888D01*
X83529148Y-93807368D01*
X83049987Y-93807368D01*
X83016568Y-93722000D01*
X82447913Y-92282666D01*
X81568956Y-92312979D01*
X81200665Y-92329007D01*
X80899614Y-92348374D01*
X80703261Y-92368295D01*
X80647666Y-92381488D01*
X80613249Y-92473710D01*
X80549185Y-92698826D01*
X80464089Y-93024778D01*
X80366576Y-93419506D01*
X80348660Y-93494176D01*
X80091987Y-94568666D01*
X79794915Y-94593885D01*
X79497844Y-94619104D01*
X79332328Y-93027552D01*
X79280372Y-92524239D01*
X79235055Y-92078120D01*
X79205520Y-91781138D01*
X79631666Y-91781138D01*
X79640856Y-91969753D01*
X79665236Y-92249434D01*
X79700024Y-92580703D01*
X79740434Y-92924079D01*
X79781683Y-93240085D01*
X79818989Y-93489240D01*
X79847566Y-93632067D01*
X79858201Y-93650687D01*
X79890766Y-93559547D01*
X79952057Y-93340469D01*
X80032071Y-93030358D01*
X80089014Y-92798985D01*
X80175728Y-92449857D01*
X80250077Y-92168075D01*
X80302092Y-91990478D01*
X80319153Y-91948411D01*
X80410833Y-91935272D01*
X80640400Y-91921011D01*
X80976427Y-91907095D01*
X81387488Y-91894994D01*
X81534468Y-91891644D01*
X82717602Y-91866604D01*
X83012395Y-92611780D01*
X83307188Y-93356957D01*
X83752400Y-92862145D01*
X83957846Y-92615027D01*
X84102032Y-92404989D01*
X84159616Y-92270041D01*
X84158003Y-92253784D01*
X84841996Y-92253784D01*
X84876372Y-92366373D01*
X85003107Y-92562688D01*
X85196860Y-92804719D01*
X85247599Y-92862145D01*
X85692811Y-93356957D01*
X85987604Y-92611780D01*
X86282397Y-91866604D01*
X87465531Y-91891644D01*
X87894030Y-91902531D01*
X88257445Y-91915215D01*
X88524498Y-91928338D01*
X88663911Y-91940545D01*
X88676600Y-91944165D01*
X88708860Y-92033690D01*
X88768677Y-92245353D01*
X88844147Y-92536621D01*
X88858130Y-92592822D01*
X88971700Y-93053536D01*
X89050733Y-93367457D01*
X89103149Y-93551717D01*
X89136871Y-93623447D01*
X89159819Y-93599779D01*
X89179916Y-93497844D01*
X89204079Y-93341000D01*
X89241766Y-93066380D01*
X89284068Y-92698083D01*
X89322415Y-92311251D01*
X89325730Y-92274122D01*
X89386258Y-91588244D01*
X87888785Y-91067622D01*
X87414762Y-90904197D01*
X86996401Y-90762579D01*
X86659656Y-90651340D01*
X86430486Y-90579053D01*
X86334846Y-90554292D01*
X86334656Y-90554312D01*
X86255965Y-90618201D01*
X86095021Y-90782656D01*
X85877847Y-91018051D01*
X85630463Y-91294759D01*
X85378892Y-91583154D01*
X85149154Y-91853607D01*
X84967272Y-92076492D01*
X84859268Y-92222182D01*
X84841996Y-92253784D01*
X84158003Y-92253784D01*
X84089901Y-92150541D01*
X83936697Y-91957323D01*
X83724412Y-91703756D01*
X83479068Y-91419468D01*
X83226686Y-91134085D01*
X82993289Y-90877234D01*
X82804897Y-90678543D01*
X82687533Y-90567639D01*
X82665343Y-90554312D01*
X82571097Y-90578556D01*
X82343153Y-90650388D01*
X82007553Y-90761208D01*
X81590339Y-90902417D01*
X81120177Y-91064506D01*
X80595376Y-91248560D01*
X80209995Y-91389231D01*
X79942822Y-91496729D01*
X79772649Y-91581266D01*
X79678267Y-91653054D01*
X79638465Y-91722302D01*
X79631666Y-91781138D01*
X79205520Y-91781138D01*
X79199125Y-91716831D01*
X79175328Y-91468009D01*
X79166413Y-91359291D01*
X79166405Y-91358631D01*
X79243049Y-91310860D01*
X79458131Y-91219368D01*
X79789013Y-91092672D01*
X80213059Y-90939287D01*
X80707631Y-90767728D01*
X80992122Y-90671841D01*
X82818244Y-90062418D01*
X83616788Y-90976433D01*
X83907604Y-91302876D01*
X84163219Y-91577797D01*
X84361515Y-91778305D01*
X84480368Y-91881507D01*
X84500000Y-91890448D01*
X84583180Y-91829851D01*
X84754138Y-91663321D01*
X84990753Y-91413751D01*
X85270902Y-91104034D01*
X85383211Y-90976433D01*
X86181755Y-90062418D01*
X88007877Y-90671841D01*
G37*
%TD.AperFunction*%
%TD*%
D11*
%TO.P,J1,1,Pin_1_1*%
%TO.N,GND*%
X84750000Y-41467500D03*
D12*
%TO.P,J1,2,Pin_2_2*%
%TO.N,/Vreg*%
X89750000Y-41467500D03*
%TD*%
D13*
%TO.P,TP_GND5,1,1_1*%
%TO.N,GND*%
X86500000Y-85500000D03*
%TD*%
%TO.P,Gen_In1,1,1_1*%
%TO.N,/Vref*%
X91500000Y-74500000D03*
%TD*%
D14*
%TO.P,C_COMP1,1*%
%TO.N,Net-(C_COMP1-Pad1)*%
X123500000Y-54145000D03*
%TO.P,C_COMP1,2*%
%TO.N,Net-(J_LC1-B)*%
X123500000Y-56645000D03*
%TD*%
D15*
%TO.P,Q3,1,C_1*%
%TO.N,Net-(Q1-C)*%
X99016307Y-56205651D03*
D16*
%TO.P,Q3,2,B_2*%
X99016307Y-53665651D03*
%TO.P,Q3,3,E_3*%
%TO.N,Net-(Q3-E)*%
X99016307Y-51125651D03*
%TD*%
D17*
%TO.P,U2,1*%
%TO.N,Net-(R_LC3-Pad1)*%
X165380000Y-73000000D03*
D18*
%TO.P,U2,2,-_2*%
%TO.N,Net-(U2A--)*%
X167920000Y-73000000D03*
%TO.P,U2,3,+_3*%
%TO.N,Net-(U2A-+)*%
X170460000Y-73000000D03*
%TO.P,U2,4,V-_4*%
%TO.N,GND*%
X173000000Y-73000000D03*
%TO.P,U2,5,+_5*%
%TO.N,Net-(U2B-+)*%
X173000000Y-65380000D03*
%TO.P,U2,6,-_6*%
%TO.N,Net-(U2B--)*%
X170460000Y-65380000D03*
%TO.P,U2,7*%
X167920000Y-65380000D03*
%TO.P,U2,8,V+_8*%
%TO.N,/Vreg*%
X165380000Y-65380000D03*
%TD*%
D14*
%TO.P,Rf1,1*%
%TO.N,Net-(U2A--)*%
X167925000Y-76420000D03*
%TO.P,Rf1,2*%
%TO.N,Net-(R_LC3-Pad1)*%
X165385000Y-76420000D03*
%TD*%
D19*
%TO.P,J_LC1,1,A_1*%
%TO.N,Net-(J_LC1-A)*%
X125000000Y-69750000D03*
%TO.P,J_LC1,2,B_2*%
%TO.N,Net-(J_LC1-B)*%
X125000000Y-67210000D03*
%TD*%
D14*
%TO.P,R_COMP1,1*%
%TO.N,GND*%
X123500000Y-43000000D03*
%TO.P,R_COMP1,2*%
%TO.N,Net-(C_COMP1-Pad1)*%
X123500000Y-50620000D03*
%TD*%
D15*
%TO.P,Q4,1,C_1*%
%TO.N,Net-(J_QD1-A)*%
X111564554Y-56242903D03*
D16*
%TO.P,Q4,2,B_2*%
%TO.N,Net-(Q1-C)*%
X111564554Y-53702903D03*
%TO.P,Q4,3,E_3*%
%TO.N,Net-(Q4-E)*%
X111564554Y-51162903D03*
%TD*%
D13*
%TO.P,TP_Vo1,1,1_1*%
%TO.N,/Vo*%
X132500000Y-95500000D03*
%TD*%
D15*
%TO.P,Q9,1,C_1*%
%TO.N,Net-(J_LC1-A)*%
X125140000Y-74000000D03*
D16*
%TO.P,Q9,2,B_2*%
%TO.N,/Vf*%
X125140000Y-76540000D03*
%TO.P,Q9,3,E_3*%
%TO.N,GND*%
X125140000Y-79080000D03*
%TD*%
D14*
%TO.P,C_Op2,1*%
%TO.N,GND*%
X165500000Y-56250000D03*
%TO.P,C_Op2,2*%
%TO.N,/Vreg*%
X165500000Y-58750000D03*
%TD*%
D19*
%TO.P,J_QD1,1,A_1*%
%TO.N,Net-(J_QD1-A)*%
X116250000Y-60500000D03*
%TO.P,J_QD1,2,B_2*%
%TO.N,Net-(J_LC1-B)*%
X118790000Y-60500000D03*
%TD*%
D14*
%TO.P,Rref1,1*%
%TO.N,/Vref*%
X160380000Y-94500000D03*
%TO.P,Rref1,2*%
%TO.N,Net-(U2A--)*%
X168000000Y-94500000D03*
%TD*%
D13*
%TO.P,TP_Vx1,1,1_1*%
%TO.N,/Vx*%
X141000000Y-63000000D03*
%TD*%
D14*
%TO.P,R2,1*%
%TO.N,/Vreg*%
X86880000Y-79500000D03*
%TO.P,R2,2*%
%TO.N,Net-(Q7-B)*%
X94500000Y-79500000D03*
%TD*%
D15*
%TO.P,Q7,1,C_1*%
%TO.N,Net-(J_FC1-B)*%
X111521549Y-77000000D03*
D16*
%TO.P,Q7,2,B_2*%
%TO.N,Net-(Q7-B)*%
X111521549Y-79540000D03*
%TO.P,Q7,3,E_3*%
%TO.N,Net-(Q7-E)*%
X111521549Y-82080000D03*
%TD*%
D14*
%TO.P,RE4,1*%
%TO.N,Net-(Q7-E)*%
X111381549Y-85500000D03*
%TO.P,RE4,2*%
%TO.N,GND*%
X111381549Y-93120000D03*
%TD*%
%TO.P,Rx1,1*%
%TO.N,/Vx*%
X152190000Y-63500000D03*
%TO.P,Rx1,2*%
%TO.N,Net-(U2A-+)*%
X159810000Y-63500000D03*
%TD*%
D19*
%TO.P,J_LC2,1,A_1*%
%TO.N,/Vf*%
X153250000Y-76675000D03*
%TO.P,J_LC2,2,B_2*%
%TO.N,Net-(J_LC2-B)*%
X155790000Y-76675000D03*
%TD*%
D11*
%TO.P,J2,1,Pin_1_1*%
%TO.N,GND*%
X140500000Y-96000000D03*
D12*
%TO.P,J2,2,Pin_2_2*%
%TO.N,/Vo*%
X145500000Y-96000000D03*
%TD*%
D19*
%TO.P,J_FC1,1,A_1*%
%TO.N,Net-(J_FC1-A)*%
X104452279Y-70585651D03*
%TO.P,J_FC1,2,B_2*%
%TO.N,Net-(J_FC1-B)*%
X104452279Y-73125651D03*
%TD*%
D14*
%TO.P,Ro1,1*%
%TO.N,/Vo*%
X160380000Y-90000000D03*
%TO.P,Ro1,2*%
%TO.N,Net-(U2A--)*%
X168000000Y-90000000D03*
%TD*%
D19*
%TO.P,J_Vref1,1,A_1*%
%TO.N,Net-(J_Vref1-A)*%
X91250000Y-65484557D03*
%TO.P,J_Vref1,2,B_2*%
%TO.N,/Vref*%
X93790000Y-65484557D03*
%TD*%
D14*
%TO.P,R_LC2,1*%
%TO.N,Net-(J_LC2-B)*%
X158310000Y-84500000D03*
%TO.P,R_LC2,2*%
%TO.N,GND*%
X150690000Y-84500000D03*
%TD*%
D15*
%TO.P,Q1,1,C_1*%
%TO.N,Net-(Q1-C)*%
X99000000Y-62920000D03*
D16*
%TO.P,Q1,2,B_2*%
%TO.N,/Vref*%
X99000000Y-65460000D03*
%TO.P,Q1,3,E_3*%
%TO.N,Net-(J_FC1-A)*%
X99000000Y-68000000D03*
%TD*%
D14*
%TO.P,R3,1*%
%TO.N,Net-(J_LT1-B)*%
X124015320Y-82690000D03*
%TO.P,R3,2*%
%TO.N,/Vo*%
X124015320Y-90310000D03*
%TD*%
%TO.P,R_LC3,1*%
%TO.N,Net-(R_LC3-Pad1)*%
X161500000Y-76690000D03*
%TO.P,R_LC3,2*%
%TO.N,Net-(J_LC2-B)*%
X161500000Y-84310000D03*
%TD*%
%TO.P,R4,1*%
%TO.N,Net-(J_LT1-B)*%
X117950654Y-83005334D03*
%TO.P,R4,2*%
%TO.N,GND*%
X117950654Y-90625334D03*
%TD*%
%TO.P,R5,1*%
%TO.N,Net-(U2B-+)*%
X166310000Y-44500000D03*
%TO.P,R5,2*%
%TO.N,/Vreg*%
X158690000Y-44500000D03*
%TD*%
D20*
%TO.P,RS2,1*%
%TO.N,/Vx*%
X145500000Y-71000000D03*
%TO.P,RS2,2*%
%TO.N,/Vo*%
X145500000Y-86240000D03*
%TD*%
D13*
%TO.P,TP_GND4,1,1_1*%
%TO.N,GND*%
X118000000Y-95500000D03*
%TD*%
D15*
%TO.P,U1,1,REF_1*%
%TO.N,Net-(J_Vref1-A)*%
X84500000Y-62920000D03*
D16*
%TO.P,U1,2,A_2*%
%TO.N,GND*%
X84500000Y-65460000D03*
%TO.P,U1,3,K_3*%
%TO.N,Net-(J_Vref1-A)*%
X84500000Y-68000000D03*
%TD*%
D21*
%TO.P,Q6,1,B_1*%
%TO.N,Net-(Q5-C)*%
X138420000Y-49500000D03*
D22*
%TO.P,Q6,2,C_2*%
%TO.N,/Vx*%
X140960000Y-49500000D03*
%TO.P,Q6,3,E_3*%
%TO.N,/Vreg*%
X143500000Y-49500000D03*
%TD*%
D13*
%TO.P,Gen_In2,1,1_1*%
%TO.N,Net-(J_Vref1-A)*%
X84500000Y-75000000D03*
%TD*%
D14*
%TO.P,RE3,1*%
%TO.N,Net-(Q8-E)*%
X98881549Y-85500000D03*
%TO.P,RE3,2*%
%TO.N,GND*%
X98881549Y-93120000D03*
%TD*%
%TO.P,RE2,1*%
%TO.N,/Vreg*%
X111452279Y-40505651D03*
%TO.P,RE2,2*%
%TO.N,Net-(Q4-E)*%
X111452279Y-48125651D03*
%TD*%
D19*
%TO.P,J_LT1,1,A_1*%
%TO.N,Net-(J_LT1-A)*%
X117963251Y-70749999D03*
%TO.P,J_LT1,2,B_2*%
%TO.N,Net-(J_LT1-B)*%
X117963251Y-73289999D03*
%TD*%
D14*
%TO.P,RE1,1*%
%TO.N,/Vreg*%
X98952279Y-40505651D03*
%TO.P,RE1,2*%
%TO.N,Net-(Q3-E)*%
X98952279Y-48125651D03*
%TD*%
%TO.P,R1,1*%
%TO.N,/Vreg*%
X84500000Y-50000000D03*
%TO.P,R1,2*%
%TO.N,Net-(J_Vref1-A)*%
X84500000Y-57620000D03*
%TD*%
D15*
%TO.P,Q2,1,C_1*%
%TO.N,Net-(J_QD1-A)*%
X111395069Y-62905656D03*
D16*
%TO.P,Q2,2,B_2*%
%TO.N,Net-(J_LT1-A)*%
X111395069Y-65445656D03*
%TO.P,Q2,3,E_3*%
%TO.N,Net-(J_FC1-A)*%
X111395069Y-67985656D03*
%TD*%
D15*
%TO.P,Q5,1,C_1*%
%TO.N,Net-(Q5-C)*%
X128640000Y-57960000D03*
D16*
%TO.P,Q5,2,B_2*%
%TO.N,Net-(J_LC1-B)*%
X128640000Y-60500000D03*
%TO.P,Q5,3,E_3*%
%TO.N,/Vx*%
X128640000Y-63040000D03*
%TD*%
D14*
%TO.P,R6,1*%
%TO.N,GND*%
X158559384Y-49000000D03*
%TO.P,R6,2*%
%TO.N,Net-(U2B-+)*%
X166179384Y-49000000D03*
%TD*%
D15*
%TO.P,Q8,1,C_1*%
%TO.N,Net-(Q7-B)*%
X98881549Y-77000000D03*
D16*
%TO.P,Q8,2,B_2*%
X98881549Y-79540000D03*
%TO.P,Q8,3,E_3*%
%TO.N,Net-(Q8-E)*%
X98881549Y-82080000D03*
%TD*%
D14*
%TO.P,Rx2,1*%
%TO.N,GND*%
X152322728Y-69250000D03*
%TO.P,Rx2,2*%
%TO.N,Net-(U2A-+)*%
X159942728Y-69250000D03*
%TD*%
D20*
%TO.P,RS1,1*%
%TO.N,/Vx*%
X136500000Y-71000000D03*
%TO.P,RS1,2*%
%TO.N,/Vo*%
X136500000Y-86240000D03*
%TD*%
%TO.N,/Vreg*%
D23*
X89750000Y-49250000D02*
X89750000Y-41467500D01*
X98952279Y-37547721D02*
X99000000Y-37500000D01*
X154000000Y-45000000D02*
X153500000Y-44500000D01*
X89000000Y-50000000D02*
X89750000Y-49250000D01*
D24*
X111500000Y-37500000D02*
X143500000Y-37500000D01*
D23*
X154000000Y-58500000D02*
X154000000Y-45000000D01*
X158690000Y-44500000D02*
X153500000Y-44500000D01*
X111452279Y-37547721D02*
X111500000Y-37500000D01*
X165380000Y-58870000D02*
X165500000Y-58750000D01*
D24*
X93717500Y-37500000D02*
X99000000Y-37500000D01*
D23*
X81000000Y-79500000D02*
X81000000Y-50000000D01*
X153500000Y-44500000D02*
X152500000Y-44500000D01*
X98952279Y-40505651D02*
X98952279Y-37547721D01*
X165380000Y-65380000D02*
X165380000Y-58870000D01*
X152500000Y-44500000D02*
X144000000Y-44500000D01*
X86880000Y-79500000D02*
X81000000Y-79500000D01*
X154250000Y-58750000D02*
X154000000Y-58500000D01*
D24*
X143500000Y-44000000D02*
X143500000Y-45500000D01*
D23*
X144000000Y-44500000D02*
X143500000Y-44000000D01*
D24*
X143500000Y-37500000D02*
X143500000Y-44000000D01*
D23*
X81000000Y-50000000D02*
X84500000Y-50000000D01*
D25*
X143500000Y-49500000D02*
X143500000Y-45500000D01*
D23*
X111452279Y-40505651D02*
X111452279Y-37547721D01*
X165500000Y-58750000D02*
X154250000Y-58750000D01*
D24*
X89750000Y-41467500D02*
X93717500Y-37500000D01*
D23*
X84500000Y-50000000D02*
X89000000Y-50000000D01*
D24*
X99000000Y-37500000D02*
X111500000Y-37500000D01*
%TO.N,/Vref*%
D23*
X93790000Y-70710000D02*
X93790000Y-65484557D01*
X98975443Y-65484557D02*
X99000000Y-65460000D01*
X91500000Y-74500000D02*
X91500000Y-87500000D01*
X91500000Y-74500000D02*
X91500000Y-71500000D01*
X94500000Y-100000000D02*
X154880000Y-100000000D01*
X91500000Y-87500000D02*
X94500000Y-87500000D01*
X93790000Y-65484557D02*
X98975443Y-65484557D01*
X91500000Y-71500000D02*
X93000000Y-71500000D01*
X93000000Y-71500000D02*
X93790000Y-70710000D01*
X160380000Y-94500000D02*
X154880000Y-100000000D01*
X94500000Y-87500000D02*
X94500000Y-100000000D01*
%TO.N,Net-(C_COMP1-Pad1)*%
X123500000Y-50620000D02*
X123500000Y-54145000D01*
%TO.N,Net-(J_LC1-B)*%
X125000000Y-67210000D02*
X125000000Y-60500000D01*
X123500000Y-60500000D02*
X118790000Y-60500000D01*
X123500000Y-60500000D02*
X125000000Y-60500000D01*
X123500000Y-56645000D02*
X123500000Y-60500000D01*
X125000000Y-60500000D02*
X128640000Y-60500000D01*
%TO.N,Net-(Q1-C)*%
X99016307Y-53665651D02*
X99016307Y-56205651D01*
X99000000Y-62920000D02*
X99000000Y-56221958D01*
X99000000Y-56221958D02*
X99016307Y-56205651D01*
X99016307Y-53665651D02*
X111527302Y-53665651D01*
%TO.N,Net-(Q3-E)*%
X99016307Y-51125651D02*
X99016307Y-48189679D01*
%TO.N,Net-(R_LC3-Pad1)*%
X161770000Y-76420000D02*
X161500000Y-76690000D01*
X165385000Y-76420000D02*
X161770000Y-76420000D01*
X165385000Y-76420000D02*
X165385000Y-73005000D01*
%TO.N,Net-(U2A--)*%
X168000000Y-87500000D02*
X167925000Y-87425000D01*
X168000000Y-90000000D02*
X168000000Y-87500000D01*
X168000000Y-94500000D02*
X168000000Y-90000000D01*
X167925000Y-87425000D02*
X167925000Y-76420000D01*
X167925000Y-76420000D02*
X167925000Y-73005000D01*
%TO.N,Net-(U2A-+)*%
X170500000Y-69500000D02*
X170460000Y-69540000D01*
X159810000Y-69117272D02*
X159942728Y-69250000D01*
X159810000Y-63500000D02*
X159810000Y-69117272D01*
X159942728Y-69250000D02*
X170250000Y-69250000D01*
X170250000Y-69250000D02*
X170500000Y-69500000D01*
X170460000Y-69540000D02*
X170460000Y-73000000D01*
%TO.N,Net-(U2B-+)*%
X166310000Y-44500000D02*
X166310000Y-47824677D01*
X166179384Y-47955293D02*
X166179384Y-49000000D01*
X166179384Y-49000000D02*
X173000000Y-49000000D01*
X166310000Y-47824677D02*
X166179384Y-47955293D01*
X173000000Y-49000000D02*
X173000000Y-65380000D01*
%TO.N,Net-(U2B--)*%
X170460000Y-65380000D02*
X167920000Y-65380000D01*
%TO.N,Net-(J_LC1-A)*%
X125000000Y-73860000D02*
X125140000Y-74000000D01*
X125000000Y-69750000D02*
X125000000Y-73860000D01*
%TO.N,Net-(J_QD1-A)*%
X111564554Y-56242903D02*
X111564554Y-60500000D01*
X116250000Y-60500000D02*
X111564554Y-60500000D01*
X111564554Y-60500000D02*
X111564554Y-62736171D01*
%TO.N,Net-(Q4-E)*%
X111452279Y-48125651D02*
X111452279Y-51050628D01*
%TO.N,/Vo*%
D24*
X132500000Y-86500000D02*
X132500000Y-90500000D01*
D23*
X160380000Y-90000000D02*
X145500000Y-90000000D01*
D24*
X132500000Y-90500000D02*
X130500000Y-90500000D01*
X130500000Y-90500000D02*
X130310000Y-90310000D01*
X145500000Y-86240000D02*
X145500000Y-90000000D01*
X130310000Y-90310000D02*
X124015320Y-90310000D01*
X132500000Y-90500000D02*
X132500000Y-95500000D01*
X132760000Y-86240000D02*
X132500000Y-86500000D01*
X145500000Y-90000000D02*
X145500000Y-96000000D01*
X136500000Y-86240000D02*
X132760000Y-86240000D01*
X136500000Y-86240000D02*
X145500000Y-86240000D01*
%TO.N,/Vf*%
D23*
X125180000Y-76500000D02*
X125140000Y-76540000D01*
X125275000Y-76675000D02*
X125140000Y-76540000D01*
X153250000Y-76675000D02*
X125275000Y-76675000D01*
%TO.N,/Vx*%
D24*
X141000000Y-63000000D02*
X141000000Y-71000000D01*
X141000000Y-63000000D02*
X141000000Y-52000000D01*
D23*
X141000000Y-63000000D02*
X151690000Y-63000000D01*
D24*
X141000000Y-71000000D02*
X145500000Y-71000000D01*
D23*
X151690000Y-63000000D02*
X152190000Y-63500000D01*
X140960000Y-63040000D02*
X141000000Y-63000000D01*
X128640000Y-63040000D02*
X140960000Y-63040000D01*
D24*
X141000000Y-71000000D02*
X136500000Y-71000000D01*
D25*
X141000000Y-52000000D02*
X140960000Y-51960000D01*
X140960000Y-49500000D02*
X140960000Y-51960000D01*
%TO.N,Net-(Q7-B)*%
D23*
X98841549Y-79500000D02*
X98881549Y-79540000D01*
X111521549Y-79540000D02*
X98881549Y-79540000D01*
X98881549Y-77000000D02*
X98881549Y-79540000D01*
X94500000Y-79500000D02*
X98841549Y-79500000D01*
%TO.N,Net-(J_FC1-B)*%
X104500000Y-77000000D02*
X111521549Y-77000000D01*
X104452279Y-76952279D02*
X104500000Y-77000000D01*
X104452279Y-73125651D02*
X104452279Y-76952279D01*
%TO.N,Net-(Q7-E)*%
X111521549Y-82080000D02*
X111521549Y-86407683D01*
%TO.N,Net-(J_LC2-B)*%
X158310000Y-79195000D02*
X155790000Y-76675000D01*
X158500000Y-84310000D02*
X158310000Y-84500000D01*
X158310000Y-84500000D02*
X158310000Y-79195000D01*
X161500000Y-84310000D02*
X158500000Y-84310000D01*
%TO.N,Net-(J_FC1-A)*%
X99585651Y-70585651D02*
X104452279Y-70585651D01*
X99000000Y-70000000D02*
X99585651Y-70585651D01*
X111395069Y-70104931D02*
X110914349Y-70585651D01*
X110914349Y-70585651D02*
X104452279Y-70585651D01*
X111395069Y-67985656D02*
X111395069Y-70104931D01*
X99000000Y-68000000D02*
X99000000Y-70000000D01*
%TO.N,Net-(J_Vref1-A)*%
X84500000Y-62920000D02*
X88920000Y-62920000D01*
X84500000Y-75000000D02*
X84500000Y-68000000D01*
X84500000Y-57620000D02*
X84500000Y-62920000D01*
X89000000Y-68000000D02*
X84500000Y-68000000D01*
X89000000Y-63000000D02*
X89000000Y-65500000D01*
X88920000Y-62920000D02*
X89000000Y-63000000D01*
X91250000Y-65484557D02*
X89015443Y-65484557D01*
X89000000Y-65500000D02*
X89000000Y-68000000D01*
X89015443Y-65484557D02*
X89000000Y-65500000D01*
%TO.N,Net-(J_LT1-B)*%
X117950654Y-83005334D02*
X117950654Y-73302596D01*
X124015320Y-82690000D02*
X118265988Y-82690000D01*
X117950654Y-73302596D02*
X117963251Y-73289999D01*
%TO.N,Net-(Q5-C)*%
X128640000Y-49640000D02*
X128500000Y-49500000D01*
X128640000Y-57960000D02*
X128640000Y-49640000D01*
X128500000Y-49500000D02*
X138420000Y-49500000D01*
%TO.N,Net-(Q8-E)*%
X98881549Y-82080000D02*
X98881549Y-85500000D01*
%TO.N,Net-(J_LT1-A)*%
X117963251Y-70749999D02*
X117963251Y-65963251D01*
X117445656Y-65445656D02*
X111395069Y-65445656D01*
X117963251Y-65963251D02*
X117445656Y-65445656D01*
%TD*%
%TA.AperFunction,Conductor*%
%TO.N,GND*%
G36*
X176942538Y-33520185D02*
G01*
X176988293Y-33572989D01*
X176999499Y-33624500D01*
X176999499Y-102375499D01*
X176979814Y-102442538D01*
X176927010Y-102488293D01*
X176875499Y-102499499D01*
X78124500Y-102499499D01*
X78057461Y-102479814D01*
X78011706Y-102427010D01*
X78000500Y-102375499D01*
X78000500Y-91364761D01*
X78660941Y-91364761D01*
X78660949Y-91365426D01*
X78662603Y-91400604D01*
X78671520Y-91509343D01*
X78672116Y-91516058D01*
X78695932Y-91765073D01*
X78696094Y-91766738D01*
X78696095Y-91766738D01*
X78696106Y-91766854D01*
X78701265Y-91818733D01*
X78702197Y-91828105D01*
X78732028Y-92128071D01*
X78732138Y-92129161D01*
X78762224Y-92425333D01*
X78777460Y-92575325D01*
X78777544Y-92576145D01*
X78828242Y-93067276D01*
X78829505Y-93079504D01*
X78829549Y-93079928D01*
X78976778Y-94495635D01*
X78995056Y-94671392D01*
X78999386Y-94697308D01*
X79005369Y-94733116D01*
X79057435Y-94867238D01*
X79077657Y-94893517D01*
X79145183Y-94981265D01*
X79261501Y-95065951D01*
X79261502Y-95065951D01*
X79261503Y-95065952D01*
X79327444Y-95089553D01*
X79396966Y-95114436D01*
X79540603Y-95122792D01*
X79837674Y-95097573D01*
X80134746Y-95072354D01*
X80162619Y-95068446D01*
X80189387Y-95064694D01*
X80189389Y-95064693D01*
X80189398Y-95064692D01*
X80325198Y-95017155D01*
X80442106Y-94933285D01*
X80530648Y-94819876D01*
X80583654Y-94686115D01*
X80619589Y-94535680D01*
X80654310Y-94475051D01*
X80716299Y-94442816D01*
X80785875Y-94449213D01*
X80824101Y-94473192D01*
X81025214Y-94658024D01*
X81061826Y-94688614D01*
X81223110Y-94810924D01*
X81439179Y-94974780D01*
X81460918Y-94990377D01*
X81525364Y-95034075D01*
X81963389Y-95331082D01*
X81964761Y-95332029D01*
X82083926Y-95415627D01*
X82097974Y-95427104D01*
X82158043Y-95483990D01*
X82193184Y-95544379D01*
X82195345Y-95555211D01*
X82202779Y-95603642D01*
X82203813Y-95632415D01*
X82187560Y-95834102D01*
X82185591Y-95848268D01*
X82112828Y-96215093D01*
X82111511Y-96220979D01*
X81978565Y-96753940D01*
X81978219Y-96755295D01*
X81943315Y-96888788D01*
X81943280Y-96888924D01*
X81833641Y-97306321D01*
X81833580Y-97306550D01*
X81739820Y-97660744D01*
X81739726Y-97661098D01*
X81670872Y-97918130D01*
X81670593Y-97919153D01*
X81642336Y-98021138D01*
X81642335Y-98021142D01*
X81635112Y-98047208D01*
X81623802Y-98113440D01*
X81617922Y-98147873D01*
X81628679Y-98291346D01*
X81628680Y-98291349D01*
X81645127Y-98365721D01*
X81652408Y-98394584D01*
X81710989Y-98525998D01*
X81710993Y-98526004D01*
X81827804Y-98711440D01*
X81827818Y-98711460D01*
X81858914Y-98755439D01*
X81858915Y-98755441D01*
X81879511Y-98781503D01*
X82087283Y-99044416D01*
X82101629Y-99061762D01*
X82445145Y-99458751D01*
X82451675Y-99466120D01*
X82453092Y-99467719D01*
X82915271Y-99977117D01*
X82919123Y-99981315D01*
X82971056Y-100037282D01*
X83215785Y-100301025D01*
X83219032Y-100304482D01*
X83220078Y-100305596D01*
X83582394Y-100686563D01*
X83592115Y-100696505D01*
X83592130Y-100696520D01*
X83862926Y-100965983D01*
X83884709Y-100986415D01*
X84075045Y-101154650D01*
X84137560Y-101201811D01*
X84182478Y-101230524D01*
X84258536Y-101279144D01*
X84279940Y-101292091D01*
X84279943Y-101292092D01*
X84279946Y-101292094D01*
X84413751Y-101344988D01*
X84557038Y-101358042D01*
X84619741Y-101354782D01*
X84719020Y-101339631D01*
X84719023Y-101339629D01*
X84719026Y-101339629D01*
X84851886Y-101284433D01*
X84851885Y-101284433D01*
X84851891Y-101284431D01*
X84963828Y-101194034D01*
X84973038Y-101184121D01*
X84973128Y-101184024D01*
X84973445Y-101183682D01*
X84973456Y-101183692D01*
X84973501Y-101183620D01*
X85564464Y-100546124D01*
X85565643Y-100544848D01*
X85565747Y-100544736D01*
X86050000Y-100018737D01*
X86051825Y-100016742D01*
X86051829Y-100016737D01*
X86051954Y-100016601D01*
X86438918Y-99591103D01*
X86442514Y-99587106D01*
X86741754Y-99250953D01*
X86748011Y-99243791D01*
X86969069Y-98985853D01*
X86980238Y-98972353D01*
X87132658Y-98781496D01*
X87153381Y-98753636D01*
X87246706Y-98618731D01*
X87285652Y-98552071D01*
X87329426Y-98461985D01*
X87349217Y-98415472D01*
X87379137Y-98274737D01*
X87382903Y-98218339D01*
X87384021Y-98186904D01*
X87364178Y-98044399D01*
X87358241Y-98023843D01*
X87357742Y-98022067D01*
X87339265Y-97954335D01*
X87311540Y-97852699D01*
X87311382Y-97852112D01*
X87233339Y-97559564D01*
X87133502Y-97181520D01*
X87021392Y-96753815D01*
X87021214Y-96753121D01*
X86920977Y-96358083D01*
X86920034Y-96354090D01*
X86829561Y-95939379D01*
X86827654Y-95928197D01*
X86824173Y-95900099D01*
X86796727Y-95678586D01*
X86796098Y-95654585D01*
X86802256Y-95567740D01*
X86826633Y-95502262D01*
X86834176Y-95493119D01*
X86864053Y-95460242D01*
X86882746Y-95443458D01*
X87036511Y-95331316D01*
X87040556Y-95328489D01*
X87381449Y-95100409D01*
X87397032Y-95089553D01*
X87815412Y-94786273D01*
X87846589Y-94761751D01*
X88150363Y-94502899D01*
X88174349Y-94479590D01*
X88236140Y-94446988D01*
X88305754Y-94452968D01*
X88361083Y-94495635D01*
X88381370Y-94539708D01*
X88416342Y-94686103D01*
X88416348Y-94686127D01*
X88432077Y-94739010D01*
X88432078Y-94739012D01*
X88479212Y-94828125D01*
X88499349Y-94866197D01*
X88599726Y-94969278D01*
X88725080Y-95039905D01*
X88865253Y-95072354D01*
X89162325Y-95097573D01*
X89459396Y-95122792D01*
X89521953Y-95124216D01*
X89663458Y-95098178D01*
X89791895Y-95033328D01*
X89896858Y-94934920D01*
X89969846Y-94810926D01*
X90004943Y-94671392D01*
X90170459Y-93079843D01*
X90171766Y-93067276D01*
X90171808Y-93066872D01*
X90223636Y-92564610D01*
X90223720Y-92563787D01*
X90268843Y-92119385D01*
X90268951Y-92118315D01*
X90268969Y-92118141D01*
X90304634Y-91759290D01*
X90304822Y-91757359D01*
X90328270Y-91511818D01*
X90328270Y-91511813D01*
X90328282Y-91511692D01*
X90328914Y-91504532D01*
X90337437Y-91399526D01*
X90339085Y-91361630D01*
X90319454Y-91219095D01*
X90260462Y-91087865D01*
X90166887Y-90978570D01*
X90166882Y-90978566D01*
X90166875Y-90978558D01*
X90144664Y-90959081D01*
X90144660Y-90959078D01*
X90026664Y-90881780D01*
X90026665Y-90881780D01*
X89873456Y-90809660D01*
X89873451Y-90809657D01*
X89873445Y-90809655D01*
X89857820Y-90802875D01*
X89845107Y-90797358D01*
X89565560Y-90686069D01*
X89554123Y-90681675D01*
X89170718Y-90539675D01*
X89163641Y-90537113D01*
X88699251Y-90373003D01*
X88693430Y-90370986D01*
X88170774Y-90193306D01*
X88167959Y-90192358D01*
X87243836Y-89883955D01*
X86341777Y-89582915D01*
X86341757Y-89582908D01*
X86341746Y-89582905D01*
X86326147Y-89577979D01*
X86183816Y-89556922D01*
X86183815Y-89556922D01*
X86041317Y-89576818D01*
X86041315Y-89576818D01*
X86041313Y-89576819D01*
X85910200Y-89636052D01*
X85910196Y-89636054D01*
X85801088Y-89729820D01*
X85801072Y-89729836D01*
X85240921Y-90370986D01*
X85004153Y-90641991D01*
X85003479Y-90642762D01*
X85003179Y-90643104D01*
X84894242Y-90766873D01*
X84893122Y-90768129D01*
X84620844Y-91069144D01*
X84618869Y-91071276D01*
X84590404Y-91101300D01*
X84529995Y-91136407D01*
X84460196Y-91133281D01*
X84409606Y-91100420D01*
X84282353Y-90963555D01*
X84280577Y-90961604D01*
X84278329Y-90959081D01*
X83996238Y-90642431D01*
X83995445Y-90641532D01*
X83198944Y-89729855D01*
X83197103Y-89727816D01*
X83187940Y-89717664D01*
X83075836Y-89627474D01*
X83075832Y-89627472D01*
X82942865Y-89572520D01*
X82942862Y-89572519D01*
X82799794Y-89557254D01*
X82658220Y-89582915D01*
X80832178Y-90192311D01*
X80832100Y-90192338D01*
X80830668Y-90192818D01*
X80830570Y-90192850D01*
X80546164Y-90288709D01*
X80542008Y-90290129D01*
X80047372Y-90461710D01*
X80041130Y-90463922D01*
X79617087Y-90617307D01*
X79608226Y-90620606D01*
X79277347Y-90747301D01*
X79260259Y-90754204D01*
X79045178Y-90845695D01*
X78975674Y-90881860D01*
X78899024Y-90929634D01*
X78899014Y-90929641D01*
X78830766Y-90980640D01*
X78830765Y-90980641D01*
X78737873Y-91090506D01*
X78737868Y-91090514D01*
X78679692Y-91222099D01*
X78679691Y-91222102D01*
X78660941Y-91364761D01*
X78000500Y-91364761D01*
X78000500Y-86408000D01*
X84650000Y-86408000D01*
X84660608Y-86527325D01*
X84660609Y-86527328D01*
X84716557Y-86722861D01*
X84810721Y-86903129D01*
X84939246Y-87060753D01*
X85096870Y-87189278D01*
X85277138Y-87283442D01*
X85472671Y-87339390D01*
X85472674Y-87339391D01*
X85591999Y-87349999D01*
X85592002Y-87350000D01*
X85750000Y-87350000D01*
X87250000Y-87350000D01*
X87407998Y-87350000D01*
X87408000Y-87349999D01*
X87527325Y-87339391D01*
X87527328Y-87339390D01*
X87722861Y-87283442D01*
X87903129Y-87189278D01*
X88060753Y-87060753D01*
X88189278Y-86903129D01*
X88283442Y-86722861D01*
X88339390Y-86527328D01*
X88339391Y-86527325D01*
X88349999Y-86408000D01*
X88350000Y-86407998D01*
X88350000Y-86250000D01*
X87250000Y-86250000D01*
X87250000Y-87350000D01*
X85750000Y-87350000D01*
X85750000Y-86250000D01*
X84650000Y-86250000D01*
X84650000Y-86408000D01*
X78000500Y-86408000D01*
X78000500Y-85434174D01*
X86000000Y-85434174D01*
X86000000Y-85565826D01*
X86034075Y-85692993D01*
X86099901Y-85807007D01*
X86192993Y-85900099D01*
X86307007Y-85965925D01*
X86434174Y-86000000D01*
X86565826Y-86000000D01*
X86692993Y-85965925D01*
X86807007Y-85900099D01*
X86900099Y-85807007D01*
X86965925Y-85692993D01*
X87000000Y-85565826D01*
X87000000Y-85434174D01*
X86965925Y-85307007D01*
X86900099Y-85192993D01*
X86807007Y-85099901D01*
X86692993Y-85034075D01*
X86565826Y-85000000D01*
X86434174Y-85000000D01*
X86307007Y-85034075D01*
X86192993Y-85099901D01*
X86099901Y-85192993D01*
X86034075Y-85307007D01*
X86000000Y-85434174D01*
X78000500Y-85434174D01*
X78000500Y-84591999D01*
X84650000Y-84591999D01*
X84650000Y-84750000D01*
X85750000Y-84750000D01*
X87250000Y-84750000D01*
X88350000Y-84750000D01*
X88350000Y-84592002D01*
X88349999Y-84591999D01*
X88339391Y-84472674D01*
X88339390Y-84472671D01*
X88283442Y-84277138D01*
X88189278Y-84096870D01*
X88060753Y-83939246D01*
X87903129Y-83810721D01*
X87722861Y-83716557D01*
X87527328Y-83660609D01*
X87527325Y-83660608D01*
X87408000Y-83650000D01*
X87250000Y-83650000D01*
X87250000Y-84750000D01*
X85750000Y-84750000D01*
X85750000Y-83650000D01*
X85591999Y-83650000D01*
X85472674Y-83660608D01*
X85472671Y-83660609D01*
X85277138Y-83716557D01*
X85096870Y-83810721D01*
X84939246Y-83939246D01*
X84810721Y-84096870D01*
X84716557Y-84277138D01*
X84660609Y-84472671D01*
X84660608Y-84472674D01*
X84650000Y-84591999D01*
X78000500Y-84591999D01*
X78000500Y-79598543D01*
X79999499Y-79598543D01*
X80037947Y-79791829D01*
X80037950Y-79791839D01*
X80113364Y-79973907D01*
X80113371Y-79973920D01*
X80222860Y-80137781D01*
X80222863Y-80137785D01*
X80362214Y-80277136D01*
X80362218Y-80277139D01*
X80526079Y-80386628D01*
X80526092Y-80386635D01*
X80708160Y-80462049D01*
X80708165Y-80462051D01*
X80708169Y-80462051D01*
X80708170Y-80462052D01*
X80901456Y-80500500D01*
X80901459Y-80500500D01*
X86004238Y-80500500D01*
X86071277Y-80520185D01*
X86077119Y-80524179D01*
X86198390Y-80612287D01*
X86314607Y-80671503D01*
X86380776Y-80705218D01*
X86380778Y-80705218D01*
X86380781Y-80705220D01*
X86457200Y-80730050D01*
X86575465Y-80768477D01*
X86676557Y-80784488D01*
X86777648Y-80800500D01*
X86777649Y-80800500D01*
X86982351Y-80800500D01*
X86982352Y-80800500D01*
X87184534Y-80768477D01*
X87379219Y-80705220D01*
X87561610Y-80612287D01*
X87688379Y-80520185D01*
X87727213Y-80491971D01*
X87727215Y-80491968D01*
X87727219Y-80491966D01*
X87871966Y-80347219D01*
X87871968Y-80347215D01*
X87871971Y-80347213D01*
X87982264Y-80195405D01*
X87992287Y-80181610D01*
X88085220Y-79999219D01*
X88148477Y-79804534D01*
X88180500Y-79602352D01*
X88180500Y-79397648D01*
X88148477Y-79195465D01*
X88085218Y-79000776D01*
X88046916Y-78925606D01*
X87992287Y-78818390D01*
X87979315Y-78800536D01*
X87871971Y-78652786D01*
X87727213Y-78508028D01*
X87561613Y-78387715D01*
X87561612Y-78387714D01*
X87561610Y-78387713D01*
X87487345Y-78349873D01*
X87379223Y-78294781D01*
X87184534Y-78231522D01*
X87009995Y-78203878D01*
X86982352Y-78199500D01*
X86777648Y-78199500D01*
X86753329Y-78203351D01*
X86575465Y-78231522D01*
X86380776Y-78294781D01*
X86198386Y-78387715D01*
X86104813Y-78455700D01*
X86084476Y-78470476D01*
X86077123Y-78475818D01*
X86011317Y-78499298D01*
X86004238Y-78499500D01*
X82124500Y-78499500D01*
X82057461Y-78479815D01*
X82011706Y-78427011D01*
X82000500Y-78375500D01*
X82000500Y-65345305D01*
X82750000Y-65345305D01*
X82750000Y-65574694D01*
X82750001Y-65574710D01*
X82779942Y-65802137D01*
X82839316Y-66023723D01*
X82849948Y-66049390D01*
X83439340Y-65460000D01*
X83386679Y-65407339D01*
X84100000Y-65407339D01*
X84100000Y-65512661D01*
X84127259Y-65614394D01*
X84179920Y-65705606D01*
X84254394Y-65780080D01*
X84345606Y-65832741D01*
X84447339Y-65860000D01*
X84552661Y-65860000D01*
X84654394Y-65832741D01*
X84745606Y-65780080D01*
X84820080Y-65705606D01*
X84872741Y-65614394D01*
X84900000Y-65512661D01*
X84900000Y-65459999D01*
X85560660Y-65459999D01*
X85560660Y-65460001D01*
X86150050Y-66049391D01*
X86150051Y-66049390D01*
X86160679Y-66023734D01*
X86160684Y-66023719D01*
X86220057Y-65802137D01*
X86249998Y-65574710D01*
X86250000Y-65574694D01*
X86250000Y-65345305D01*
X86249998Y-65345289D01*
X86220057Y-65117862D01*
X86160683Y-64896274D01*
X86160681Y-64896269D01*
X86150051Y-64870608D01*
X86150050Y-64870608D01*
X85560660Y-65459999D01*
X84900000Y-65459999D01*
X84900000Y-65407339D01*
X84872741Y-65305606D01*
X84820080Y-65214394D01*
X84745606Y-65139920D01*
X84654394Y-65087259D01*
X84552661Y-65060000D01*
X84447339Y-65060000D01*
X84345606Y-65087259D01*
X84254394Y-65139920D01*
X84179920Y-65214394D01*
X84127259Y-65305606D01*
X84100000Y-65407339D01*
X83386679Y-65407339D01*
X82849947Y-64870607D01*
X82839319Y-64896266D01*
X82779942Y-65117862D01*
X82750001Y-65345289D01*
X82750000Y-65345305D01*
X82000500Y-65345305D01*
X82000500Y-51124500D01*
X82020185Y-51057461D01*
X82072989Y-51011706D01*
X82124500Y-51000500D01*
X83624238Y-51000500D01*
X83691277Y-51020185D01*
X83697119Y-51024179D01*
X83818390Y-51112287D01*
X83915692Y-51161865D01*
X84000776Y-51205218D01*
X84000778Y-51205218D01*
X84000781Y-51205220D01*
X84058805Y-51224073D01*
X84195465Y-51268477D01*
X84296557Y-51284488D01*
X84397648Y-51300500D01*
X84397649Y-51300500D01*
X84602351Y-51300500D01*
X84602352Y-51300500D01*
X84804534Y-51268477D01*
X84999219Y-51205220D01*
X85181610Y-51112287D01*
X85302877Y-51024181D01*
X85368683Y-51000702D01*
X85375762Y-51000500D01*
X89098542Y-51000500D01*
X89130760Y-50994091D01*
X89195188Y-50981275D01*
X89291836Y-50962051D01*
X89345165Y-50939961D01*
X89473914Y-50886632D01*
X89637782Y-50777139D01*
X89777139Y-50637782D01*
X89777140Y-50637779D01*
X89784206Y-50630714D01*
X89784209Y-50630710D01*
X90387778Y-50027141D01*
X90387782Y-50027139D01*
X90527139Y-49887782D01*
X90636632Y-49723914D01*
X90659615Y-49668426D01*
X90689961Y-49595166D01*
X90689961Y-49595165D01*
X90696311Y-49579834D01*
X90712051Y-49541836D01*
X90750500Y-49348540D01*
X90750500Y-49151460D01*
X90750500Y-44688319D01*
X122872338Y-44688319D01*
X122872338Y-44688320D01*
X122920152Y-44708125D01*
X122920165Y-44708129D01*
X123148087Y-44769201D01*
X123382014Y-44799999D01*
X123382029Y-44800000D01*
X123617971Y-44800000D01*
X123617985Y-44799999D01*
X123851914Y-44769200D01*
X124079834Y-44708130D01*
X124127660Y-44688319D01*
X123500001Y-44060660D01*
X123500000Y-44060660D01*
X122872338Y-44688319D01*
X90750500Y-44688319D01*
X90750500Y-43155883D01*
X90770185Y-43088844D01*
X90805616Y-43052776D01*
X90808112Y-43051107D01*
X90808127Y-43051099D01*
X91005776Y-42899438D01*
X91023200Y-42882014D01*
X121700000Y-42882014D01*
X121700000Y-43117985D01*
X121730798Y-43351912D01*
X121791871Y-43579837D01*
X121811678Y-43627660D01*
X121811679Y-43627660D01*
X122439340Y-43000000D01*
X122439340Y-42999999D01*
X122386680Y-42947339D01*
X123100000Y-42947339D01*
X123100000Y-43052661D01*
X123127259Y-43154394D01*
X123179920Y-43245606D01*
X123254394Y-43320080D01*
X123345606Y-43372741D01*
X123447339Y-43400000D01*
X123552661Y-43400000D01*
X123654394Y-43372741D01*
X123745606Y-43320080D01*
X123820080Y-43245606D01*
X123872741Y-43154394D01*
X123900000Y-43052661D01*
X123900000Y-42999999D01*
X124560660Y-42999999D01*
X124560660Y-43000000D01*
X125188319Y-43627660D01*
X125208130Y-43579834D01*
X125269200Y-43351914D01*
X125299999Y-43117985D01*
X125300000Y-43117971D01*
X125300000Y-42882028D01*
X125299999Y-42882014D01*
X125269201Y-42648087D01*
X125208129Y-42420165D01*
X125208125Y-42420152D01*
X125188320Y-42372338D01*
X125188319Y-42372338D01*
X124560660Y-42999999D01*
X123900000Y-42999999D01*
X123900000Y-42947339D01*
X123872741Y-42845606D01*
X123820080Y-42754394D01*
X123745606Y-42679920D01*
X123654394Y-42627259D01*
X123552661Y-42600000D01*
X123447339Y-42600000D01*
X123345606Y-42627259D01*
X123254394Y-42679920D01*
X123179920Y-42754394D01*
X123127259Y-42845606D01*
X123100000Y-42947339D01*
X122386680Y-42947339D01*
X121811679Y-42372338D01*
X121791872Y-42420159D01*
X121791868Y-42420170D01*
X121730798Y-42648087D01*
X121700000Y-42882014D01*
X91023200Y-42882014D01*
X91059608Y-42845606D01*
X91114933Y-42790282D01*
X91181933Y-42723281D01*
X91181938Y-42723276D01*
X91333599Y-42525627D01*
X91458164Y-42309873D01*
X91481728Y-42252983D01*
X91508604Y-42212760D01*
X94414547Y-39306819D01*
X94475870Y-39273334D01*
X94502228Y-39270500D01*
X97827779Y-39270500D01*
X97894818Y-39290185D01*
X97940573Y-39342989D01*
X97951779Y-39394500D01*
X97951779Y-39629888D01*
X97932094Y-39696927D01*
X97928097Y-39702773D01*
X97839994Y-39824037D01*
X97747060Y-40006427D01*
X97683801Y-40201116D01*
X97651779Y-40403299D01*
X97651779Y-40608002D01*
X97683801Y-40810185D01*
X97747060Y-41004874D01*
X97839994Y-41187264D01*
X97960307Y-41352864D01*
X98105065Y-41497622D01*
X98235071Y-41592075D01*
X98270669Y-41617938D01*
X98347525Y-41657098D01*
X98453055Y-41710869D01*
X98453057Y-41710869D01*
X98453060Y-41710871D01*
X98557416Y-41744778D01*
X98647744Y-41774128D01*
X98748836Y-41790139D01*
X98849927Y-41806151D01*
X98849928Y-41806151D01*
X99054630Y-41806151D01*
X99054631Y-41806151D01*
X99256813Y-41774128D01*
X99451498Y-41710871D01*
X99633889Y-41617938D01*
X99752836Y-41531519D01*
X99799492Y-41497622D01*
X99799494Y-41497619D01*
X99799498Y-41497617D01*
X99944245Y-41352870D01*
X99944247Y-41352866D01*
X99944250Y-41352864D01*
X99998712Y-41277902D01*
X100064566Y-41187261D01*
X100157499Y-41004870D01*
X100220756Y-40810185D01*
X100252779Y-40608003D01*
X100252779Y-40403299D01*
X100220756Y-40201117D01*
X100157499Y-40006432D01*
X100157497Y-40006429D01*
X100157497Y-40006427D01*
X100095066Y-39883901D01*
X100064566Y-39824041D01*
X100017556Y-39759337D01*
X99976461Y-39702773D01*
X99952981Y-39636967D01*
X99952779Y-39629888D01*
X99952779Y-39394500D01*
X99972464Y-39327461D01*
X100025268Y-39281706D01*
X100076779Y-39270500D01*
X110327779Y-39270500D01*
X110394818Y-39290185D01*
X110440573Y-39342989D01*
X110451779Y-39394500D01*
X110451779Y-39629888D01*
X110432094Y-39696927D01*
X110428097Y-39702773D01*
X110339994Y-39824037D01*
X110247060Y-40006427D01*
X110183801Y-40201116D01*
X110151779Y-40403299D01*
X110151779Y-40608002D01*
X110183801Y-40810185D01*
X110247060Y-41004874D01*
X110339994Y-41187264D01*
X110460307Y-41352864D01*
X110605065Y-41497622D01*
X110735071Y-41592075D01*
X110770669Y-41617938D01*
X110847525Y-41657098D01*
X110953055Y-41710869D01*
X110953057Y-41710869D01*
X110953060Y-41710871D01*
X111057416Y-41744778D01*
X111147744Y-41774128D01*
X111248836Y-41790139D01*
X111349927Y-41806151D01*
X111349928Y-41806151D01*
X111554630Y-41806151D01*
X111554631Y-41806151D01*
X111756813Y-41774128D01*
X111951498Y-41710871D01*
X112133889Y-41617938D01*
X112252836Y-41531519D01*
X112299492Y-41497622D01*
X112299494Y-41497619D01*
X112299498Y-41497617D01*
X112444245Y-41352870D01*
X112474172Y-41311679D01*
X122872338Y-41311679D01*
X123500000Y-41939340D01*
X123500001Y-41939340D01*
X124127660Y-41311679D01*
X124127660Y-41311678D01*
X124079837Y-41291871D01*
X123851912Y-41230798D01*
X123617985Y-41200000D01*
X123382014Y-41200000D01*
X123148087Y-41230798D01*
X122920170Y-41291868D01*
X122920159Y-41291872D01*
X122872338Y-41311679D01*
X112474172Y-41311679D01*
X112564566Y-41187261D01*
X112657499Y-41004870D01*
X112720756Y-40810185D01*
X112752779Y-40608003D01*
X112752779Y-40403299D01*
X112720756Y-40201117D01*
X112657499Y-40006432D01*
X112657497Y-40006429D01*
X112657497Y-40006427D01*
X112595066Y-39883901D01*
X112564566Y-39824041D01*
X112517556Y-39759337D01*
X112476461Y-39702773D01*
X112452981Y-39636967D01*
X112452779Y-39629888D01*
X112452779Y-39394500D01*
X112472464Y-39327461D01*
X112525268Y-39281706D01*
X112576779Y-39270500D01*
X141605500Y-39270500D01*
X141672539Y-39290185D01*
X141718294Y-39342989D01*
X141729500Y-39394500D01*
X141729500Y-45616052D01*
X141759794Y-45846148D01*
X141819862Y-46070328D01*
X141890061Y-46239801D01*
X141899500Y-46287254D01*
X141899500Y-47980066D01*
X141879815Y-48047105D01*
X141827011Y-48092860D01*
X141757853Y-48102804D01*
X141719205Y-48090551D01*
X141574383Y-48016761D01*
X141574382Y-48016760D01*
X141574379Y-48016759D01*
X141334785Y-47938910D01*
X141085962Y-47899500D01*
X140834038Y-47899500D01*
X140709626Y-47919205D01*
X140585214Y-47938910D01*
X140345616Y-48016760D01*
X140121155Y-48131129D01*
X139961231Y-48247320D01*
X139895424Y-48270799D01*
X139827370Y-48254973D01*
X139789080Y-48221312D01*
X139730047Y-48142455D01*
X139730044Y-48142452D01*
X139614835Y-48056206D01*
X139614828Y-48056202D01*
X139479982Y-48005908D01*
X139479983Y-48005908D01*
X139420383Y-47999501D01*
X139420381Y-47999500D01*
X139420373Y-47999500D01*
X139420364Y-47999500D01*
X137419629Y-47999500D01*
X137419623Y-47999501D01*
X137360016Y-48005908D01*
X137225171Y-48056202D01*
X137225164Y-48056206D01*
X137109955Y-48142452D01*
X137109952Y-48142455D01*
X137023706Y-48257664D01*
X137023702Y-48257671D01*
X136973408Y-48392517D01*
X136971626Y-48400062D01*
X136969353Y-48399525D01*
X136947071Y-48453312D01*
X136889677Y-48493157D01*
X136850524Y-48499500D01*
X128401455Y-48499500D01*
X128304812Y-48518724D01*
X128208167Y-48537947D01*
X128208161Y-48537949D01*
X128154834Y-48560037D01*
X128154834Y-48560038D01*
X128109315Y-48578892D01*
X128026089Y-48613366D01*
X128026079Y-48613371D01*
X127862218Y-48722860D01*
X127862214Y-48722863D01*
X127722860Y-48862217D01*
X127613371Y-49026080D01*
X127613364Y-49026093D01*
X127581778Y-49102352D01*
X127581778Y-49102353D01*
X127555379Y-49166086D01*
X127537949Y-49208164D01*
X127537947Y-49208170D01*
X127499500Y-49401456D01*
X127499500Y-49598541D01*
X127505366Y-49628029D01*
X127505366Y-49628032D01*
X127518876Y-49695954D01*
X127524438Y-49723914D01*
X127537946Y-49791828D01*
X127537949Y-49791837D01*
X127613365Y-49973909D01*
X127613368Y-49973914D01*
X127618600Y-49981744D01*
X127639480Y-50048420D01*
X127639500Y-50050637D01*
X127639500Y-56710249D01*
X127619815Y-56777288D01*
X127589812Y-56809515D01*
X127532457Y-56852451D01*
X127532451Y-56852457D01*
X127446206Y-56967664D01*
X127446202Y-56967671D01*
X127395908Y-57102517D01*
X127393945Y-57120781D01*
X127389501Y-57162123D01*
X127389500Y-57162135D01*
X127389500Y-58757870D01*
X127389501Y-58757876D01*
X127395908Y-58817483D01*
X127446202Y-58952328D01*
X127446206Y-58952335D01*
X127532452Y-59067544D01*
X127532455Y-59067547D01*
X127647664Y-59153793D01*
X127647671Y-59153797D01*
X127782517Y-59204091D01*
X127782516Y-59204091D01*
X127789444Y-59204835D01*
X127842127Y-59210500D01*
X127905733Y-59210499D01*
X127972770Y-59230183D01*
X128018526Y-59282986D01*
X128028470Y-59352144D01*
X127999446Y-59415700D01*
X127978619Y-59434816D01*
X127922188Y-59475817D01*
X127856382Y-59499298D01*
X127849301Y-59499500D01*
X124624500Y-59499500D01*
X124557461Y-59479815D01*
X124511706Y-59427011D01*
X124500500Y-59375500D01*
X124500500Y-57520761D01*
X124520185Y-57453722D01*
X124524165Y-57447899D01*
X124612287Y-57326610D01*
X124705220Y-57144219D01*
X124768477Y-56949534D01*
X124800500Y-56747352D01*
X124800500Y-56542648D01*
X124772836Y-56367985D01*
X124768477Y-56340465D01*
X124705218Y-56145776D01*
X124671503Y-56079607D01*
X124612287Y-55963390D01*
X124549710Y-55877259D01*
X124491971Y-55797786D01*
X124347213Y-55653028D01*
X124181613Y-55532715D01*
X124181612Y-55532714D01*
X124181610Y-55532713D01*
X124128171Y-55505484D01*
X124077376Y-55457510D01*
X124060581Y-55389689D01*
X124083118Y-55323554D01*
X124128172Y-55284515D01*
X124181610Y-55257287D01*
X124275132Y-55189340D01*
X124347213Y-55136971D01*
X124347215Y-55136968D01*
X124347219Y-55136966D01*
X124491966Y-54992219D01*
X124491968Y-54992215D01*
X124491971Y-54992213D01*
X124564032Y-54893028D01*
X124612287Y-54826610D01*
X124705220Y-54644219D01*
X124768477Y-54449534D01*
X124800500Y-54247352D01*
X124800500Y-54042648D01*
X124768477Y-53840466D01*
X124755759Y-53801325D01*
X124705218Y-53645776D01*
X124665195Y-53567228D01*
X124612287Y-53463390D01*
X124573553Y-53410077D01*
X124524182Y-53342122D01*
X124500702Y-53276316D01*
X124500500Y-53269237D01*
X124500500Y-51495761D01*
X124520185Y-51428722D01*
X124524165Y-51422899D01*
X124612287Y-51301610D01*
X124705220Y-51119219D01*
X124768477Y-50924534D01*
X124800500Y-50722352D01*
X124800500Y-50517648D01*
X124783107Y-50407837D01*
X124768477Y-50315465D01*
X124705218Y-50120776D01*
X124656000Y-50024182D01*
X124612287Y-49938390D01*
X124604556Y-49927749D01*
X124491971Y-49772786D01*
X124347213Y-49628028D01*
X124181613Y-49507715D01*
X124181612Y-49507714D01*
X124181610Y-49507713D01*
X124124653Y-49478691D01*
X123999223Y-49414781D01*
X123804534Y-49351522D01*
X123629995Y-49323878D01*
X123602352Y-49319500D01*
X123397648Y-49319500D01*
X123373329Y-49323351D01*
X123195465Y-49351522D01*
X123000776Y-49414781D01*
X122818386Y-49507715D01*
X122652786Y-49628028D01*
X122508028Y-49772786D01*
X122387715Y-49938386D01*
X122294781Y-50120776D01*
X122231522Y-50315465D01*
X122199500Y-50517648D01*
X122199500Y-50722351D01*
X122231522Y-50924534D01*
X122294781Y-51119223D01*
X122367184Y-51261320D01*
X122387713Y-51301610D01*
X122475819Y-51422877D01*
X122499298Y-51488681D01*
X122499500Y-51495761D01*
X122499500Y-53269237D01*
X122479815Y-53336276D01*
X122475818Y-53342122D01*
X122387715Y-53463386D01*
X122294781Y-53645776D01*
X122231522Y-53840465D01*
X122199500Y-54042648D01*
X122199500Y-54247351D01*
X122231522Y-54449534D01*
X122294781Y-54644223D01*
X122334978Y-54723112D01*
X122386085Y-54823415D01*
X122387715Y-54826613D01*
X122508028Y-54992213D01*
X122652786Y-55136971D01*
X122818388Y-55257286D01*
X122871828Y-55284516D01*
X122922623Y-55332490D01*
X122939418Y-55400312D01*
X122916880Y-55466446D01*
X122871828Y-55505484D01*
X122818388Y-55532713D01*
X122652786Y-55653028D01*
X122508028Y-55797786D01*
X122387715Y-55963386D01*
X122294781Y-56145776D01*
X122231522Y-56340465D01*
X122199500Y-56542648D01*
X122199500Y-56747351D01*
X122231522Y-56949534D01*
X122294781Y-57144223D01*
X122379586Y-57310660D01*
X122387713Y-57326610D01*
X122475819Y-57447877D01*
X122499298Y-57513681D01*
X122499500Y-57520761D01*
X122499500Y-59375500D01*
X122479815Y-59442539D01*
X122427011Y-59488294D01*
X122375500Y-59499500D01*
X119495633Y-59499500D01*
X119428594Y-59479815D01*
X119422746Y-59475817D01*
X119419200Y-59473240D01*
X119250836Y-59387454D01*
X119071118Y-59329059D01*
X118884486Y-59299500D01*
X118884481Y-59299500D01*
X118695519Y-59299500D01*
X118695514Y-59299500D01*
X118508881Y-59329059D01*
X118329163Y-59387454D01*
X118160800Y-59473240D01*
X118124935Y-59499298D01*
X118007927Y-59584310D01*
X118007925Y-59584312D01*
X118007924Y-59584312D01*
X117874312Y-59717924D01*
X117874312Y-59717925D01*
X117874310Y-59717927D01*
X117850645Y-59750499D01*
X117763240Y-59870800D01*
X117677454Y-60039163D01*
X117637931Y-60160803D01*
X117598493Y-60218478D01*
X117534134Y-60245676D01*
X117465288Y-60233761D01*
X117413812Y-60186516D01*
X117402069Y-60160803D01*
X117362545Y-60039163D01*
X117317290Y-59950347D01*
X117276760Y-59870801D01*
X117165690Y-59717927D01*
X117032073Y-59584310D01*
X116879199Y-59473240D01*
X116818945Y-59442539D01*
X116710836Y-59387454D01*
X116531118Y-59329059D01*
X116344486Y-59299500D01*
X116344481Y-59299500D01*
X116155519Y-59299500D01*
X116155514Y-59299500D01*
X115968881Y-59329059D01*
X115789163Y-59387454D01*
X115620799Y-59473240D01*
X115617254Y-59475817D01*
X115551448Y-59499298D01*
X115544367Y-59499500D01*
X112689054Y-59499500D01*
X112622015Y-59479815D01*
X112576260Y-59427011D01*
X112565054Y-59375500D01*
X112565054Y-57492652D01*
X112584739Y-57425613D01*
X112614744Y-57393385D01*
X112648199Y-57368341D01*
X112672100Y-57350449D01*
X112758350Y-57235234D01*
X112808645Y-57100386D01*
X112815054Y-57040776D01*
X112815053Y-55445031D01*
X112808645Y-55385420D01*
X112795516Y-55350220D01*
X112758351Y-55250574D01*
X112758347Y-55250567D01*
X112672101Y-55135358D01*
X112672098Y-55135355D01*
X112556889Y-55049109D01*
X112556882Y-55049105D01*
X112422036Y-54998811D01*
X112422037Y-54998811D01*
X112362437Y-54992404D01*
X112362435Y-54992403D01*
X112362427Y-54992403D01*
X112362419Y-54992403D01*
X112298821Y-54992403D01*
X112231782Y-54972718D01*
X112186027Y-54919914D01*
X112176083Y-54850756D01*
X112205108Y-54787200D01*
X112225935Y-54768085D01*
X112379200Y-54656731D01*
X112518382Y-54517549D01*
X112634078Y-54358308D01*
X112723438Y-54182928D01*
X112784263Y-53995729D01*
X112790163Y-53958477D01*
X112815054Y-53801325D01*
X112815054Y-53604480D01*
X112784263Y-53410076D01*
X112723436Y-53222873D01*
X112634077Y-53047497D01*
X112518382Y-52888257D01*
X112379200Y-52749075D01*
X112299579Y-52691227D01*
X112219957Y-52633377D01*
X112043341Y-52543388D01*
X111992544Y-52495414D01*
X111975749Y-52427593D01*
X111998286Y-52361458D01*
X112043341Y-52322418D01*
X112219957Y-52232428D01*
X112219956Y-52232428D01*
X112219959Y-52232427D01*
X112379200Y-52116731D01*
X112518382Y-51977549D01*
X112634078Y-51818308D01*
X112723438Y-51642928D01*
X112784263Y-51455729D01*
X112788390Y-51429670D01*
X112815054Y-51261325D01*
X112815054Y-51064480D01*
X112784263Y-50870076D01*
X112742757Y-50742335D01*
X112723438Y-50682878D01*
X112723436Y-50682875D01*
X112723436Y-50682873D01*
X112654649Y-50547872D01*
X112634078Y-50507498D01*
X112518382Y-50348257D01*
X112489098Y-50318973D01*
X112455613Y-50257650D01*
X112452779Y-50231292D01*
X112452779Y-49001412D01*
X112472464Y-48934373D01*
X112476444Y-48928550D01*
X112564566Y-48807261D01*
X112657499Y-48624870D01*
X112720756Y-48430185D01*
X112752779Y-48228003D01*
X112752779Y-48023299D01*
X112750025Y-48005909D01*
X112720756Y-47821116D01*
X112657497Y-47626427D01*
X112619521Y-47551897D01*
X112564566Y-47444041D01*
X112546363Y-47418986D01*
X112444250Y-47278437D01*
X112299492Y-47133679D01*
X112133892Y-47013366D01*
X112133891Y-47013365D01*
X112133889Y-47013364D01*
X112076932Y-46984342D01*
X111951502Y-46920432D01*
X111756813Y-46857173D01*
X111582274Y-46829529D01*
X111554631Y-46825151D01*
X111349927Y-46825151D01*
X111325608Y-46829002D01*
X111147744Y-46857173D01*
X110953055Y-46920432D01*
X110770665Y-47013366D01*
X110605065Y-47133679D01*
X110460307Y-47278437D01*
X110339994Y-47444037D01*
X110247060Y-47626427D01*
X110183801Y-47821116D01*
X110151779Y-48023299D01*
X110151779Y-48228002D01*
X110183801Y-48430185D01*
X110247060Y-48624874D01*
X110313055Y-48754394D01*
X110339992Y-48807261D01*
X110428098Y-48928528D01*
X110451577Y-48994332D01*
X110451779Y-49001412D01*
X110451779Y-50562613D01*
X110438264Y-50618908D01*
X110405671Y-50682873D01*
X110344844Y-50870076D01*
X110314054Y-51064480D01*
X110314054Y-51261325D01*
X110344844Y-51455729D01*
X110405671Y-51642932D01*
X110476049Y-51781056D01*
X110495030Y-51818308D01*
X110610726Y-51977549D01*
X110749908Y-52116731D01*
X110909149Y-52232427D01*
X111012656Y-52285166D01*
X111085767Y-52322418D01*
X111136563Y-52370392D01*
X111153358Y-52438213D01*
X111130821Y-52504348D01*
X111087518Y-52542478D01*
X111084735Y-52543951D01*
X111084529Y-52544019D01*
X110909149Y-52633379D01*
X110890922Y-52646621D01*
X110883174Y-52650726D01*
X110857188Y-52656035D01*
X110832207Y-52664949D01*
X110825128Y-52665151D01*
X99807006Y-52665151D01*
X99739967Y-52645466D01*
X99734121Y-52641469D01*
X99671713Y-52596127D01*
X99495094Y-52506136D01*
X99444297Y-52458162D01*
X99427502Y-52390341D01*
X99450039Y-52324206D01*
X99495094Y-52285166D01*
X99671710Y-52195176D01*
X99671709Y-52195176D01*
X99671712Y-52195175D01*
X99830953Y-52079479D01*
X99970135Y-51940297D01*
X100085831Y-51781056D01*
X100175191Y-51605676D01*
X100236016Y-51418477D01*
X100245790Y-51356765D01*
X100266807Y-51224073D01*
X100266807Y-51027228D01*
X100236016Y-50832824D01*
X100195500Y-50708130D01*
X100175191Y-50645626D01*
X100175189Y-50645623D01*
X100175189Y-50645621D01*
X100125383Y-50547872D01*
X100085831Y-50470246D01*
X100081854Y-50464772D01*
X100040489Y-50407837D01*
X100017009Y-50342031D01*
X100016807Y-50334952D01*
X100016807Y-48913285D01*
X100036492Y-48846246D01*
X100040478Y-48840414D01*
X100064566Y-48807261D01*
X100157499Y-48624870D01*
X100220756Y-48430185D01*
X100252779Y-48228003D01*
X100252779Y-48023299D01*
X100250025Y-48005909D01*
X100220756Y-47821116D01*
X100157497Y-47626427D01*
X100119521Y-47551897D01*
X100064566Y-47444041D01*
X100046363Y-47418986D01*
X99944250Y-47278437D01*
X99799492Y-47133679D01*
X99633892Y-47013366D01*
X99633891Y-47013365D01*
X99633889Y-47013364D01*
X99576932Y-46984342D01*
X99451502Y-46920432D01*
X99256813Y-46857173D01*
X99082274Y-46829529D01*
X99054631Y-46825151D01*
X98849927Y-46825151D01*
X98825608Y-46829002D01*
X98647744Y-46857173D01*
X98453055Y-46920432D01*
X98270665Y-47013366D01*
X98105065Y-47133679D01*
X97960307Y-47278437D01*
X97839994Y-47444037D01*
X97747060Y-47626427D01*
X97683801Y-47821116D01*
X97651779Y-48023299D01*
X97651779Y-48228002D01*
X97683801Y-48430185D01*
X97747060Y-48624874D01*
X97839994Y-48807264D01*
X97960307Y-48972864D01*
X97979488Y-48992045D01*
X98012973Y-49053368D01*
X98015807Y-49079726D01*
X98015807Y-50334952D01*
X97996122Y-50401991D01*
X97992125Y-50407837D01*
X97946785Y-50470242D01*
X97857424Y-50645621D01*
X97796597Y-50832824D01*
X97765807Y-51027228D01*
X97765807Y-51224073D01*
X97796597Y-51418477D01*
X97857424Y-51605680D01*
X97946783Y-51781056D01*
X98062479Y-51940297D01*
X98201661Y-52079479D01*
X98360902Y-52195175D01*
X98434012Y-52232426D01*
X98537520Y-52285166D01*
X98588316Y-52333140D01*
X98605111Y-52400961D01*
X98582574Y-52467096D01*
X98537520Y-52506136D01*
X98360901Y-52596127D01*
X98309632Y-52633377D01*
X98201661Y-52711823D01*
X98201659Y-52711825D01*
X98201658Y-52711825D01*
X98062481Y-52851002D01*
X98062481Y-52851003D01*
X98062479Y-52851005D01*
X98035416Y-52888254D01*
X97946783Y-53010245D01*
X97857424Y-53185621D01*
X97796597Y-53372824D01*
X97765807Y-53567228D01*
X97765807Y-53764073D01*
X97796597Y-53958477D01*
X97857424Y-54145680D01*
X97909229Y-54247352D01*
X97946783Y-54321056D01*
X97992125Y-54383463D01*
X98015605Y-54449269D01*
X98015807Y-54456348D01*
X98015807Y-54955900D01*
X97996122Y-55022939D01*
X97966119Y-55055166D01*
X97908764Y-55098102D01*
X97908758Y-55098108D01*
X97822513Y-55213315D01*
X97822509Y-55213322D01*
X97772215Y-55348168D01*
X97765808Y-55407767D01*
X97765808Y-55407774D01*
X97765807Y-55407786D01*
X97765807Y-57003521D01*
X97765808Y-57003527D01*
X97772215Y-57063134D01*
X97822509Y-57197979D01*
X97822513Y-57197986D01*
X97908758Y-57313194D01*
X97908759Y-57313195D01*
X97908761Y-57313197D01*
X97949812Y-57343928D01*
X97991682Y-57399860D01*
X97999500Y-57443193D01*
X97999500Y-61670249D01*
X97979815Y-61737288D01*
X97949812Y-61769515D01*
X97892457Y-61812451D01*
X97892451Y-61812457D01*
X97806206Y-61927664D01*
X97806202Y-61927671D01*
X97755908Y-62062517D01*
X97750441Y-62113371D01*
X97749501Y-62122123D01*
X97749500Y-62122135D01*
X97749500Y-63717870D01*
X97749501Y-63717876D01*
X97755908Y-63777483D01*
X97806202Y-63912328D01*
X97806206Y-63912335D01*
X97892452Y-64027544D01*
X97892455Y-64027547D01*
X98007664Y-64113793D01*
X98007671Y-64113797D01*
X98142517Y-64164091D01*
X98142516Y-64164091D01*
X98146321Y-64164500D01*
X98202127Y-64170500D01*
X98265733Y-64170499D01*
X98332770Y-64190183D01*
X98378526Y-64242986D01*
X98388470Y-64312144D01*
X98359446Y-64375700D01*
X98338619Y-64394816D01*
X98248389Y-64460374D01*
X98182583Y-64483855D01*
X98175502Y-64484057D01*
X94495633Y-64484057D01*
X94428594Y-64464372D01*
X94422746Y-64460374D01*
X94419200Y-64457797D01*
X94250836Y-64372011D01*
X94071118Y-64313616D01*
X93884486Y-64284057D01*
X93884481Y-64284057D01*
X93695519Y-64284057D01*
X93695514Y-64284057D01*
X93508881Y-64313616D01*
X93329163Y-64372011D01*
X93160800Y-64457797D01*
X93094877Y-64505694D01*
X93007927Y-64568867D01*
X93007925Y-64568869D01*
X93007924Y-64568869D01*
X92874312Y-64702481D01*
X92874312Y-64702482D01*
X92874310Y-64702484D01*
X92826610Y-64768136D01*
X92763240Y-64855357D01*
X92677454Y-65023720D01*
X92637931Y-65145360D01*
X92598493Y-65203035D01*
X92534134Y-65230233D01*
X92465288Y-65218318D01*
X92413812Y-65171073D01*
X92402069Y-65145360D01*
X92391649Y-65113291D01*
X92362547Y-65023725D01*
X92362545Y-65023722D01*
X92362545Y-65023720D01*
X92317290Y-64934904D01*
X92276760Y-64855358D01*
X92165690Y-64702484D01*
X92032073Y-64568867D01*
X91879199Y-64457797D01*
X91854390Y-64445156D01*
X91710836Y-64372011D01*
X91531118Y-64313616D01*
X91344486Y-64284057D01*
X91344481Y-64284057D01*
X91155519Y-64284057D01*
X91155514Y-64284057D01*
X90968881Y-64313616D01*
X90789163Y-64372011D01*
X90620799Y-64457797D01*
X90617254Y-64460374D01*
X90551448Y-64483855D01*
X90544367Y-64484057D01*
X90124500Y-64484057D01*
X90057461Y-64464372D01*
X90011706Y-64411568D01*
X90000500Y-64360057D01*
X90000500Y-62901458D01*
X90000499Y-62901455D01*
X89970008Y-62748165D01*
X89962051Y-62708164D01*
X89922785Y-62613368D01*
X89886632Y-62526086D01*
X89777139Y-62362218D01*
X89637782Y-62222861D01*
X89637781Y-62222860D01*
X89557782Y-62142861D01*
X89557781Y-62142860D01*
X89557780Y-62142859D01*
X89393920Y-62033371D01*
X89393911Y-62033366D01*
X89312150Y-61999500D01*
X89265165Y-61980038D01*
X89211836Y-61957949D01*
X89211832Y-61957948D01*
X89211828Y-61957946D01*
X89115188Y-61938724D01*
X89018544Y-61919500D01*
X89018541Y-61919500D01*
X85749751Y-61919500D01*
X85682712Y-61899815D01*
X85662070Y-61883181D01*
X85655794Y-61876905D01*
X85607546Y-61812454D01*
X85543094Y-61764205D01*
X85536819Y-61757930D01*
X85524154Y-61734737D01*
X85508318Y-61713581D01*
X85506203Y-61701862D01*
X85503334Y-61696607D01*
X85503879Y-61688979D01*
X85500500Y-61670249D01*
X85500500Y-58495761D01*
X85520185Y-58428722D01*
X85524165Y-58422899D01*
X85612287Y-58301610D01*
X85705220Y-58119219D01*
X85768477Y-57924534D01*
X85800500Y-57722352D01*
X85800500Y-57517648D01*
X85786710Y-57430583D01*
X85768477Y-57315465D01*
X85718653Y-57162123D01*
X85705220Y-57120781D01*
X85705218Y-57120778D01*
X85705218Y-57120776D01*
X85664451Y-57040767D01*
X85612287Y-56938390D01*
X85604556Y-56927749D01*
X85491971Y-56772786D01*
X85347213Y-56628028D01*
X85181613Y-56507715D01*
X85181612Y-56507714D01*
X85181610Y-56507713D01*
X85124653Y-56478691D01*
X84999223Y-56414781D01*
X84804534Y-56351522D01*
X84629995Y-56323878D01*
X84602352Y-56319500D01*
X84397648Y-56319500D01*
X84373329Y-56323351D01*
X84195465Y-56351522D01*
X84000776Y-56414781D01*
X83818386Y-56507715D01*
X83652786Y-56628028D01*
X83508028Y-56772786D01*
X83387715Y-56938386D01*
X83294781Y-57120776D01*
X83231522Y-57315465D01*
X83199500Y-57517648D01*
X83199500Y-57722351D01*
X83231522Y-57924534D01*
X83294781Y-58119223D01*
X83361814Y-58250781D01*
X83387713Y-58301610D01*
X83475819Y-58422877D01*
X83499298Y-58488681D01*
X83499500Y-58495761D01*
X83499500Y-61670249D01*
X83479815Y-61737288D01*
X83449812Y-61769515D01*
X83392457Y-61812451D01*
X83392451Y-61812457D01*
X83306206Y-61927664D01*
X83306202Y-61927671D01*
X83255908Y-62062517D01*
X83250441Y-62113371D01*
X83249501Y-62122123D01*
X83249500Y-62122135D01*
X83249500Y-63717870D01*
X83249501Y-63717876D01*
X83255908Y-63777483D01*
X83306202Y-63912328D01*
X83306206Y-63912335D01*
X83392452Y-64027544D01*
X83392455Y-64027547D01*
X83507664Y-64113793D01*
X83507671Y-64113797D01*
X83536368Y-64124500D01*
X83642517Y-64164091D01*
X83702127Y-64170500D01*
X84219799Y-64170499D01*
X84286836Y-64190183D01*
X84307478Y-64206818D01*
X84499999Y-64399339D01*
X84692520Y-64206818D01*
X84753843Y-64173333D01*
X84780198Y-64170499D01*
X85297872Y-64170499D01*
X85357483Y-64164091D01*
X85492331Y-64113796D01*
X85607546Y-64027546D01*
X85637129Y-63988028D01*
X85650485Y-63970188D01*
X85706419Y-63928318D01*
X85749751Y-63920500D01*
X87875500Y-63920500D01*
X87942539Y-63940185D01*
X87988294Y-63992989D01*
X87999500Y-64044500D01*
X87999500Y-66875500D01*
X87979815Y-66942539D01*
X87927011Y-66988294D01*
X87875500Y-66999500D01*
X85290699Y-66999500D01*
X85223660Y-66979815D01*
X85217814Y-66975818D01*
X85155408Y-66930478D01*
X85155407Y-66930477D01*
X85155405Y-66930476D01*
X84980025Y-66841116D01*
X84792826Y-66780291D01*
X84792824Y-66780290D01*
X84792822Y-66780290D01*
X84788086Y-66779153D01*
X84788348Y-66778060D01*
X84730033Y-66750409D01*
X84724894Y-66745554D01*
X84500001Y-66520660D01*
X84275104Y-66745555D01*
X84213781Y-66779039D01*
X84207378Y-66780242D01*
X84207177Y-66780290D01*
X84019972Y-66841117D01*
X83844594Y-66930476D01*
X83769247Y-66985220D01*
X83685354Y-67046172D01*
X83685352Y-67046174D01*
X83685351Y-67046174D01*
X83546174Y-67185351D01*
X83546174Y-67185352D01*
X83546172Y-67185354D01*
X83496485Y-67253741D01*
X83430476Y-67344594D01*
X83341117Y-67519970D01*
X83280290Y-67707173D01*
X83249500Y-67901577D01*
X83249500Y-68098422D01*
X83280290Y-68292826D01*
X83341117Y-68480029D01*
X83420594Y-68636011D01*
X83430476Y-68655405D01*
X83475818Y-68717812D01*
X83499298Y-68783618D01*
X83499500Y-68790697D01*
X83499500Y-73585858D01*
X83479815Y-73652897D01*
X83427011Y-73698652D01*
X83418847Y-73702034D01*
X83407669Y-73706204D01*
X83407664Y-73706206D01*
X83292455Y-73792452D01*
X83292452Y-73792455D01*
X83206206Y-73907664D01*
X83206202Y-73907671D01*
X83155908Y-74042517D01*
X83151705Y-74081614D01*
X83149501Y-74102123D01*
X83149500Y-74102135D01*
X83149500Y-75897870D01*
X83149501Y-75897876D01*
X83155908Y-75957483D01*
X83206202Y-76092328D01*
X83206206Y-76092335D01*
X83292452Y-76207544D01*
X83292455Y-76207547D01*
X83407664Y-76293793D01*
X83407671Y-76293797D01*
X83542517Y-76344091D01*
X83542516Y-76344091D01*
X83549444Y-76344835D01*
X83602127Y-76350500D01*
X85397872Y-76350499D01*
X85457483Y-76344091D01*
X85592331Y-76293796D01*
X85707546Y-76207546D01*
X85793796Y-76092331D01*
X85844091Y-75957483D01*
X85850500Y-75897873D01*
X85850499Y-74102128D01*
X85844091Y-74042517D01*
X85833070Y-74012969D01*
X85793797Y-73907671D01*
X85793793Y-73907664D01*
X85707547Y-73792455D01*
X85707544Y-73792452D01*
X85592335Y-73706206D01*
X85592332Y-73706205D01*
X85592331Y-73706204D01*
X85581161Y-73702038D01*
X85525231Y-73660166D01*
X85500816Y-73594701D01*
X85500500Y-73585858D01*
X85500500Y-69124500D01*
X85520185Y-69057461D01*
X85572989Y-69011706D01*
X85624500Y-69000500D01*
X89098543Y-69000500D01*
X89228582Y-68974632D01*
X89291835Y-68962051D01*
X89473914Y-68886632D01*
X89637782Y-68777139D01*
X89777139Y-68637782D01*
X89886632Y-68473914D01*
X89962051Y-68291835D01*
X89995100Y-68125690D01*
X90000500Y-68098543D01*
X90000500Y-66609057D01*
X90020185Y-66542018D01*
X90072989Y-66496263D01*
X90124500Y-66485057D01*
X90544367Y-66485057D01*
X90611406Y-66504742D01*
X90617254Y-66508740D01*
X90620799Y-66511316D01*
X90789163Y-66597102D01*
X90789165Y-66597102D01*
X90789168Y-66597104D01*
X90856200Y-66618884D01*
X90968881Y-66655497D01*
X91155514Y-66685057D01*
X91155519Y-66685057D01*
X91344486Y-66685057D01*
X91531118Y-66655497D01*
X91538357Y-66653145D01*
X91710832Y-66597104D01*
X91879199Y-66511317D01*
X92032073Y-66400247D01*
X92165690Y-66266630D01*
X92276760Y-66113756D01*
X92362547Y-65945389D01*
X92402069Y-65823752D01*
X92441507Y-65766078D01*
X92505866Y-65738880D01*
X92574712Y-65750795D01*
X92626188Y-65798039D01*
X92637931Y-65823753D01*
X92677454Y-65945393D01*
X92763239Y-66113755D01*
X92763240Y-66113756D01*
X92765814Y-66117299D01*
X92789297Y-66183103D01*
X92789500Y-66190189D01*
X92789500Y-70244217D01*
X92769815Y-70311256D01*
X92753185Y-70331893D01*
X92621897Y-70463182D01*
X92560577Y-70496666D01*
X92534218Y-70499500D01*
X91401457Y-70499500D01*
X91208170Y-70537947D01*
X91208160Y-70537950D01*
X91026092Y-70613364D01*
X91026079Y-70613371D01*
X90862218Y-70722860D01*
X90862214Y-70722863D01*
X90722863Y-70862214D01*
X90722860Y-70862218D01*
X90613371Y-71026079D01*
X90613364Y-71026092D01*
X90537950Y-71208160D01*
X90537947Y-71208170D01*
X90499500Y-71401456D01*
X90499500Y-73085858D01*
X90479815Y-73152897D01*
X90427011Y-73198652D01*
X90418847Y-73202034D01*
X90407669Y-73206204D01*
X90407664Y-73206206D01*
X90292455Y-73292452D01*
X90292452Y-73292455D01*
X90206206Y-73407664D01*
X90206202Y-73407671D01*
X90155908Y-73542517D01*
X90150298Y-73594701D01*
X90149501Y-73602123D01*
X90149500Y-73602135D01*
X90149500Y-75397870D01*
X90149501Y-75397876D01*
X90155908Y-75457483D01*
X90206202Y-75592328D01*
X90206206Y-75592335D01*
X90292452Y-75707544D01*
X90292455Y-75707547D01*
X90407665Y-75793794D01*
X90407667Y-75793794D01*
X90407669Y-75793796D01*
X90418830Y-75797958D01*
X90474764Y-75839826D01*
X90499184Y-75905289D01*
X90499500Y-75914141D01*
X90499500Y-87401459D01*
X90499500Y-87598541D01*
X90499500Y-87598543D01*
X90499499Y-87598543D01*
X90537947Y-87791829D01*
X90537950Y-87791839D01*
X90613364Y-87973907D01*
X90613371Y-87973920D01*
X90722860Y-88137781D01*
X90722863Y-88137785D01*
X90862214Y-88277136D01*
X90862218Y-88277139D01*
X91026079Y-88386628D01*
X91026092Y-88386635D01*
X91150233Y-88438055D01*
X91208165Y-88462051D01*
X91208169Y-88462051D01*
X91208170Y-88462052D01*
X91401456Y-88500500D01*
X91401459Y-88500500D01*
X93375500Y-88500500D01*
X93442539Y-88520185D01*
X93488294Y-88572989D01*
X93499500Y-88624500D01*
X93499500Y-100098541D01*
X93499500Y-100098543D01*
X93499499Y-100098543D01*
X93537947Y-100291829D01*
X93537950Y-100291839D01*
X93613364Y-100473907D01*
X93613371Y-100473920D01*
X93722860Y-100637781D01*
X93722863Y-100637785D01*
X93862214Y-100777136D01*
X93862218Y-100777139D01*
X94026079Y-100886628D01*
X94026092Y-100886635D01*
X94208160Y-100962049D01*
X94208165Y-100962051D01*
X94208169Y-100962051D01*
X94208170Y-100962052D01*
X94401456Y-101000500D01*
X94401459Y-101000500D01*
X154978542Y-101000500D01*
X155009566Y-100994328D01*
X155075188Y-100981275D01*
X155171836Y-100962051D01*
X155225165Y-100939961D01*
X155353914Y-100886632D01*
X155517782Y-100777139D01*
X155657139Y-100637782D01*
X155657139Y-100637780D01*
X155667347Y-100627573D01*
X155667348Y-100627570D01*
X160468204Y-95826715D01*
X160529525Y-95793232D01*
X160536475Y-95791926D01*
X160684534Y-95768477D01*
X160879219Y-95705220D01*
X161061610Y-95612287D01*
X161171979Y-95532100D01*
X161227213Y-95491971D01*
X161227215Y-95491968D01*
X161227219Y-95491966D01*
X161371966Y-95347219D01*
X161371968Y-95347215D01*
X161371971Y-95347213D01*
X161442599Y-95250000D01*
X161492287Y-95181610D01*
X161585220Y-94999219D01*
X161648477Y-94804534D01*
X161680500Y-94602352D01*
X161680500Y-94397648D01*
X161667149Y-94313356D01*
X161648477Y-94195465D01*
X161585218Y-94000776D01*
X161537133Y-93906405D01*
X161492287Y-93818390D01*
X161448725Y-93758431D01*
X161371971Y-93652786D01*
X161227213Y-93508028D01*
X161061613Y-93387715D01*
X161061612Y-93387714D01*
X161061610Y-93387713D01*
X161004653Y-93358691D01*
X160879223Y-93294781D01*
X160684534Y-93231522D01*
X160509995Y-93203878D01*
X160482352Y-93199500D01*
X160277648Y-93199500D01*
X160253329Y-93203351D01*
X160075465Y-93231522D01*
X159880776Y-93294781D01*
X159698386Y-93387715D01*
X159532786Y-93508028D01*
X159388028Y-93652786D01*
X159267715Y-93818386D01*
X159174781Y-94000778D01*
X159111522Y-94195468D01*
X159088073Y-94343514D01*
X159058143Y-94406649D01*
X159053281Y-94411796D01*
X154501899Y-98963181D01*
X154440576Y-98996666D01*
X154414218Y-98999500D01*
X95624500Y-98999500D01*
X95557461Y-98979815D01*
X95511706Y-98927011D01*
X95500500Y-98875500D01*
X95500500Y-96408000D01*
X116150000Y-96408000D01*
X116160608Y-96527325D01*
X116160609Y-96527328D01*
X116216557Y-96722861D01*
X116310721Y-96903129D01*
X116439246Y-97060753D01*
X116596870Y-97189278D01*
X116777138Y-97283442D01*
X116972671Y-97339390D01*
X116972674Y-97339391D01*
X117091999Y-97349999D01*
X117092002Y-97350000D01*
X117250000Y-97350000D01*
X118750000Y-97350000D01*
X118907998Y-97350000D01*
X118908000Y-97349999D01*
X119027325Y-97339391D01*
X119027328Y-97339390D01*
X119222861Y-97283442D01*
X119403129Y-97189278D01*
X119560753Y-97060753D01*
X119689278Y-96903129D01*
X119783442Y-96722861D01*
X119839390Y-96527328D01*
X119839391Y-96527325D01*
X119849999Y-96408000D01*
X119850000Y-96407998D01*
X119850000Y-96250000D01*
X118750000Y-96250000D01*
X118750000Y-97350000D01*
X117250000Y-97350000D01*
X117250000Y-96250000D01*
X116150000Y-96250000D01*
X116150000Y-96408000D01*
X95500500Y-96408000D01*
X95500500Y-95434174D01*
X117500000Y-95434174D01*
X117500000Y-95565826D01*
X117534075Y-95692993D01*
X117599901Y-95807007D01*
X117692993Y-95900099D01*
X117807007Y-95965925D01*
X117934174Y-96000000D01*
X118065826Y-96000000D01*
X118192993Y-95965925D01*
X118307007Y-95900099D01*
X118400099Y-95807007D01*
X118465925Y-95692993D01*
X118500000Y-95565826D01*
X118500000Y-95434174D01*
X118465925Y-95307007D01*
X118400099Y-95192993D01*
X118307007Y-95099901D01*
X118192993Y-95034075D01*
X118065826Y-95000000D01*
X117934174Y-95000000D01*
X117807007Y-95034075D01*
X117692993Y-95099901D01*
X117599901Y-95192993D01*
X117534075Y-95307007D01*
X117500000Y-95434174D01*
X95500500Y-95434174D01*
X95500500Y-94808319D01*
X98253887Y-94808319D01*
X98253887Y-94808320D01*
X98301701Y-94828125D01*
X98301714Y-94828129D01*
X98529636Y-94889201D01*
X98763563Y-94919999D01*
X98763578Y-94920000D01*
X98999520Y-94920000D01*
X98999534Y-94919999D01*
X99233463Y-94889200D01*
X99461383Y-94828130D01*
X99509209Y-94808319D01*
X110753887Y-94808319D01*
X110753887Y-94808320D01*
X110801701Y-94828125D01*
X110801714Y-94828129D01*
X111029636Y-94889201D01*
X111263563Y-94919999D01*
X111263578Y-94920000D01*
X111499520Y-94920000D01*
X111499534Y-94919999D01*
X111733463Y-94889200D01*
X111961383Y-94828130D01*
X112009209Y-94808319D01*
X111792889Y-94591999D01*
X116150000Y-94591999D01*
X116150000Y-94750000D01*
X117250000Y-94750000D01*
X118750000Y-94750000D01*
X119850000Y-94750000D01*
X119850000Y-94592002D01*
X119849999Y-94591999D01*
X119839391Y-94472674D01*
X119839390Y-94472671D01*
X119783442Y-94277138D01*
X119689278Y-94096870D01*
X119560753Y-93939246D01*
X119403129Y-93810721D01*
X119222861Y-93716557D01*
X119027328Y-93660609D01*
X119027325Y-93660608D01*
X118908000Y-93650000D01*
X118750000Y-93650000D01*
X118750000Y-94750000D01*
X117250000Y-94750000D01*
X117250000Y-93650000D01*
X117091999Y-93650000D01*
X116972674Y-93660608D01*
X116972671Y-93660609D01*
X116777138Y-93716557D01*
X116596870Y-93810721D01*
X116439246Y-93939246D01*
X116310721Y-94096870D01*
X116216557Y-94277138D01*
X116160609Y-94472671D01*
X116160608Y-94472674D01*
X116150000Y-94591999D01*
X111792889Y-94591999D01*
X111381550Y-94180660D01*
X111381549Y-94180660D01*
X110753887Y-94808319D01*
X99509209Y-94808319D01*
X98881550Y-94180660D01*
X98881549Y-94180660D01*
X98253887Y-94808319D01*
X95500500Y-94808319D01*
X95500500Y-93002014D01*
X97081549Y-93002014D01*
X97081549Y-93237985D01*
X97112347Y-93471912D01*
X97173420Y-93699837D01*
X97193227Y-93747660D01*
X97193228Y-93747660D01*
X97820889Y-93120000D01*
X97820889Y-93119999D01*
X97768229Y-93067339D01*
X98481549Y-93067339D01*
X98481549Y-93172661D01*
X98508808Y-93274394D01*
X98561469Y-93365606D01*
X98635943Y-93440080D01*
X98727155Y-93492741D01*
X98828888Y-93520000D01*
X98934210Y-93520000D01*
X99035943Y-93492741D01*
X99127155Y-93440080D01*
X99201629Y-93365606D01*
X99254290Y-93274394D01*
X99281549Y-93172661D01*
X99281549Y-93119999D01*
X99942209Y-93119999D01*
X99942209Y-93120001D01*
X100569868Y-93747660D01*
X100589679Y-93699834D01*
X100650749Y-93471914D01*
X100681548Y-93237985D01*
X100681549Y-93237971D01*
X100681549Y-93002028D01*
X100681548Y-93002014D01*
X109581549Y-93002014D01*
X109581549Y-93237985D01*
X109612347Y-93471912D01*
X109673420Y-93699837D01*
X109693227Y-93747660D01*
X109693228Y-93747660D01*
X110320889Y-93120000D01*
X110320889Y-93119999D01*
X110268229Y-93067339D01*
X110981549Y-93067339D01*
X110981549Y-93172661D01*
X111008808Y-93274394D01*
X111061469Y-93365606D01*
X111135943Y-93440080D01*
X111227155Y-93492741D01*
X111328888Y-93520000D01*
X111434210Y-93520000D01*
X111535943Y-93492741D01*
X111627155Y-93440080D01*
X111701629Y-93365606D01*
X111754290Y-93274394D01*
X111781549Y-93172661D01*
X111781549Y-93119999D01*
X112442209Y-93119999D01*
X112442209Y-93120000D01*
X113069868Y-93747660D01*
X113089679Y-93699834D01*
X113150749Y-93471914D01*
X113181548Y-93237985D01*
X113181549Y-93237971D01*
X113181549Y-93002028D01*
X113181548Y-93002014D01*
X113150750Y-92768087D01*
X113089678Y-92540165D01*
X113089674Y-92540152D01*
X113069869Y-92492338D01*
X113069868Y-92492338D01*
X112442209Y-93119999D01*
X111781549Y-93119999D01*
X111781549Y-93067339D01*
X111754290Y-92965606D01*
X111701629Y-92874394D01*
X111627155Y-92799920D01*
X111535943Y-92747259D01*
X111434210Y-92720000D01*
X111328888Y-92720000D01*
X111227155Y-92747259D01*
X111135943Y-92799920D01*
X111061469Y-92874394D01*
X111008808Y-92965606D01*
X110981549Y-93067339D01*
X110268229Y-93067339D01*
X109693228Y-92492338D01*
X109673421Y-92540159D01*
X109673417Y-92540170D01*
X109612347Y-92768087D01*
X109581549Y-93002014D01*
X100681548Y-93002014D01*
X100650750Y-92768087D01*
X100589678Y-92540165D01*
X100589674Y-92540152D01*
X100569869Y-92492338D01*
X100569868Y-92492338D01*
X99942209Y-93119999D01*
X99281549Y-93119999D01*
X99281549Y-93067339D01*
X99254290Y-92965606D01*
X99201629Y-92874394D01*
X99127155Y-92799920D01*
X99035943Y-92747259D01*
X98934210Y-92720000D01*
X98828888Y-92720000D01*
X98727155Y-92747259D01*
X98635943Y-92799920D01*
X98561469Y-92874394D01*
X98508808Y-92965606D01*
X98481549Y-93067339D01*
X97768229Y-93067339D01*
X97193228Y-92492338D01*
X97173421Y-92540159D01*
X97173417Y-92540170D01*
X97112347Y-92768087D01*
X97081549Y-93002014D01*
X95500500Y-93002014D01*
X95500500Y-92313653D01*
X117322992Y-92313653D01*
X117322992Y-92313654D01*
X117370806Y-92333459D01*
X117370819Y-92333463D01*
X117598741Y-92394535D01*
X117832668Y-92425333D01*
X117832683Y-92425334D01*
X118068625Y-92425334D01*
X118068639Y-92425333D01*
X118302568Y-92394534D01*
X118530488Y-92333464D01*
X118578314Y-92313653D01*
X117950655Y-91685994D01*
X117950654Y-91685994D01*
X117322992Y-92313653D01*
X95500500Y-92313653D01*
X95500500Y-91431679D01*
X98253887Y-91431679D01*
X98881549Y-92059340D01*
X98881550Y-92059340D01*
X99509209Y-91431679D01*
X110753887Y-91431679D01*
X111381549Y-92059340D01*
X111381550Y-92059340D01*
X112009209Y-91431679D01*
X112009209Y-91431678D01*
X111961386Y-91411871D01*
X111733461Y-91350798D01*
X111499534Y-91320000D01*
X111263563Y-91320000D01*
X111029636Y-91350798D01*
X110801719Y-91411868D01*
X110801708Y-91411872D01*
X110753887Y-91431679D01*
X99509209Y-91431679D01*
X99509209Y-91431678D01*
X99461386Y-91411871D01*
X99233461Y-91350798D01*
X98999534Y-91320000D01*
X98763563Y-91320000D01*
X98529636Y-91350798D01*
X98301719Y-91411868D01*
X98301708Y-91411872D01*
X98253887Y-91431679D01*
X95500500Y-91431679D01*
X95500500Y-90507348D01*
X116150654Y-90507348D01*
X116150654Y-90743319D01*
X116181452Y-90977246D01*
X116242525Y-91205171D01*
X116262332Y-91252994D01*
X116262333Y-91252994D01*
X116889994Y-90625334D01*
X116889994Y-90625333D01*
X116837334Y-90572673D01*
X117550654Y-90572673D01*
X117550654Y-90677995D01*
X117577913Y-90779728D01*
X117630574Y-90870940D01*
X117705048Y-90945414D01*
X117796260Y-90998075D01*
X117897993Y-91025334D01*
X118003315Y-91025334D01*
X118105048Y-90998075D01*
X118196260Y-90945414D01*
X118270734Y-90870940D01*
X118323395Y-90779728D01*
X118350654Y-90677995D01*
X118350654Y-90625333D01*
X119011314Y-90625333D01*
X119011314Y-90625334D01*
X119638973Y-91252994D01*
X119658784Y-91205168D01*
X119719854Y-90977248D01*
X119750653Y-90743319D01*
X119750654Y-90743305D01*
X119750654Y-90507362D01*
X119750653Y-90507348D01*
X119719855Y-90273421D01*
X119706074Y-90221990D01*
X119706074Y-90221989D01*
X119698560Y-90193947D01*
X122244820Y-90193947D01*
X122244820Y-90426052D01*
X122275114Y-90656148D01*
X122335182Y-90880328D01*
X122423997Y-91094745D01*
X122424005Y-91094762D01*
X122540040Y-91295743D01*
X122540041Y-91295745D01*
X122681329Y-91479875D01*
X122681335Y-91479882D01*
X122845437Y-91643984D01*
X122845444Y-91643990D01*
X123029574Y-91785278D01*
X123029576Y-91785279D01*
X123230557Y-91901314D01*
X123230560Y-91901315D01*
X123230568Y-91901320D01*
X123444990Y-91990137D01*
X123669171Y-92050206D01*
X123899275Y-92080500D01*
X129664458Y-92080500D01*
X129711910Y-92089938D01*
X129715245Y-92091319D01*
X129715248Y-92091321D01*
X129866867Y-92154123D01*
X129929670Y-92180137D01*
X129989740Y-92196232D01*
X130153852Y-92240207D01*
X130383956Y-92270501D01*
X130383963Y-92270501D01*
X130605500Y-92270501D01*
X130672539Y-92290186D01*
X130718294Y-92342990D01*
X130729500Y-92394501D01*
X130729500Y-95616052D01*
X130759794Y-95846148D01*
X130819862Y-96070328D01*
X130908677Y-96284745D01*
X130908685Y-96284762D01*
X131024720Y-96485743D01*
X131024721Y-96485745D01*
X131166009Y-96669875D01*
X131166015Y-96669882D01*
X131330117Y-96833984D01*
X131330124Y-96833990D01*
X131514254Y-96975278D01*
X131514256Y-96975279D01*
X131715237Y-97091314D01*
X131715240Y-97091315D01*
X131715248Y-97091320D01*
X131929670Y-97180137D01*
X132153851Y-97240206D01*
X132383955Y-97270500D01*
X132383962Y-97270500D01*
X132616038Y-97270500D01*
X132616045Y-97270500D01*
X132846149Y-97240206D01*
X132943224Y-97214195D01*
X138100000Y-97214195D01*
X138110400Y-97346332D01*
X138165377Y-97564519D01*
X138258428Y-97769374D01*
X138258431Y-97769380D01*
X138386559Y-97954323D01*
X138386569Y-97954335D01*
X138545664Y-98113430D01*
X138545676Y-98113440D01*
X138730619Y-98241568D01*
X138730625Y-98241571D01*
X138935480Y-98334622D01*
X139153667Y-98389599D01*
X139285804Y-98399999D01*
X139285818Y-98400000D01*
X139750000Y-98400000D01*
X141250000Y-98400000D01*
X141714182Y-98400000D01*
X141714195Y-98399999D01*
X141846332Y-98389599D01*
X142064519Y-98334622D01*
X142269374Y-98241571D01*
X142269380Y-98241568D01*
X142454323Y-98113440D01*
X142454335Y-98113430D01*
X142613430Y-97954335D01*
X142613440Y-97954323D01*
X142741568Y-97769380D01*
X142741571Y-97769374D01*
X142834622Y-97564519D01*
X142889599Y-97346332D01*
X142899999Y-97214195D01*
X142900000Y-97214182D01*
X142900000Y-96750000D01*
X141250000Y-96750000D01*
X141250000Y-98400000D01*
X139750000Y-98400000D01*
X139750000Y-96750000D01*
X138100000Y-96750000D01*
X138100000Y-97214195D01*
X132943224Y-97214195D01*
X133070330Y-97180137D01*
X133284752Y-97091320D01*
X133485748Y-96975276D01*
X133669877Y-96833989D01*
X133833989Y-96669877D01*
X133975276Y-96485748D01*
X134091320Y-96284752D01*
X134180137Y-96070330D01*
X134216136Y-95935981D01*
X139850000Y-95935981D01*
X139850000Y-96064019D01*
X139874979Y-96189598D01*
X139923978Y-96307890D01*
X139995112Y-96414351D01*
X140085649Y-96504888D01*
X140192110Y-96576022D01*
X140310402Y-96625021D01*
X140435981Y-96650000D01*
X140564019Y-96650000D01*
X140689598Y-96625021D01*
X140807890Y-96576022D01*
X140914351Y-96504888D01*
X141004888Y-96414351D01*
X141076022Y-96307890D01*
X141125021Y-96189598D01*
X141150000Y-96064019D01*
X141150000Y-95935981D01*
X141125021Y-95810402D01*
X141076022Y-95692110D01*
X141004888Y-95585649D01*
X140914351Y-95495112D01*
X140807890Y-95423978D01*
X140689598Y-95374979D01*
X140564019Y-95350000D01*
X140435981Y-95350000D01*
X140310402Y-95374979D01*
X140192110Y-95423978D01*
X140085649Y-95495112D01*
X139995112Y-95585649D01*
X139923978Y-95692110D01*
X139874979Y-95810402D01*
X139850000Y-95935981D01*
X134216136Y-95935981D01*
X134240206Y-95846149D01*
X134270500Y-95616045D01*
X134270500Y-94785804D01*
X138100000Y-94785804D01*
X138100000Y-95250000D01*
X139750000Y-95250000D01*
X141250000Y-95250000D01*
X142900000Y-95250000D01*
X142900000Y-94785817D01*
X142899999Y-94785804D01*
X142889599Y-94653667D01*
X142834622Y-94435480D01*
X142741571Y-94230625D01*
X142741568Y-94230619D01*
X142613440Y-94045676D01*
X142613430Y-94045664D01*
X142454335Y-93886569D01*
X142454323Y-93886559D01*
X142269380Y-93758431D01*
X142269374Y-93758428D01*
X142064519Y-93665377D01*
X141846332Y-93610400D01*
X141714195Y-93600000D01*
X141250000Y-93600000D01*
X141250000Y-95250000D01*
X139750000Y-95250000D01*
X139750000Y-93600000D01*
X139285804Y-93600000D01*
X139153667Y-93610400D01*
X138935480Y-93665377D01*
X138730625Y-93758428D01*
X138730619Y-93758431D01*
X138545676Y-93886559D01*
X138545664Y-93886569D01*
X138386569Y-94045664D01*
X138386559Y-94045676D01*
X138258431Y-94230619D01*
X138258428Y-94230625D01*
X138165377Y-94435480D01*
X138110400Y-94653667D01*
X138100000Y-94785804D01*
X134270500Y-94785804D01*
X134270500Y-90383955D01*
X134270500Y-88134500D01*
X134290185Y-88067461D01*
X134342989Y-88021706D01*
X134394500Y-88010500D01*
X136383955Y-88010500D01*
X143605500Y-88010500D01*
X143672539Y-88030185D01*
X143718294Y-88082989D01*
X143729500Y-88134500D01*
X143729500Y-95283453D01*
X143720061Y-95330906D01*
X143696499Y-95387788D01*
X143632017Y-95628438D01*
X143599501Y-95875424D01*
X143599500Y-95875441D01*
X143599500Y-96124558D01*
X143599501Y-96124575D01*
X143632017Y-96371561D01*
X143696498Y-96612207D01*
X143791830Y-96842361D01*
X143791837Y-96842376D01*
X143916400Y-97058126D01*
X144068060Y-97255774D01*
X144068066Y-97255781D01*
X144244218Y-97431933D01*
X144244225Y-97431939D01*
X144441873Y-97583599D01*
X144657623Y-97708162D01*
X144657638Y-97708169D01*
X144756825Y-97749253D01*
X144887793Y-97803502D01*
X145128435Y-97867982D01*
X145375435Y-97900500D01*
X145375442Y-97900500D01*
X145624558Y-97900500D01*
X145624565Y-97900500D01*
X145871565Y-97867982D01*
X146112207Y-97803502D01*
X146342373Y-97708164D01*
X146558127Y-97583599D01*
X146755776Y-97431938D01*
X146931938Y-97255776D01*
X147083599Y-97058127D01*
X147208164Y-96842373D01*
X147303502Y-96612207D01*
X147367982Y-96371565D01*
X147400500Y-96124565D01*
X147400500Y-95875435D01*
X147367982Y-95628435D01*
X147303502Y-95387793D01*
X147280204Y-95331546D01*
X147279939Y-95330906D01*
X147270500Y-95283453D01*
X147270500Y-91124500D01*
X147290185Y-91057461D01*
X147342989Y-91011706D01*
X147394500Y-91000500D01*
X159504238Y-91000500D01*
X159571277Y-91020185D01*
X159577119Y-91024179D01*
X159698390Y-91112287D01*
X159814607Y-91171503D01*
X159880776Y-91205218D01*
X159880778Y-91205218D01*
X159880781Y-91205220D01*
X159932745Y-91222104D01*
X160075465Y-91268477D01*
X160176557Y-91284488D01*
X160277648Y-91300500D01*
X160277649Y-91300500D01*
X160482351Y-91300500D01*
X160482352Y-91300500D01*
X160684534Y-91268477D01*
X160879219Y-91205220D01*
X161061610Y-91112287D01*
X161188379Y-91020185D01*
X161227213Y-90991971D01*
X161227215Y-90991968D01*
X161227219Y-90991966D01*
X161371966Y-90847219D01*
X161371968Y-90847215D01*
X161371971Y-90847213D01*
X161444560Y-90747301D01*
X161492287Y-90681610D01*
X161585220Y-90499219D01*
X161648477Y-90304534D01*
X161680500Y-90102352D01*
X161680500Y-89897648D01*
X161678331Y-89883955D01*
X161648477Y-89695465D01*
X161605980Y-89564674D01*
X161585220Y-89500781D01*
X161585218Y-89500778D01*
X161585218Y-89500776D01*
X161551503Y-89434607D01*
X161492287Y-89318390D01*
X161484556Y-89307749D01*
X161371971Y-89152786D01*
X161227213Y-89008028D01*
X161061613Y-88887715D01*
X161061612Y-88887714D01*
X161061610Y-88887713D01*
X160999629Y-88856132D01*
X160879223Y-88794781D01*
X160684534Y-88731522D01*
X160509995Y-88703878D01*
X160482352Y-88699500D01*
X160277648Y-88699500D01*
X160253329Y-88703351D01*
X160075465Y-88731522D01*
X159880776Y-88794781D01*
X159698386Y-88887715D01*
X159577123Y-88975818D01*
X159511317Y-88999298D01*
X159504238Y-88999500D01*
X147394500Y-88999500D01*
X147327461Y-88979815D01*
X147281706Y-88927011D01*
X147270500Y-88875500D01*
X147270500Y-86188319D01*
X150062338Y-86188319D01*
X150062338Y-86188320D01*
X150110152Y-86208125D01*
X150110165Y-86208129D01*
X150338087Y-86269201D01*
X150572014Y-86299999D01*
X150572029Y-86300000D01*
X150807971Y-86300000D01*
X150807985Y-86299999D01*
X151041914Y-86269200D01*
X151269834Y-86208130D01*
X151317660Y-86188319D01*
X150690001Y-85560660D01*
X150690000Y-85560660D01*
X150062338Y-86188319D01*
X147270500Y-86188319D01*
X147270500Y-86123961D01*
X147270499Y-86123947D01*
X147267308Y-86099713D01*
X147240206Y-85893851D01*
X147180137Y-85669670D01*
X147091320Y-85455248D01*
X147079153Y-85434174D01*
X146975279Y-85254256D01*
X146975278Y-85254254D01*
X146833990Y-85070124D01*
X146833984Y-85070117D01*
X146669882Y-84906015D01*
X146669875Y-84906009D01*
X146485745Y-84764721D01*
X146485743Y-84764720D01*
X146284762Y-84648685D01*
X146284754Y-84648681D01*
X146284752Y-84648680D01*
X146210648Y-84617985D01*
X146070328Y-84559862D01*
X145846150Y-84499794D01*
X145846145Y-84499793D01*
X145616052Y-84469500D01*
X145616045Y-84469500D01*
X136616045Y-84469500D01*
X132879917Y-84469500D01*
X132879885Y-84469499D01*
X132876045Y-84469499D01*
X132643956Y-84469499D01*
X132643948Y-84469499D01*
X132413855Y-84499792D01*
X132413079Y-84500000D01*
X132265666Y-84539500D01*
X132216549Y-84552661D01*
X132189663Y-84559865D01*
X132126867Y-84585875D01*
X132126867Y-84585876D01*
X132112078Y-84592002D01*
X131975251Y-84648677D01*
X131975247Y-84648679D01*
X131920761Y-84680137D01*
X131866275Y-84711595D01*
X131841615Y-84725831D01*
X131774250Y-84764724D01*
X131590125Y-84906008D01*
X131508068Y-84988065D01*
X131426011Y-85070123D01*
X131426007Y-85070127D01*
X131330127Y-85166007D01*
X131330123Y-85166011D01*
X131248065Y-85248068D01*
X131166008Y-85330125D01*
X131024724Y-85514250D01*
X130973861Y-85602351D01*
X130973860Y-85602352D01*
X130908681Y-85715244D01*
X130908677Y-85715254D01*
X130819863Y-85929669D01*
X130759792Y-86153854D01*
X130729499Y-86383947D01*
X130729499Y-86620431D01*
X130729500Y-86620460D01*
X130729500Y-88438055D01*
X130709815Y-88505094D01*
X130657011Y-88550849D01*
X130589315Y-88560994D01*
X130426054Y-88539500D01*
X130426051Y-88539499D01*
X130426045Y-88539499D01*
X130193955Y-88539499D01*
X130190115Y-88539499D01*
X130190083Y-88539500D01*
X123899267Y-88539500D01*
X123669171Y-88569794D01*
X123444991Y-88629862D01*
X123230574Y-88718677D01*
X123230557Y-88718685D01*
X123029576Y-88834720D01*
X123029574Y-88834721D01*
X122845444Y-88976009D01*
X122845437Y-88976015D01*
X122681335Y-89140117D01*
X122681329Y-89140124D01*
X122540041Y-89324254D01*
X122540040Y-89324256D01*
X122424005Y-89525237D01*
X122423997Y-89525254D01*
X122335182Y-89739671D01*
X122275114Y-89963851D01*
X122244820Y-90193947D01*
X119698560Y-90193947D01*
X119658784Y-90045502D01*
X119658779Y-90045486D01*
X119638974Y-89997672D01*
X119638973Y-89997672D01*
X119011314Y-90625333D01*
X118350654Y-90625333D01*
X118350654Y-90572673D01*
X118323395Y-90470940D01*
X118270734Y-90379728D01*
X118196260Y-90305254D01*
X118105048Y-90252593D01*
X118003315Y-90225334D01*
X117897993Y-90225334D01*
X117796260Y-90252593D01*
X117705048Y-90305254D01*
X117630574Y-90379728D01*
X117577913Y-90470940D01*
X117550654Y-90572673D01*
X116837334Y-90572673D01*
X116262333Y-89997672D01*
X116242526Y-90045493D01*
X116242522Y-90045504D01*
X116181452Y-90273421D01*
X116150654Y-90507348D01*
X95500500Y-90507348D01*
X95500500Y-88937013D01*
X117322992Y-88937013D01*
X117950654Y-89564674D01*
X117950655Y-89564674D01*
X118578314Y-88937013D01*
X118578314Y-88937012D01*
X118530491Y-88917205D01*
X118302566Y-88856132D01*
X118068639Y-88825334D01*
X117832668Y-88825334D01*
X117598741Y-88856132D01*
X117370824Y-88917202D01*
X117370813Y-88917206D01*
X117322992Y-88937013D01*
X95500500Y-88937013D01*
X95500500Y-87401456D01*
X95462052Y-87208170D01*
X95462051Y-87208169D01*
X95462051Y-87208165D01*
X95415283Y-87095256D01*
X95386635Y-87026092D01*
X95386628Y-87026079D01*
X95277139Y-86862218D01*
X95277136Y-86862214D01*
X95137785Y-86722863D01*
X95137781Y-86722860D01*
X94973920Y-86613371D01*
X94973907Y-86613364D01*
X94791839Y-86537950D01*
X94791829Y-86537947D01*
X94598543Y-86499500D01*
X94598541Y-86499500D01*
X92624500Y-86499500D01*
X92557461Y-86479815D01*
X92511706Y-86427011D01*
X92500500Y-86375500D01*
X92500500Y-75914141D01*
X92520185Y-75847102D01*
X92572989Y-75801347D01*
X92581149Y-75797966D01*
X92592331Y-75793796D01*
X92707546Y-75707546D01*
X92793796Y-75592331D01*
X92844091Y-75457483D01*
X92850500Y-75397873D01*
X92850499Y-73602128D01*
X92844091Y-73542517D01*
X92829110Y-73502352D01*
X92793797Y-73407671D01*
X92793793Y-73407664D01*
X92707547Y-73292455D01*
X92707544Y-73292452D01*
X92592335Y-73206206D01*
X92592332Y-73206205D01*
X92592331Y-73206204D01*
X92581161Y-73202038D01*
X92525231Y-73160166D01*
X92500816Y-73094701D01*
X92500500Y-73085858D01*
X92500500Y-72624500D01*
X92520185Y-72557461D01*
X92572989Y-72511706D01*
X92624500Y-72500500D01*
X93098543Y-72500500D01*
X93140699Y-72492114D01*
X93225349Y-72475276D01*
X93291836Y-72462051D01*
X93345165Y-72439961D01*
X93473914Y-72386632D01*
X93637782Y-72277139D01*
X93777139Y-72137782D01*
X93777139Y-72137780D01*
X93787347Y-72127573D01*
X93787348Y-72127570D01*
X94567140Y-71347781D01*
X94596795Y-71303399D01*
X94623676Y-71263169D01*
X94623678Y-71263165D01*
X94627329Y-71257701D01*
X94676632Y-71183914D01*
X94716936Y-71086611D01*
X94752052Y-71001835D01*
X94790500Y-70808540D01*
X94790500Y-70611460D01*
X94790500Y-66609057D01*
X94810185Y-66542018D01*
X94862989Y-66496263D01*
X94914500Y-66485057D01*
X98243101Y-66485057D01*
X98310140Y-66504742D01*
X98315986Y-66508739D01*
X98341749Y-66527456D01*
X98344595Y-66529524D01*
X98477225Y-66597102D01*
X98521213Y-66619515D01*
X98572009Y-66667489D01*
X98588804Y-66735310D01*
X98566267Y-66801445D01*
X98521213Y-66840485D01*
X98344594Y-66930476D01*
X98269247Y-66985220D01*
X98185354Y-67046172D01*
X98185352Y-67046174D01*
X98185351Y-67046174D01*
X98046174Y-67185351D01*
X98046174Y-67185352D01*
X98046172Y-67185354D01*
X97996485Y-67253741D01*
X97930476Y-67344594D01*
X97841117Y-67519970D01*
X97780290Y-67707173D01*
X97749500Y-67901577D01*
X97749500Y-68098422D01*
X97780290Y-68292826D01*
X97841117Y-68480029D01*
X97920594Y-68636011D01*
X97930476Y-68655405D01*
X97975818Y-68717812D01*
X97999298Y-68783618D01*
X97999500Y-68790697D01*
X97999500Y-70098542D01*
X98003220Y-70117246D01*
X98009835Y-70150500D01*
X98037949Y-70291836D01*
X98060038Y-70345165D01*
X98075603Y-70382741D01*
X98113366Y-70473911D01*
X98113371Y-70473920D01*
X98222859Y-70637780D01*
X98222860Y-70637781D01*
X98222861Y-70637782D01*
X98362218Y-70777139D01*
X98362219Y-70777139D01*
X98369286Y-70784206D01*
X98369285Y-70784206D01*
X98369289Y-70784209D01*
X98947866Y-71362788D01*
X98947870Y-71362791D01*
X99111730Y-71472279D01*
X99111736Y-71472282D01*
X99111737Y-71472283D01*
X99293816Y-71547703D01*
X99462930Y-71581342D01*
X99487106Y-71586151D01*
X99487109Y-71586152D01*
X99487111Y-71586152D01*
X99690306Y-71586152D01*
X99690326Y-71586151D01*
X103746646Y-71586151D01*
X103813685Y-71605836D01*
X103819533Y-71609834D01*
X103823078Y-71612410D01*
X103991442Y-71698196D01*
X103991444Y-71698196D01*
X103991447Y-71698198D01*
X104071586Y-71724237D01*
X104113082Y-71737720D01*
X104170757Y-71777158D01*
X104197955Y-71841517D01*
X104186040Y-71910363D01*
X104138795Y-71961839D01*
X104113082Y-71973582D01*
X103991442Y-72013105D01*
X103823079Y-72098891D01*
X103735858Y-72162261D01*
X103670206Y-72209961D01*
X103670204Y-72209963D01*
X103670203Y-72209963D01*
X103536591Y-72343575D01*
X103536591Y-72343576D01*
X103536589Y-72343578D01*
X103514262Y-72374309D01*
X103425519Y-72496451D01*
X103339733Y-72664814D01*
X103281338Y-72844532D01*
X103251779Y-73031164D01*
X103251779Y-73220137D01*
X103281338Y-73406769D01*
X103339733Y-73586487D01*
X103425518Y-73754849D01*
X103425519Y-73754850D01*
X103428093Y-73758393D01*
X103451576Y-73824197D01*
X103451779Y-73831283D01*
X103451779Y-77050821D01*
X103461182Y-77098097D01*
X103461185Y-77098109D01*
X103461869Y-77101547D01*
X103490228Y-77244115D01*
X103509995Y-77291836D01*
X103513318Y-77299860D01*
X103513319Y-77299861D01*
X103565648Y-77426196D01*
X103675139Y-77590060D01*
X103675142Y-77590064D01*
X103710297Y-77625218D01*
X103722861Y-77637782D01*
X103773556Y-77688477D01*
X103844788Y-77759709D01*
X103862220Y-77777141D01*
X104026079Y-77886628D01*
X104026085Y-77886631D01*
X104026086Y-77886632D01*
X104208165Y-77962052D01*
X104351186Y-77990500D01*
X104384701Y-77997166D01*
X104401458Y-78000500D01*
X104401459Y-78000500D01*
X104401460Y-78000500D01*
X104598541Y-78000500D01*
X110271798Y-78000500D01*
X110338837Y-78020185D01*
X110371064Y-78050188D01*
X110414000Y-78107542D01*
X110414003Y-78107546D01*
X110414006Y-78107548D01*
X110529213Y-78193793D01*
X110529220Y-78193797D01*
X110664066Y-78244091D01*
X110664065Y-78244091D01*
X110670993Y-78244835D01*
X110723676Y-78250500D01*
X110787282Y-78250499D01*
X110854319Y-78270183D01*
X110900075Y-78322986D01*
X110910019Y-78392144D01*
X110880995Y-78455700D01*
X110860168Y-78474816D01*
X110803737Y-78515817D01*
X110737931Y-78539298D01*
X110730850Y-78539500D01*
X100006049Y-78539500D01*
X99939010Y-78519815D01*
X99893255Y-78467011D01*
X99882049Y-78415500D01*
X99882049Y-78249749D01*
X99901734Y-78182710D01*
X99931739Y-78150482D01*
X99989092Y-78107548D01*
X99989095Y-78107546D01*
X100075345Y-77992331D01*
X100125640Y-77857483D01*
X100132049Y-77797873D01*
X100132048Y-76202128D01*
X100125640Y-76142517D01*
X100115550Y-76115465D01*
X100075346Y-76007671D01*
X100075342Y-76007664D01*
X99989096Y-75892455D01*
X99989093Y-75892452D01*
X99873884Y-75806206D01*
X99873877Y-75806202D01*
X99739031Y-75755908D01*
X99739032Y-75755908D01*
X99679432Y-75749501D01*
X99679430Y-75749500D01*
X99679422Y-75749500D01*
X99679413Y-75749500D01*
X98083678Y-75749500D01*
X98083672Y-75749501D01*
X98024065Y-75755908D01*
X97889220Y-75806202D01*
X97889213Y-75806206D01*
X97774004Y-75892452D01*
X97774001Y-75892455D01*
X97687755Y-76007664D01*
X97687751Y-76007671D01*
X97637457Y-76142517D01*
X97632269Y-76190776D01*
X97631050Y-76202123D01*
X97631049Y-76202135D01*
X97631049Y-77797870D01*
X97631050Y-77797876D01*
X97637457Y-77857483D01*
X97687751Y-77992328D01*
X97687752Y-77992329D01*
X97687753Y-77992331D01*
X97708605Y-78020185D01*
X97774001Y-78107543D01*
X97774004Y-78107547D01*
X97831359Y-78150482D01*
X97873231Y-78206415D01*
X97881049Y-78249749D01*
X97881049Y-78375500D01*
X97861364Y-78442539D01*
X97808560Y-78488294D01*
X97757049Y-78499500D01*
X95375762Y-78499500D01*
X95308723Y-78479815D01*
X95302877Y-78475818D01*
X95295524Y-78470476D01*
X95181610Y-78387713D01*
X95107345Y-78349873D01*
X94999223Y-78294781D01*
X94804534Y-78231522D01*
X94629995Y-78203878D01*
X94602352Y-78199500D01*
X94397648Y-78199500D01*
X94373329Y-78203351D01*
X94195465Y-78231522D01*
X94000776Y-78294781D01*
X93818386Y-78387715D01*
X93652786Y-78508028D01*
X93508028Y-78652786D01*
X93387715Y-78818386D01*
X93294781Y-79000776D01*
X93231522Y-79195465D01*
X93199500Y-79397648D01*
X93199500Y-79602352D01*
X93203878Y-79629995D01*
X93231522Y-79804534D01*
X93294781Y-79999223D01*
X93358691Y-80124653D01*
X93365381Y-80137782D01*
X93387715Y-80181613D01*
X93508028Y-80347213D01*
X93652786Y-80491971D01*
X93807749Y-80604556D01*
X93818390Y-80612287D01*
X93934607Y-80671503D01*
X94000776Y-80705218D01*
X94000778Y-80705218D01*
X94000781Y-80705220D01*
X94077200Y-80730050D01*
X94195465Y-80768477D01*
X94296557Y-80784488D01*
X94397648Y-80800500D01*
X94397649Y-80800500D01*
X94602351Y-80800500D01*
X94602352Y-80800500D01*
X94804534Y-80768477D01*
X94999219Y-80705220D01*
X95181610Y-80612287D01*
X95302877Y-80524181D01*
X95368683Y-80500702D01*
X95375762Y-80500500D01*
X98035795Y-80500500D01*
X98102834Y-80520185D01*
X98108680Y-80524182D01*
X98163736Y-80564182D01*
X98226144Y-80609524D01*
X98370921Y-80683291D01*
X98402762Y-80699515D01*
X98453558Y-80747489D01*
X98470353Y-80815310D01*
X98447816Y-80881445D01*
X98402762Y-80920485D01*
X98226143Y-81010476D01*
X98135290Y-81076485D01*
X98066903Y-81126172D01*
X98066901Y-81126174D01*
X98066900Y-81126174D01*
X97927723Y-81265351D01*
X97927723Y-81265352D01*
X97927721Y-81265354D01*
X97878034Y-81333741D01*
X97812025Y-81424594D01*
X97722666Y-81599970D01*
X97661839Y-81787173D01*
X97631049Y-81981577D01*
X97631049Y-82178422D01*
X97661839Y-82372826D01*
X97722666Y-82560029D01*
X97793985Y-82700000D01*
X97812025Y-82735405D01*
X97857367Y-82797812D01*
X97880847Y-82863618D01*
X97881049Y-82870697D01*
X97881049Y-84624237D01*
X97861364Y-84691276D01*
X97857367Y-84697122D01*
X97769264Y-84818386D01*
X97676330Y-85000776D01*
X97613071Y-85195465D01*
X97581049Y-85397648D01*
X97581049Y-85602351D01*
X97613071Y-85804534D01*
X97676330Y-85999223D01*
X97769264Y-86181613D01*
X97889577Y-86347213D01*
X98034335Y-86491971D01*
X98189298Y-86604556D01*
X98199939Y-86612287D01*
X98316156Y-86671503D01*
X98382325Y-86705218D01*
X98382327Y-86705218D01*
X98382330Y-86705220D01*
X98436630Y-86722863D01*
X98577014Y-86768477D01*
X98678106Y-86784488D01*
X98779197Y-86800500D01*
X98779198Y-86800500D01*
X98983900Y-86800500D01*
X98983901Y-86800500D01*
X99186083Y-86768477D01*
X99380768Y-86705220D01*
X99563159Y-86612287D01*
X99709141Y-86506226D01*
X99728762Y-86491971D01*
X99728764Y-86491968D01*
X99728768Y-86491966D01*
X99873515Y-86347219D01*
X99873517Y-86347215D01*
X99873520Y-86347213D01*
X99974568Y-86208130D01*
X99993836Y-86181610D01*
X100086769Y-85999219D01*
X100150026Y-85804534D01*
X100182049Y-85602352D01*
X100182049Y-85397648D01*
X100150026Y-85195466D01*
X100149222Y-85192993D01*
X100109300Y-85070124D01*
X100086769Y-85000781D01*
X100086767Y-85000778D01*
X100086767Y-85000776D01*
X100038480Y-84906009D01*
X99993836Y-84818390D01*
X99940956Y-84745606D01*
X99905731Y-84697122D01*
X99882251Y-84631316D01*
X99882049Y-84624237D01*
X99882049Y-82870697D01*
X99901734Y-82803658D01*
X99905719Y-82797827D01*
X99951073Y-82735405D01*
X100040433Y-82560025D01*
X100101258Y-82372826D01*
X100130092Y-82190776D01*
X100132049Y-82178422D01*
X100132049Y-81981577D01*
X100101258Y-81787173D01*
X100069456Y-81689298D01*
X100040433Y-81599975D01*
X100040431Y-81599972D01*
X100040431Y-81599970D01*
X99981739Y-81484781D01*
X99951073Y-81424595D01*
X99835377Y-81265354D01*
X99696195Y-81126172D01*
X99616574Y-81068324D01*
X99536952Y-81010474D01*
X99360336Y-80920485D01*
X99309539Y-80872511D01*
X99292744Y-80804690D01*
X99315281Y-80738555D01*
X99360336Y-80699515D01*
X99413556Y-80672397D01*
X99536954Y-80609524D01*
X99550605Y-80599605D01*
X99599363Y-80564182D01*
X99665169Y-80540702D01*
X99672248Y-80540500D01*
X110730850Y-80540500D01*
X110797889Y-80560185D01*
X110803735Y-80564182D01*
X110860670Y-80605547D01*
X110866144Y-80609524D01*
X111010921Y-80683291D01*
X111042762Y-80699515D01*
X111093558Y-80747489D01*
X111110353Y-80815310D01*
X111087816Y-80881445D01*
X111042762Y-80920485D01*
X110866143Y-81010476D01*
X110775290Y-81076485D01*
X110706903Y-81126172D01*
X110706901Y-81126174D01*
X110706900Y-81126174D01*
X110567723Y-81265351D01*
X110567723Y-81265352D01*
X110567721Y-81265354D01*
X110518034Y-81333741D01*
X110452025Y-81424594D01*
X110362666Y-81599970D01*
X110301839Y-81787173D01*
X110271049Y-81981577D01*
X110271049Y-82178422D01*
X110301839Y-82372826D01*
X110362666Y-82560029D01*
X110433985Y-82700000D01*
X110452025Y-82735405D01*
X110497367Y-82797812D01*
X110520847Y-82863618D01*
X110521049Y-82870697D01*
X110521049Y-84469953D01*
X110501364Y-84536992D01*
X110484730Y-84557634D01*
X110389581Y-84652782D01*
X110389577Y-84652786D01*
X110269264Y-84818386D01*
X110176330Y-85000776D01*
X110113071Y-85195465D01*
X110081049Y-85397648D01*
X110081049Y-85602351D01*
X110113071Y-85804534D01*
X110176330Y-85999223D01*
X110269264Y-86181613D01*
X110389577Y-86347213D01*
X110487612Y-86445248D01*
X110521097Y-86506571D01*
X110521548Y-86508737D01*
X110559496Y-86699512D01*
X110559499Y-86699522D01*
X110634913Y-86881590D01*
X110634920Y-86881603D01*
X110744409Y-87045464D01*
X110744412Y-87045468D01*
X110883763Y-87184819D01*
X110883767Y-87184822D01*
X111047628Y-87294311D01*
X111047641Y-87294318D01*
X111229709Y-87369732D01*
X111229714Y-87369734D01*
X111229718Y-87369734D01*
X111229719Y-87369735D01*
X111423005Y-87408183D01*
X111423008Y-87408183D01*
X111620092Y-87408183D01*
X111750131Y-87382315D01*
X111813384Y-87369734D01*
X111995463Y-87294315D01*
X112159331Y-87184822D01*
X112298688Y-87045465D01*
X112408181Y-86881597D01*
X112483600Y-86699518D01*
X112500736Y-86613371D01*
X112522049Y-86506226D01*
X112522049Y-86156008D01*
X112535564Y-86099713D01*
X112586769Y-85999219D01*
X112650026Y-85804534D01*
X112682049Y-85602352D01*
X112682049Y-85397648D01*
X112650026Y-85195466D01*
X112649222Y-85192993D01*
X112609300Y-85070124D01*
X112586769Y-85000781D01*
X112586767Y-85000778D01*
X112586767Y-85000776D01*
X112535564Y-84900285D01*
X112522049Y-84843990D01*
X112522049Y-84382014D01*
X148890000Y-84382014D01*
X148890000Y-84617985D01*
X148920798Y-84851912D01*
X148981871Y-85079837D01*
X149001678Y-85127660D01*
X149001679Y-85127660D01*
X149629340Y-84500000D01*
X149629340Y-84499999D01*
X149576680Y-84447339D01*
X150290000Y-84447339D01*
X150290000Y-84552661D01*
X150317259Y-84654394D01*
X150369920Y-84745606D01*
X150444394Y-84820080D01*
X150535606Y-84872741D01*
X150637339Y-84900000D01*
X150742661Y-84900000D01*
X150844394Y-84872741D01*
X150935606Y-84820080D01*
X151010080Y-84745606D01*
X151062741Y-84654394D01*
X151090000Y-84552661D01*
X151090000Y-84499999D01*
X151750660Y-84499999D01*
X151750660Y-84500000D01*
X152378319Y-85127660D01*
X152398130Y-85079834D01*
X152459200Y-84851914D01*
X152489999Y-84617985D01*
X152490000Y-84617971D01*
X152490000Y-84382028D01*
X152489999Y-84382014D01*
X152459201Y-84148087D01*
X152398129Y-83920165D01*
X152398125Y-83920152D01*
X152378320Y-83872338D01*
X152378319Y-83872338D01*
X151750660Y-84499999D01*
X151090000Y-84499999D01*
X151090000Y-84447339D01*
X151062741Y-84345606D01*
X151010080Y-84254394D01*
X150935606Y-84179920D01*
X150844394Y-84127259D01*
X150742661Y-84100000D01*
X150637339Y-84100000D01*
X150535606Y-84127259D01*
X150444394Y-84179920D01*
X150369920Y-84254394D01*
X150317259Y-84345606D01*
X150290000Y-84447339D01*
X149576680Y-84447339D01*
X149001679Y-83872338D01*
X148981872Y-83920159D01*
X148981868Y-83920170D01*
X148920798Y-84148087D01*
X148890000Y-84382014D01*
X112522049Y-84382014D01*
X112522049Y-82870697D01*
X112541734Y-82803658D01*
X112545719Y-82797827D01*
X112591073Y-82735405D01*
X112680433Y-82560025D01*
X112741258Y-82372826D01*
X112770092Y-82190776D01*
X112772049Y-82178422D01*
X112772049Y-81981577D01*
X112741258Y-81787173D01*
X112709456Y-81689298D01*
X112680433Y-81599975D01*
X112680431Y-81599972D01*
X112680431Y-81599970D01*
X112621739Y-81484781D01*
X112591073Y-81424595D01*
X112475377Y-81265354D01*
X112336195Y-81126172D01*
X112256574Y-81068324D01*
X112176952Y-81010474D01*
X112000336Y-80920485D01*
X111949539Y-80872511D01*
X111932744Y-80804690D01*
X111955281Y-80738555D01*
X112000336Y-80699515D01*
X112176952Y-80609525D01*
X112176951Y-80609525D01*
X112176954Y-80609524D01*
X112336195Y-80493828D01*
X112475377Y-80354646D01*
X112591073Y-80195405D01*
X112680433Y-80020025D01*
X112741258Y-79832826D01*
X112747751Y-79791829D01*
X112772049Y-79638422D01*
X112772049Y-79441577D01*
X112741258Y-79247173D01*
X112692286Y-79096456D01*
X112680433Y-79059975D01*
X112680431Y-79059972D01*
X112680431Y-79059970D01*
X112600535Y-78903166D01*
X112591073Y-78884595D01*
X112475377Y-78725354D01*
X112336195Y-78586172D01*
X112182926Y-78474815D01*
X112140263Y-78419487D01*
X112134284Y-78349873D01*
X112166890Y-78288078D01*
X112227729Y-78253721D01*
X112255813Y-78250499D01*
X112319421Y-78250499D01*
X112379032Y-78244091D01*
X112513880Y-78193796D01*
X112629095Y-78107546D01*
X112715345Y-77992331D01*
X112765640Y-77857483D01*
X112772049Y-77797873D01*
X112772048Y-76202128D01*
X112765640Y-76142517D01*
X112755550Y-76115465D01*
X112715346Y-76007671D01*
X112715342Y-76007664D01*
X112629096Y-75892455D01*
X112629093Y-75892452D01*
X112513884Y-75806206D01*
X112513877Y-75806202D01*
X112379031Y-75755908D01*
X112379032Y-75755908D01*
X112319432Y-75749501D01*
X112319430Y-75749500D01*
X112319422Y-75749500D01*
X112319413Y-75749500D01*
X110723678Y-75749500D01*
X110723672Y-75749501D01*
X110664065Y-75755908D01*
X110529220Y-75806202D01*
X110529213Y-75806206D01*
X110414006Y-75892451D01*
X110414000Y-75892457D01*
X110371064Y-75949812D01*
X110315130Y-75991682D01*
X110271798Y-75999500D01*
X105576779Y-75999500D01*
X105509740Y-75979815D01*
X105463985Y-75927011D01*
X105452779Y-75875500D01*
X105452779Y-73831283D01*
X105472464Y-73764244D01*
X105476456Y-73758404D01*
X105479039Y-73754850D01*
X105564826Y-73586483D01*
X105623219Y-73406769D01*
X105626749Y-73384480D01*
X105652779Y-73220137D01*
X105652779Y-73031164D01*
X105623219Y-72844532D01*
X105589321Y-72740206D01*
X105564826Y-72664819D01*
X105564824Y-72664816D01*
X105564824Y-72664814D01*
X105519569Y-72575998D01*
X105479039Y-72496452D01*
X105367969Y-72343578D01*
X105234352Y-72209961D01*
X105081478Y-72098891D01*
X105041794Y-72078671D01*
X104913115Y-72013105D01*
X104828903Y-71985743D01*
X104791474Y-71973581D01*
X104733800Y-71934144D01*
X104706602Y-71869785D01*
X104718517Y-71800939D01*
X104765761Y-71749463D01*
X104791473Y-71737720D01*
X104913111Y-71698198D01*
X105081478Y-71612411D01*
X105085025Y-71609834D01*
X105150831Y-71586353D01*
X105157912Y-71586151D01*
X111012891Y-71586151D01*
X111043915Y-71579979D01*
X111109537Y-71566926D01*
X111206185Y-71547702D01*
X111259514Y-71525612D01*
X111388263Y-71472283D01*
X111552131Y-71362790D01*
X111691488Y-71223433D01*
X111691489Y-71223430D01*
X112172209Y-70742712D01*
X112226601Y-70661308D01*
X112281701Y-70578845D01*
X112357120Y-70396766D01*
X112363979Y-70362287D01*
X112387912Y-70241966D01*
X112395569Y-70203472D01*
X112395569Y-68776353D01*
X112415254Y-68709314D01*
X112419239Y-68703483D01*
X112464593Y-68641061D01*
X112553953Y-68465681D01*
X112614778Y-68278482D01*
X112628897Y-68189340D01*
X112645569Y-68084078D01*
X112645569Y-67887233D01*
X112614778Y-67692829D01*
X112565727Y-67541868D01*
X112553953Y-67505631D01*
X112553951Y-67505628D01*
X112553951Y-67505626D01*
X112506812Y-67413111D01*
X112464593Y-67330251D01*
X112348897Y-67171010D01*
X112209715Y-67031828D01*
X112086820Y-66942539D01*
X112050472Y-66916130D01*
X111873856Y-66826141D01*
X111823059Y-66778167D01*
X111806264Y-66710346D01*
X111828801Y-66644211D01*
X111873856Y-66605171D01*
X111928660Y-66577247D01*
X112050474Y-66515180D01*
X112091935Y-66485057D01*
X112112883Y-66469838D01*
X112178689Y-66446358D01*
X112185768Y-66446156D01*
X116838751Y-66446156D01*
X116905790Y-66465841D01*
X116951545Y-66518645D01*
X116962751Y-66570156D01*
X116962751Y-70044365D01*
X116943066Y-70111404D01*
X116939072Y-70117246D01*
X116936493Y-70120795D01*
X116850705Y-70289162D01*
X116792310Y-70468880D01*
X116762751Y-70655512D01*
X116762751Y-70844485D01*
X116792310Y-71031117D01*
X116850705Y-71210835D01*
X116929352Y-71365187D01*
X116936491Y-71379198D01*
X117047561Y-71532072D01*
X117181178Y-71665689D01*
X117334052Y-71776759D01*
X117374017Y-71797122D01*
X117502414Y-71862544D01*
X117502416Y-71862544D01*
X117502419Y-71862546D01*
X117584196Y-71889117D01*
X117624054Y-71902068D01*
X117681729Y-71941506D01*
X117708927Y-72005865D01*
X117697012Y-72074711D01*
X117649767Y-72126187D01*
X117624054Y-72137930D01*
X117502414Y-72177453D01*
X117334051Y-72263239D01*
X117246830Y-72326609D01*
X117181178Y-72374309D01*
X117181176Y-72374311D01*
X117181175Y-72374311D01*
X117047563Y-72507923D01*
X117047563Y-72507924D01*
X117047561Y-72507926D01*
X117044815Y-72511706D01*
X116936491Y-72660799D01*
X116850705Y-72829162D01*
X116792310Y-73008880D01*
X116762751Y-73195512D01*
X116762751Y-73384485D01*
X116792310Y-73571117D01*
X116850705Y-73750835D01*
X116936639Y-73919488D01*
X116950154Y-73975783D01*
X116950154Y-82129571D01*
X116930469Y-82196610D01*
X116926472Y-82202456D01*
X116838369Y-82323720D01*
X116745435Y-82506110D01*
X116682176Y-82700799D01*
X116650154Y-82902982D01*
X116650154Y-83107685D01*
X116682176Y-83309868D01*
X116745435Y-83504557D01*
X116806416Y-83624237D01*
X116835833Y-83681971D01*
X116838369Y-83686947D01*
X116958682Y-83852547D01*
X117103440Y-83997305D01*
X117258403Y-84109890D01*
X117269044Y-84117621D01*
X117385261Y-84176837D01*
X117451430Y-84210552D01*
X117451432Y-84210552D01*
X117451435Y-84210554D01*
X117555791Y-84244461D01*
X117646119Y-84273811D01*
X117747211Y-84289822D01*
X117848302Y-84305834D01*
X117848303Y-84305834D01*
X118053005Y-84305834D01*
X118053006Y-84305834D01*
X118255188Y-84273811D01*
X118449873Y-84210554D01*
X118632264Y-84117621D01*
X118725244Y-84050066D01*
X118797867Y-83997305D01*
X118797869Y-83997302D01*
X118797873Y-83997300D01*
X118942620Y-83852553D01*
X118967441Y-83818390D01*
X119023221Y-83741615D01*
X119078551Y-83698949D01*
X119123539Y-83690500D01*
X123139558Y-83690500D01*
X123206597Y-83710185D01*
X123212439Y-83714179D01*
X123333710Y-83802287D01*
X123449927Y-83861503D01*
X123516096Y-83895218D01*
X123516098Y-83895218D01*
X123516101Y-83895220D01*
X123592874Y-83920165D01*
X123710785Y-83958477D01*
X123811877Y-83974488D01*
X123912968Y-83990500D01*
X123912969Y-83990500D01*
X124117671Y-83990500D01*
X124117672Y-83990500D01*
X124319854Y-83958477D01*
X124514539Y-83895220D01*
X124696930Y-83802287D01*
X124839164Y-83698949D01*
X124862533Y-83681971D01*
X124862535Y-83681968D01*
X124862539Y-83681966D01*
X125007286Y-83537219D01*
X125007288Y-83537215D01*
X125007291Y-83537213D01*
X125061368Y-83462781D01*
X125127607Y-83371610D01*
X125220540Y-83189219D01*
X125283797Y-82994534D01*
X125303411Y-82870697D01*
X125309367Y-82833095D01*
X125309367Y-82833094D01*
X125312759Y-82811679D01*
X150062338Y-82811679D01*
X150690000Y-83439340D01*
X150690001Y-83439340D01*
X151317660Y-82811679D01*
X151317660Y-82811678D01*
X151269837Y-82791871D01*
X151041912Y-82730798D01*
X150807985Y-82700000D01*
X150572014Y-82700000D01*
X150338087Y-82730798D01*
X150110170Y-82791868D01*
X150110159Y-82791872D01*
X150062338Y-82811679D01*
X125312759Y-82811679D01*
X125315820Y-82792352D01*
X125315820Y-82587648D01*
X125283797Y-82385465D01*
X125220538Y-82190776D01*
X125186823Y-82124607D01*
X125127607Y-82008390D01*
X125108131Y-81981583D01*
X125007291Y-81842786D01*
X124862533Y-81698028D01*
X124696933Y-81577715D01*
X124696932Y-81577714D01*
X124696930Y-81577713D01*
X124639973Y-81548691D01*
X124514543Y-81484781D01*
X124319854Y-81421522D01*
X124145315Y-81393878D01*
X124117672Y-81389500D01*
X123912968Y-81389500D01*
X123888649Y-81393351D01*
X123710785Y-81421522D01*
X123516096Y-81484781D01*
X123333706Y-81577715D01*
X123212443Y-81665818D01*
X123146637Y-81689298D01*
X123139558Y-81689500D01*
X119075154Y-81689500D01*
X119008115Y-81669815D01*
X118962360Y-81617011D01*
X118951154Y-81565500D01*
X118951154Y-80730050D01*
X124550608Y-80730050D01*
X124550608Y-80730051D01*
X124576269Y-80740681D01*
X124576274Y-80740683D01*
X124797862Y-80800057D01*
X125025289Y-80829998D01*
X125025306Y-80830000D01*
X125254694Y-80830000D01*
X125254710Y-80829998D01*
X125482137Y-80800057D01*
X125703719Y-80740684D01*
X125703734Y-80740679D01*
X125729390Y-80730051D01*
X125729391Y-80730050D01*
X125140001Y-80140660D01*
X125140000Y-80140660D01*
X124550608Y-80730050D01*
X118951154Y-80730050D01*
X118951154Y-78965305D01*
X123390000Y-78965305D01*
X123390000Y-79194694D01*
X123390001Y-79194710D01*
X123419942Y-79422137D01*
X123479316Y-79643723D01*
X123489948Y-79669390D01*
X124079340Y-79080000D01*
X124026679Y-79027339D01*
X124740000Y-79027339D01*
X124740000Y-79132661D01*
X124767259Y-79234394D01*
X124819920Y-79325606D01*
X124894394Y-79400080D01*
X124985606Y-79452741D01*
X125087339Y-79480000D01*
X125192661Y-79480000D01*
X125294394Y-79452741D01*
X125385606Y-79400080D01*
X125460080Y-79325606D01*
X125512741Y-79234394D01*
X125540000Y-79132661D01*
X125540000Y-79079999D01*
X126200660Y-79079999D01*
X126200660Y-79080000D01*
X126790050Y-79669391D01*
X126790051Y-79669390D01*
X126800679Y-79643734D01*
X126800684Y-79643719D01*
X126860057Y-79422137D01*
X126889998Y-79194710D01*
X126890000Y-79194694D01*
X126890000Y-78965305D01*
X126889998Y-78965289D01*
X126860057Y-78737862D01*
X126800683Y-78516274D01*
X126800681Y-78516269D01*
X126790051Y-78490608D01*
X126790050Y-78490608D01*
X126200660Y-79079999D01*
X125540000Y-79079999D01*
X125540000Y-79027339D01*
X125512741Y-78925606D01*
X125460080Y-78834394D01*
X125385606Y-78759920D01*
X125294394Y-78707259D01*
X125192661Y-78680000D01*
X125087339Y-78680000D01*
X124985606Y-78707259D01*
X124894394Y-78759920D01*
X124819920Y-78834394D01*
X124767259Y-78925606D01*
X124740000Y-79027339D01*
X124026679Y-79027339D01*
X123489947Y-78490607D01*
X123479319Y-78516266D01*
X123419942Y-78737862D01*
X123390001Y-78965289D01*
X123390000Y-78965305D01*
X118951154Y-78965305D01*
X118951154Y-74012969D01*
X118970839Y-73945930D01*
X118974838Y-73940081D01*
X118990010Y-73919199D01*
X118995888Y-73907664D01*
X119069613Y-73762969D01*
X119075796Y-73750835D01*
X119075796Y-73750834D01*
X119075798Y-73750831D01*
X119134191Y-73571117D01*
X119145082Y-73502352D01*
X119163751Y-73384485D01*
X119163751Y-73195512D01*
X119134191Y-73008880D01*
X119081139Y-72845606D01*
X119075798Y-72829167D01*
X119075796Y-72829164D01*
X119075796Y-72829162D01*
X119030470Y-72740205D01*
X118990011Y-72660800D01*
X118878941Y-72507926D01*
X118745324Y-72374309D01*
X118592450Y-72263239D01*
X118566467Y-72250000D01*
X118424087Y-72177453D01*
X118349723Y-72153290D01*
X118302446Y-72137929D01*
X118244772Y-72098492D01*
X118217574Y-72034133D01*
X118229489Y-71965287D01*
X118276733Y-71913811D01*
X118302445Y-71902068D01*
X118424083Y-71862546D01*
X118592450Y-71776759D01*
X118745324Y-71665689D01*
X118878941Y-71532072D01*
X118990011Y-71379198D01*
X119075798Y-71210831D01*
X119134191Y-71031117D01*
X119141944Y-70982165D01*
X119163751Y-70844485D01*
X119163751Y-70655512D01*
X119134191Y-70468880D01*
X119089682Y-70331898D01*
X119075798Y-70289167D01*
X119075796Y-70289164D01*
X119075796Y-70289162D01*
X119005144Y-70150500D01*
X118990011Y-70120800D01*
X118990009Y-70120797D01*
X118990008Y-70120795D01*
X118987430Y-70117246D01*
X118963953Y-70051438D01*
X118963751Y-70044365D01*
X118963751Y-65864708D01*
X118951304Y-65802137D01*
X118938642Y-65738482D01*
X118925302Y-65671415D01*
X118887038Y-65579038D01*
X118849883Y-65489337D01*
X118764517Y-65361577D01*
X118740390Y-65325468D01*
X118597937Y-65183015D01*
X118597906Y-65182986D01*
X118227135Y-64812215D01*
X118227115Y-64812193D01*
X118083441Y-64668519D01*
X118083437Y-64668516D01*
X117919576Y-64559027D01*
X117919567Y-64559022D01*
X117829903Y-64521882D01*
X117790821Y-64505694D01*
X117737492Y-64483605D01*
X117607747Y-64457797D01*
X117603861Y-64457024D01*
X117544198Y-64445156D01*
X117544197Y-64445156D01*
X112185768Y-64445156D01*
X112118729Y-64425471D01*
X112112883Y-64421475D01*
X112099247Y-64411568D01*
X112056447Y-64380471D01*
X112013783Y-64325144D01*
X112007804Y-64255531D01*
X112040409Y-64193735D01*
X112101247Y-64159378D01*
X112129333Y-64156155D01*
X112192941Y-64156155D01*
X112252552Y-64149747D01*
X112387400Y-64099452D01*
X112502615Y-64013202D01*
X112588865Y-63897987D01*
X112639160Y-63763139D01*
X112645569Y-63703529D01*
X112645568Y-62107784D01*
X112639160Y-62048173D01*
X112635925Y-62039500D01*
X112588866Y-61913327D01*
X112584617Y-61905546D01*
X112586118Y-61904725D01*
X112565369Y-61849086D01*
X112565054Y-61840246D01*
X112565054Y-61624500D01*
X112584739Y-61557461D01*
X112637543Y-61511706D01*
X112689054Y-61500500D01*
X115544367Y-61500500D01*
X115611406Y-61520185D01*
X115617254Y-61524183D01*
X115620799Y-61526759D01*
X115789163Y-61612545D01*
X115789165Y-61612545D01*
X115789168Y-61612547D01*
X115885497Y-61643846D01*
X115968881Y-61670940D01*
X116155514Y-61700500D01*
X116155519Y-61700500D01*
X116344486Y-61700500D01*
X116531118Y-61670940D01*
X116568730Y-61658719D01*
X116710832Y-61612547D01*
X116879199Y-61526760D01*
X117032073Y-61415690D01*
X117165690Y-61282073D01*
X117276760Y-61129199D01*
X117362547Y-60960832D01*
X117402069Y-60839195D01*
X117441507Y-60781521D01*
X117505866Y-60754323D01*
X117574712Y-60766238D01*
X117626188Y-60813482D01*
X117637931Y-60839196D01*
X117677454Y-60960836D01*
X117763240Y-61129199D01*
X117874310Y-61282073D01*
X118007927Y-61415690D01*
X118160801Y-61526760D01*
X118237023Y-61565597D01*
X118329163Y-61612545D01*
X118329165Y-61612545D01*
X118329168Y-61612547D01*
X118425497Y-61643846D01*
X118508881Y-61670940D01*
X118695514Y-61700500D01*
X118695519Y-61700500D01*
X118884486Y-61700500D01*
X119071118Y-61670940D01*
X119108730Y-61658719D01*
X119250832Y-61612547D01*
X119419199Y-61526760D01*
X119422746Y-61524183D01*
X119488552Y-61500702D01*
X119495633Y-61500500D01*
X123401459Y-61500500D01*
X123598541Y-61500500D01*
X123875500Y-61500500D01*
X123942539Y-61520185D01*
X123988294Y-61572989D01*
X123999500Y-61624500D01*
X123999500Y-66504366D01*
X123979815Y-66571405D01*
X123975821Y-66577247D01*
X123973242Y-66580796D01*
X123887454Y-66749163D01*
X123829059Y-66928881D01*
X123799500Y-67115513D01*
X123799500Y-67304486D01*
X123829059Y-67491118D01*
X123887454Y-67670836D01*
X123973240Y-67839199D01*
X124084310Y-67992073D01*
X124217927Y-68125690D01*
X124370801Y-68236760D01*
X124395805Y-68249500D01*
X124539163Y-68322545D01*
X124539165Y-68322545D01*
X124539168Y-68322547D01*
X124628734Y-68351649D01*
X124660803Y-68362069D01*
X124718478Y-68401507D01*
X124745676Y-68465866D01*
X124733761Y-68534712D01*
X124686516Y-68586188D01*
X124660803Y-68597931D01*
X124539163Y-68637454D01*
X124370800Y-68723240D01*
X124296620Y-68777136D01*
X124217927Y-68834310D01*
X124217925Y-68834312D01*
X124217924Y-68834312D01*
X124084312Y-68967924D01*
X124084312Y-68967925D01*
X124084310Y-68967927D01*
X124060644Y-69000500D01*
X123973240Y-69120800D01*
X123887454Y-69289163D01*
X123829059Y-69468881D01*
X123799500Y-69655513D01*
X123799500Y-69844486D01*
X123829059Y-70031118D01*
X123887454Y-70210836D01*
X123973239Y-70379198D01*
X123973240Y-70379199D01*
X123975814Y-70382742D01*
X123999297Y-70448546D01*
X123999500Y-70455632D01*
X123999500Y-72895202D01*
X123979815Y-72962241D01*
X123974767Y-72969512D01*
X123946206Y-73007664D01*
X123946202Y-73007671D01*
X123895908Y-73142517D01*
X123889509Y-73202039D01*
X123889501Y-73202123D01*
X123889500Y-73202135D01*
X123889500Y-74797870D01*
X123889501Y-74797876D01*
X123895908Y-74857483D01*
X123946202Y-74992328D01*
X123946206Y-74992335D01*
X124032452Y-75107544D01*
X124032455Y-75107547D01*
X124147664Y-75193793D01*
X124147671Y-75193797D01*
X124282517Y-75244091D01*
X124282516Y-75244091D01*
X124289444Y-75244835D01*
X124342127Y-75250500D01*
X124405733Y-75250499D01*
X124472770Y-75270183D01*
X124518526Y-75322986D01*
X124528470Y-75392144D01*
X124499446Y-75455700D01*
X124478619Y-75474816D01*
X124325354Y-75586171D01*
X124186174Y-75725351D01*
X124186174Y-75725352D01*
X124186172Y-75725354D01*
X124161500Y-75759312D01*
X124070476Y-75884594D01*
X123981117Y-76059970D01*
X123920290Y-76247173D01*
X123889500Y-76441577D01*
X123889500Y-76638422D01*
X123920290Y-76832826D01*
X123981117Y-77020029D01*
X124020895Y-77098097D01*
X124070476Y-77195405D01*
X124186172Y-77354646D01*
X124325354Y-77493828D01*
X124484595Y-77609524D01*
X124540053Y-77637781D01*
X124659970Y-77698882D01*
X124659972Y-77698882D01*
X124659975Y-77698884D01*
X124835384Y-77755878D01*
X124847177Y-77759710D01*
X124851913Y-77760847D01*
X124851649Y-77761943D01*
X124909953Y-77789579D01*
X124915106Y-77794446D01*
X125139999Y-78019339D01*
X125364891Y-77794446D01*
X125426214Y-77760961D01*
X125432632Y-77759755D01*
X125432822Y-77759710D01*
X125432824Y-77759709D01*
X125432826Y-77759709D01*
X125620025Y-77698884D01*
X125639394Y-77689014D01*
X125695689Y-77675500D01*
X152544367Y-77675500D01*
X152611406Y-77695185D01*
X152617254Y-77699183D01*
X152620799Y-77701759D01*
X152789163Y-77787545D01*
X152789165Y-77787545D01*
X152789168Y-77787547D01*
X152834524Y-77802284D01*
X152968881Y-77845940D01*
X153155514Y-77875500D01*
X153155519Y-77875500D01*
X153344486Y-77875500D01*
X153531118Y-77845940D01*
X153710832Y-77787547D01*
X153879199Y-77701760D01*
X154032073Y-77590690D01*
X154165690Y-77457073D01*
X154276760Y-77304199D01*
X154362547Y-77135832D01*
X154402069Y-77014195D01*
X154441507Y-76956521D01*
X154505866Y-76929323D01*
X154574712Y-76941238D01*
X154626188Y-76988482D01*
X154637931Y-77014196D01*
X154677454Y-77135836D01*
X154738412Y-77255472D01*
X154763240Y-77304199D01*
X154874310Y-77457073D01*
X155007927Y-77590690D01*
X155160801Y-77701760D01*
X155240347Y-77742290D01*
X155329163Y-77787545D01*
X155329165Y-77787545D01*
X155329168Y-77787547D01*
X155508882Y-77845940D01*
X155511177Y-77846303D01*
X155513212Y-77846626D01*
X155576348Y-77876554D01*
X155581499Y-77881419D01*
X157273181Y-79573101D01*
X157306666Y-79634424D01*
X157309500Y-79660782D01*
X157309500Y-83624237D01*
X157289815Y-83691276D01*
X157285818Y-83697122D01*
X157197715Y-83818386D01*
X157104781Y-84000776D01*
X157041522Y-84195465D01*
X157011976Y-84382014D01*
X157009500Y-84397648D01*
X157009500Y-84602352D01*
X157011974Y-84617971D01*
X157041522Y-84804534D01*
X157104781Y-84999223D01*
X157140904Y-85070117D01*
X157189765Y-85166012D01*
X157197715Y-85181613D01*
X157318028Y-85347213D01*
X157462786Y-85491971D01*
X157617749Y-85604556D01*
X157628390Y-85612287D01*
X157741010Y-85669670D01*
X157810776Y-85705218D01*
X157810778Y-85705218D01*
X157810781Y-85705220D01*
X157915137Y-85739127D01*
X158005465Y-85768477D01*
X158106557Y-85784488D01*
X158207648Y-85800500D01*
X158207649Y-85800500D01*
X158412351Y-85800500D01*
X158412352Y-85800500D01*
X158614534Y-85768477D01*
X158809219Y-85705220D01*
X158991610Y-85612287D01*
X159084590Y-85544732D01*
X159157213Y-85491971D01*
X159157215Y-85491968D01*
X159157219Y-85491966D01*
X159301966Y-85347219D01*
X159301966Y-85347218D01*
X159302366Y-85346819D01*
X159363689Y-85313334D01*
X159390047Y-85310500D01*
X160624238Y-85310500D01*
X160691277Y-85330185D01*
X160697119Y-85334179D01*
X160818390Y-85422287D01*
X160934607Y-85481503D01*
X161000776Y-85515218D01*
X161000778Y-85515218D01*
X161000781Y-85515220D01*
X161105137Y-85549127D01*
X161195465Y-85578477D01*
X161296557Y-85594488D01*
X161397648Y-85610500D01*
X161397649Y-85610500D01*
X161602351Y-85610500D01*
X161602352Y-85610500D01*
X161804534Y-85578477D01*
X161999219Y-85515220D01*
X162181610Y-85422287D01*
X162308379Y-85330185D01*
X162347213Y-85301971D01*
X162347215Y-85301968D01*
X162347219Y-85301966D01*
X162491966Y-85157219D01*
X162491968Y-85157215D01*
X162491971Y-85157213D01*
X162548189Y-85079834D01*
X162612287Y-84991610D01*
X162705220Y-84809219D01*
X162768477Y-84614534D01*
X162800500Y-84412352D01*
X162800500Y-84207648D01*
X162768477Y-84005466D01*
X162765825Y-83997305D01*
X162725221Y-83872338D01*
X162705220Y-83810781D01*
X162705218Y-83810778D01*
X162705218Y-83810776D01*
X162656000Y-83714182D01*
X162612287Y-83628390D01*
X162604556Y-83617749D01*
X162491971Y-83462786D01*
X162347213Y-83318028D01*
X162181613Y-83197715D01*
X162181612Y-83197714D01*
X162181610Y-83197713D01*
X162124653Y-83168691D01*
X161999223Y-83104781D01*
X161804534Y-83041522D01*
X161629995Y-83013878D01*
X161602352Y-83009500D01*
X161397648Y-83009500D01*
X161373329Y-83013351D01*
X161195465Y-83041522D01*
X161000776Y-83104781D01*
X160818386Y-83197715D01*
X160697123Y-83285818D01*
X160631317Y-83309298D01*
X160624238Y-83309500D01*
X159434500Y-83309500D01*
X159367461Y-83289815D01*
X159321706Y-83237011D01*
X159310500Y-83185500D01*
X159310500Y-79096456D01*
X159272051Y-78903166D01*
X159271660Y-78902222D01*
X159271652Y-78902202D01*
X159229541Y-78800536D01*
X159196635Y-78721091D01*
X159196628Y-78721079D01*
X159087139Y-78557218D01*
X159087136Y-78557214D01*
X158944686Y-78414764D01*
X158944655Y-78414735D01*
X156996419Y-76466499D01*
X156962934Y-76405176D01*
X156961626Y-76398212D01*
X156960940Y-76393884D01*
X156960940Y-76393882D01*
X156902547Y-76214168D01*
X156902545Y-76214165D01*
X156902545Y-76214163D01*
X156840468Y-76092331D01*
X156816760Y-76045801D01*
X156705690Y-75892927D01*
X156572073Y-75759310D01*
X156419199Y-75648240D01*
X156399457Y-75638181D01*
X156250836Y-75562454D01*
X156071118Y-75504059D01*
X155884486Y-75474500D01*
X155884481Y-75474500D01*
X155695519Y-75474500D01*
X155695514Y-75474500D01*
X155508881Y-75504059D01*
X155329163Y-75562454D01*
X155160800Y-75648240D01*
X155124935Y-75674298D01*
X155007927Y-75759310D01*
X155007925Y-75759312D01*
X155007924Y-75759312D01*
X154874312Y-75892924D01*
X154874312Y-75892925D01*
X154874310Y-75892927D01*
X154827408Y-75957482D01*
X154763240Y-76045800D01*
X154677454Y-76214163D01*
X154637931Y-76335803D01*
X154598493Y-76393478D01*
X154534134Y-76420676D01*
X154465288Y-76408761D01*
X154413812Y-76361516D01*
X154402069Y-76335803D01*
X154362545Y-76214163D01*
X154300468Y-76092331D01*
X154276760Y-76045801D01*
X154165690Y-75892927D01*
X154032073Y-75759310D01*
X153879199Y-75648240D01*
X153859457Y-75638181D01*
X153710836Y-75562454D01*
X153531118Y-75504059D01*
X153344486Y-75474500D01*
X153344481Y-75474500D01*
X153155519Y-75474500D01*
X153155514Y-75474500D01*
X152968881Y-75504059D01*
X152789163Y-75562454D01*
X152620799Y-75648240D01*
X152617254Y-75650817D01*
X152551448Y-75674298D01*
X152544367Y-75674500D01*
X126094336Y-75674500D01*
X126027297Y-75654815D01*
X126006655Y-75638181D01*
X125954648Y-75586174D01*
X125954646Y-75586172D01*
X125801377Y-75474815D01*
X125758714Y-75419487D01*
X125752735Y-75349873D01*
X125785341Y-75288078D01*
X125846180Y-75253721D01*
X125874264Y-75250499D01*
X125937872Y-75250499D01*
X125997483Y-75244091D01*
X126132331Y-75193796D01*
X126247546Y-75107546D01*
X126333796Y-74992331D01*
X126384091Y-74857483D01*
X126390500Y-74797873D01*
X126390499Y-73202128D01*
X126384091Y-73142517D01*
X126342561Y-73031170D01*
X126333797Y-73007671D01*
X126333793Y-73007664D01*
X126247547Y-72892455D01*
X126247544Y-72892452D01*
X126132335Y-72806206D01*
X126132329Y-72806203D01*
X126081166Y-72787120D01*
X126025233Y-72745248D01*
X126000816Y-72679783D01*
X126000500Y-72670938D01*
X126000500Y-70455632D01*
X126020185Y-70388593D01*
X126024177Y-70382753D01*
X126026760Y-70379199D01*
X126112547Y-70210832D01*
X126170940Y-70031118D01*
X126186700Y-69931613D01*
X126200500Y-69844486D01*
X126200500Y-69655513D01*
X126170940Y-69468881D01*
X126133077Y-69352352D01*
X126112547Y-69289168D01*
X126112545Y-69289165D01*
X126112545Y-69289163D01*
X126032473Y-69132014D01*
X126026760Y-69120801D01*
X125915690Y-68967927D01*
X125782073Y-68834310D01*
X125629199Y-68723240D01*
X125601868Y-68709314D01*
X125460836Y-68637454D01*
X125374765Y-68609488D01*
X125339195Y-68597930D01*
X125281521Y-68558493D01*
X125254323Y-68494134D01*
X125266238Y-68425288D01*
X125313482Y-68373812D01*
X125339194Y-68362069D01*
X125460832Y-68322547D01*
X125629199Y-68236760D01*
X125782073Y-68125690D01*
X125915690Y-67992073D01*
X126026760Y-67839199D01*
X126112547Y-67670832D01*
X126170940Y-67491118D01*
X126172575Y-67480798D01*
X126200500Y-67304486D01*
X126200500Y-67115513D01*
X126170940Y-66928881D01*
X126124872Y-66787101D01*
X126112547Y-66749168D01*
X126112545Y-66749165D01*
X126112545Y-66749163D01*
X126050408Y-66627213D01*
X126026760Y-66580801D01*
X126026758Y-66580798D01*
X126026757Y-66580796D01*
X126024179Y-66577247D01*
X126000702Y-66511439D01*
X126000500Y-66504366D01*
X126000500Y-61624500D01*
X126020185Y-61557461D01*
X126072989Y-61511706D01*
X126124500Y-61500500D01*
X127849301Y-61500500D01*
X127916340Y-61520185D01*
X127922186Y-61524182D01*
X127967992Y-61557461D01*
X127984595Y-61569524D01*
X128108460Y-61632636D01*
X128161213Y-61659515D01*
X128212009Y-61707489D01*
X128228804Y-61775310D01*
X128206267Y-61841445D01*
X128161213Y-61880485D01*
X127984594Y-61970476D01*
X127936862Y-62005156D01*
X127825354Y-62086172D01*
X127825352Y-62086174D01*
X127825351Y-62086174D01*
X127686174Y-62225351D01*
X127686174Y-62225352D01*
X127686172Y-62225354D01*
X127681691Y-62231522D01*
X127570476Y-62384594D01*
X127481117Y-62559970D01*
X127420290Y-62747173D01*
X127389500Y-62941577D01*
X127389500Y-63138422D01*
X127420290Y-63332826D01*
X127481117Y-63520029D01*
X127523063Y-63602352D01*
X127570476Y-63695405D01*
X127686172Y-63854646D01*
X127825354Y-63993828D01*
X127984595Y-64109524D01*
X128030240Y-64132781D01*
X128159970Y-64198882D01*
X128159972Y-64198882D01*
X128159975Y-64198884D01*
X128243266Y-64225947D01*
X128347173Y-64259709D01*
X128541578Y-64290500D01*
X128541583Y-64290500D01*
X128738422Y-64290500D01*
X128932826Y-64259709D01*
X128945684Y-64255531D01*
X129120025Y-64198884D01*
X129295405Y-64109524D01*
X129323896Y-64088823D01*
X129357814Y-64064182D01*
X129423620Y-64040702D01*
X129430699Y-64040500D01*
X139105500Y-64040500D01*
X139172539Y-64060185D01*
X139218294Y-64112989D01*
X139229500Y-64164500D01*
X139229500Y-69105500D01*
X139209815Y-69172539D01*
X139157011Y-69218294D01*
X139105500Y-69229500D01*
X136383947Y-69229500D01*
X136153851Y-69259794D01*
X135929671Y-69319862D01*
X135715254Y-69408677D01*
X135715237Y-69408685D01*
X135514256Y-69524720D01*
X135514254Y-69524721D01*
X135330124Y-69666009D01*
X135330117Y-69666015D01*
X135166015Y-69830117D01*
X135166009Y-69830124D01*
X135024721Y-70014254D01*
X135024720Y-70014256D01*
X134908685Y-70215237D01*
X134908677Y-70215254D01*
X134819862Y-70429671D01*
X134759794Y-70653851D01*
X134729500Y-70883947D01*
X134729500Y-71116052D01*
X134748869Y-71263169D01*
X134759794Y-71346149D01*
X134774614Y-71401459D01*
X134819862Y-71570328D01*
X134908677Y-71784745D01*
X134908685Y-71784762D01*
X135024720Y-71985743D01*
X135024721Y-71985745D01*
X135166009Y-72169875D01*
X135166015Y-72169882D01*
X135330117Y-72333984D01*
X135330124Y-72333990D01*
X135514254Y-72475278D01*
X135514256Y-72475279D01*
X135715237Y-72591314D01*
X135715240Y-72591315D01*
X135715248Y-72591320D01*
X135929670Y-72680137D01*
X136153851Y-72740206D01*
X136383955Y-72770500D01*
X136383962Y-72770500D01*
X145616038Y-72770500D01*
X145616045Y-72770500D01*
X145846149Y-72740206D01*
X146070330Y-72680137D01*
X146284752Y-72591320D01*
X146429196Y-72507926D01*
X146485743Y-72475279D01*
X146485745Y-72475278D01*
X146531771Y-72439961D01*
X146669877Y-72333989D01*
X146833989Y-72169877D01*
X146975276Y-71985748D01*
X147091320Y-71784752D01*
X147180137Y-71570330D01*
X147240206Y-71346149D01*
X147270500Y-71116045D01*
X147270500Y-70938319D01*
X151695066Y-70938319D01*
X151695066Y-70938320D01*
X151742880Y-70958125D01*
X151742893Y-70958129D01*
X151970815Y-71019201D01*
X152204742Y-71049999D01*
X152204757Y-71050000D01*
X152440699Y-71050000D01*
X152440713Y-71049999D01*
X152674642Y-71019200D01*
X152902562Y-70958130D01*
X152950388Y-70938319D01*
X152322729Y-70310660D01*
X152322728Y-70310660D01*
X151695066Y-70938319D01*
X147270500Y-70938319D01*
X147270500Y-70883955D01*
X147240206Y-70653851D01*
X147180137Y-70429670D01*
X147091320Y-70215248D01*
X147088773Y-70210836D01*
X146975279Y-70014256D01*
X146975278Y-70014254D01*
X146833990Y-69830124D01*
X146833984Y-69830117D01*
X146669882Y-69666015D01*
X146669875Y-69666009D01*
X146485745Y-69524721D01*
X146485743Y-69524720D01*
X146284762Y-69408685D01*
X146284754Y-69408681D01*
X146284752Y-69408680D01*
X146267307Y-69401454D01*
X146070328Y-69319862D01*
X145928203Y-69281780D01*
X145846149Y-69259794D01*
X145756958Y-69248051D01*
X145616052Y-69229500D01*
X145616045Y-69229500D01*
X142894500Y-69229500D01*
X142827461Y-69209815D01*
X142781706Y-69157011D01*
X142776268Y-69132014D01*
X150522728Y-69132014D01*
X150522728Y-69367985D01*
X150553526Y-69601912D01*
X150614599Y-69829837D01*
X150634406Y-69877660D01*
X150634407Y-69877660D01*
X151262068Y-69250000D01*
X151262068Y-69249999D01*
X151209408Y-69197339D01*
X151922728Y-69197339D01*
X151922728Y-69302661D01*
X151949987Y-69404394D01*
X152002648Y-69495606D01*
X152077122Y-69570080D01*
X152168334Y-69622741D01*
X152270067Y-69650000D01*
X152375389Y-69650000D01*
X152477122Y-69622741D01*
X152568334Y-69570080D01*
X152642808Y-69495606D01*
X152695469Y-69404394D01*
X152722728Y-69302661D01*
X152722728Y-69249999D01*
X153383388Y-69249999D01*
X153383388Y-69250000D01*
X154011047Y-69877660D01*
X154030858Y-69829834D01*
X154091928Y-69601914D01*
X154122727Y-69367985D01*
X154122728Y-69367971D01*
X154122728Y-69132028D01*
X154122727Y-69132014D01*
X154091929Y-68898087D01*
X154030857Y-68670165D01*
X154030853Y-68670152D01*
X154011048Y-68622338D01*
X154011047Y-68622338D01*
X153383388Y-69249999D01*
X152722728Y-69249999D01*
X152722728Y-69197339D01*
X152695469Y-69095606D01*
X152642808Y-69004394D01*
X152568334Y-68929920D01*
X152477122Y-68877259D01*
X152375389Y-68850000D01*
X152270067Y-68850000D01*
X152168334Y-68877259D01*
X152077122Y-68929920D01*
X152002648Y-69004394D01*
X151949987Y-69095606D01*
X151922728Y-69197339D01*
X151209408Y-69197339D01*
X150634407Y-68622338D01*
X150614600Y-68670159D01*
X150614596Y-68670170D01*
X150553526Y-68898087D01*
X150522728Y-69132014D01*
X142776268Y-69132014D01*
X142770500Y-69105500D01*
X142770500Y-67561679D01*
X151695066Y-67561679D01*
X152322728Y-68189340D01*
X152322729Y-68189340D01*
X152950388Y-67561679D01*
X152950388Y-67561678D01*
X152902565Y-67541871D01*
X152674640Y-67480798D01*
X152440713Y-67450000D01*
X152204742Y-67450000D01*
X151970815Y-67480798D01*
X151742898Y-67541868D01*
X151742887Y-67541872D01*
X151695066Y-67561679D01*
X142770500Y-67561679D01*
X142770500Y-64124500D01*
X142790185Y-64057461D01*
X142842989Y-64011706D01*
X142894500Y-64000500D01*
X150909445Y-64000500D01*
X150976484Y-64020185D01*
X151019930Y-64068205D01*
X151040982Y-64109521D01*
X151075426Y-64177122D01*
X151077715Y-64181613D01*
X151198028Y-64347213D01*
X151342786Y-64491971D01*
X151497749Y-64604556D01*
X151508390Y-64612287D01*
X151618751Y-64668519D01*
X151690776Y-64705218D01*
X151690778Y-64705218D01*
X151690781Y-64705220D01*
X151795137Y-64739127D01*
X151885465Y-64768477D01*
X151986557Y-64784488D01*
X152087648Y-64800500D01*
X152087649Y-64800500D01*
X152292351Y-64800500D01*
X152292352Y-64800500D01*
X152494534Y-64768477D01*
X152689219Y-64705220D01*
X152871610Y-64612287D01*
X152964590Y-64544732D01*
X153037213Y-64491971D01*
X153037215Y-64491968D01*
X153037219Y-64491966D01*
X153181966Y-64347219D01*
X153181968Y-64347215D01*
X153181971Y-64347213D01*
X153259653Y-64240291D01*
X153302287Y-64181610D01*
X153395220Y-63999219D01*
X153458477Y-63804534D01*
X153490500Y-63602352D01*
X153490500Y-63397648D01*
X158509500Y-63397648D01*
X158509500Y-63602351D01*
X158541522Y-63804534D01*
X158604781Y-63999223D01*
X158695426Y-64177122D01*
X158697713Y-64181610D01*
X158785819Y-64302877D01*
X158809298Y-64368681D01*
X158809500Y-64375761D01*
X158809500Y-68579717D01*
X158795985Y-68636011D01*
X158737507Y-68750780D01*
X158737507Y-68750781D01*
X158674251Y-68945461D01*
X158674251Y-68945464D01*
X158642228Y-69147648D01*
X158642228Y-69352351D01*
X158674250Y-69554534D01*
X158737509Y-69749223D01*
X158830443Y-69931613D01*
X158950756Y-70097213D01*
X159095514Y-70241971D01*
X159237551Y-70345165D01*
X159261118Y-70362287D01*
X159328791Y-70396768D01*
X159443504Y-70455218D01*
X159443506Y-70455218D01*
X159443509Y-70455220D01*
X159501062Y-70473920D01*
X159638193Y-70518477D01*
X159739285Y-70534488D01*
X159840376Y-70550500D01*
X159840377Y-70550500D01*
X160045079Y-70550500D01*
X160045080Y-70550500D01*
X160247262Y-70518477D01*
X160441947Y-70455220D01*
X160624338Y-70362287D01*
X160745605Y-70274181D01*
X160811411Y-70250702D01*
X160818490Y-70250500D01*
X169335500Y-70250500D01*
X169402539Y-70270185D01*
X169448294Y-70322989D01*
X169459500Y-70374500D01*
X169459500Y-71724237D01*
X169439815Y-71791276D01*
X169435818Y-71797122D01*
X169347715Y-71918386D01*
X169300485Y-72011080D01*
X169252510Y-72061876D01*
X169184689Y-72078671D01*
X169118554Y-72056134D01*
X169079515Y-72011080D01*
X169073861Y-71999983D01*
X169032287Y-71918390D01*
X169024556Y-71907749D01*
X168911971Y-71752786D01*
X168767213Y-71608028D01*
X168601613Y-71487715D01*
X168601612Y-71487714D01*
X168601610Y-71487713D01*
X168541898Y-71457288D01*
X168419223Y-71394781D01*
X168224534Y-71331522D01*
X168046969Y-71303399D01*
X168022352Y-71299500D01*
X167817648Y-71299500D01*
X167793329Y-71303351D01*
X167615465Y-71331522D01*
X167420776Y-71394781D01*
X167238386Y-71487715D01*
X167072786Y-71608028D01*
X166928032Y-71752782D01*
X166928028Y-71752787D01*
X166859978Y-71846451D01*
X166804648Y-71889117D01*
X166735035Y-71895096D01*
X166673240Y-71862490D01*
X166641954Y-71812570D01*
X166634898Y-71791276D01*
X166614814Y-71730666D01*
X166522712Y-71581344D01*
X166398656Y-71457288D01*
X166297314Y-71394780D01*
X166249336Y-71365187D01*
X166249331Y-71365185D01*
X166191881Y-71346148D01*
X166082797Y-71310001D01*
X166082795Y-71310000D01*
X165980010Y-71299500D01*
X164779998Y-71299500D01*
X164779981Y-71299501D01*
X164677203Y-71310000D01*
X164677200Y-71310001D01*
X164510668Y-71365185D01*
X164510663Y-71365187D01*
X164361342Y-71457289D01*
X164237289Y-71581342D01*
X164145187Y-71730663D01*
X164145185Y-71730668D01*
X164121489Y-71802180D01*
X164090001Y-71897203D01*
X164090001Y-71897204D01*
X164090000Y-71897204D01*
X164079500Y-71999983D01*
X164079500Y-74000001D01*
X164079501Y-74000018D01*
X164090000Y-74102796D01*
X164090001Y-74102799D01*
X164145185Y-74269331D01*
X164145187Y-74269336D01*
X164237289Y-74418657D01*
X164348181Y-74529549D01*
X164381666Y-74590872D01*
X164384500Y-74617230D01*
X164384500Y-75295500D01*
X164364815Y-75362539D01*
X164312011Y-75408294D01*
X164260500Y-75419500D01*
X161801518Y-75419500D01*
X161782120Y-75417973D01*
X161721010Y-75408294D01*
X161602352Y-75389500D01*
X161397648Y-75389500D01*
X161380955Y-75392144D01*
X161195465Y-75421522D01*
X161000776Y-75484781D01*
X160818386Y-75577715D01*
X160652786Y-75698028D01*
X160508028Y-75842786D01*
X160387715Y-76008386D01*
X160294781Y-76190776D01*
X160231522Y-76385465D01*
X160199500Y-76587648D01*
X160199500Y-76792351D01*
X160231522Y-76994534D01*
X160294781Y-77189223D01*
X160334520Y-77267213D01*
X160379070Y-77354648D01*
X160387715Y-77371613D01*
X160508028Y-77537213D01*
X160652786Y-77681971D01*
X160783778Y-77777140D01*
X160818390Y-77802287D01*
X160926716Y-77857482D01*
X161000776Y-77895218D01*
X161000778Y-77895218D01*
X161000781Y-77895220D01*
X161105137Y-77929127D01*
X161195465Y-77958477D01*
X161218037Y-77962052D01*
X161397648Y-77990500D01*
X161397649Y-77990500D01*
X161602351Y-77990500D01*
X161602352Y-77990500D01*
X161804534Y-77958477D01*
X161999219Y-77895220D01*
X162181610Y-77802287D01*
X162319975Y-77701760D01*
X162347213Y-77681971D01*
X162347215Y-77681968D01*
X162347219Y-77681966D01*
X162491966Y-77537219D01*
X162495552Y-77532284D01*
X162539629Y-77471616D01*
X162594959Y-77428949D01*
X162639948Y-77420500D01*
X164509238Y-77420500D01*
X164576277Y-77440185D01*
X164582119Y-77444179D01*
X164703390Y-77532287D01*
X164816776Y-77590060D01*
X164885776Y-77625218D01*
X164885778Y-77625218D01*
X164885781Y-77625220D01*
X164990137Y-77659127D01*
X165080465Y-77688477D01*
X165146172Y-77698884D01*
X165282648Y-77720500D01*
X165282649Y-77720500D01*
X165487351Y-77720500D01*
X165487352Y-77720500D01*
X165689534Y-77688477D01*
X165884219Y-77625220D01*
X166066610Y-77532287D01*
X166208844Y-77428949D01*
X166232213Y-77411971D01*
X166232215Y-77411968D01*
X166232219Y-77411966D01*
X166376966Y-77267219D01*
X166376968Y-77267215D01*
X166376971Y-77267213D01*
X166497284Y-77101614D01*
X166497283Y-77101614D01*
X166497287Y-77101610D01*
X166544516Y-77008917D01*
X166592489Y-76958123D01*
X166660310Y-76941328D01*
X166726445Y-76963865D01*
X166765483Y-77008917D01*
X166812713Y-77101610D01*
X166900819Y-77222877D01*
X166924298Y-77288681D01*
X166924500Y-77295761D01*
X166924500Y-87523541D01*
X166924500Y-87523543D01*
X166924499Y-87523543D01*
X166962947Y-87716829D01*
X166962949Y-87716835D01*
X166990061Y-87782289D01*
X166999500Y-87829742D01*
X166999500Y-89124237D01*
X166979815Y-89191276D01*
X166975818Y-89197122D01*
X166887715Y-89318386D01*
X166794781Y-89500776D01*
X166731522Y-89695465D01*
X166699500Y-89897648D01*
X166699500Y-90102351D01*
X166731522Y-90304534D01*
X166794781Y-90499223D01*
X166856630Y-90620606D01*
X166887713Y-90681610D01*
X166975819Y-90802877D01*
X166999298Y-90868681D01*
X166999500Y-90875761D01*
X166999500Y-93624237D01*
X166979815Y-93691276D01*
X166975818Y-93697122D01*
X166887715Y-93818386D01*
X166794781Y-94000776D01*
X166731522Y-94195465D01*
X166699500Y-94397648D01*
X166699500Y-94602351D01*
X166731522Y-94804534D01*
X166794781Y-94999223D01*
X166887715Y-95181613D01*
X167008028Y-95347213D01*
X167152786Y-95491971D01*
X167306491Y-95603642D01*
X167318390Y-95612287D01*
X167434607Y-95671503D01*
X167500776Y-95705218D01*
X167500778Y-95705218D01*
X167500781Y-95705220D01*
X167605137Y-95739127D01*
X167695465Y-95768477D01*
X167796557Y-95784488D01*
X167897648Y-95800500D01*
X167897649Y-95800500D01*
X168102351Y-95800500D01*
X168102352Y-95800500D01*
X168304534Y-95768477D01*
X168499219Y-95705220D01*
X168681610Y-95612287D01*
X168791979Y-95532100D01*
X168847213Y-95491971D01*
X168847215Y-95491968D01*
X168847219Y-95491966D01*
X168991966Y-95347219D01*
X168991968Y-95347215D01*
X168991971Y-95347213D01*
X169062599Y-95250000D01*
X169112287Y-95181610D01*
X169205220Y-94999219D01*
X169268477Y-94804534D01*
X169300500Y-94602352D01*
X169300500Y-94397648D01*
X169287149Y-94313356D01*
X169268477Y-94195465D01*
X169205218Y-94000776D01*
X169157133Y-93906405D01*
X169112287Y-93818390D01*
X169068725Y-93758431D01*
X169024182Y-93697122D01*
X169000702Y-93631316D01*
X169000500Y-93624237D01*
X169000500Y-90875761D01*
X169020185Y-90808722D01*
X169024165Y-90802899D01*
X169112287Y-90681610D01*
X169205220Y-90499219D01*
X169268477Y-90304534D01*
X169300500Y-90102352D01*
X169300500Y-89897648D01*
X169298331Y-89883955D01*
X169268477Y-89695465D01*
X169225980Y-89564674D01*
X169205220Y-89500781D01*
X169205218Y-89500778D01*
X169205218Y-89500776D01*
X169171503Y-89434607D01*
X169112287Y-89318390D01*
X169099654Y-89301003D01*
X169024182Y-89197122D01*
X169000702Y-89131316D01*
X169000500Y-89124237D01*
X169000500Y-87401457D01*
X168990264Y-87350000D01*
X168981275Y-87304812D01*
X168962051Y-87208164D01*
X168932272Y-87136272D01*
X168930344Y-87129577D01*
X168930394Y-87119859D01*
X168925500Y-87095256D01*
X168925500Y-77295761D01*
X168945185Y-77228722D01*
X168949165Y-77222899D01*
X169037287Y-77101610D01*
X169130220Y-76919219D01*
X169193477Y-76724534D01*
X169225500Y-76522352D01*
X169225500Y-76317648D01*
X169209109Y-76214163D01*
X169193477Y-76115465D01*
X169142145Y-75957482D01*
X169130220Y-75920781D01*
X169130218Y-75920778D01*
X169130218Y-75920776D01*
X169092679Y-75847102D01*
X169037287Y-75738390D01*
X169024654Y-75721003D01*
X168949182Y-75617122D01*
X168925702Y-75551316D01*
X168925500Y-75544237D01*
X168925500Y-74268879D01*
X168945185Y-74201840D01*
X168949165Y-74196017D01*
X169032287Y-74081610D01*
X169079516Y-73988917D01*
X169127489Y-73938123D01*
X169195310Y-73921328D01*
X169261445Y-73943865D01*
X169300483Y-73988917D01*
X169306140Y-74000018D01*
X169347715Y-74081614D01*
X169468028Y-74247213D01*
X169612786Y-74391971D01*
X169767749Y-74504556D01*
X169778390Y-74512287D01*
X169894607Y-74571503D01*
X169960776Y-74605218D01*
X169960778Y-74605218D01*
X169960781Y-74605220D01*
X170065137Y-74639127D01*
X170155465Y-74668477D01*
X170256557Y-74684488D01*
X170357648Y-74700500D01*
X170357649Y-74700500D01*
X170562351Y-74700500D01*
X170562352Y-74700500D01*
X170764534Y-74668477D01*
X170959219Y-74605220D01*
X171141610Y-74512287D01*
X171296972Y-74399411D01*
X171307210Y-74391973D01*
X171307211Y-74391971D01*
X171307219Y-74391966D01*
X171311966Y-74387218D01*
X171373284Y-74353732D01*
X171442975Y-74358713D01*
X171498025Y-74399411D01*
X171643783Y-74589367D01*
X171643789Y-74589374D01*
X171810625Y-74756210D01*
X171810632Y-74756216D01*
X171997819Y-74899849D01*
X171997835Y-74899860D01*
X172202165Y-75017831D01*
X172202174Y-75017835D01*
X172249999Y-75037644D01*
X172250000Y-75037644D01*
X173750000Y-75037644D01*
X173797825Y-75017835D01*
X173797834Y-75017831D01*
X174002164Y-74899860D01*
X174002180Y-74899849D01*
X174189367Y-74756216D01*
X174189374Y-74756210D01*
X174356210Y-74589374D01*
X174356216Y-74589367D01*
X174499849Y-74402180D01*
X174499855Y-74402171D01*
X174617834Y-74197828D01*
X174617839Y-74197819D01*
X174708129Y-73979837D01*
X174769200Y-73751915D01*
X174769201Y-73751913D01*
X174769453Y-73750000D01*
X173750000Y-73750000D01*
X173750000Y-75037644D01*
X172250000Y-75037644D01*
X172250000Y-72947339D01*
X172600000Y-72947339D01*
X172600000Y-73052661D01*
X172627259Y-73154394D01*
X172679920Y-73245606D01*
X172754394Y-73320080D01*
X172845606Y-73372741D01*
X172947339Y-73400000D01*
X173052661Y-73400000D01*
X173154394Y-73372741D01*
X173245606Y-73320080D01*
X173320080Y-73245606D01*
X173372741Y-73154394D01*
X173400000Y-73052661D01*
X173400000Y-72947339D01*
X173372741Y-72845606D01*
X173320080Y-72754394D01*
X173245606Y-72679920D01*
X173154394Y-72627259D01*
X173052661Y-72600000D01*
X172947339Y-72600000D01*
X172845606Y-72627259D01*
X172754394Y-72679920D01*
X172679920Y-72754394D01*
X172627259Y-72845606D01*
X172600000Y-72947339D01*
X172250000Y-72947339D01*
X172250000Y-72250000D01*
X173750000Y-72250000D01*
X174769452Y-72250000D01*
X174769201Y-72248086D01*
X174769200Y-72248084D01*
X174708129Y-72020162D01*
X174617839Y-71802180D01*
X174617834Y-71802171D01*
X174499855Y-71597828D01*
X174499849Y-71597819D01*
X174356216Y-71410632D01*
X174356210Y-71410625D01*
X174189374Y-71243789D01*
X174189367Y-71243783D01*
X174002180Y-71100150D01*
X174002171Y-71100144D01*
X173797828Y-70982165D01*
X173797824Y-70982163D01*
X173750000Y-70962354D01*
X173750000Y-72250000D01*
X172250000Y-72250000D01*
X172250000Y-70962354D01*
X172249999Y-70962354D01*
X172202175Y-70982163D01*
X172202171Y-70982165D01*
X171997828Y-71100144D01*
X171997819Y-71100150D01*
X171810632Y-71243783D01*
X171810625Y-71243789D01*
X171672181Y-71382234D01*
X171610858Y-71415719D01*
X171541166Y-71410735D01*
X171485233Y-71368863D01*
X171460816Y-71303399D01*
X171460500Y-71294553D01*
X171460500Y-69811848D01*
X171462883Y-69787656D01*
X171500501Y-69598542D01*
X171500501Y-69401456D01*
X171500500Y-69401454D01*
X171497257Y-69385151D01*
X171462052Y-69208164D01*
X171386632Y-69026085D01*
X171386631Y-69026084D01*
X171386628Y-69026078D01*
X171277140Y-68862218D01*
X171277137Y-68862214D01*
X171132415Y-68717492D01*
X171132396Y-68717475D01*
X171027139Y-68612218D01*
X170887782Y-68472861D01*
X170887781Y-68472860D01*
X170887780Y-68472859D01*
X170723920Y-68363371D01*
X170723911Y-68363366D01*
X170625359Y-68322545D01*
X170595165Y-68310038D01*
X170541836Y-68287949D01*
X170414730Y-68262666D01*
X170410793Y-68261882D01*
X170410786Y-68261881D01*
X170348543Y-68249500D01*
X170348541Y-68249500D01*
X160934500Y-68249500D01*
X160867461Y-68229815D01*
X160821706Y-68177011D01*
X160810500Y-68125500D01*
X160810500Y-64375761D01*
X160830185Y-64308722D01*
X160834165Y-64302899D01*
X160922287Y-64181610D01*
X161015220Y-63999219D01*
X161078477Y-63804534D01*
X161110500Y-63602352D01*
X161110500Y-63397648D01*
X161078477Y-63195466D01*
X161015220Y-63000781D01*
X161015218Y-63000778D01*
X161015218Y-63000776D01*
X160964611Y-62901455D01*
X160922287Y-62818390D01*
X160914556Y-62807749D01*
X160801971Y-62652786D01*
X160657213Y-62508028D01*
X160491613Y-62387715D01*
X160491612Y-62387714D01*
X160491610Y-62387713D01*
X160434653Y-62358691D01*
X160309223Y-62294781D01*
X160114534Y-62231522D01*
X159939835Y-62203853D01*
X159912352Y-62199500D01*
X159707648Y-62199500D01*
X159683329Y-62203351D01*
X159505465Y-62231522D01*
X159310776Y-62294781D01*
X159128386Y-62387715D01*
X158962786Y-62508028D01*
X158818028Y-62652786D01*
X158697715Y-62818386D01*
X158604781Y-63000776D01*
X158541522Y-63195465D01*
X158509500Y-63397648D01*
X153490500Y-63397648D01*
X153458477Y-63195466D01*
X153395220Y-63000781D01*
X153395218Y-63000778D01*
X153395218Y-63000776D01*
X153344611Y-62901455D01*
X153302287Y-62818390D01*
X153294556Y-62807749D01*
X153181971Y-62652786D01*
X153037213Y-62508028D01*
X152871613Y-62387715D01*
X152871612Y-62387714D01*
X152871610Y-62387713D01*
X152814653Y-62358691D01*
X152689223Y-62294781D01*
X152494534Y-62231522D01*
X152319837Y-62203853D01*
X152270344Y-62184482D01*
X152163920Y-62113371D01*
X152163907Y-62113364D01*
X152041148Y-62062517D01*
X152020842Y-62054106D01*
X151981836Y-62037949D01*
X151816975Y-62005156D01*
X151801388Y-62002055D01*
X151788542Y-61999500D01*
X151788541Y-61999500D01*
X142894500Y-61999500D01*
X142827461Y-61979815D01*
X142781706Y-61927011D01*
X142770500Y-61875500D01*
X142770500Y-51883961D01*
X142770499Y-51883947D01*
X142756953Y-51781056D01*
X142740206Y-51653851D01*
X142680137Y-51429670D01*
X142591320Y-51215248D01*
X142591319Y-51215246D01*
X142577111Y-51190636D01*
X142560500Y-51128639D01*
X142560500Y-51019933D01*
X142580185Y-50952894D01*
X142632989Y-50907139D01*
X142702147Y-50897195D01*
X142740792Y-50909447D01*
X142795062Y-50937099D01*
X142885616Y-50983239D01*
X142885618Y-50983239D01*
X142885621Y-50983241D01*
X143125215Y-51061090D01*
X143374038Y-51100500D01*
X143374039Y-51100500D01*
X143625961Y-51100500D01*
X143625962Y-51100500D01*
X143874785Y-51061090D01*
X144114379Y-50983241D01*
X144118238Y-50981275D01*
X144120048Y-50980352D01*
X144338845Y-50868870D01*
X144542656Y-50720793D01*
X144720793Y-50542656D01*
X144868870Y-50338845D01*
X144983241Y-50114379D01*
X145061090Y-49874785D01*
X145100500Y-49625962D01*
X145100500Y-46287254D01*
X145109939Y-46239801D01*
X145180137Y-46070330D01*
X145240206Y-45846149D01*
X145270500Y-45616045D01*
X145271030Y-45612020D01*
X145272029Y-45612151D01*
X145294506Y-45550779D01*
X145350191Y-45508577D01*
X145394212Y-45500500D01*
X152401459Y-45500500D01*
X152875500Y-45500500D01*
X152942539Y-45520185D01*
X152988294Y-45572989D01*
X152999500Y-45624500D01*
X152999500Y-58598544D01*
X153018724Y-58695188D01*
X153037947Y-58791828D01*
X153037950Y-58791840D01*
X153057357Y-58838692D01*
X153113364Y-58973907D01*
X153113371Y-58973920D01*
X153222859Y-59137780D01*
X153222860Y-59137781D01*
X153222861Y-59137782D01*
X153362218Y-59277139D01*
X153472860Y-59387781D01*
X153472861Y-59387781D01*
X153472861Y-59387782D01*
X153558319Y-59473240D01*
X153612219Y-59527140D01*
X153717091Y-59597213D01*
X153776086Y-59636632D01*
X153882745Y-59680811D01*
X153958164Y-59712051D01*
X154151454Y-59750499D01*
X154151457Y-59750500D01*
X154151459Y-59750500D01*
X164255500Y-59750500D01*
X164322539Y-59770185D01*
X164368294Y-59822989D01*
X164379500Y-59874500D01*
X164379500Y-64104237D01*
X164359815Y-64171276D01*
X164355818Y-64177122D01*
X164267715Y-64298386D01*
X164174781Y-64480776D01*
X164111522Y-64675465D01*
X164079500Y-64877648D01*
X164079500Y-65882351D01*
X164111522Y-66084534D01*
X164174781Y-66279223D01*
X164267715Y-66461613D01*
X164388028Y-66627213D01*
X164532786Y-66771971D01*
X164675284Y-66875500D01*
X164698390Y-66892287D01*
X164797015Y-66942539D01*
X164880776Y-66985218D01*
X164880778Y-66985218D01*
X164880781Y-66985220D01*
X164985137Y-67019127D01*
X165075465Y-67048477D01*
X165176557Y-67064488D01*
X165277648Y-67080500D01*
X165277649Y-67080500D01*
X165482351Y-67080500D01*
X165482352Y-67080500D01*
X165684534Y-67048477D01*
X165879219Y-66985220D01*
X166061610Y-66892287D01*
X166154590Y-66824732D01*
X166227213Y-66771971D01*
X166227215Y-66771968D01*
X166227219Y-66771966D01*
X166371966Y-66627219D01*
X166371968Y-66627215D01*
X166371971Y-66627213D01*
X166492284Y-66461614D01*
X166492285Y-66461613D01*
X166492287Y-66461610D01*
X166539516Y-66368917D01*
X166587489Y-66318123D01*
X166655310Y-66301328D01*
X166721445Y-66323865D01*
X166760483Y-66368917D01*
X166783367Y-66413828D01*
X166807715Y-66461614D01*
X166928028Y-66627213D01*
X167072786Y-66771971D01*
X167215284Y-66875500D01*
X167238390Y-66892287D01*
X167337015Y-66942539D01*
X167420776Y-66985218D01*
X167420778Y-66985218D01*
X167420781Y-66985220D01*
X167525137Y-67019127D01*
X167615465Y-67048477D01*
X167716557Y-67064488D01*
X167817648Y-67080500D01*
X167817649Y-67080500D01*
X168022351Y-67080500D01*
X168022352Y-67080500D01*
X168224534Y-67048477D01*
X168419219Y-66985220D01*
X168601610Y-66892287D01*
X168694590Y-66824732D01*
X168767213Y-66771971D01*
X168767215Y-66771968D01*
X168767219Y-66771966D01*
X168911966Y-66627219D01*
X168911968Y-66627215D01*
X168911971Y-66627213D01*
X169032284Y-66461614D01*
X169032285Y-66461613D01*
X169032287Y-66461610D01*
X169039117Y-66448204D01*
X169087091Y-66397409D01*
X169149602Y-66380500D01*
X169230398Y-66380500D01*
X169297437Y-66400185D01*
X169340883Y-66448205D01*
X169347715Y-66461614D01*
X169468028Y-66627213D01*
X169612786Y-66771971D01*
X169755284Y-66875500D01*
X169778390Y-66892287D01*
X169877015Y-66942539D01*
X169960776Y-66985218D01*
X169960778Y-66985218D01*
X169960781Y-66985220D01*
X170065137Y-67019127D01*
X170155465Y-67048477D01*
X170256557Y-67064488D01*
X170357648Y-67080500D01*
X170357649Y-67080500D01*
X170562351Y-67080500D01*
X170562352Y-67080500D01*
X170764534Y-67048477D01*
X170959219Y-66985220D01*
X171141610Y-66892287D01*
X171234590Y-66824732D01*
X171307213Y-66771971D01*
X171307215Y-66771968D01*
X171307219Y-66771966D01*
X171451966Y-66627219D01*
X171451968Y-66627215D01*
X171451971Y-66627213D01*
X171572284Y-66461614D01*
X171572285Y-66461613D01*
X171572287Y-66461610D01*
X171619516Y-66368917D01*
X171667489Y-66318123D01*
X171735310Y-66301328D01*
X171801445Y-66323865D01*
X171840483Y-66368917D01*
X171863367Y-66413828D01*
X171887715Y-66461614D01*
X172008028Y-66627213D01*
X172152786Y-66771971D01*
X172295284Y-66875500D01*
X172318390Y-66892287D01*
X172417015Y-66942539D01*
X172500776Y-66985218D01*
X172500778Y-66985218D01*
X172500781Y-66985220D01*
X172605137Y-67019127D01*
X172695465Y-67048477D01*
X172796557Y-67064488D01*
X172897648Y-67080500D01*
X172897649Y-67080500D01*
X173102351Y-67080500D01*
X173102352Y-67080500D01*
X173304534Y-67048477D01*
X173499219Y-66985220D01*
X173681610Y-66892287D01*
X173774590Y-66824732D01*
X173847213Y-66771971D01*
X173847215Y-66771968D01*
X173847219Y-66771966D01*
X173991966Y-66627219D01*
X173991968Y-66627215D01*
X173991971Y-66627213D01*
X174076173Y-66511317D01*
X174112287Y-66461610D01*
X174205220Y-66279219D01*
X174268477Y-66084534D01*
X174300500Y-65882352D01*
X174300500Y-64877648D01*
X174288281Y-64800500D01*
X174268477Y-64675465D01*
X174239127Y-64585137D01*
X174205220Y-64480781D01*
X174205218Y-64480778D01*
X174205218Y-64480776D01*
X174161419Y-64394817D01*
X174112287Y-64298390D01*
X174084184Y-64259709D01*
X174024182Y-64177122D01*
X174000702Y-64111316D01*
X174000500Y-64104237D01*
X174000500Y-48901456D01*
X173962052Y-48708170D01*
X173962051Y-48708169D01*
X173962051Y-48708165D01*
X173927551Y-48624874D01*
X173886635Y-48526092D01*
X173886628Y-48526079D01*
X173777139Y-48362218D01*
X173777136Y-48362214D01*
X173637785Y-48222863D01*
X173637781Y-48222860D01*
X173473920Y-48113371D01*
X173473907Y-48113364D01*
X173291839Y-48037950D01*
X173291829Y-48037947D01*
X173098543Y-47999500D01*
X173098541Y-47999500D01*
X167434500Y-47999500D01*
X167367461Y-47979815D01*
X167321706Y-47927011D01*
X167310500Y-47875500D01*
X167310500Y-45375761D01*
X167330185Y-45308722D01*
X167334165Y-45302899D01*
X167422287Y-45181610D01*
X167515220Y-44999219D01*
X167578477Y-44804534D01*
X167610500Y-44602352D01*
X167610500Y-44397648D01*
X167578477Y-44195466D01*
X167515220Y-44000781D01*
X167515218Y-44000778D01*
X167515218Y-44000776D01*
X167455694Y-43883955D01*
X167422287Y-43818390D01*
X167410468Y-43802122D01*
X167301971Y-43652786D01*
X167157213Y-43508028D01*
X166991613Y-43387715D01*
X166991612Y-43387714D01*
X166991610Y-43387713D01*
X166921347Y-43351912D01*
X166809223Y-43294781D01*
X166614534Y-43231522D01*
X166439995Y-43203878D01*
X166412352Y-43199500D01*
X166207648Y-43199500D01*
X166183329Y-43203351D01*
X166005465Y-43231522D01*
X165810776Y-43294781D01*
X165628386Y-43387715D01*
X165462786Y-43508028D01*
X165318028Y-43652786D01*
X165197715Y-43818386D01*
X165104781Y-44000776D01*
X165041522Y-44195465D01*
X165009500Y-44397648D01*
X165009500Y-44602351D01*
X165041522Y-44804534D01*
X165104781Y-44999223D01*
X165197713Y-45181610D01*
X165285819Y-45302877D01*
X165309298Y-45368681D01*
X165309500Y-45375761D01*
X165309500Y-47418986D01*
X165299526Y-47467711D01*
X165295341Y-47477503D01*
X165292752Y-47481379D01*
X165263543Y-47551897D01*
X165263289Y-47552510D01*
X165263272Y-47552550D01*
X165232670Y-47626431D01*
X165217334Y-47663453D01*
X165217331Y-47663463D01*
X165178884Y-47856749D01*
X165178884Y-48124237D01*
X165159199Y-48191276D01*
X165155202Y-48197122D01*
X165067099Y-48318386D01*
X164974165Y-48500776D01*
X164910906Y-48695465D01*
X164878884Y-48897648D01*
X164878884Y-49102351D01*
X164910906Y-49304534D01*
X164974165Y-49499223D01*
X165067099Y-49681613D01*
X165187412Y-49847213D01*
X165332170Y-49991971D01*
X165487133Y-50104556D01*
X165497774Y-50112287D01*
X165613991Y-50171503D01*
X165680160Y-50205218D01*
X165680162Y-50205218D01*
X165680165Y-50205220D01*
X165784521Y-50239127D01*
X165874849Y-50268477D01*
X165975941Y-50284488D01*
X166077032Y-50300500D01*
X166077033Y-50300500D01*
X166281735Y-50300500D01*
X166281736Y-50300500D01*
X166483918Y-50268477D01*
X166678603Y-50205220D01*
X166860994Y-50112287D01*
X166982261Y-50024181D01*
X167048067Y-50000702D01*
X167055146Y-50000500D01*
X171875500Y-50000500D01*
X171942539Y-50020185D01*
X171988294Y-50072989D01*
X171999500Y-50124500D01*
X171999500Y-64104237D01*
X171979815Y-64171276D01*
X171975818Y-64177122D01*
X171887715Y-64298386D01*
X171840485Y-64391080D01*
X171792510Y-64441876D01*
X171724689Y-64458671D01*
X171658554Y-64436134D01*
X171619515Y-64391080D01*
X171613615Y-64379500D01*
X171572287Y-64298390D01*
X171561874Y-64284057D01*
X171451971Y-64132786D01*
X171307213Y-63988028D01*
X171141613Y-63867715D01*
X171141612Y-63867714D01*
X171141610Y-63867713D01*
X171084653Y-63838691D01*
X170959223Y-63774781D01*
X170764534Y-63711522D01*
X170589995Y-63683878D01*
X170562352Y-63679500D01*
X170357648Y-63679500D01*
X170333329Y-63683351D01*
X170155465Y-63711522D01*
X169960776Y-63774781D01*
X169778386Y-63867715D01*
X169612786Y-63988028D01*
X169468028Y-64132786D01*
X169347715Y-64298385D01*
X169340883Y-64311795D01*
X169292909Y-64362591D01*
X169230398Y-64379500D01*
X169149602Y-64379500D01*
X169082563Y-64359815D01*
X169039117Y-64311795D01*
X169032284Y-64298385D01*
X168911971Y-64132786D01*
X168767213Y-63988028D01*
X168601613Y-63867715D01*
X168601612Y-63867714D01*
X168601610Y-63867713D01*
X168544653Y-63838691D01*
X168419223Y-63774781D01*
X168224534Y-63711522D01*
X168049995Y-63683878D01*
X168022352Y-63679500D01*
X167817648Y-63679500D01*
X167793329Y-63683351D01*
X167615465Y-63711522D01*
X167420776Y-63774781D01*
X167238386Y-63867715D01*
X167072786Y-63988028D01*
X166928028Y-64132786D01*
X166807715Y-64298386D01*
X166760485Y-64391080D01*
X166712510Y-64441876D01*
X166644689Y-64458671D01*
X166578554Y-64436134D01*
X166539515Y-64391080D01*
X166533615Y-64379500D01*
X166492287Y-64298390D01*
X166464184Y-64259709D01*
X166404182Y-64177122D01*
X166380702Y-64111316D01*
X166380500Y-64104237D01*
X166380500Y-59760047D01*
X166400185Y-59693008D01*
X166416819Y-59672366D01*
X166452557Y-59636628D01*
X166491966Y-59597219D01*
X166491968Y-59597215D01*
X166491971Y-59597213D01*
X166582041Y-59473240D01*
X166612287Y-59431610D01*
X166705220Y-59249219D01*
X166768477Y-59054534D01*
X166800500Y-58852352D01*
X166800500Y-58647648D01*
X166768477Y-58445466D01*
X166705220Y-58250781D01*
X166705218Y-58250778D01*
X166705218Y-58250776D01*
X166671503Y-58184607D01*
X166612287Y-58068390D01*
X166604556Y-58057749D01*
X166491971Y-57902786D01*
X166347213Y-57758028D01*
X166181613Y-57637715D01*
X166181612Y-57637714D01*
X166181610Y-57637713D01*
X165999219Y-57544780D01*
X165838786Y-57492652D01*
X165804532Y-57481522D01*
X165685498Y-57462668D01*
X165622364Y-57432738D01*
X165617217Y-57427876D01*
X165500001Y-57310660D01*
X165499999Y-57310660D01*
X165382780Y-57427877D01*
X165321457Y-57461361D01*
X165314500Y-57462668D01*
X165195468Y-57481522D01*
X165000778Y-57544781D01*
X164818386Y-57637715D01*
X164764300Y-57677011D01*
X164701894Y-57722352D01*
X164697123Y-57725818D01*
X164631317Y-57749298D01*
X164624238Y-57749500D01*
X155124500Y-57749500D01*
X155057461Y-57729815D01*
X155011706Y-57677011D01*
X155000500Y-57625500D01*
X155000500Y-56132014D01*
X163700000Y-56132014D01*
X163700000Y-56367985D01*
X163730798Y-56601912D01*
X163791871Y-56829837D01*
X163811678Y-56877660D01*
X163811679Y-56877660D01*
X164439340Y-56250000D01*
X164439340Y-56249999D01*
X164386680Y-56197339D01*
X165100000Y-56197339D01*
X165100000Y-56302661D01*
X165127259Y-56404394D01*
X165179920Y-56495606D01*
X165254394Y-56570080D01*
X165345606Y-56622741D01*
X165447339Y-56650000D01*
X165552661Y-56650000D01*
X165654394Y-56622741D01*
X165745606Y-56570080D01*
X165820080Y-56495606D01*
X165872741Y-56404394D01*
X165900000Y-56302661D01*
X165900000Y-56249999D01*
X166560660Y-56249999D01*
X166560660Y-56250000D01*
X167188319Y-56877660D01*
X167208130Y-56829834D01*
X167269200Y-56601914D01*
X167299999Y-56367985D01*
X167300000Y-56367971D01*
X167300000Y-56132028D01*
X167299999Y-56132014D01*
X167269201Y-55898087D01*
X167208129Y-55670165D01*
X167208125Y-55670152D01*
X167188320Y-55622338D01*
X167188319Y-55622338D01*
X166560660Y-56249999D01*
X165900000Y-56249999D01*
X165900000Y-56197339D01*
X165872741Y-56095606D01*
X165820080Y-56004394D01*
X165745606Y-55929920D01*
X165654394Y-55877259D01*
X165552661Y-55850000D01*
X165447339Y-55850000D01*
X165345606Y-55877259D01*
X165254394Y-55929920D01*
X165179920Y-56004394D01*
X165127259Y-56095606D01*
X165100000Y-56197339D01*
X164386680Y-56197339D01*
X163811679Y-55622338D01*
X163791872Y-55670159D01*
X163791868Y-55670170D01*
X163730798Y-55898087D01*
X163700000Y-56132014D01*
X155000500Y-56132014D01*
X155000500Y-54561679D01*
X164872338Y-54561679D01*
X165500000Y-55189340D01*
X165500001Y-55189340D01*
X166127660Y-54561679D01*
X166127660Y-54561678D01*
X166079837Y-54541871D01*
X165851912Y-54480798D01*
X165617985Y-54450000D01*
X165382014Y-54450000D01*
X165148087Y-54480798D01*
X164920170Y-54541868D01*
X164920159Y-54541872D01*
X164872338Y-54561679D01*
X155000500Y-54561679D01*
X155000500Y-50688319D01*
X157931722Y-50688319D01*
X157931722Y-50688320D01*
X157979536Y-50708125D01*
X157979549Y-50708129D01*
X158207471Y-50769201D01*
X158441398Y-50799999D01*
X158441413Y-50800000D01*
X158677355Y-50800000D01*
X158677369Y-50799999D01*
X158911298Y-50769200D01*
X159139218Y-50708130D01*
X159187044Y-50688319D01*
X158559385Y-50060660D01*
X158559384Y-50060660D01*
X157931722Y-50688319D01*
X155000500Y-50688319D01*
X155000500Y-48882014D01*
X156759384Y-48882014D01*
X156759384Y-49117985D01*
X156790182Y-49351912D01*
X156851255Y-49579837D01*
X156871062Y-49627660D01*
X156871063Y-49627660D01*
X157498724Y-49000000D01*
X157498724Y-48999999D01*
X157446064Y-48947339D01*
X158159384Y-48947339D01*
X158159384Y-49052661D01*
X158186643Y-49154394D01*
X158239304Y-49245606D01*
X158313778Y-49320080D01*
X158404990Y-49372741D01*
X158506723Y-49400000D01*
X158612045Y-49400000D01*
X158713778Y-49372741D01*
X158804990Y-49320080D01*
X158879464Y-49245606D01*
X158932125Y-49154394D01*
X158959384Y-49052661D01*
X158959384Y-48999999D01*
X159620044Y-48999999D01*
X159620044Y-49000000D01*
X160247703Y-49627660D01*
X160267514Y-49579834D01*
X160328584Y-49351914D01*
X160359383Y-49117985D01*
X160359384Y-49117971D01*
X160359384Y-48882028D01*
X160359383Y-48882014D01*
X160328585Y-48648087D01*
X160267513Y-48420165D01*
X160267509Y-48420152D01*
X160247704Y-48372338D01*
X160247703Y-48372338D01*
X159620044Y-48999999D01*
X158959384Y-48999999D01*
X158959384Y-48947339D01*
X158932125Y-48845606D01*
X158879464Y-48754394D01*
X158804990Y-48679920D01*
X158713778Y-48627259D01*
X158612045Y-48600000D01*
X158506723Y-48600000D01*
X158404990Y-48627259D01*
X158313778Y-48679920D01*
X158239304Y-48754394D01*
X158186643Y-48845606D01*
X158159384Y-48947339D01*
X157446064Y-48947339D01*
X156871063Y-48372338D01*
X156851256Y-48420159D01*
X156851252Y-48420170D01*
X156790182Y-48648087D01*
X156759384Y-48882014D01*
X155000500Y-48882014D01*
X155000500Y-47311679D01*
X157931722Y-47311679D01*
X158559384Y-47939340D01*
X158559385Y-47939340D01*
X159187044Y-47311679D01*
X159187044Y-47311678D01*
X159139221Y-47291871D01*
X158911296Y-47230798D01*
X158677369Y-47200000D01*
X158441398Y-47200000D01*
X158207471Y-47230798D01*
X157979554Y-47291868D01*
X157979543Y-47291872D01*
X157931722Y-47311679D01*
X155000500Y-47311679D01*
X155000500Y-45624500D01*
X155020185Y-45557461D01*
X155072989Y-45511706D01*
X155124500Y-45500500D01*
X157814238Y-45500500D01*
X157881277Y-45520185D01*
X157887119Y-45524179D01*
X158008390Y-45612287D01*
X158124607Y-45671503D01*
X158190776Y-45705218D01*
X158190778Y-45705218D01*
X158190781Y-45705220D01*
X158295137Y-45739127D01*
X158385465Y-45768477D01*
X158486557Y-45784488D01*
X158587648Y-45800500D01*
X158587649Y-45800500D01*
X158792351Y-45800500D01*
X158792352Y-45800500D01*
X158994534Y-45768477D01*
X159189219Y-45705220D01*
X159371610Y-45612287D01*
X159498379Y-45520185D01*
X159537213Y-45491971D01*
X159537215Y-45491968D01*
X159537219Y-45491966D01*
X159681966Y-45347219D01*
X159681968Y-45347215D01*
X159681971Y-45347213D01*
X159734732Y-45274590D01*
X159802287Y-45181610D01*
X159895220Y-44999219D01*
X159958477Y-44804534D01*
X159990500Y-44602352D01*
X159990500Y-44397648D01*
X159958477Y-44195466D01*
X159895220Y-44000781D01*
X159895218Y-44000778D01*
X159895218Y-44000776D01*
X159835694Y-43883955D01*
X159802287Y-43818390D01*
X159790468Y-43802122D01*
X159681971Y-43652786D01*
X159537213Y-43508028D01*
X159371613Y-43387715D01*
X159371612Y-43387714D01*
X159371610Y-43387713D01*
X159301347Y-43351912D01*
X159189223Y-43294781D01*
X158994534Y-43231522D01*
X158819995Y-43203878D01*
X158792352Y-43199500D01*
X158587648Y-43199500D01*
X158563329Y-43203351D01*
X158385465Y-43231522D01*
X158190776Y-43294781D01*
X158008386Y-43387715D01*
X157887123Y-43475818D01*
X157821317Y-43499298D01*
X157814238Y-43499500D01*
X145394500Y-43499500D01*
X145327461Y-43479815D01*
X145281706Y-43427011D01*
X145270500Y-43375500D01*
X145270500Y-37383961D01*
X145270499Y-37383947D01*
X145268968Y-37372318D01*
X145240206Y-37153851D01*
X145180137Y-36929670D01*
X145091320Y-36715248D01*
X145091314Y-36715237D01*
X144975279Y-36514256D01*
X144975278Y-36514254D01*
X144833990Y-36330124D01*
X144833984Y-36330117D01*
X144669882Y-36166015D01*
X144669875Y-36166009D01*
X144485745Y-36024721D01*
X144485743Y-36024720D01*
X144284762Y-35908685D01*
X144284754Y-35908681D01*
X144284752Y-35908680D01*
X144070330Y-35819863D01*
X144070331Y-35819863D01*
X144070328Y-35819862D01*
X143928203Y-35781780D01*
X143846149Y-35759794D01*
X143817386Y-35756007D01*
X143616052Y-35729500D01*
X143616045Y-35729500D01*
X111616045Y-35729500D01*
X99116045Y-35729500D01*
X93833544Y-35729500D01*
X93601455Y-35729500D01*
X93601454Y-35729500D01*
X93371352Y-35759792D01*
X93259259Y-35789827D01*
X93259260Y-35789828D01*
X93147169Y-35819863D01*
X92932754Y-35908677D01*
X92932737Y-35908685D01*
X92731756Y-36024720D01*
X92731754Y-36024721D01*
X92547624Y-36166009D01*
X92547617Y-36166015D01*
X89004740Y-39708892D01*
X88964515Y-39735771D01*
X88907625Y-39759337D01*
X88907616Y-39759341D01*
X88691873Y-39883900D01*
X88494225Y-40035560D01*
X88494218Y-40035566D01*
X88318066Y-40211718D01*
X88318060Y-40211725D01*
X88166400Y-40409373D01*
X88041837Y-40625123D01*
X88041830Y-40625138D01*
X87946498Y-40855292D01*
X87882017Y-41095938D01*
X87849501Y-41342924D01*
X87849500Y-41342941D01*
X87849500Y-41592058D01*
X87849501Y-41592075D01*
X87882017Y-41839061D01*
X87946498Y-42079707D01*
X88041830Y-42309861D01*
X88041837Y-42309876D01*
X88166400Y-42525626D01*
X88318060Y-42723274D01*
X88318066Y-42723281D01*
X88494218Y-42899433D01*
X88494224Y-42899438D01*
X88691873Y-43051099D01*
X88691880Y-43051103D01*
X88694384Y-43052776D01*
X88694966Y-43053472D01*
X88695093Y-43053570D01*
X88695071Y-43053598D01*
X88739192Y-43106385D01*
X88749500Y-43155883D01*
X88749500Y-48784218D01*
X88729815Y-48851257D01*
X88713181Y-48871899D01*
X88621899Y-48963181D01*
X88560576Y-48996666D01*
X88534218Y-48999500D01*
X85375762Y-48999500D01*
X85308723Y-48979815D01*
X85302877Y-48975818D01*
X85298819Y-48972870D01*
X85200526Y-48901456D01*
X85181613Y-48887715D01*
X85181612Y-48887714D01*
X85181610Y-48887713D01*
X85100227Y-48846246D01*
X84999223Y-48794781D01*
X84804534Y-48731522D01*
X84629995Y-48703878D01*
X84602352Y-48699500D01*
X84397648Y-48699500D01*
X84373329Y-48703351D01*
X84195465Y-48731522D01*
X84000776Y-48794781D01*
X83818386Y-48887715D01*
X83762215Y-48928526D01*
X83701181Y-48972870D01*
X83697123Y-48975818D01*
X83631317Y-48999298D01*
X83624238Y-48999500D01*
X80901457Y-48999500D01*
X80708170Y-49037947D01*
X80708160Y-49037950D01*
X80526092Y-49113364D01*
X80526079Y-49113371D01*
X80362218Y-49222860D01*
X80362214Y-49222863D01*
X80222863Y-49362214D01*
X80222860Y-49362218D01*
X80113371Y-49526079D01*
X80113364Y-49526092D01*
X80037950Y-49708160D01*
X80037947Y-49708170D01*
X79999500Y-49901456D01*
X79999500Y-49901459D01*
X79999500Y-79401459D01*
X79999500Y-79598541D01*
X79999500Y-79598543D01*
X79999499Y-79598543D01*
X78000500Y-79598543D01*
X78000500Y-42681695D01*
X82350000Y-42681695D01*
X82360400Y-42813832D01*
X82415377Y-43032019D01*
X82508428Y-43236874D01*
X82508431Y-43236880D01*
X82636559Y-43421823D01*
X82636569Y-43421835D01*
X82795664Y-43580930D01*
X82795676Y-43580940D01*
X82980619Y-43709068D01*
X82980625Y-43709071D01*
X83185480Y-43802122D01*
X83403667Y-43857099D01*
X83535804Y-43867499D01*
X83535818Y-43867500D01*
X84000000Y-43867500D01*
X85500000Y-43867500D01*
X85964182Y-43867500D01*
X85964195Y-43867499D01*
X86096332Y-43857099D01*
X86314519Y-43802122D01*
X86519374Y-43709071D01*
X86519380Y-43709068D01*
X86704323Y-43580940D01*
X86704335Y-43580930D01*
X86863430Y-43421835D01*
X86863440Y-43421823D01*
X86991568Y-43236880D01*
X86991571Y-43236874D01*
X87084622Y-43032019D01*
X87139599Y-42813832D01*
X87149999Y-42681695D01*
X87150000Y-42681682D01*
X87150000Y-42217500D01*
X85500000Y-42217500D01*
X85500000Y-43867500D01*
X84000000Y-43867500D01*
X84000000Y-42217500D01*
X82350000Y-42217500D01*
X82350000Y-42681695D01*
X78000500Y-42681695D01*
X78000500Y-41403481D01*
X84100000Y-41403481D01*
X84100000Y-41531519D01*
X84124979Y-41657098D01*
X84173978Y-41775390D01*
X84245112Y-41881851D01*
X84335649Y-41972388D01*
X84442110Y-42043522D01*
X84560402Y-42092521D01*
X84685981Y-42117500D01*
X84814019Y-42117500D01*
X84939598Y-42092521D01*
X85057890Y-42043522D01*
X85164351Y-41972388D01*
X85254888Y-41881851D01*
X85326022Y-41775390D01*
X85375021Y-41657098D01*
X85400000Y-41531519D01*
X85400000Y-41403481D01*
X85375021Y-41277902D01*
X85326022Y-41159610D01*
X85254888Y-41053149D01*
X85164351Y-40962612D01*
X85057890Y-40891478D01*
X84939598Y-40842479D01*
X84814019Y-40817500D01*
X84685981Y-40817500D01*
X84560402Y-40842479D01*
X84442110Y-40891478D01*
X84335649Y-40962612D01*
X84245112Y-41053149D01*
X84173978Y-41159610D01*
X84124979Y-41277902D01*
X84100000Y-41403481D01*
X78000500Y-41403481D01*
X78000500Y-40253304D01*
X82350000Y-40253304D01*
X82350000Y-40717500D01*
X84000000Y-40717500D01*
X85500000Y-40717500D01*
X87150000Y-40717500D01*
X87150000Y-40253317D01*
X87149999Y-40253304D01*
X87139599Y-40121167D01*
X87084622Y-39902980D01*
X86991571Y-39698125D01*
X86991568Y-39698119D01*
X86863440Y-39513176D01*
X86863430Y-39513164D01*
X86704335Y-39354069D01*
X86704323Y-39354059D01*
X86519380Y-39225931D01*
X86519374Y-39225928D01*
X86314519Y-39132877D01*
X86096332Y-39077900D01*
X85964195Y-39067500D01*
X85500000Y-39067500D01*
X85500000Y-40717500D01*
X84000000Y-40717500D01*
X84000000Y-39067500D01*
X83535804Y-39067500D01*
X83403667Y-39077900D01*
X83185480Y-39132877D01*
X82980625Y-39225928D01*
X82980619Y-39225931D01*
X82795676Y-39354059D01*
X82795664Y-39354069D01*
X82636569Y-39513164D01*
X82636559Y-39513176D01*
X82508431Y-39698119D01*
X82508428Y-39698125D01*
X82415377Y-39902980D01*
X82360400Y-40121167D01*
X82350000Y-40253304D01*
X78000500Y-40253304D01*
X78000500Y-33624500D01*
X78020185Y-33557461D01*
X78072989Y-33511706D01*
X78124500Y-33500500D01*
X176875499Y-33500500D01*
X176942538Y-33520185D01*
G37*
%TD.AperFunction*%
%TD*%
M02*
