M48
; DRILL file KiCad 10.0.0 date 2026-05-11T13:12:22
; FORMAT={-:-/ absolute / metric / decimal}
; #@! TF.CreationDate,2026-05-11T13:12:22-03:00
; #@! TF.GenerationSoftware,Kicad,Pcbnew,10.0.0
; #@! TF.FileFunction,Plated,1,2,PTH
FMAT,2
METRIC
; #@! TA.AperFunction,Plated,PTH,ComponentDrill
T1C0.800
; #@! TA.AperFunction,Plated,PTH,ComponentDrill
T2C1.000
; #@! TA.AperFunction,Plated,PTH,ComponentDrill
T3C1.100
; #@! TA.AperFunction,Plated,PTH,ComponentDrill
T4C1.200
; #@! TA.AperFunction,Plated,PTH,ComponentDrill
T5C1.300
%
G90
G05
T1
X84.5Y-50.0
X84.5Y-57.62
X84.5Y-62.92
X84.5Y-65.46
X84.5Y-68.0
X86.88Y-79.5
X91.25Y-65.485
X93.79Y-65.485
X94.5Y-79.5
X98.882Y-77.0
X98.882Y-79.54
X98.882Y-82.08
X98.882Y-85.5
X98.882Y-93.12
X98.952Y-40.506
X98.952Y-48.126
X99.0Y-62.92
X99.0Y-65.46
X99.0Y-68.0
X99.016Y-51.126
X99.016Y-53.666
X99.016Y-56.206
X104.452Y-70.586
X104.452Y-73.126
X111.382Y-85.5
X111.382Y-93.12
X111.395Y-62.906
X111.395Y-65.446
X111.395Y-67.986
X111.452Y-40.506
X111.452Y-48.126
X111.522Y-77.0
X111.522Y-79.54
X111.522Y-82.08
X111.565Y-51.163
X111.565Y-53.703
X111.565Y-56.243
X116.25Y-60.5
X117.951Y-83.005
X117.951Y-90.625
X117.963Y-70.75
X117.963Y-73.29
X118.79Y-60.5
X123.5Y-43.0
X123.5Y-50.62
X123.5Y-54.145
X123.5Y-56.645
X124.015Y-82.69
X124.015Y-90.31
X125.0Y-67.21
X125.0Y-69.75
X125.14Y-74.0
X125.14Y-76.54
X125.14Y-79.08
X128.64Y-57.96
X128.64Y-60.5
X128.64Y-63.04
X150.69Y-84.5
X152.19Y-63.5
X152.323Y-69.25
X153.25Y-76.675
X155.79Y-76.675
X158.31Y-84.5
X158.559Y-49.0
X158.69Y-44.5
X159.81Y-63.5
X159.943Y-69.25
X160.38Y-90.0
X160.38Y-94.5
X161.5Y-76.69
X161.5Y-84.31
X165.38Y-65.38
X165.38Y-73.0
X165.385Y-76.42
X165.5Y-56.25
X165.5Y-58.75
X166.179Y-49.0
X166.31Y-44.5
X167.92Y-65.38
X167.92Y-73.0
X167.925Y-76.42
X168.0Y-90.0
X168.0Y-94.5
X170.46Y-65.38
X170.46Y-73.0
X173.0Y-65.38
X173.0Y-73.0
T2
X84.5Y-75.0
X86.5Y-85.5
X91.5Y-74.5
X118.0Y-95.5
X132.5Y-95.5
X141.0Y-63.0
T3
X138.42Y-49.5
X140.96Y-49.5
X143.5Y-49.5
T4
X136.5Y-71.0
X136.5Y-86.24
X145.5Y-71.0
X145.5Y-86.24
T5
X84.75Y-41.468
X89.75Y-41.468
X140.5Y-96.0
X145.5Y-96.0
M30
