%TF.GenerationSoftware,KiCad,Pcbnew,10.0.0*%
%TF.CreationDate,2026-05-11T13:12:19-03:00*%
%TF.ProjectId,Dise_o_v4,44697365-f16f-45f7-9634-2e6b69636164,rev?*%
%TF.SameCoordinates,Original*%
%TF.FileFunction,Legend,Top*%
%TF.FilePolarity,Positive*%
%FSLAX46Y46*%
G04 Gerber Fmt 4.6, Leading zero omitted, Abs format (unit mm)*
G04 Created by KiCad (PCBNEW 10.0.0) date 2026-05-11 13:12:19*
%MOMM*%
%LPD*%
G01*
G04 APERTURE LIST*
%ADD10C,0.150000*%
%ADD11C,0.120000*%
G04 APERTURE END LIST*
D10*
X86666666Y-35802319D02*
X86666666Y-36516604D01*
X86666666Y-36516604D02*
X86619047Y-36659461D01*
X86619047Y-36659461D02*
X86523809Y-36754700D01*
X86523809Y-36754700D02*
X86380952Y-36802319D01*
X86380952Y-36802319D02*
X86285714Y-36802319D01*
X87666666Y-36802319D02*
X87095238Y-36802319D01*
X87380952Y-36802319D02*
X87380952Y-35802319D01*
X87380952Y-35802319D02*
X87285714Y-35945176D01*
X87285714Y-35945176D02*
X87190476Y-36040414D01*
X87190476Y-36040414D02*
X87095238Y-36088033D01*
X83333333Y-82574819D02*
X83904761Y-82574819D01*
X83619047Y-83574819D02*
X83619047Y-82574819D01*
X84238095Y-83574819D02*
X84238095Y-82574819D01*
X84238095Y-82574819D02*
X84619047Y-82574819D01*
X84619047Y-82574819D02*
X84714285Y-82622438D01*
X84714285Y-82622438D02*
X84761904Y-82670057D01*
X84761904Y-82670057D02*
X84809523Y-82765295D01*
X84809523Y-82765295D02*
X84809523Y-82908152D01*
X84809523Y-82908152D02*
X84761904Y-83003390D01*
X84761904Y-83003390D02*
X84714285Y-83051009D01*
X84714285Y-83051009D02*
X84619047Y-83098628D01*
X84619047Y-83098628D02*
X84238095Y-83098628D01*
X85000000Y-83670057D02*
X85761904Y-83670057D01*
X86523809Y-82622438D02*
X86428571Y-82574819D01*
X86428571Y-82574819D02*
X86285714Y-82574819D01*
X86285714Y-82574819D02*
X86142857Y-82622438D01*
X86142857Y-82622438D02*
X86047619Y-82717676D01*
X86047619Y-82717676D02*
X86000000Y-82812914D01*
X86000000Y-82812914D02*
X85952381Y-83003390D01*
X85952381Y-83003390D02*
X85952381Y-83146247D01*
X85952381Y-83146247D02*
X86000000Y-83336723D01*
X86000000Y-83336723D02*
X86047619Y-83431961D01*
X86047619Y-83431961D02*
X86142857Y-83527200D01*
X86142857Y-83527200D02*
X86285714Y-83574819D01*
X86285714Y-83574819D02*
X86380952Y-83574819D01*
X86380952Y-83574819D02*
X86523809Y-83527200D01*
X86523809Y-83527200D02*
X86571428Y-83479580D01*
X86571428Y-83479580D02*
X86571428Y-83146247D01*
X86571428Y-83146247D02*
X86380952Y-83146247D01*
X87000000Y-83574819D02*
X87000000Y-82574819D01*
X87000000Y-82574819D02*
X87571428Y-83574819D01*
X87571428Y-83574819D02*
X87571428Y-82574819D01*
X88047619Y-83574819D02*
X88047619Y-82574819D01*
X88047619Y-82574819D02*
X88285714Y-82574819D01*
X88285714Y-82574819D02*
X88428571Y-82622438D01*
X88428571Y-82622438D02*
X88523809Y-82717676D01*
X88523809Y-82717676D02*
X88571428Y-82812914D01*
X88571428Y-82812914D02*
X88619047Y-83003390D01*
X88619047Y-83003390D02*
X88619047Y-83146247D01*
X88619047Y-83146247D02*
X88571428Y-83336723D01*
X88571428Y-83336723D02*
X88523809Y-83431961D01*
X88523809Y-83431961D02*
X88428571Y-83527200D01*
X88428571Y-83527200D02*
X88285714Y-83574819D01*
X88285714Y-83574819D02*
X88047619Y-83574819D01*
X89523809Y-82574819D02*
X89047619Y-82574819D01*
X89047619Y-82574819D02*
X89000000Y-83051009D01*
X89000000Y-83051009D02*
X89047619Y-83003390D01*
X89047619Y-83003390D02*
X89142857Y-82955771D01*
X89142857Y-82955771D02*
X89380952Y-82955771D01*
X89380952Y-82955771D02*
X89476190Y-83003390D01*
X89476190Y-83003390D02*
X89523809Y-83051009D01*
X89523809Y-83051009D02*
X89571428Y-83146247D01*
X89571428Y-83146247D02*
X89571428Y-83384342D01*
X89571428Y-83384342D02*
X89523809Y-83479580D01*
X89523809Y-83479580D02*
X89476190Y-83527200D01*
X89476190Y-83527200D02*
X89380952Y-83574819D01*
X89380952Y-83574819D02*
X89142857Y-83574819D01*
X89142857Y-83574819D02*
X89047619Y-83527200D01*
X89047619Y-83527200D02*
X89000000Y-83479580D01*
X89333333Y-71622438D02*
X89238095Y-71574819D01*
X89238095Y-71574819D02*
X89095238Y-71574819D01*
X89095238Y-71574819D02*
X88952381Y-71622438D01*
X88952381Y-71622438D02*
X88857143Y-71717676D01*
X88857143Y-71717676D02*
X88809524Y-71812914D01*
X88809524Y-71812914D02*
X88761905Y-72003390D01*
X88761905Y-72003390D02*
X88761905Y-72146247D01*
X88761905Y-72146247D02*
X88809524Y-72336723D01*
X88809524Y-72336723D02*
X88857143Y-72431961D01*
X88857143Y-72431961D02*
X88952381Y-72527200D01*
X88952381Y-72527200D02*
X89095238Y-72574819D01*
X89095238Y-72574819D02*
X89190476Y-72574819D01*
X89190476Y-72574819D02*
X89333333Y-72527200D01*
X89333333Y-72527200D02*
X89380952Y-72479580D01*
X89380952Y-72479580D02*
X89380952Y-72146247D01*
X89380952Y-72146247D02*
X89190476Y-72146247D01*
X90190476Y-72527200D02*
X90095238Y-72574819D01*
X90095238Y-72574819D02*
X89904762Y-72574819D01*
X89904762Y-72574819D02*
X89809524Y-72527200D01*
X89809524Y-72527200D02*
X89761905Y-72431961D01*
X89761905Y-72431961D02*
X89761905Y-72051009D01*
X89761905Y-72051009D02*
X89809524Y-71955771D01*
X89809524Y-71955771D02*
X89904762Y-71908152D01*
X89904762Y-71908152D02*
X90095238Y-71908152D01*
X90095238Y-71908152D02*
X90190476Y-71955771D01*
X90190476Y-71955771D02*
X90238095Y-72051009D01*
X90238095Y-72051009D02*
X90238095Y-72146247D01*
X90238095Y-72146247D02*
X89761905Y-72241485D01*
X90666667Y-71908152D02*
X90666667Y-72574819D01*
X90666667Y-72003390D02*
X90714286Y-71955771D01*
X90714286Y-71955771D02*
X90809524Y-71908152D01*
X90809524Y-71908152D02*
X90952381Y-71908152D01*
X90952381Y-71908152D02*
X91047619Y-71955771D01*
X91047619Y-71955771D02*
X91095238Y-72051009D01*
X91095238Y-72051009D02*
X91095238Y-72574819D01*
X91333334Y-72670057D02*
X92095238Y-72670057D01*
X92333334Y-72574819D02*
X92333334Y-71574819D01*
X92809524Y-71908152D02*
X92809524Y-72574819D01*
X92809524Y-72003390D02*
X92857143Y-71955771D01*
X92857143Y-71955771D02*
X92952381Y-71908152D01*
X92952381Y-71908152D02*
X93095238Y-71908152D01*
X93095238Y-71908152D02*
X93190476Y-71955771D01*
X93190476Y-71955771D02*
X93238095Y-72051009D01*
X93238095Y-72051009D02*
X93238095Y-72574819D01*
X94238095Y-72574819D02*
X93666667Y-72574819D01*
X93952381Y-72574819D02*
X93952381Y-71574819D01*
X93952381Y-71574819D02*
X93857143Y-71717676D01*
X93857143Y-71717676D02*
X93761905Y-71812914D01*
X93761905Y-71812914D02*
X93666667Y-71860533D01*
X126359580Y-58037857D02*
X126407200Y-58085476D01*
X126407200Y-58085476D02*
X126454819Y-58228333D01*
X126454819Y-58228333D02*
X126454819Y-58323571D01*
X126454819Y-58323571D02*
X126407200Y-58466428D01*
X126407200Y-58466428D02*
X126311961Y-58561666D01*
X126311961Y-58561666D02*
X126216723Y-58609285D01*
X126216723Y-58609285D02*
X126026247Y-58656904D01*
X126026247Y-58656904D02*
X125883390Y-58656904D01*
X125883390Y-58656904D02*
X125692914Y-58609285D01*
X125692914Y-58609285D02*
X125597676Y-58561666D01*
X125597676Y-58561666D02*
X125502438Y-58466428D01*
X125502438Y-58466428D02*
X125454819Y-58323571D01*
X125454819Y-58323571D02*
X125454819Y-58228333D01*
X125454819Y-58228333D02*
X125502438Y-58085476D01*
X125502438Y-58085476D02*
X125550057Y-58037857D01*
X126550057Y-57847381D02*
X126550057Y-57085476D01*
X126359580Y-56275952D02*
X126407200Y-56323571D01*
X126407200Y-56323571D02*
X126454819Y-56466428D01*
X126454819Y-56466428D02*
X126454819Y-56561666D01*
X126454819Y-56561666D02*
X126407200Y-56704523D01*
X126407200Y-56704523D02*
X126311961Y-56799761D01*
X126311961Y-56799761D02*
X126216723Y-56847380D01*
X126216723Y-56847380D02*
X126026247Y-56894999D01*
X126026247Y-56894999D02*
X125883390Y-56894999D01*
X125883390Y-56894999D02*
X125692914Y-56847380D01*
X125692914Y-56847380D02*
X125597676Y-56799761D01*
X125597676Y-56799761D02*
X125502438Y-56704523D01*
X125502438Y-56704523D02*
X125454819Y-56561666D01*
X125454819Y-56561666D02*
X125454819Y-56466428D01*
X125454819Y-56466428D02*
X125502438Y-56323571D01*
X125502438Y-56323571D02*
X125550057Y-56275952D01*
X125454819Y-55656904D02*
X125454819Y-55466428D01*
X125454819Y-55466428D02*
X125502438Y-55371190D01*
X125502438Y-55371190D02*
X125597676Y-55275952D01*
X125597676Y-55275952D02*
X125788152Y-55228333D01*
X125788152Y-55228333D02*
X126121485Y-55228333D01*
X126121485Y-55228333D02*
X126311961Y-55275952D01*
X126311961Y-55275952D02*
X126407200Y-55371190D01*
X126407200Y-55371190D02*
X126454819Y-55466428D01*
X126454819Y-55466428D02*
X126454819Y-55656904D01*
X126454819Y-55656904D02*
X126407200Y-55752142D01*
X126407200Y-55752142D02*
X126311961Y-55847380D01*
X126311961Y-55847380D02*
X126121485Y-55894999D01*
X126121485Y-55894999D02*
X125788152Y-55894999D01*
X125788152Y-55894999D02*
X125597676Y-55847380D01*
X125597676Y-55847380D02*
X125502438Y-55752142D01*
X125502438Y-55752142D02*
X125454819Y-55656904D01*
X126454819Y-54799761D02*
X125454819Y-54799761D01*
X125454819Y-54799761D02*
X126169104Y-54466428D01*
X126169104Y-54466428D02*
X125454819Y-54133095D01*
X125454819Y-54133095D02*
X126454819Y-54133095D01*
X126454819Y-53656904D02*
X125454819Y-53656904D01*
X125454819Y-53656904D02*
X125454819Y-53275952D01*
X125454819Y-53275952D02*
X125502438Y-53180714D01*
X125502438Y-53180714D02*
X125550057Y-53133095D01*
X125550057Y-53133095D02*
X125645295Y-53085476D01*
X125645295Y-53085476D02*
X125788152Y-53085476D01*
X125788152Y-53085476D02*
X125883390Y-53133095D01*
X125883390Y-53133095D02*
X125931009Y-53180714D01*
X125931009Y-53180714D02*
X125978628Y-53275952D01*
X125978628Y-53275952D02*
X125978628Y-53656904D01*
X126454819Y-52133095D02*
X126454819Y-52704523D01*
X126454819Y-52418809D02*
X125454819Y-52418809D01*
X125454819Y-52418809D02*
X125597676Y-52514047D01*
X125597676Y-52514047D02*
X125692914Y-52609285D01*
X125692914Y-52609285D02*
X125740533Y-52704523D01*
X96006364Y-53760889D02*
X95958745Y-53856127D01*
X95958745Y-53856127D02*
X95863507Y-53951365D01*
X95863507Y-53951365D02*
X95720649Y-54094222D01*
X95720649Y-54094222D02*
X95673030Y-54189460D01*
X95673030Y-54189460D02*
X95673030Y-54284698D01*
X95911126Y-54237079D02*
X95863507Y-54332317D01*
X95863507Y-54332317D02*
X95768268Y-54427555D01*
X95768268Y-54427555D02*
X95577792Y-54475174D01*
X95577792Y-54475174D02*
X95244459Y-54475174D01*
X95244459Y-54475174D02*
X95053983Y-54427555D01*
X95053983Y-54427555D02*
X94958745Y-54332317D01*
X94958745Y-54332317D02*
X94911126Y-54237079D01*
X94911126Y-54237079D02*
X94911126Y-54046603D01*
X94911126Y-54046603D02*
X94958745Y-53951365D01*
X94958745Y-53951365D02*
X95053983Y-53856127D01*
X95053983Y-53856127D02*
X95244459Y-53808508D01*
X95244459Y-53808508D02*
X95577792Y-53808508D01*
X95577792Y-53808508D02*
X95768268Y-53856127D01*
X95768268Y-53856127D02*
X95863507Y-53951365D01*
X95863507Y-53951365D02*
X95911126Y-54046603D01*
X95911126Y-54046603D02*
X95911126Y-54237079D01*
X94911126Y-53475174D02*
X94911126Y-52856127D01*
X94911126Y-52856127D02*
X95292078Y-53189460D01*
X95292078Y-53189460D02*
X95292078Y-53046603D01*
X95292078Y-53046603D02*
X95339697Y-52951365D01*
X95339697Y-52951365D02*
X95387316Y-52903746D01*
X95387316Y-52903746D02*
X95482554Y-52856127D01*
X95482554Y-52856127D02*
X95720649Y-52856127D01*
X95720649Y-52856127D02*
X95815887Y-52903746D01*
X95815887Y-52903746D02*
X95863507Y-52951365D01*
X95863507Y-52951365D02*
X95911126Y-53046603D01*
X95911126Y-53046603D02*
X95911126Y-53332317D01*
X95911126Y-53332317D02*
X95863507Y-53427555D01*
X95863507Y-53427555D02*
X95815887Y-53475174D01*
X162504819Y-69951904D02*
X163314342Y-69951904D01*
X163314342Y-69951904D02*
X163409580Y-69904285D01*
X163409580Y-69904285D02*
X163457200Y-69856666D01*
X163457200Y-69856666D02*
X163504819Y-69761428D01*
X163504819Y-69761428D02*
X163504819Y-69570952D01*
X163504819Y-69570952D02*
X163457200Y-69475714D01*
X163457200Y-69475714D02*
X163409580Y-69428095D01*
X163409580Y-69428095D02*
X163314342Y-69380476D01*
X163314342Y-69380476D02*
X162504819Y-69380476D01*
X162600057Y-68951904D02*
X162552438Y-68904285D01*
X162552438Y-68904285D02*
X162504819Y-68809047D01*
X162504819Y-68809047D02*
X162504819Y-68570952D01*
X162504819Y-68570952D02*
X162552438Y-68475714D01*
X162552438Y-68475714D02*
X162600057Y-68428095D01*
X162600057Y-68428095D02*
X162695295Y-68380476D01*
X162695295Y-68380476D02*
X162790533Y-68380476D01*
X162790533Y-68380476D02*
X162933390Y-68428095D01*
X162933390Y-68428095D02*
X163504819Y-68999523D01*
X163504819Y-68999523D02*
X163504819Y-68380476D01*
X166202618Y-79244819D02*
X165869285Y-78768628D01*
X165631190Y-79244819D02*
X165631190Y-78244819D01*
X165631190Y-78244819D02*
X166012142Y-78244819D01*
X166012142Y-78244819D02*
X166107380Y-78292438D01*
X166107380Y-78292438D02*
X166154999Y-78340057D01*
X166154999Y-78340057D02*
X166202618Y-78435295D01*
X166202618Y-78435295D02*
X166202618Y-78578152D01*
X166202618Y-78578152D02*
X166154999Y-78673390D01*
X166154999Y-78673390D02*
X166107380Y-78721009D01*
X166107380Y-78721009D02*
X166012142Y-78768628D01*
X166012142Y-78768628D02*
X165631190Y-78768628D01*
X166488333Y-78578152D02*
X166869285Y-78578152D01*
X166631190Y-79244819D02*
X166631190Y-78387676D01*
X166631190Y-78387676D02*
X166678809Y-78292438D01*
X166678809Y-78292438D02*
X166774047Y-78244819D01*
X166774047Y-78244819D02*
X166869285Y-78244819D01*
X167726428Y-79244819D02*
X167155000Y-79244819D01*
X167440714Y-79244819D02*
X167440714Y-78244819D01*
X167440714Y-78244819D02*
X167345476Y-78387676D01*
X167345476Y-78387676D02*
X167250238Y-78482914D01*
X167250238Y-78482914D02*
X167155000Y-78530533D01*
X122454819Y-70069047D02*
X123169104Y-70069047D01*
X123169104Y-70069047D02*
X123311961Y-70116666D01*
X123311961Y-70116666D02*
X123407200Y-70211904D01*
X123407200Y-70211904D02*
X123454819Y-70354761D01*
X123454819Y-70354761D02*
X123454819Y-70449999D01*
X123550057Y-69830952D02*
X123550057Y-69069047D01*
X123454819Y-68354761D02*
X123454819Y-68830951D01*
X123454819Y-68830951D02*
X122454819Y-68830951D01*
X123359580Y-67449999D02*
X123407200Y-67497618D01*
X123407200Y-67497618D02*
X123454819Y-67640475D01*
X123454819Y-67640475D02*
X123454819Y-67735713D01*
X123454819Y-67735713D02*
X123407200Y-67878570D01*
X123407200Y-67878570D02*
X123311961Y-67973808D01*
X123311961Y-67973808D02*
X123216723Y-68021427D01*
X123216723Y-68021427D02*
X123026247Y-68069046D01*
X123026247Y-68069046D02*
X122883390Y-68069046D01*
X122883390Y-68069046D02*
X122692914Y-68021427D01*
X122692914Y-68021427D02*
X122597676Y-67973808D01*
X122597676Y-67973808D02*
X122502438Y-67878570D01*
X122502438Y-67878570D02*
X122454819Y-67735713D01*
X122454819Y-67735713D02*
X122454819Y-67640475D01*
X122454819Y-67640475D02*
X122502438Y-67497618D01*
X122502438Y-67497618D02*
X122550057Y-67449999D01*
X123454819Y-66497618D02*
X123454819Y-67069046D01*
X123454819Y-66783332D02*
X122454819Y-66783332D01*
X122454819Y-66783332D02*
X122597676Y-66878570D01*
X122597676Y-66878570D02*
X122692914Y-66973808D01*
X122692914Y-66973808D02*
X122740533Y-67069046D01*
X126324819Y-49452857D02*
X125848628Y-49786190D01*
X126324819Y-50024285D02*
X125324819Y-50024285D01*
X125324819Y-50024285D02*
X125324819Y-49643333D01*
X125324819Y-49643333D02*
X125372438Y-49548095D01*
X125372438Y-49548095D02*
X125420057Y-49500476D01*
X125420057Y-49500476D02*
X125515295Y-49452857D01*
X125515295Y-49452857D02*
X125658152Y-49452857D01*
X125658152Y-49452857D02*
X125753390Y-49500476D01*
X125753390Y-49500476D02*
X125801009Y-49548095D01*
X125801009Y-49548095D02*
X125848628Y-49643333D01*
X125848628Y-49643333D02*
X125848628Y-50024285D01*
X126420057Y-49262381D02*
X126420057Y-48500476D01*
X126229580Y-47690952D02*
X126277200Y-47738571D01*
X126277200Y-47738571D02*
X126324819Y-47881428D01*
X126324819Y-47881428D02*
X126324819Y-47976666D01*
X126324819Y-47976666D02*
X126277200Y-48119523D01*
X126277200Y-48119523D02*
X126181961Y-48214761D01*
X126181961Y-48214761D02*
X126086723Y-48262380D01*
X126086723Y-48262380D02*
X125896247Y-48309999D01*
X125896247Y-48309999D02*
X125753390Y-48309999D01*
X125753390Y-48309999D02*
X125562914Y-48262380D01*
X125562914Y-48262380D02*
X125467676Y-48214761D01*
X125467676Y-48214761D02*
X125372438Y-48119523D01*
X125372438Y-48119523D02*
X125324819Y-47976666D01*
X125324819Y-47976666D02*
X125324819Y-47881428D01*
X125324819Y-47881428D02*
X125372438Y-47738571D01*
X125372438Y-47738571D02*
X125420057Y-47690952D01*
X125324819Y-47071904D02*
X125324819Y-46881428D01*
X125324819Y-46881428D02*
X125372438Y-46786190D01*
X125372438Y-46786190D02*
X125467676Y-46690952D01*
X125467676Y-46690952D02*
X125658152Y-46643333D01*
X125658152Y-46643333D02*
X125991485Y-46643333D01*
X125991485Y-46643333D02*
X126181961Y-46690952D01*
X126181961Y-46690952D02*
X126277200Y-46786190D01*
X126277200Y-46786190D02*
X126324819Y-46881428D01*
X126324819Y-46881428D02*
X126324819Y-47071904D01*
X126324819Y-47071904D02*
X126277200Y-47167142D01*
X126277200Y-47167142D02*
X126181961Y-47262380D01*
X126181961Y-47262380D02*
X125991485Y-47309999D01*
X125991485Y-47309999D02*
X125658152Y-47309999D01*
X125658152Y-47309999D02*
X125467676Y-47262380D01*
X125467676Y-47262380D02*
X125372438Y-47167142D01*
X125372438Y-47167142D02*
X125324819Y-47071904D01*
X126324819Y-46214761D02*
X125324819Y-46214761D01*
X125324819Y-46214761D02*
X126039104Y-45881428D01*
X126039104Y-45881428D02*
X125324819Y-45548095D01*
X125324819Y-45548095D02*
X126324819Y-45548095D01*
X126324819Y-45071904D02*
X125324819Y-45071904D01*
X125324819Y-45071904D02*
X125324819Y-44690952D01*
X125324819Y-44690952D02*
X125372438Y-44595714D01*
X125372438Y-44595714D02*
X125420057Y-44548095D01*
X125420057Y-44548095D02*
X125515295Y-44500476D01*
X125515295Y-44500476D02*
X125658152Y-44500476D01*
X125658152Y-44500476D02*
X125753390Y-44548095D01*
X125753390Y-44548095D02*
X125801009Y-44595714D01*
X125801009Y-44595714D02*
X125848628Y-44690952D01*
X125848628Y-44690952D02*
X125848628Y-45071904D01*
X126324819Y-43548095D02*
X126324819Y-44119523D01*
X126324819Y-43833809D02*
X125324819Y-43833809D01*
X125324819Y-43833809D02*
X125467676Y-43929047D01*
X125467676Y-43929047D02*
X125562914Y-44024285D01*
X125562914Y-44024285D02*
X125610533Y-44119523D01*
X108554611Y-53798141D02*
X108506992Y-53893379D01*
X108506992Y-53893379D02*
X108411754Y-53988617D01*
X108411754Y-53988617D02*
X108268896Y-54131474D01*
X108268896Y-54131474D02*
X108221277Y-54226712D01*
X108221277Y-54226712D02*
X108221277Y-54321950D01*
X108459373Y-54274331D02*
X108411754Y-54369569D01*
X108411754Y-54369569D02*
X108316515Y-54464807D01*
X108316515Y-54464807D02*
X108126039Y-54512426D01*
X108126039Y-54512426D02*
X107792706Y-54512426D01*
X107792706Y-54512426D02*
X107602230Y-54464807D01*
X107602230Y-54464807D02*
X107506992Y-54369569D01*
X107506992Y-54369569D02*
X107459373Y-54274331D01*
X107459373Y-54274331D02*
X107459373Y-54083855D01*
X107459373Y-54083855D02*
X107506992Y-53988617D01*
X107506992Y-53988617D02*
X107602230Y-53893379D01*
X107602230Y-53893379D02*
X107792706Y-53845760D01*
X107792706Y-53845760D02*
X108126039Y-53845760D01*
X108126039Y-53845760D02*
X108316515Y-53893379D01*
X108316515Y-53893379D02*
X108411754Y-53988617D01*
X108411754Y-53988617D02*
X108459373Y-54083855D01*
X108459373Y-54083855D02*
X108459373Y-54274331D01*
X107792706Y-52988617D02*
X108459373Y-52988617D01*
X107411754Y-53226712D02*
X108126039Y-53464807D01*
X108126039Y-53464807D02*
X108126039Y-52845760D01*
X129976190Y-92574819D02*
X130547618Y-92574819D01*
X130261904Y-93574819D02*
X130261904Y-92574819D01*
X130880952Y-93574819D02*
X130880952Y-92574819D01*
X130880952Y-92574819D02*
X131261904Y-92574819D01*
X131261904Y-92574819D02*
X131357142Y-92622438D01*
X131357142Y-92622438D02*
X131404761Y-92670057D01*
X131404761Y-92670057D02*
X131452380Y-92765295D01*
X131452380Y-92765295D02*
X131452380Y-92908152D01*
X131452380Y-92908152D02*
X131404761Y-93003390D01*
X131404761Y-93003390D02*
X131357142Y-93051009D01*
X131357142Y-93051009D02*
X131261904Y-93098628D01*
X131261904Y-93098628D02*
X130880952Y-93098628D01*
X131642857Y-93670057D02*
X132404761Y-93670057D01*
X132500000Y-92574819D02*
X132833333Y-93574819D01*
X132833333Y-93574819D02*
X133166666Y-92574819D01*
X133642857Y-93574819D02*
X133547619Y-93527200D01*
X133547619Y-93527200D02*
X133500000Y-93479580D01*
X133500000Y-93479580D02*
X133452381Y-93384342D01*
X133452381Y-93384342D02*
X133452381Y-93098628D01*
X133452381Y-93098628D02*
X133500000Y-93003390D01*
X133500000Y-93003390D02*
X133547619Y-92955771D01*
X133547619Y-92955771D02*
X133642857Y-92908152D01*
X133642857Y-92908152D02*
X133785714Y-92908152D01*
X133785714Y-92908152D02*
X133880952Y-92955771D01*
X133880952Y-92955771D02*
X133928571Y-93003390D01*
X133928571Y-93003390D02*
X133976190Y-93098628D01*
X133976190Y-93098628D02*
X133976190Y-93384342D01*
X133976190Y-93384342D02*
X133928571Y-93479580D01*
X133928571Y-93479580D02*
X133880952Y-93527200D01*
X133880952Y-93527200D02*
X133785714Y-93574819D01*
X133785714Y-93574819D02*
X133642857Y-93574819D01*
X134928571Y-93574819D02*
X134357143Y-93574819D01*
X134642857Y-93574819D02*
X134642857Y-92574819D01*
X134642857Y-92574819D02*
X134547619Y-92717676D01*
X134547619Y-92717676D02*
X134452381Y-92812914D01*
X134452381Y-92812914D02*
X134357143Y-92860533D01*
X129250057Y-76635238D02*
X129202438Y-76730476D01*
X129202438Y-76730476D02*
X129107200Y-76825714D01*
X129107200Y-76825714D02*
X128964342Y-76968571D01*
X128964342Y-76968571D02*
X128916723Y-77063809D01*
X128916723Y-77063809D02*
X128916723Y-77159047D01*
X129154819Y-77111428D02*
X129107200Y-77206666D01*
X129107200Y-77206666D02*
X129011961Y-77301904D01*
X129011961Y-77301904D02*
X128821485Y-77349523D01*
X128821485Y-77349523D02*
X128488152Y-77349523D01*
X128488152Y-77349523D02*
X128297676Y-77301904D01*
X128297676Y-77301904D02*
X128202438Y-77206666D01*
X128202438Y-77206666D02*
X128154819Y-77111428D01*
X128154819Y-77111428D02*
X128154819Y-76920952D01*
X128154819Y-76920952D02*
X128202438Y-76825714D01*
X128202438Y-76825714D02*
X128297676Y-76730476D01*
X128297676Y-76730476D02*
X128488152Y-76682857D01*
X128488152Y-76682857D02*
X128821485Y-76682857D01*
X128821485Y-76682857D02*
X129011961Y-76730476D01*
X129011961Y-76730476D02*
X129107200Y-76825714D01*
X129107200Y-76825714D02*
X129154819Y-76920952D01*
X129154819Y-76920952D02*
X129154819Y-77111428D01*
X129154819Y-76206666D02*
X129154819Y-76016190D01*
X129154819Y-76016190D02*
X129107200Y-75920952D01*
X129107200Y-75920952D02*
X129059580Y-75873333D01*
X129059580Y-75873333D02*
X128916723Y-75778095D01*
X128916723Y-75778095D02*
X128726247Y-75730476D01*
X128726247Y-75730476D02*
X128345295Y-75730476D01*
X128345295Y-75730476D02*
X128250057Y-75778095D01*
X128250057Y-75778095D02*
X128202438Y-75825714D01*
X128202438Y-75825714D02*
X128154819Y-75920952D01*
X128154819Y-75920952D02*
X128154819Y-76111428D01*
X128154819Y-76111428D02*
X128202438Y-76206666D01*
X128202438Y-76206666D02*
X128250057Y-76254285D01*
X128250057Y-76254285D02*
X128345295Y-76301904D01*
X128345295Y-76301904D02*
X128583390Y-76301904D01*
X128583390Y-76301904D02*
X128678628Y-76254285D01*
X128678628Y-76254285D02*
X128726247Y-76206666D01*
X128726247Y-76206666D02*
X128773866Y-76111428D01*
X128773866Y-76111428D02*
X128773866Y-75920952D01*
X128773866Y-75920952D02*
X128726247Y-75825714D01*
X128726247Y-75825714D02*
X128678628Y-75778095D01*
X128678628Y-75778095D02*
X128583390Y-75730476D01*
X168359580Y-59023809D02*
X168407200Y-59071428D01*
X168407200Y-59071428D02*
X168454819Y-59214285D01*
X168454819Y-59214285D02*
X168454819Y-59309523D01*
X168454819Y-59309523D02*
X168407200Y-59452380D01*
X168407200Y-59452380D02*
X168311961Y-59547618D01*
X168311961Y-59547618D02*
X168216723Y-59595237D01*
X168216723Y-59595237D02*
X168026247Y-59642856D01*
X168026247Y-59642856D02*
X167883390Y-59642856D01*
X167883390Y-59642856D02*
X167692914Y-59595237D01*
X167692914Y-59595237D02*
X167597676Y-59547618D01*
X167597676Y-59547618D02*
X167502438Y-59452380D01*
X167502438Y-59452380D02*
X167454819Y-59309523D01*
X167454819Y-59309523D02*
X167454819Y-59214285D01*
X167454819Y-59214285D02*
X167502438Y-59071428D01*
X167502438Y-59071428D02*
X167550057Y-59023809D01*
X168550057Y-58833333D02*
X168550057Y-58071428D01*
X167454819Y-57642856D02*
X167454819Y-57452380D01*
X167454819Y-57452380D02*
X167502438Y-57357142D01*
X167502438Y-57357142D02*
X167597676Y-57261904D01*
X167597676Y-57261904D02*
X167788152Y-57214285D01*
X167788152Y-57214285D02*
X168121485Y-57214285D01*
X168121485Y-57214285D02*
X168311961Y-57261904D01*
X168311961Y-57261904D02*
X168407200Y-57357142D01*
X168407200Y-57357142D02*
X168454819Y-57452380D01*
X168454819Y-57452380D02*
X168454819Y-57642856D01*
X168454819Y-57642856D02*
X168407200Y-57738094D01*
X168407200Y-57738094D02*
X168311961Y-57833332D01*
X168311961Y-57833332D02*
X168121485Y-57880951D01*
X168121485Y-57880951D02*
X167788152Y-57880951D01*
X167788152Y-57880951D02*
X167597676Y-57833332D01*
X167597676Y-57833332D02*
X167502438Y-57738094D01*
X167502438Y-57738094D02*
X167454819Y-57642856D01*
X167788152Y-56785713D02*
X168788152Y-56785713D01*
X167835771Y-56785713D02*
X167788152Y-56690475D01*
X167788152Y-56690475D02*
X167788152Y-56499999D01*
X167788152Y-56499999D02*
X167835771Y-56404761D01*
X167835771Y-56404761D02*
X167883390Y-56357142D01*
X167883390Y-56357142D02*
X167978628Y-56309523D01*
X167978628Y-56309523D02*
X168264342Y-56309523D01*
X168264342Y-56309523D02*
X168359580Y-56357142D01*
X168359580Y-56357142D02*
X168407200Y-56404761D01*
X168407200Y-56404761D02*
X168454819Y-56499999D01*
X168454819Y-56499999D02*
X168454819Y-56690475D01*
X168454819Y-56690475D02*
X168407200Y-56785713D01*
X167550057Y-55928570D02*
X167502438Y-55880951D01*
X167502438Y-55880951D02*
X167454819Y-55785713D01*
X167454819Y-55785713D02*
X167454819Y-55547618D01*
X167454819Y-55547618D02*
X167502438Y-55452380D01*
X167502438Y-55452380D02*
X167550057Y-55404761D01*
X167550057Y-55404761D02*
X167645295Y-55357142D01*
X167645295Y-55357142D02*
X167740533Y-55357142D01*
X167740533Y-55357142D02*
X167883390Y-55404761D01*
X167883390Y-55404761D02*
X168454819Y-55976189D01*
X168454819Y-55976189D02*
X168454819Y-55357142D01*
X115811904Y-57954819D02*
X115811904Y-58669104D01*
X115811904Y-58669104D02*
X115764285Y-58811961D01*
X115764285Y-58811961D02*
X115669047Y-58907200D01*
X115669047Y-58907200D02*
X115526190Y-58954819D01*
X115526190Y-58954819D02*
X115430952Y-58954819D01*
X116050000Y-59050057D02*
X116811904Y-59050057D01*
X117716666Y-59050057D02*
X117621428Y-59002438D01*
X117621428Y-59002438D02*
X117526190Y-58907200D01*
X117526190Y-58907200D02*
X117383333Y-58764342D01*
X117383333Y-58764342D02*
X117288095Y-58716723D01*
X117288095Y-58716723D02*
X117192857Y-58716723D01*
X117240476Y-58954819D02*
X117145238Y-58907200D01*
X117145238Y-58907200D02*
X117050000Y-58811961D01*
X117050000Y-58811961D02*
X117002381Y-58621485D01*
X117002381Y-58621485D02*
X117002381Y-58288152D01*
X117002381Y-58288152D02*
X117050000Y-58097676D01*
X117050000Y-58097676D02*
X117145238Y-58002438D01*
X117145238Y-58002438D02*
X117240476Y-57954819D01*
X117240476Y-57954819D02*
X117430952Y-57954819D01*
X117430952Y-57954819D02*
X117526190Y-58002438D01*
X117526190Y-58002438D02*
X117621428Y-58097676D01*
X117621428Y-58097676D02*
X117669047Y-58288152D01*
X117669047Y-58288152D02*
X117669047Y-58621485D01*
X117669047Y-58621485D02*
X117621428Y-58811961D01*
X117621428Y-58811961D02*
X117526190Y-58907200D01*
X117526190Y-58907200D02*
X117430952Y-58954819D01*
X117430952Y-58954819D02*
X117240476Y-58954819D01*
X118097619Y-58954819D02*
X118097619Y-57954819D01*
X118097619Y-57954819D02*
X118335714Y-57954819D01*
X118335714Y-57954819D02*
X118478571Y-58002438D01*
X118478571Y-58002438D02*
X118573809Y-58097676D01*
X118573809Y-58097676D02*
X118621428Y-58192914D01*
X118621428Y-58192914D02*
X118669047Y-58383390D01*
X118669047Y-58383390D02*
X118669047Y-58526247D01*
X118669047Y-58526247D02*
X118621428Y-58716723D01*
X118621428Y-58716723D02*
X118573809Y-58811961D01*
X118573809Y-58811961D02*
X118478571Y-58907200D01*
X118478571Y-58907200D02*
X118335714Y-58954819D01*
X118335714Y-58954819D02*
X118097619Y-58954819D01*
X119621428Y-58954819D02*
X119050000Y-58954819D01*
X119335714Y-58954819D02*
X119335714Y-57954819D01*
X119335714Y-57954819D02*
X119240476Y-58097676D01*
X119240476Y-58097676D02*
X119145238Y-58192914D01*
X119145238Y-58192914D02*
X119050000Y-58240533D01*
X162999523Y-92584819D02*
X162666190Y-92108628D01*
X162428095Y-92584819D02*
X162428095Y-91584819D01*
X162428095Y-91584819D02*
X162809047Y-91584819D01*
X162809047Y-91584819D02*
X162904285Y-91632438D01*
X162904285Y-91632438D02*
X162951904Y-91680057D01*
X162951904Y-91680057D02*
X162999523Y-91775295D01*
X162999523Y-91775295D02*
X162999523Y-91918152D01*
X162999523Y-91918152D02*
X162951904Y-92013390D01*
X162951904Y-92013390D02*
X162904285Y-92061009D01*
X162904285Y-92061009D02*
X162809047Y-92108628D01*
X162809047Y-92108628D02*
X162428095Y-92108628D01*
X163428095Y-92584819D02*
X163428095Y-91918152D01*
X163428095Y-92108628D02*
X163475714Y-92013390D01*
X163475714Y-92013390D02*
X163523333Y-91965771D01*
X163523333Y-91965771D02*
X163618571Y-91918152D01*
X163618571Y-91918152D02*
X163713809Y-91918152D01*
X164428095Y-92537200D02*
X164332857Y-92584819D01*
X164332857Y-92584819D02*
X164142381Y-92584819D01*
X164142381Y-92584819D02*
X164047143Y-92537200D01*
X164047143Y-92537200D02*
X163999524Y-92441961D01*
X163999524Y-92441961D02*
X163999524Y-92061009D01*
X163999524Y-92061009D02*
X164047143Y-91965771D01*
X164047143Y-91965771D02*
X164142381Y-91918152D01*
X164142381Y-91918152D02*
X164332857Y-91918152D01*
X164332857Y-91918152D02*
X164428095Y-91965771D01*
X164428095Y-91965771D02*
X164475714Y-92061009D01*
X164475714Y-92061009D02*
X164475714Y-92156247D01*
X164475714Y-92156247D02*
X163999524Y-92251485D01*
X164761429Y-91918152D02*
X165142381Y-91918152D01*
X164904286Y-92584819D02*
X164904286Y-91727676D01*
X164904286Y-91727676D02*
X164951905Y-91632438D01*
X164951905Y-91632438D02*
X165047143Y-91584819D01*
X165047143Y-91584819D02*
X165142381Y-91584819D01*
X165999524Y-92584819D02*
X165428096Y-92584819D01*
X165713810Y-92584819D02*
X165713810Y-91584819D01*
X165713810Y-91584819D02*
X165618572Y-91727676D01*
X165618572Y-91727676D02*
X165523334Y-91822914D01*
X165523334Y-91822914D02*
X165428096Y-91870533D01*
X138523809Y-60074819D02*
X139095237Y-60074819D01*
X138809523Y-61074819D02*
X138809523Y-60074819D01*
X139428571Y-61074819D02*
X139428571Y-60074819D01*
X139428571Y-60074819D02*
X139809523Y-60074819D01*
X139809523Y-60074819D02*
X139904761Y-60122438D01*
X139904761Y-60122438D02*
X139952380Y-60170057D01*
X139952380Y-60170057D02*
X139999999Y-60265295D01*
X139999999Y-60265295D02*
X139999999Y-60408152D01*
X139999999Y-60408152D02*
X139952380Y-60503390D01*
X139952380Y-60503390D02*
X139904761Y-60551009D01*
X139904761Y-60551009D02*
X139809523Y-60598628D01*
X139809523Y-60598628D02*
X139428571Y-60598628D01*
X140190476Y-61170057D02*
X140952380Y-61170057D01*
X141047619Y-60074819D02*
X141380952Y-61074819D01*
X141380952Y-61074819D02*
X141714285Y-60074819D01*
X141952381Y-61074819D02*
X142476190Y-60408152D01*
X141952381Y-60408152D02*
X142476190Y-61074819D01*
X143380952Y-61074819D02*
X142809524Y-61074819D01*
X143095238Y-61074819D02*
X143095238Y-60074819D01*
X143095238Y-60074819D02*
X143000000Y-60217676D01*
X143000000Y-60217676D02*
X142904762Y-60312914D01*
X142904762Y-60312914D02*
X142809524Y-60360533D01*
X90523333Y-77584819D02*
X90190000Y-77108628D01*
X89951905Y-77584819D02*
X89951905Y-76584819D01*
X89951905Y-76584819D02*
X90332857Y-76584819D01*
X90332857Y-76584819D02*
X90428095Y-76632438D01*
X90428095Y-76632438D02*
X90475714Y-76680057D01*
X90475714Y-76680057D02*
X90523333Y-76775295D01*
X90523333Y-76775295D02*
X90523333Y-76918152D01*
X90523333Y-76918152D02*
X90475714Y-77013390D01*
X90475714Y-77013390D02*
X90428095Y-77061009D01*
X90428095Y-77061009D02*
X90332857Y-77108628D01*
X90332857Y-77108628D02*
X89951905Y-77108628D01*
X90904286Y-76680057D02*
X90951905Y-76632438D01*
X90951905Y-76632438D02*
X91047143Y-76584819D01*
X91047143Y-76584819D02*
X91285238Y-76584819D01*
X91285238Y-76584819D02*
X91380476Y-76632438D01*
X91380476Y-76632438D02*
X91428095Y-76680057D01*
X91428095Y-76680057D02*
X91475714Y-76775295D01*
X91475714Y-76775295D02*
X91475714Y-76870533D01*
X91475714Y-76870533D02*
X91428095Y-77013390D01*
X91428095Y-77013390D02*
X90856667Y-77584819D01*
X90856667Y-77584819D02*
X91475714Y-77584819D01*
X115631606Y-79635238D02*
X115583987Y-79730476D01*
X115583987Y-79730476D02*
X115488749Y-79825714D01*
X115488749Y-79825714D02*
X115345891Y-79968571D01*
X115345891Y-79968571D02*
X115298272Y-80063809D01*
X115298272Y-80063809D02*
X115298272Y-80159047D01*
X115536368Y-80111428D02*
X115488749Y-80206666D01*
X115488749Y-80206666D02*
X115393510Y-80301904D01*
X115393510Y-80301904D02*
X115203034Y-80349523D01*
X115203034Y-80349523D02*
X114869701Y-80349523D01*
X114869701Y-80349523D02*
X114679225Y-80301904D01*
X114679225Y-80301904D02*
X114583987Y-80206666D01*
X114583987Y-80206666D02*
X114536368Y-80111428D01*
X114536368Y-80111428D02*
X114536368Y-79920952D01*
X114536368Y-79920952D02*
X114583987Y-79825714D01*
X114583987Y-79825714D02*
X114679225Y-79730476D01*
X114679225Y-79730476D02*
X114869701Y-79682857D01*
X114869701Y-79682857D02*
X115203034Y-79682857D01*
X115203034Y-79682857D02*
X115393510Y-79730476D01*
X115393510Y-79730476D02*
X115488749Y-79825714D01*
X115488749Y-79825714D02*
X115536368Y-79920952D01*
X115536368Y-79920952D02*
X115536368Y-80111428D01*
X114536368Y-79349523D02*
X114536368Y-78682857D01*
X114536368Y-78682857D02*
X115536368Y-79111428D01*
X114206368Y-89929047D02*
X113730177Y-90262380D01*
X114206368Y-90500475D02*
X113206368Y-90500475D01*
X113206368Y-90500475D02*
X113206368Y-90119523D01*
X113206368Y-90119523D02*
X113253987Y-90024285D01*
X113253987Y-90024285D02*
X113301606Y-89976666D01*
X113301606Y-89976666D02*
X113396844Y-89929047D01*
X113396844Y-89929047D02*
X113539701Y-89929047D01*
X113539701Y-89929047D02*
X113634939Y-89976666D01*
X113634939Y-89976666D02*
X113682558Y-90024285D01*
X113682558Y-90024285D02*
X113730177Y-90119523D01*
X113730177Y-90119523D02*
X113730177Y-90500475D01*
X113682558Y-89500475D02*
X113682558Y-89167142D01*
X114206368Y-89024285D02*
X114206368Y-89500475D01*
X114206368Y-89500475D02*
X113206368Y-89500475D01*
X113206368Y-89500475D02*
X113206368Y-89024285D01*
X113539701Y-88167142D02*
X114206368Y-88167142D01*
X113158749Y-88405237D02*
X113873034Y-88643332D01*
X113873034Y-88643332D02*
X113873034Y-88024285D01*
X155428571Y-61584819D02*
X155095238Y-61108628D01*
X154857143Y-61584819D02*
X154857143Y-60584819D01*
X154857143Y-60584819D02*
X155238095Y-60584819D01*
X155238095Y-60584819D02*
X155333333Y-60632438D01*
X155333333Y-60632438D02*
X155380952Y-60680057D01*
X155380952Y-60680057D02*
X155428571Y-60775295D01*
X155428571Y-60775295D02*
X155428571Y-60918152D01*
X155428571Y-60918152D02*
X155380952Y-61013390D01*
X155380952Y-61013390D02*
X155333333Y-61061009D01*
X155333333Y-61061009D02*
X155238095Y-61108628D01*
X155238095Y-61108628D02*
X154857143Y-61108628D01*
X155761905Y-61584819D02*
X156285714Y-60918152D01*
X155761905Y-60918152D02*
X156285714Y-61584819D01*
X157190476Y-61584819D02*
X156619048Y-61584819D01*
X156904762Y-61584819D02*
X156904762Y-60584819D01*
X156904762Y-60584819D02*
X156809524Y-60727676D01*
X156809524Y-60727676D02*
X156714286Y-60822914D01*
X156714286Y-60822914D02*
X156619048Y-60870533D01*
X152930952Y-74129819D02*
X152930952Y-74844104D01*
X152930952Y-74844104D02*
X152883333Y-74986961D01*
X152883333Y-74986961D02*
X152788095Y-75082200D01*
X152788095Y-75082200D02*
X152645238Y-75129819D01*
X152645238Y-75129819D02*
X152550000Y-75129819D01*
X153169048Y-75225057D02*
X153930952Y-75225057D01*
X154645238Y-75129819D02*
X154169048Y-75129819D01*
X154169048Y-75129819D02*
X154169048Y-74129819D01*
X155550000Y-75034580D02*
X155502381Y-75082200D01*
X155502381Y-75082200D02*
X155359524Y-75129819D01*
X155359524Y-75129819D02*
X155264286Y-75129819D01*
X155264286Y-75129819D02*
X155121429Y-75082200D01*
X155121429Y-75082200D02*
X155026191Y-74986961D01*
X155026191Y-74986961D02*
X154978572Y-74891723D01*
X154978572Y-74891723D02*
X154930953Y-74701247D01*
X154930953Y-74701247D02*
X154930953Y-74558390D01*
X154930953Y-74558390D02*
X154978572Y-74367914D01*
X154978572Y-74367914D02*
X155026191Y-74272676D01*
X155026191Y-74272676D02*
X155121429Y-74177438D01*
X155121429Y-74177438D02*
X155264286Y-74129819D01*
X155264286Y-74129819D02*
X155359524Y-74129819D01*
X155359524Y-74129819D02*
X155502381Y-74177438D01*
X155502381Y-74177438D02*
X155550000Y-74225057D01*
X155930953Y-74225057D02*
X155978572Y-74177438D01*
X155978572Y-74177438D02*
X156073810Y-74129819D01*
X156073810Y-74129819D02*
X156311905Y-74129819D01*
X156311905Y-74129819D02*
X156407143Y-74177438D01*
X156407143Y-74177438D02*
X156454762Y-74225057D01*
X156454762Y-74225057D02*
X156502381Y-74320295D01*
X156502381Y-74320295D02*
X156502381Y-74415533D01*
X156502381Y-74415533D02*
X156454762Y-74558390D01*
X156454762Y-74558390D02*
X155883334Y-75129819D01*
X155883334Y-75129819D02*
X156502381Y-75129819D01*
X142416666Y-90334819D02*
X142416666Y-91049104D01*
X142416666Y-91049104D02*
X142369047Y-91191961D01*
X142369047Y-91191961D02*
X142273809Y-91287200D01*
X142273809Y-91287200D02*
X142130952Y-91334819D01*
X142130952Y-91334819D02*
X142035714Y-91334819D01*
X142845238Y-90430057D02*
X142892857Y-90382438D01*
X142892857Y-90382438D02*
X142988095Y-90334819D01*
X142988095Y-90334819D02*
X143226190Y-90334819D01*
X143226190Y-90334819D02*
X143321428Y-90382438D01*
X143321428Y-90382438D02*
X143369047Y-90430057D01*
X143369047Y-90430057D02*
X143416666Y-90525295D01*
X143416666Y-90525295D02*
X143416666Y-90620533D01*
X143416666Y-90620533D02*
X143369047Y-90763390D01*
X143369047Y-90763390D02*
X142797619Y-91334819D01*
X142797619Y-91334819D02*
X143416666Y-91334819D01*
X105907098Y-73528508D02*
X106621383Y-73528508D01*
X106621383Y-73528508D02*
X106764240Y-73576127D01*
X106764240Y-73576127D02*
X106859479Y-73671365D01*
X106859479Y-73671365D02*
X106907098Y-73814222D01*
X106907098Y-73814222D02*
X106907098Y-73909460D01*
X107002336Y-73290413D02*
X107002336Y-72528508D01*
X106383288Y-71957079D02*
X106383288Y-72290412D01*
X106907098Y-72290412D02*
X105907098Y-72290412D01*
X105907098Y-72290412D02*
X105907098Y-71814222D01*
X106811859Y-70861841D02*
X106859479Y-70909460D01*
X106859479Y-70909460D02*
X106907098Y-71052317D01*
X106907098Y-71052317D02*
X106907098Y-71147555D01*
X106907098Y-71147555D02*
X106859479Y-71290412D01*
X106859479Y-71290412D02*
X106764240Y-71385650D01*
X106764240Y-71385650D02*
X106669002Y-71433269D01*
X106669002Y-71433269D02*
X106478526Y-71480888D01*
X106478526Y-71480888D02*
X106335669Y-71480888D01*
X106335669Y-71480888D02*
X106145193Y-71433269D01*
X106145193Y-71433269D02*
X106049955Y-71385650D01*
X106049955Y-71385650D02*
X105954717Y-71290412D01*
X105954717Y-71290412D02*
X105907098Y-71147555D01*
X105907098Y-71147555D02*
X105907098Y-71052317D01*
X105907098Y-71052317D02*
X105954717Y-70909460D01*
X105954717Y-70909460D02*
X106002336Y-70861841D01*
X106907098Y-69909460D02*
X106907098Y-70480888D01*
X106907098Y-70195174D02*
X105907098Y-70195174D01*
X105907098Y-70195174D02*
X106049955Y-70290412D01*
X106049955Y-70290412D02*
X106145193Y-70385650D01*
X106145193Y-70385650D02*
X106192812Y-70480888D01*
X163570952Y-88084819D02*
X163237619Y-87608628D01*
X162999524Y-88084819D02*
X162999524Y-87084819D01*
X162999524Y-87084819D02*
X163380476Y-87084819D01*
X163380476Y-87084819D02*
X163475714Y-87132438D01*
X163475714Y-87132438D02*
X163523333Y-87180057D01*
X163523333Y-87180057D02*
X163570952Y-87275295D01*
X163570952Y-87275295D02*
X163570952Y-87418152D01*
X163570952Y-87418152D02*
X163523333Y-87513390D01*
X163523333Y-87513390D02*
X163475714Y-87561009D01*
X163475714Y-87561009D02*
X163380476Y-87608628D01*
X163380476Y-87608628D02*
X162999524Y-87608628D01*
X164142381Y-88084819D02*
X164047143Y-88037200D01*
X164047143Y-88037200D02*
X163999524Y-87989580D01*
X163999524Y-87989580D02*
X163951905Y-87894342D01*
X163951905Y-87894342D02*
X163951905Y-87608628D01*
X163951905Y-87608628D02*
X163999524Y-87513390D01*
X163999524Y-87513390D02*
X164047143Y-87465771D01*
X164047143Y-87465771D02*
X164142381Y-87418152D01*
X164142381Y-87418152D02*
X164285238Y-87418152D01*
X164285238Y-87418152D02*
X164380476Y-87465771D01*
X164380476Y-87465771D02*
X164428095Y-87513390D01*
X164428095Y-87513390D02*
X164475714Y-87608628D01*
X164475714Y-87608628D02*
X164475714Y-87894342D01*
X164475714Y-87894342D02*
X164428095Y-87989580D01*
X164428095Y-87989580D02*
X164380476Y-88037200D01*
X164380476Y-88037200D02*
X164285238Y-88084819D01*
X164285238Y-88084819D02*
X164142381Y-88084819D01*
X165428095Y-88084819D02*
X164856667Y-88084819D01*
X165142381Y-88084819D02*
X165142381Y-87084819D01*
X165142381Y-87084819D02*
X165047143Y-87227676D01*
X165047143Y-87227676D02*
X164951905Y-87322914D01*
X164951905Y-87322914D02*
X164856667Y-87370533D01*
X90383332Y-62939376D02*
X90383332Y-63653661D01*
X90383332Y-63653661D02*
X90335713Y-63796518D01*
X90335713Y-63796518D02*
X90240475Y-63891757D01*
X90240475Y-63891757D02*
X90097618Y-63939376D01*
X90097618Y-63939376D02*
X90002380Y-63939376D01*
X90621428Y-64034614D02*
X91383332Y-64034614D01*
X91478571Y-62939376D02*
X91811904Y-63939376D01*
X91811904Y-63939376D02*
X92145237Y-62939376D01*
X92478571Y-63939376D02*
X92478571Y-63272709D01*
X92478571Y-63463185D02*
X92526190Y-63367947D01*
X92526190Y-63367947D02*
X92573809Y-63320328D01*
X92573809Y-63320328D02*
X92669047Y-63272709D01*
X92669047Y-63272709D02*
X92764285Y-63272709D01*
X93478571Y-63891757D02*
X93383333Y-63939376D01*
X93383333Y-63939376D02*
X93192857Y-63939376D01*
X93192857Y-63939376D02*
X93097619Y-63891757D01*
X93097619Y-63891757D02*
X93050000Y-63796518D01*
X93050000Y-63796518D02*
X93050000Y-63415566D01*
X93050000Y-63415566D02*
X93097619Y-63320328D01*
X93097619Y-63320328D02*
X93192857Y-63272709D01*
X93192857Y-63272709D02*
X93383333Y-63272709D01*
X93383333Y-63272709D02*
X93478571Y-63320328D01*
X93478571Y-63320328D02*
X93526190Y-63415566D01*
X93526190Y-63415566D02*
X93526190Y-63510804D01*
X93526190Y-63510804D02*
X93050000Y-63606042D01*
X93811905Y-63272709D02*
X94192857Y-63272709D01*
X93954762Y-63939376D02*
X93954762Y-63082233D01*
X93954762Y-63082233D02*
X94002381Y-62986995D01*
X94002381Y-62986995D02*
X94097619Y-62939376D01*
X94097619Y-62939376D02*
X94192857Y-62939376D01*
X95050000Y-63939376D02*
X94478572Y-63939376D01*
X94764286Y-63939376D02*
X94764286Y-62939376D01*
X94764286Y-62939376D02*
X94669048Y-63082233D01*
X94669048Y-63082233D02*
X94573810Y-63177471D01*
X94573810Y-63177471D02*
X94478572Y-63225090D01*
X153047618Y-87324819D02*
X152714285Y-86848628D01*
X152476190Y-87324819D02*
X152476190Y-86324819D01*
X152476190Y-86324819D02*
X152857142Y-86324819D01*
X152857142Y-86324819D02*
X152952380Y-86372438D01*
X152952380Y-86372438D02*
X152999999Y-86420057D01*
X152999999Y-86420057D02*
X153047618Y-86515295D01*
X153047618Y-86515295D02*
X153047618Y-86658152D01*
X153047618Y-86658152D02*
X152999999Y-86753390D01*
X152999999Y-86753390D02*
X152952380Y-86801009D01*
X152952380Y-86801009D02*
X152857142Y-86848628D01*
X152857142Y-86848628D02*
X152476190Y-86848628D01*
X153238095Y-87420057D02*
X153999999Y-87420057D01*
X154714285Y-87324819D02*
X154238095Y-87324819D01*
X154238095Y-87324819D02*
X154238095Y-86324819D01*
X155619047Y-87229580D02*
X155571428Y-87277200D01*
X155571428Y-87277200D02*
X155428571Y-87324819D01*
X155428571Y-87324819D02*
X155333333Y-87324819D01*
X155333333Y-87324819D02*
X155190476Y-87277200D01*
X155190476Y-87277200D02*
X155095238Y-87181961D01*
X155095238Y-87181961D02*
X155047619Y-87086723D01*
X155047619Y-87086723D02*
X155000000Y-86896247D01*
X155000000Y-86896247D02*
X155000000Y-86753390D01*
X155000000Y-86753390D02*
X155047619Y-86562914D01*
X155047619Y-86562914D02*
X155095238Y-86467676D01*
X155095238Y-86467676D02*
X155190476Y-86372438D01*
X155190476Y-86372438D02*
X155333333Y-86324819D01*
X155333333Y-86324819D02*
X155428571Y-86324819D01*
X155428571Y-86324819D02*
X155571428Y-86372438D01*
X155571428Y-86372438D02*
X155619047Y-86420057D01*
X156000000Y-86420057D02*
X156047619Y-86372438D01*
X156047619Y-86372438D02*
X156142857Y-86324819D01*
X156142857Y-86324819D02*
X156380952Y-86324819D01*
X156380952Y-86324819D02*
X156476190Y-86372438D01*
X156476190Y-86372438D02*
X156523809Y-86420057D01*
X156523809Y-86420057D02*
X156571428Y-86515295D01*
X156571428Y-86515295D02*
X156571428Y-86610533D01*
X156571428Y-86610533D02*
X156523809Y-86753390D01*
X156523809Y-86753390D02*
X155952381Y-87324819D01*
X155952381Y-87324819D02*
X156571428Y-87324819D01*
X103110057Y-65555238D02*
X103062438Y-65650476D01*
X103062438Y-65650476D02*
X102967200Y-65745714D01*
X102967200Y-65745714D02*
X102824342Y-65888571D01*
X102824342Y-65888571D02*
X102776723Y-65983809D01*
X102776723Y-65983809D02*
X102776723Y-66079047D01*
X103014819Y-66031428D02*
X102967200Y-66126666D01*
X102967200Y-66126666D02*
X102871961Y-66221904D01*
X102871961Y-66221904D02*
X102681485Y-66269523D01*
X102681485Y-66269523D02*
X102348152Y-66269523D01*
X102348152Y-66269523D02*
X102157676Y-66221904D01*
X102157676Y-66221904D02*
X102062438Y-66126666D01*
X102062438Y-66126666D02*
X102014819Y-66031428D01*
X102014819Y-66031428D02*
X102014819Y-65840952D01*
X102014819Y-65840952D02*
X102062438Y-65745714D01*
X102062438Y-65745714D02*
X102157676Y-65650476D01*
X102157676Y-65650476D02*
X102348152Y-65602857D01*
X102348152Y-65602857D02*
X102681485Y-65602857D01*
X102681485Y-65602857D02*
X102871961Y-65650476D01*
X102871961Y-65650476D02*
X102967200Y-65745714D01*
X102967200Y-65745714D02*
X103014819Y-65840952D01*
X103014819Y-65840952D02*
X103014819Y-66031428D01*
X103014819Y-64650476D02*
X103014819Y-65221904D01*
X103014819Y-64936190D02*
X102014819Y-64936190D01*
X102014819Y-64936190D02*
X102157676Y-65031428D01*
X102157676Y-65031428D02*
X102252914Y-65126666D01*
X102252914Y-65126666D02*
X102300533Y-65221904D01*
X126840139Y-86666666D02*
X126363948Y-86999999D01*
X126840139Y-87238094D02*
X125840139Y-87238094D01*
X125840139Y-87238094D02*
X125840139Y-86857142D01*
X125840139Y-86857142D02*
X125887758Y-86761904D01*
X125887758Y-86761904D02*
X125935377Y-86714285D01*
X125935377Y-86714285D02*
X126030615Y-86666666D01*
X126030615Y-86666666D02*
X126173472Y-86666666D01*
X126173472Y-86666666D02*
X126268710Y-86714285D01*
X126268710Y-86714285D02*
X126316329Y-86761904D01*
X126316329Y-86761904D02*
X126363948Y-86857142D01*
X126363948Y-86857142D02*
X126363948Y-87238094D01*
X125840139Y-86333332D02*
X125840139Y-85714285D01*
X125840139Y-85714285D02*
X126221091Y-86047618D01*
X126221091Y-86047618D02*
X126221091Y-85904761D01*
X126221091Y-85904761D02*
X126268710Y-85809523D01*
X126268710Y-85809523D02*
X126316329Y-85761904D01*
X126316329Y-85761904D02*
X126411567Y-85714285D01*
X126411567Y-85714285D02*
X126649662Y-85714285D01*
X126649662Y-85714285D02*
X126744900Y-85761904D01*
X126744900Y-85761904D02*
X126792520Y-85809523D01*
X126792520Y-85809523D02*
X126840139Y-85904761D01*
X126840139Y-85904761D02*
X126840139Y-86190475D01*
X126840139Y-86190475D02*
X126792520Y-86285713D01*
X126792520Y-86285713D02*
X126744900Y-86333332D01*
X164324819Y-81952381D02*
X163848628Y-82285714D01*
X164324819Y-82523809D02*
X163324819Y-82523809D01*
X163324819Y-82523809D02*
X163324819Y-82142857D01*
X163324819Y-82142857D02*
X163372438Y-82047619D01*
X163372438Y-82047619D02*
X163420057Y-82000000D01*
X163420057Y-82000000D02*
X163515295Y-81952381D01*
X163515295Y-81952381D02*
X163658152Y-81952381D01*
X163658152Y-81952381D02*
X163753390Y-82000000D01*
X163753390Y-82000000D02*
X163801009Y-82047619D01*
X163801009Y-82047619D02*
X163848628Y-82142857D01*
X163848628Y-82142857D02*
X163848628Y-82523809D01*
X164420057Y-81761905D02*
X164420057Y-81000000D01*
X164324819Y-80285714D02*
X164324819Y-80761904D01*
X164324819Y-80761904D02*
X163324819Y-80761904D01*
X164229580Y-79380952D02*
X164277200Y-79428571D01*
X164277200Y-79428571D02*
X164324819Y-79571428D01*
X164324819Y-79571428D02*
X164324819Y-79666666D01*
X164324819Y-79666666D02*
X164277200Y-79809523D01*
X164277200Y-79809523D02*
X164181961Y-79904761D01*
X164181961Y-79904761D02*
X164086723Y-79952380D01*
X164086723Y-79952380D02*
X163896247Y-79999999D01*
X163896247Y-79999999D02*
X163753390Y-79999999D01*
X163753390Y-79999999D02*
X163562914Y-79952380D01*
X163562914Y-79952380D02*
X163467676Y-79904761D01*
X163467676Y-79904761D02*
X163372438Y-79809523D01*
X163372438Y-79809523D02*
X163324819Y-79666666D01*
X163324819Y-79666666D02*
X163324819Y-79571428D01*
X163324819Y-79571428D02*
X163372438Y-79428571D01*
X163372438Y-79428571D02*
X163420057Y-79380952D01*
X163324819Y-79047618D02*
X163324819Y-78428571D01*
X163324819Y-78428571D02*
X163705771Y-78761904D01*
X163705771Y-78761904D02*
X163705771Y-78619047D01*
X163705771Y-78619047D02*
X163753390Y-78523809D01*
X163753390Y-78523809D02*
X163801009Y-78476190D01*
X163801009Y-78476190D02*
X163896247Y-78428571D01*
X163896247Y-78428571D02*
X164134342Y-78428571D01*
X164134342Y-78428571D02*
X164229580Y-78476190D01*
X164229580Y-78476190D02*
X164277200Y-78523809D01*
X164277200Y-78523809D02*
X164324819Y-78619047D01*
X164324819Y-78619047D02*
X164324819Y-78904761D01*
X164324819Y-78904761D02*
X164277200Y-78999999D01*
X164277200Y-78999999D02*
X164229580Y-79047618D01*
X120775473Y-86982000D02*
X120299282Y-87315333D01*
X120775473Y-87553428D02*
X119775473Y-87553428D01*
X119775473Y-87553428D02*
X119775473Y-87172476D01*
X119775473Y-87172476D02*
X119823092Y-87077238D01*
X119823092Y-87077238D02*
X119870711Y-87029619D01*
X119870711Y-87029619D02*
X119965949Y-86982000D01*
X119965949Y-86982000D02*
X120108806Y-86982000D01*
X120108806Y-86982000D02*
X120204044Y-87029619D01*
X120204044Y-87029619D02*
X120251663Y-87077238D01*
X120251663Y-87077238D02*
X120299282Y-87172476D01*
X120299282Y-87172476D02*
X120299282Y-87553428D01*
X120108806Y-86124857D02*
X120775473Y-86124857D01*
X119727854Y-86362952D02*
X120442139Y-86601047D01*
X120442139Y-86601047D02*
X120442139Y-85982000D01*
X162333333Y-41454819D02*
X162000000Y-40978628D01*
X161761905Y-41454819D02*
X161761905Y-40454819D01*
X161761905Y-40454819D02*
X162142857Y-40454819D01*
X162142857Y-40454819D02*
X162238095Y-40502438D01*
X162238095Y-40502438D02*
X162285714Y-40550057D01*
X162285714Y-40550057D02*
X162333333Y-40645295D01*
X162333333Y-40645295D02*
X162333333Y-40788152D01*
X162333333Y-40788152D02*
X162285714Y-40883390D01*
X162285714Y-40883390D02*
X162238095Y-40931009D01*
X162238095Y-40931009D02*
X162142857Y-40978628D01*
X162142857Y-40978628D02*
X161761905Y-40978628D01*
X163238095Y-40454819D02*
X162761905Y-40454819D01*
X162761905Y-40454819D02*
X162714286Y-40931009D01*
X162714286Y-40931009D02*
X162761905Y-40883390D01*
X162761905Y-40883390D02*
X162857143Y-40835771D01*
X162857143Y-40835771D02*
X163095238Y-40835771D01*
X163095238Y-40835771D02*
X163190476Y-40883390D01*
X163190476Y-40883390D02*
X163238095Y-40931009D01*
X163238095Y-40931009D02*
X163285714Y-41026247D01*
X163285714Y-41026247D02*
X163285714Y-41264342D01*
X163285714Y-41264342D02*
X163238095Y-41359580D01*
X163238095Y-41359580D02*
X163190476Y-41407200D01*
X163190476Y-41407200D02*
X163095238Y-41454819D01*
X163095238Y-41454819D02*
X162857143Y-41454819D01*
X162857143Y-41454819D02*
X162761905Y-41407200D01*
X162761905Y-41407200D02*
X162714286Y-41359580D01*
X149324819Y-79262857D02*
X148848628Y-79596190D01*
X149324819Y-79834285D02*
X148324819Y-79834285D01*
X148324819Y-79834285D02*
X148324819Y-79453333D01*
X148324819Y-79453333D02*
X148372438Y-79358095D01*
X148372438Y-79358095D02*
X148420057Y-79310476D01*
X148420057Y-79310476D02*
X148515295Y-79262857D01*
X148515295Y-79262857D02*
X148658152Y-79262857D01*
X148658152Y-79262857D02*
X148753390Y-79310476D01*
X148753390Y-79310476D02*
X148801009Y-79358095D01*
X148801009Y-79358095D02*
X148848628Y-79453333D01*
X148848628Y-79453333D02*
X148848628Y-79834285D01*
X149277200Y-78881904D02*
X149324819Y-78739047D01*
X149324819Y-78739047D02*
X149324819Y-78500952D01*
X149324819Y-78500952D02*
X149277200Y-78405714D01*
X149277200Y-78405714D02*
X149229580Y-78358095D01*
X149229580Y-78358095D02*
X149134342Y-78310476D01*
X149134342Y-78310476D02*
X149039104Y-78310476D01*
X149039104Y-78310476D02*
X148943866Y-78358095D01*
X148943866Y-78358095D02*
X148896247Y-78405714D01*
X148896247Y-78405714D02*
X148848628Y-78500952D01*
X148848628Y-78500952D02*
X148801009Y-78691428D01*
X148801009Y-78691428D02*
X148753390Y-78786666D01*
X148753390Y-78786666D02*
X148705771Y-78834285D01*
X148705771Y-78834285D02*
X148610533Y-78881904D01*
X148610533Y-78881904D02*
X148515295Y-78881904D01*
X148515295Y-78881904D02*
X148420057Y-78834285D01*
X148420057Y-78834285D02*
X148372438Y-78786666D01*
X148372438Y-78786666D02*
X148324819Y-78691428D01*
X148324819Y-78691428D02*
X148324819Y-78453333D01*
X148324819Y-78453333D02*
X148372438Y-78310476D01*
X148420057Y-77929523D02*
X148372438Y-77881904D01*
X148372438Y-77881904D02*
X148324819Y-77786666D01*
X148324819Y-77786666D02*
X148324819Y-77548571D01*
X148324819Y-77548571D02*
X148372438Y-77453333D01*
X148372438Y-77453333D02*
X148420057Y-77405714D01*
X148420057Y-77405714D02*
X148515295Y-77358095D01*
X148515295Y-77358095D02*
X148610533Y-77358095D01*
X148610533Y-77358095D02*
X148753390Y-77405714D01*
X148753390Y-77405714D02*
X149324819Y-77977142D01*
X149324819Y-77977142D02*
X149324819Y-77358095D01*
X114833333Y-92574819D02*
X115404761Y-92574819D01*
X115119047Y-93574819D02*
X115119047Y-92574819D01*
X115738095Y-93574819D02*
X115738095Y-92574819D01*
X115738095Y-92574819D02*
X116119047Y-92574819D01*
X116119047Y-92574819D02*
X116214285Y-92622438D01*
X116214285Y-92622438D02*
X116261904Y-92670057D01*
X116261904Y-92670057D02*
X116309523Y-92765295D01*
X116309523Y-92765295D02*
X116309523Y-92908152D01*
X116309523Y-92908152D02*
X116261904Y-93003390D01*
X116261904Y-93003390D02*
X116214285Y-93051009D01*
X116214285Y-93051009D02*
X116119047Y-93098628D01*
X116119047Y-93098628D02*
X115738095Y-93098628D01*
X116500000Y-93670057D02*
X117261904Y-93670057D01*
X118023809Y-92622438D02*
X117928571Y-92574819D01*
X117928571Y-92574819D02*
X117785714Y-92574819D01*
X117785714Y-92574819D02*
X117642857Y-92622438D01*
X117642857Y-92622438D02*
X117547619Y-92717676D01*
X117547619Y-92717676D02*
X117500000Y-92812914D01*
X117500000Y-92812914D02*
X117452381Y-93003390D01*
X117452381Y-93003390D02*
X117452381Y-93146247D01*
X117452381Y-93146247D02*
X117500000Y-93336723D01*
X117500000Y-93336723D02*
X117547619Y-93431961D01*
X117547619Y-93431961D02*
X117642857Y-93527200D01*
X117642857Y-93527200D02*
X117785714Y-93574819D01*
X117785714Y-93574819D02*
X117880952Y-93574819D01*
X117880952Y-93574819D02*
X118023809Y-93527200D01*
X118023809Y-93527200D02*
X118071428Y-93479580D01*
X118071428Y-93479580D02*
X118071428Y-93146247D01*
X118071428Y-93146247D02*
X117880952Y-93146247D01*
X118500000Y-93574819D02*
X118500000Y-92574819D01*
X118500000Y-92574819D02*
X119071428Y-93574819D01*
X119071428Y-93574819D02*
X119071428Y-92574819D01*
X119547619Y-93574819D02*
X119547619Y-92574819D01*
X119547619Y-92574819D02*
X119785714Y-92574819D01*
X119785714Y-92574819D02*
X119928571Y-92622438D01*
X119928571Y-92622438D02*
X120023809Y-92717676D01*
X120023809Y-92717676D02*
X120071428Y-92812914D01*
X120071428Y-92812914D02*
X120119047Y-93003390D01*
X120119047Y-93003390D02*
X120119047Y-93146247D01*
X120119047Y-93146247D02*
X120071428Y-93336723D01*
X120071428Y-93336723D02*
X120023809Y-93431961D01*
X120023809Y-93431961D02*
X119928571Y-93527200D01*
X119928571Y-93527200D02*
X119785714Y-93574819D01*
X119785714Y-93574819D02*
X119547619Y-93574819D01*
X120976190Y-92908152D02*
X120976190Y-93574819D01*
X120738095Y-92527200D02*
X120500000Y-93241485D01*
X120500000Y-93241485D02*
X121119047Y-93241485D01*
X87514819Y-66221904D02*
X88324342Y-66221904D01*
X88324342Y-66221904D02*
X88419580Y-66174285D01*
X88419580Y-66174285D02*
X88467200Y-66126666D01*
X88467200Y-66126666D02*
X88514819Y-66031428D01*
X88514819Y-66031428D02*
X88514819Y-65840952D01*
X88514819Y-65840952D02*
X88467200Y-65745714D01*
X88467200Y-65745714D02*
X88419580Y-65698095D01*
X88419580Y-65698095D02*
X88324342Y-65650476D01*
X88324342Y-65650476D02*
X87514819Y-65650476D01*
X88514819Y-64650476D02*
X88514819Y-65221904D01*
X88514819Y-64936190D02*
X87514819Y-64936190D01*
X87514819Y-64936190D02*
X87657676Y-65031428D01*
X87657676Y-65031428D02*
X87752914Y-65126666D01*
X87752914Y-65126666D02*
X87800533Y-65221904D01*
X140864761Y-45950057D02*
X140769523Y-45902438D01*
X140769523Y-45902438D02*
X140674285Y-45807200D01*
X140674285Y-45807200D02*
X140531428Y-45664342D01*
X140531428Y-45664342D02*
X140436190Y-45616723D01*
X140436190Y-45616723D02*
X140340952Y-45616723D01*
X140388571Y-45854819D02*
X140293333Y-45807200D01*
X140293333Y-45807200D02*
X140198095Y-45711961D01*
X140198095Y-45711961D02*
X140150476Y-45521485D01*
X140150476Y-45521485D02*
X140150476Y-45188152D01*
X140150476Y-45188152D02*
X140198095Y-44997676D01*
X140198095Y-44997676D02*
X140293333Y-44902438D01*
X140293333Y-44902438D02*
X140388571Y-44854819D01*
X140388571Y-44854819D02*
X140579047Y-44854819D01*
X140579047Y-44854819D02*
X140674285Y-44902438D01*
X140674285Y-44902438D02*
X140769523Y-44997676D01*
X140769523Y-44997676D02*
X140817142Y-45188152D01*
X140817142Y-45188152D02*
X140817142Y-45521485D01*
X140817142Y-45521485D02*
X140769523Y-45711961D01*
X140769523Y-45711961D02*
X140674285Y-45807200D01*
X140674285Y-45807200D02*
X140579047Y-45854819D01*
X140579047Y-45854819D02*
X140388571Y-45854819D01*
X141674285Y-44854819D02*
X141483809Y-44854819D01*
X141483809Y-44854819D02*
X141388571Y-44902438D01*
X141388571Y-44902438D02*
X141340952Y-44950057D01*
X141340952Y-44950057D02*
X141245714Y-45092914D01*
X141245714Y-45092914D02*
X141198095Y-45283390D01*
X141198095Y-45283390D02*
X141198095Y-45664342D01*
X141198095Y-45664342D02*
X141245714Y-45759580D01*
X141245714Y-45759580D02*
X141293333Y-45807200D01*
X141293333Y-45807200D02*
X141388571Y-45854819D01*
X141388571Y-45854819D02*
X141579047Y-45854819D01*
X141579047Y-45854819D02*
X141674285Y-45807200D01*
X141674285Y-45807200D02*
X141721904Y-45759580D01*
X141721904Y-45759580D02*
X141769523Y-45664342D01*
X141769523Y-45664342D02*
X141769523Y-45426247D01*
X141769523Y-45426247D02*
X141721904Y-45331009D01*
X141721904Y-45331009D02*
X141674285Y-45283390D01*
X141674285Y-45283390D02*
X141579047Y-45235771D01*
X141579047Y-45235771D02*
X141388571Y-45235771D01*
X141388571Y-45235771D02*
X141293333Y-45283390D01*
X141293333Y-45283390D02*
X141245714Y-45331009D01*
X141245714Y-45331009D02*
X141198095Y-45426247D01*
X82333333Y-72122438D02*
X82238095Y-72074819D01*
X82238095Y-72074819D02*
X82095238Y-72074819D01*
X82095238Y-72074819D02*
X81952381Y-72122438D01*
X81952381Y-72122438D02*
X81857143Y-72217676D01*
X81857143Y-72217676D02*
X81809524Y-72312914D01*
X81809524Y-72312914D02*
X81761905Y-72503390D01*
X81761905Y-72503390D02*
X81761905Y-72646247D01*
X81761905Y-72646247D02*
X81809524Y-72836723D01*
X81809524Y-72836723D02*
X81857143Y-72931961D01*
X81857143Y-72931961D02*
X81952381Y-73027200D01*
X81952381Y-73027200D02*
X82095238Y-73074819D01*
X82095238Y-73074819D02*
X82190476Y-73074819D01*
X82190476Y-73074819D02*
X82333333Y-73027200D01*
X82333333Y-73027200D02*
X82380952Y-72979580D01*
X82380952Y-72979580D02*
X82380952Y-72646247D01*
X82380952Y-72646247D02*
X82190476Y-72646247D01*
X83190476Y-73027200D02*
X83095238Y-73074819D01*
X83095238Y-73074819D02*
X82904762Y-73074819D01*
X82904762Y-73074819D02*
X82809524Y-73027200D01*
X82809524Y-73027200D02*
X82761905Y-72931961D01*
X82761905Y-72931961D02*
X82761905Y-72551009D01*
X82761905Y-72551009D02*
X82809524Y-72455771D01*
X82809524Y-72455771D02*
X82904762Y-72408152D01*
X82904762Y-72408152D02*
X83095238Y-72408152D01*
X83095238Y-72408152D02*
X83190476Y-72455771D01*
X83190476Y-72455771D02*
X83238095Y-72551009D01*
X83238095Y-72551009D02*
X83238095Y-72646247D01*
X83238095Y-72646247D02*
X82761905Y-72741485D01*
X83666667Y-72408152D02*
X83666667Y-73074819D01*
X83666667Y-72503390D02*
X83714286Y-72455771D01*
X83714286Y-72455771D02*
X83809524Y-72408152D01*
X83809524Y-72408152D02*
X83952381Y-72408152D01*
X83952381Y-72408152D02*
X84047619Y-72455771D01*
X84047619Y-72455771D02*
X84095238Y-72551009D01*
X84095238Y-72551009D02*
X84095238Y-73074819D01*
X84333334Y-73170057D02*
X85095238Y-73170057D01*
X85333334Y-73074819D02*
X85333334Y-72074819D01*
X85809524Y-72408152D02*
X85809524Y-73074819D01*
X85809524Y-72503390D02*
X85857143Y-72455771D01*
X85857143Y-72455771D02*
X85952381Y-72408152D01*
X85952381Y-72408152D02*
X86095238Y-72408152D01*
X86095238Y-72408152D02*
X86190476Y-72455771D01*
X86190476Y-72455771D02*
X86238095Y-72551009D01*
X86238095Y-72551009D02*
X86238095Y-73074819D01*
X86666667Y-72170057D02*
X86714286Y-72122438D01*
X86714286Y-72122438D02*
X86809524Y-72074819D01*
X86809524Y-72074819D02*
X87047619Y-72074819D01*
X87047619Y-72074819D02*
X87142857Y-72122438D01*
X87142857Y-72122438D02*
X87190476Y-72170057D01*
X87190476Y-72170057D02*
X87238095Y-72265295D01*
X87238095Y-72265295D02*
X87238095Y-72360533D01*
X87238095Y-72360533D02*
X87190476Y-72503390D01*
X87190476Y-72503390D02*
X86619048Y-73074819D01*
X86619048Y-73074819D02*
X87238095Y-73074819D01*
X101706368Y-89929047D02*
X101230177Y-90262380D01*
X101706368Y-90500475D02*
X100706368Y-90500475D01*
X100706368Y-90500475D02*
X100706368Y-90119523D01*
X100706368Y-90119523D02*
X100753987Y-90024285D01*
X100753987Y-90024285D02*
X100801606Y-89976666D01*
X100801606Y-89976666D02*
X100896844Y-89929047D01*
X100896844Y-89929047D02*
X101039701Y-89929047D01*
X101039701Y-89929047D02*
X101134939Y-89976666D01*
X101134939Y-89976666D02*
X101182558Y-90024285D01*
X101182558Y-90024285D02*
X101230177Y-90119523D01*
X101230177Y-90119523D02*
X101230177Y-90500475D01*
X101182558Y-89500475D02*
X101182558Y-89167142D01*
X101706368Y-89024285D02*
X101706368Y-89500475D01*
X101706368Y-89500475D02*
X100706368Y-89500475D01*
X100706368Y-89500475D02*
X100706368Y-89024285D01*
X100706368Y-88690951D02*
X100706368Y-88071904D01*
X100706368Y-88071904D02*
X101087320Y-88405237D01*
X101087320Y-88405237D02*
X101087320Y-88262380D01*
X101087320Y-88262380D02*
X101134939Y-88167142D01*
X101134939Y-88167142D02*
X101182558Y-88119523D01*
X101182558Y-88119523D02*
X101277796Y-88071904D01*
X101277796Y-88071904D02*
X101515891Y-88071904D01*
X101515891Y-88071904D02*
X101611129Y-88119523D01*
X101611129Y-88119523D02*
X101658749Y-88167142D01*
X101658749Y-88167142D02*
X101706368Y-88262380D01*
X101706368Y-88262380D02*
X101706368Y-88548094D01*
X101706368Y-88548094D02*
X101658749Y-88643332D01*
X101658749Y-88643332D02*
X101611129Y-88690951D01*
X114277098Y-44934698D02*
X113800907Y-45268031D01*
X114277098Y-45506126D02*
X113277098Y-45506126D01*
X113277098Y-45506126D02*
X113277098Y-45125174D01*
X113277098Y-45125174D02*
X113324717Y-45029936D01*
X113324717Y-45029936D02*
X113372336Y-44982317D01*
X113372336Y-44982317D02*
X113467574Y-44934698D01*
X113467574Y-44934698D02*
X113610431Y-44934698D01*
X113610431Y-44934698D02*
X113705669Y-44982317D01*
X113705669Y-44982317D02*
X113753288Y-45029936D01*
X113753288Y-45029936D02*
X113800907Y-45125174D01*
X113800907Y-45125174D02*
X113800907Y-45506126D01*
X113753288Y-44506126D02*
X113753288Y-44172793D01*
X114277098Y-44029936D02*
X114277098Y-44506126D01*
X114277098Y-44506126D02*
X113277098Y-44506126D01*
X113277098Y-44506126D02*
X113277098Y-44029936D01*
X113372336Y-43648983D02*
X113324717Y-43601364D01*
X113324717Y-43601364D02*
X113277098Y-43506126D01*
X113277098Y-43506126D02*
X113277098Y-43268031D01*
X113277098Y-43268031D02*
X113324717Y-43172793D01*
X113324717Y-43172793D02*
X113372336Y-43125174D01*
X113372336Y-43125174D02*
X113467574Y-43077555D01*
X113467574Y-43077555D02*
X113562812Y-43077555D01*
X113562812Y-43077555D02*
X113705669Y-43125174D01*
X113705669Y-43125174D02*
X114277098Y-43696602D01*
X114277098Y-43696602D02*
X114277098Y-43077555D01*
X119418070Y-73549999D02*
X120132355Y-73549999D01*
X120132355Y-73549999D02*
X120275212Y-73597618D01*
X120275212Y-73597618D02*
X120370451Y-73692856D01*
X120370451Y-73692856D02*
X120418070Y-73835713D01*
X120418070Y-73835713D02*
X120418070Y-73930951D01*
X120513308Y-73311904D02*
X120513308Y-72549999D01*
X120418070Y-71835713D02*
X120418070Y-72311903D01*
X120418070Y-72311903D02*
X119418070Y-72311903D01*
X119418070Y-71645236D02*
X119418070Y-71073808D01*
X120418070Y-71359522D02*
X119418070Y-71359522D01*
X120418070Y-70216665D02*
X120418070Y-70788093D01*
X120418070Y-70502379D02*
X119418070Y-70502379D01*
X119418070Y-70502379D02*
X119560927Y-70597617D01*
X119560927Y-70597617D02*
X119656165Y-70692855D01*
X119656165Y-70692855D02*
X119703784Y-70788093D01*
X101777098Y-44934698D02*
X101300907Y-45268031D01*
X101777098Y-45506126D02*
X100777098Y-45506126D01*
X100777098Y-45506126D02*
X100777098Y-45125174D01*
X100777098Y-45125174D02*
X100824717Y-45029936D01*
X100824717Y-45029936D02*
X100872336Y-44982317D01*
X100872336Y-44982317D02*
X100967574Y-44934698D01*
X100967574Y-44934698D02*
X101110431Y-44934698D01*
X101110431Y-44934698D02*
X101205669Y-44982317D01*
X101205669Y-44982317D02*
X101253288Y-45029936D01*
X101253288Y-45029936D02*
X101300907Y-45125174D01*
X101300907Y-45125174D02*
X101300907Y-45506126D01*
X101253288Y-44506126D02*
X101253288Y-44172793D01*
X101777098Y-44029936D02*
X101777098Y-44506126D01*
X101777098Y-44506126D02*
X100777098Y-44506126D01*
X100777098Y-44506126D02*
X100777098Y-44029936D01*
X101777098Y-43077555D02*
X101777098Y-43648983D01*
X101777098Y-43363269D02*
X100777098Y-43363269D01*
X100777098Y-43363269D02*
X100919955Y-43458507D01*
X100919955Y-43458507D02*
X101015193Y-43553745D01*
X101015193Y-43553745D02*
X101062812Y-43648983D01*
X87324819Y-53976666D02*
X86848628Y-54309999D01*
X87324819Y-54548094D02*
X86324819Y-54548094D01*
X86324819Y-54548094D02*
X86324819Y-54167142D01*
X86324819Y-54167142D02*
X86372438Y-54071904D01*
X86372438Y-54071904D02*
X86420057Y-54024285D01*
X86420057Y-54024285D02*
X86515295Y-53976666D01*
X86515295Y-53976666D02*
X86658152Y-53976666D01*
X86658152Y-53976666D02*
X86753390Y-54024285D01*
X86753390Y-54024285D02*
X86801009Y-54071904D01*
X86801009Y-54071904D02*
X86848628Y-54167142D01*
X86848628Y-54167142D02*
X86848628Y-54548094D01*
X87324819Y-53024285D02*
X87324819Y-53595713D01*
X87324819Y-53309999D02*
X86324819Y-53309999D01*
X86324819Y-53309999D02*
X86467676Y-53405237D01*
X86467676Y-53405237D02*
X86562914Y-53500475D01*
X86562914Y-53500475D02*
X86610533Y-53595713D01*
X115505126Y-65540894D02*
X115457507Y-65636132D01*
X115457507Y-65636132D02*
X115362269Y-65731370D01*
X115362269Y-65731370D02*
X115219411Y-65874227D01*
X115219411Y-65874227D02*
X115171792Y-65969465D01*
X115171792Y-65969465D02*
X115171792Y-66064703D01*
X115409888Y-66017084D02*
X115362269Y-66112322D01*
X115362269Y-66112322D02*
X115267030Y-66207560D01*
X115267030Y-66207560D02*
X115076554Y-66255179D01*
X115076554Y-66255179D02*
X114743221Y-66255179D01*
X114743221Y-66255179D02*
X114552745Y-66207560D01*
X114552745Y-66207560D02*
X114457507Y-66112322D01*
X114457507Y-66112322D02*
X114409888Y-66017084D01*
X114409888Y-66017084D02*
X114409888Y-65826608D01*
X114409888Y-65826608D02*
X114457507Y-65731370D01*
X114457507Y-65731370D02*
X114552745Y-65636132D01*
X114552745Y-65636132D02*
X114743221Y-65588513D01*
X114743221Y-65588513D02*
X115076554Y-65588513D01*
X115076554Y-65588513D02*
X115267030Y-65636132D01*
X115267030Y-65636132D02*
X115362269Y-65731370D01*
X115362269Y-65731370D02*
X115409888Y-65826608D01*
X115409888Y-65826608D02*
X115409888Y-66017084D01*
X114505126Y-65207560D02*
X114457507Y-65159941D01*
X114457507Y-65159941D02*
X114409888Y-65064703D01*
X114409888Y-65064703D02*
X114409888Y-64826608D01*
X114409888Y-64826608D02*
X114457507Y-64731370D01*
X114457507Y-64731370D02*
X114505126Y-64683751D01*
X114505126Y-64683751D02*
X114600364Y-64636132D01*
X114600364Y-64636132D02*
X114695602Y-64636132D01*
X114695602Y-64636132D02*
X114838459Y-64683751D01*
X114838459Y-64683751D02*
X115409888Y-65255179D01*
X115409888Y-65255179D02*
X115409888Y-64636132D01*
X132750057Y-60595238D02*
X132702438Y-60690476D01*
X132702438Y-60690476D02*
X132607200Y-60785714D01*
X132607200Y-60785714D02*
X132464342Y-60928571D01*
X132464342Y-60928571D02*
X132416723Y-61023809D01*
X132416723Y-61023809D02*
X132416723Y-61119047D01*
X132654819Y-61071428D02*
X132607200Y-61166666D01*
X132607200Y-61166666D02*
X132511961Y-61261904D01*
X132511961Y-61261904D02*
X132321485Y-61309523D01*
X132321485Y-61309523D02*
X131988152Y-61309523D01*
X131988152Y-61309523D02*
X131797676Y-61261904D01*
X131797676Y-61261904D02*
X131702438Y-61166666D01*
X131702438Y-61166666D02*
X131654819Y-61071428D01*
X131654819Y-61071428D02*
X131654819Y-60880952D01*
X131654819Y-60880952D02*
X131702438Y-60785714D01*
X131702438Y-60785714D02*
X131797676Y-60690476D01*
X131797676Y-60690476D02*
X131988152Y-60642857D01*
X131988152Y-60642857D02*
X132321485Y-60642857D01*
X132321485Y-60642857D02*
X132511961Y-60690476D01*
X132511961Y-60690476D02*
X132607200Y-60785714D01*
X132607200Y-60785714D02*
X132654819Y-60880952D01*
X132654819Y-60880952D02*
X132654819Y-61071428D01*
X131654819Y-59738095D02*
X131654819Y-60214285D01*
X131654819Y-60214285D02*
X132131009Y-60261904D01*
X132131009Y-60261904D02*
X132083390Y-60214285D01*
X132083390Y-60214285D02*
X132035771Y-60119047D01*
X132035771Y-60119047D02*
X132035771Y-59880952D01*
X132035771Y-59880952D02*
X132083390Y-59785714D01*
X132083390Y-59785714D02*
X132131009Y-59738095D01*
X132131009Y-59738095D02*
X132226247Y-59690476D01*
X132226247Y-59690476D02*
X132464342Y-59690476D01*
X132464342Y-59690476D02*
X132559580Y-59738095D01*
X132559580Y-59738095D02*
X132607200Y-59785714D01*
X132607200Y-59785714D02*
X132654819Y-59880952D01*
X132654819Y-59880952D02*
X132654819Y-60119047D01*
X132654819Y-60119047D02*
X132607200Y-60214285D01*
X132607200Y-60214285D02*
X132559580Y-60261904D01*
X162202717Y-53454819D02*
X161869384Y-52978628D01*
X161631289Y-53454819D02*
X161631289Y-52454819D01*
X161631289Y-52454819D02*
X162012241Y-52454819D01*
X162012241Y-52454819D02*
X162107479Y-52502438D01*
X162107479Y-52502438D02*
X162155098Y-52550057D01*
X162155098Y-52550057D02*
X162202717Y-52645295D01*
X162202717Y-52645295D02*
X162202717Y-52788152D01*
X162202717Y-52788152D02*
X162155098Y-52883390D01*
X162155098Y-52883390D02*
X162107479Y-52931009D01*
X162107479Y-52931009D02*
X162012241Y-52978628D01*
X162012241Y-52978628D02*
X161631289Y-52978628D01*
X163059860Y-52454819D02*
X162869384Y-52454819D01*
X162869384Y-52454819D02*
X162774146Y-52502438D01*
X162774146Y-52502438D02*
X162726527Y-52550057D01*
X162726527Y-52550057D02*
X162631289Y-52692914D01*
X162631289Y-52692914D02*
X162583670Y-52883390D01*
X162583670Y-52883390D02*
X162583670Y-53264342D01*
X162583670Y-53264342D02*
X162631289Y-53359580D01*
X162631289Y-53359580D02*
X162678908Y-53407200D01*
X162678908Y-53407200D02*
X162774146Y-53454819D01*
X162774146Y-53454819D02*
X162964622Y-53454819D01*
X162964622Y-53454819D02*
X163059860Y-53407200D01*
X163059860Y-53407200D02*
X163107479Y-53359580D01*
X163107479Y-53359580D02*
X163155098Y-53264342D01*
X163155098Y-53264342D02*
X163155098Y-53026247D01*
X163155098Y-53026247D02*
X163107479Y-52931009D01*
X163107479Y-52931009D02*
X163059860Y-52883390D01*
X163059860Y-52883390D02*
X162964622Y-52835771D01*
X162964622Y-52835771D02*
X162774146Y-52835771D01*
X162774146Y-52835771D02*
X162678908Y-52883390D01*
X162678908Y-52883390D02*
X162631289Y-52931009D01*
X162631289Y-52931009D02*
X162583670Y-53026247D01*
X102991606Y-79635238D02*
X102943987Y-79730476D01*
X102943987Y-79730476D02*
X102848749Y-79825714D01*
X102848749Y-79825714D02*
X102705891Y-79968571D01*
X102705891Y-79968571D02*
X102658272Y-80063809D01*
X102658272Y-80063809D02*
X102658272Y-80159047D01*
X102896368Y-80111428D02*
X102848749Y-80206666D01*
X102848749Y-80206666D02*
X102753510Y-80301904D01*
X102753510Y-80301904D02*
X102563034Y-80349523D01*
X102563034Y-80349523D02*
X102229701Y-80349523D01*
X102229701Y-80349523D02*
X102039225Y-80301904D01*
X102039225Y-80301904D02*
X101943987Y-80206666D01*
X101943987Y-80206666D02*
X101896368Y-80111428D01*
X101896368Y-80111428D02*
X101896368Y-79920952D01*
X101896368Y-79920952D02*
X101943987Y-79825714D01*
X101943987Y-79825714D02*
X102039225Y-79730476D01*
X102039225Y-79730476D02*
X102229701Y-79682857D01*
X102229701Y-79682857D02*
X102563034Y-79682857D01*
X102563034Y-79682857D02*
X102753510Y-79730476D01*
X102753510Y-79730476D02*
X102848749Y-79825714D01*
X102848749Y-79825714D02*
X102896368Y-79920952D01*
X102896368Y-79920952D02*
X102896368Y-80111428D01*
X102324939Y-79111428D02*
X102277320Y-79206666D01*
X102277320Y-79206666D02*
X102229701Y-79254285D01*
X102229701Y-79254285D02*
X102134463Y-79301904D01*
X102134463Y-79301904D02*
X102086844Y-79301904D01*
X102086844Y-79301904D02*
X101991606Y-79254285D01*
X101991606Y-79254285D02*
X101943987Y-79206666D01*
X101943987Y-79206666D02*
X101896368Y-79111428D01*
X101896368Y-79111428D02*
X101896368Y-78920952D01*
X101896368Y-78920952D02*
X101943987Y-78825714D01*
X101943987Y-78825714D02*
X101991606Y-78778095D01*
X101991606Y-78778095D02*
X102086844Y-78730476D01*
X102086844Y-78730476D02*
X102134463Y-78730476D01*
X102134463Y-78730476D02*
X102229701Y-78778095D01*
X102229701Y-78778095D02*
X102277320Y-78825714D01*
X102277320Y-78825714D02*
X102324939Y-78920952D01*
X102324939Y-78920952D02*
X102324939Y-79111428D01*
X102324939Y-79111428D02*
X102372558Y-79206666D01*
X102372558Y-79206666D02*
X102420177Y-79254285D01*
X102420177Y-79254285D02*
X102515415Y-79301904D01*
X102515415Y-79301904D02*
X102705891Y-79301904D01*
X102705891Y-79301904D02*
X102801129Y-79254285D01*
X102801129Y-79254285D02*
X102848749Y-79206666D01*
X102848749Y-79206666D02*
X102896368Y-79111428D01*
X102896368Y-79111428D02*
X102896368Y-78920952D01*
X102896368Y-78920952D02*
X102848749Y-78825714D01*
X102848749Y-78825714D02*
X102801129Y-78778095D01*
X102801129Y-78778095D02*
X102705891Y-78730476D01*
X102705891Y-78730476D02*
X102515415Y-78730476D01*
X102515415Y-78730476D02*
X102420177Y-78778095D01*
X102420177Y-78778095D02*
X102372558Y-78825714D01*
X102372558Y-78825714D02*
X102324939Y-78920952D01*
X155561299Y-67334819D02*
X155227966Y-66858628D01*
X154989871Y-67334819D02*
X154989871Y-66334819D01*
X154989871Y-66334819D02*
X155370823Y-66334819D01*
X155370823Y-66334819D02*
X155466061Y-66382438D01*
X155466061Y-66382438D02*
X155513680Y-66430057D01*
X155513680Y-66430057D02*
X155561299Y-66525295D01*
X155561299Y-66525295D02*
X155561299Y-66668152D01*
X155561299Y-66668152D02*
X155513680Y-66763390D01*
X155513680Y-66763390D02*
X155466061Y-66811009D01*
X155466061Y-66811009D02*
X155370823Y-66858628D01*
X155370823Y-66858628D02*
X154989871Y-66858628D01*
X155894633Y-67334819D02*
X156418442Y-66668152D01*
X155894633Y-66668152D02*
X156418442Y-67334819D01*
X156751776Y-66430057D02*
X156799395Y-66382438D01*
X156799395Y-66382438D02*
X156894633Y-66334819D01*
X156894633Y-66334819D02*
X157132728Y-66334819D01*
X157132728Y-66334819D02*
X157227966Y-66382438D01*
X157227966Y-66382438D02*
X157275585Y-66430057D01*
X157275585Y-66430057D02*
X157323204Y-66525295D01*
X157323204Y-66525295D02*
X157323204Y-66620533D01*
X157323204Y-66620533D02*
X157275585Y-66763390D01*
X157275585Y-66763390D02*
X156704157Y-67334819D01*
X156704157Y-67334819D02*
X157323204Y-67334819D01*
X140324819Y-79262857D02*
X139848628Y-79596190D01*
X140324819Y-79834285D02*
X139324819Y-79834285D01*
X139324819Y-79834285D02*
X139324819Y-79453333D01*
X139324819Y-79453333D02*
X139372438Y-79358095D01*
X139372438Y-79358095D02*
X139420057Y-79310476D01*
X139420057Y-79310476D02*
X139515295Y-79262857D01*
X139515295Y-79262857D02*
X139658152Y-79262857D01*
X139658152Y-79262857D02*
X139753390Y-79310476D01*
X139753390Y-79310476D02*
X139801009Y-79358095D01*
X139801009Y-79358095D02*
X139848628Y-79453333D01*
X139848628Y-79453333D02*
X139848628Y-79834285D01*
X140277200Y-78881904D02*
X140324819Y-78739047D01*
X140324819Y-78739047D02*
X140324819Y-78500952D01*
X140324819Y-78500952D02*
X140277200Y-78405714D01*
X140277200Y-78405714D02*
X140229580Y-78358095D01*
X140229580Y-78358095D02*
X140134342Y-78310476D01*
X140134342Y-78310476D02*
X140039104Y-78310476D01*
X140039104Y-78310476D02*
X139943866Y-78358095D01*
X139943866Y-78358095D02*
X139896247Y-78405714D01*
X139896247Y-78405714D02*
X139848628Y-78500952D01*
X139848628Y-78500952D02*
X139801009Y-78691428D01*
X139801009Y-78691428D02*
X139753390Y-78786666D01*
X139753390Y-78786666D02*
X139705771Y-78834285D01*
X139705771Y-78834285D02*
X139610533Y-78881904D01*
X139610533Y-78881904D02*
X139515295Y-78881904D01*
X139515295Y-78881904D02*
X139420057Y-78834285D01*
X139420057Y-78834285D02*
X139372438Y-78786666D01*
X139372438Y-78786666D02*
X139324819Y-78691428D01*
X139324819Y-78691428D02*
X139324819Y-78453333D01*
X139324819Y-78453333D02*
X139372438Y-78310476D01*
X140324819Y-77358095D02*
X140324819Y-77929523D01*
X140324819Y-77643809D02*
X139324819Y-77643809D01*
X139324819Y-77643809D02*
X139467676Y-77739047D01*
X139467676Y-77739047D02*
X139562914Y-77834285D01*
X139562914Y-77834285D02*
X139610533Y-77929523D01*
%TO.C,J1*%
D11*
X81630000Y-37347500D02*
X92370000Y-37347500D01*
X81630000Y-40967500D02*
X82870000Y-40967500D01*
X81630000Y-41967500D02*
X82870000Y-41967500D01*
X81630000Y-43267500D02*
X82870000Y-43267500D01*
X81630000Y-45387500D02*
X81630000Y-37347500D01*
X84450000Y-45387500D02*
X81630000Y-45387500D01*
X86630000Y-40967500D02*
X87938000Y-40967500D01*
X86630000Y-41967500D02*
X87938000Y-41967500D01*
X86630000Y-43267500D02*
X89207000Y-43267500D01*
X90293000Y-43267500D02*
X92370000Y-43267500D01*
X91562000Y-40967500D02*
X92370000Y-40967500D01*
X91562000Y-41967500D02*
X92370000Y-41967500D01*
X92370000Y-37347500D02*
X92370000Y-45387500D01*
X92370000Y-45387500D02*
X85050000Y-45387500D01*
X85190000Y-45997500D02*
X84310000Y-45997500D01*
X84750000Y-45387500D01*
X85190000Y-45997500D01*
G36*
X85190000Y-45997500D02*
G01*
X84310000Y-45997500D01*
X84750000Y-45387500D01*
X85190000Y-45997500D01*
G37*
%TO.C,TP_GND5*%
X85120000Y-84120000D02*
X86500000Y-84120000D01*
X85120000Y-85500000D02*
X85120000Y-84120000D01*
X85120000Y-86770000D02*
X85120000Y-86880000D01*
X85120000Y-86770000D02*
X87880000Y-86770000D01*
X85120000Y-86880000D02*
X87880000Y-86880000D01*
X87880000Y-86770000D02*
X87880000Y-86880000D01*
%TO.C,Gen_In1*%
X90120000Y-73120000D02*
X91500000Y-73120000D01*
X90120000Y-74500000D02*
X90120000Y-73120000D01*
X90120000Y-75770000D02*
X90120000Y-75880000D01*
X90120000Y-75770000D02*
X92880000Y-75770000D01*
X90120000Y-75880000D02*
X92880000Y-75880000D01*
X92880000Y-75770000D02*
X92880000Y-75880000D01*
%TO.C,C_COMP1*%
X122130000Y-52775000D02*
X124870000Y-52775000D01*
X122130000Y-58015000D02*
X122130000Y-52775000D01*
X124870000Y-52775000D02*
X124870000Y-58015000D01*
X124870000Y-58015000D02*
X122130000Y-58015000D01*
%TO.C,Q3*%
X100866307Y-55465651D02*
X100866307Y-51865651D01*
X96416307Y-53665651D02*
G75*
G02*
X97917500Y-51309251I2600000J0D01*
G01*
X97917500Y-56022051D02*
G75*
G02*
X96416307Y-53665651I1098807J2356400D01*
G01*
X100139102Y-51341467D02*
G75*
G02*
X100866307Y-51865651I-1122795J-2324184D01*
G01*
X100866307Y-55465651D02*
G75*
G02*
X100139102Y-55989835I-1850000J1800000D01*
G01*
%TO.C,U2*%
X164050000Y-66940000D02*
X164050000Y-68190000D01*
X164050000Y-70190000D02*
X164050000Y-71440000D01*
X164050000Y-71440000D02*
X174330000Y-71440000D01*
X174330000Y-66940000D02*
X164050000Y-66940000D01*
X174330000Y-71440000D02*
X174330000Y-66940000D01*
X164050000Y-68190000D02*
G75*
G02*
X164050000Y-70190000I0J-1000000D01*
G01*
%TO.C,Rf1*%
X166555000Y-76420000D02*
X166485000Y-76420000D01*
X169295000Y-76420000D02*
G75*
G02*
X166555000Y-76420000I-1370000J0D01*
G01*
X166555000Y-76420000D02*
G75*
G02*
X169295000Y-76420000I1370000J0D01*
G01*
%TO.C,J_LC1*%
D10*
X124100000Y-66680000D02*
X124600000Y-66180000D01*
X124100000Y-70280000D02*
X124100000Y-66680000D01*
X124600000Y-66180000D02*
X125400000Y-66180000D01*
X124600000Y-70780000D02*
X124100000Y-70280000D01*
X125400000Y-66180000D02*
X125900000Y-66680000D01*
X125400000Y-70780000D02*
X124600000Y-70780000D01*
X125900000Y-66680000D02*
X125900000Y-70280000D01*
X125900000Y-70280000D02*
X125400000Y-70780000D01*
%TO.C,R_COMP1*%
D11*
X122130000Y-43540000D02*
X122130000Y-50080000D01*
X122130000Y-50080000D02*
X122460000Y-50080000D01*
X122460000Y-43540000D02*
X122130000Y-43540000D01*
X124540000Y-43540000D02*
X124870000Y-43540000D01*
X124870000Y-43540000D02*
X124870000Y-50080000D01*
X124870000Y-50080000D02*
X124540000Y-50080000D01*
%TO.C,Q4*%
X113414554Y-55502903D02*
X113414554Y-51902903D01*
X108964554Y-53702903D02*
G75*
G02*
X110465747Y-51346503I2600000J0D01*
G01*
X110465747Y-56059303D02*
G75*
G02*
X108964554Y-53702903I1098807J2356400D01*
G01*
X112687349Y-51378719D02*
G75*
G02*
X113414554Y-51902903I-1122795J-2324184D01*
G01*
X113414554Y-55502903D02*
G75*
G02*
X112687349Y-56027087I-1850000J1800000D01*
G01*
%TO.C,TP_Vo1*%
X131120000Y-94120000D02*
X132500000Y-94120000D01*
X131120000Y-95500000D02*
X131120000Y-94120000D01*
X131120000Y-96770000D02*
X131120000Y-96880000D01*
X131120000Y-96770000D02*
X133880000Y-96770000D01*
X131120000Y-96880000D02*
X133880000Y-96880000D01*
X133880000Y-96770000D02*
X133880000Y-96880000D01*
%TO.C,Q9*%
X123290000Y-74740000D02*
X123290000Y-78340000D01*
X123290000Y-74740000D02*
G75*
G02*
X124017205Y-74215816I1850000J-1800000D01*
G01*
X124017205Y-78864184D02*
G75*
G02*
X123290000Y-78340000I1122795J2324184D01*
G01*
X126238807Y-74183600D02*
G75*
G02*
X127740000Y-76540000I-1098807J-2356400D01*
G01*
X127740000Y-76540000D02*
G75*
G02*
X126238807Y-78896400I-2600000J0D01*
G01*
%TO.C,C_Op2*%
X164130000Y-54880000D02*
X166870000Y-54880000D01*
X164130000Y-60120000D02*
X164130000Y-54880000D01*
X166870000Y-54880000D02*
X166870000Y-60120000D01*
X166870000Y-60120000D02*
X164130000Y-60120000D01*
%TO.C,J_QD1*%
D10*
X115220000Y-60100000D02*
X115720000Y-59600000D01*
X115220000Y-60900000D02*
X115220000Y-60100000D01*
X115720000Y-59600000D02*
X119320000Y-59600000D01*
X115720000Y-61400000D02*
X115220000Y-60900000D01*
X119320000Y-59600000D02*
X119820000Y-60100000D01*
X119320000Y-61400000D02*
X115720000Y-61400000D01*
X119820000Y-60100000D02*
X119820000Y-60900000D01*
X119820000Y-60900000D02*
X119320000Y-61400000D01*
%TO.C,Rref1*%
D11*
X160920000Y-93130000D02*
X167460000Y-93130000D01*
X160920000Y-93460000D02*
X160920000Y-93130000D01*
X160920000Y-95540000D02*
X160920000Y-95870000D01*
X160920000Y-95870000D02*
X167460000Y-95870000D01*
X167460000Y-93130000D02*
X167460000Y-93460000D01*
X167460000Y-95870000D02*
X167460000Y-95540000D01*
%TO.C,TP_Vx1*%
X139620000Y-61620000D02*
X141000000Y-61620000D01*
X139620000Y-63000000D02*
X139620000Y-61620000D01*
X139620000Y-64270000D02*
X139620000Y-64380000D01*
X139620000Y-64270000D02*
X142380000Y-64270000D01*
X139620000Y-64380000D02*
X142380000Y-64380000D01*
X142380000Y-64270000D02*
X142380000Y-64380000D01*
%TO.C,R2*%
X87420000Y-78130000D02*
X93960000Y-78130000D01*
X87420000Y-78460000D02*
X87420000Y-78130000D01*
X87420000Y-80540000D02*
X87420000Y-80870000D01*
X87420000Y-80870000D02*
X93960000Y-80870000D01*
X93960000Y-78130000D02*
X93960000Y-78460000D01*
X93960000Y-80870000D02*
X93960000Y-80540000D01*
%TO.C,Q7*%
X109671549Y-77740000D02*
X109671549Y-81340000D01*
X109671549Y-77740000D02*
G75*
G02*
X110398754Y-77215816I1850000J-1800000D01*
G01*
X110398754Y-81864184D02*
G75*
G02*
X109671549Y-81340000I1122795J2324184D01*
G01*
X112620356Y-77183600D02*
G75*
G02*
X114121549Y-79540000I-1098807J-2356400D01*
G01*
X114121549Y-79540000D02*
G75*
G02*
X112620356Y-81896400I-2600000J0D01*
G01*
%TO.C,RE4*%
X110011549Y-86040000D02*
X110011549Y-92580000D01*
X110011549Y-92580000D02*
X110341549Y-92580000D01*
X110341549Y-86040000D02*
X110011549Y-86040000D01*
X112421549Y-86040000D02*
X112751549Y-86040000D01*
X112751549Y-86040000D02*
X112751549Y-92580000D01*
X112751549Y-92580000D02*
X112421549Y-92580000D01*
%TO.C,Rx1*%
X152730000Y-62130000D02*
X159270000Y-62130000D01*
X152730000Y-62460000D02*
X152730000Y-62130000D01*
X152730000Y-64540000D02*
X152730000Y-64870000D01*
X152730000Y-64870000D02*
X159270000Y-64870000D01*
X159270000Y-62130000D02*
X159270000Y-62460000D01*
X159270000Y-64870000D02*
X159270000Y-64540000D01*
%TO.C,J_LC2*%
D10*
X152220000Y-76275000D02*
X152720000Y-75775000D01*
X152220000Y-77075000D02*
X152220000Y-76275000D01*
X152720000Y-75775000D02*
X156320000Y-75775000D01*
X152720000Y-77575000D02*
X152220000Y-77075000D01*
X156320000Y-75775000D02*
X156820000Y-76275000D01*
X156320000Y-77575000D02*
X152720000Y-77575000D01*
X156820000Y-76275000D02*
X156820000Y-77075000D01*
X156820000Y-77075000D02*
X156320000Y-77575000D01*
%TO.C,J2*%
D11*
X137380000Y-91880000D02*
X148120000Y-91880000D01*
X137380000Y-95500000D02*
X138620000Y-95500000D01*
X137380000Y-96500000D02*
X138620000Y-96500000D01*
X137380000Y-97800000D02*
X138620000Y-97800000D01*
X137380000Y-99920000D02*
X137380000Y-91880000D01*
X140200000Y-99920000D02*
X137380000Y-99920000D01*
X142380000Y-95500000D02*
X143688000Y-95500000D01*
X142380000Y-96500000D02*
X143688000Y-96500000D01*
X142380000Y-97800000D02*
X144957000Y-97800000D01*
X146043000Y-97800000D02*
X148120000Y-97800000D01*
X147312000Y-95500000D02*
X148120000Y-95500000D01*
X147312000Y-96500000D02*
X148120000Y-96500000D01*
X148120000Y-91880000D02*
X148120000Y-99920000D01*
X148120000Y-99920000D02*
X140800000Y-99920000D01*
X140940000Y-100530000D02*
X140060000Y-100530000D01*
X140500000Y-99920000D01*
X140940000Y-100530000D01*
G36*
X140940000Y-100530000D02*
G01*
X140060000Y-100530000D01*
X140500000Y-99920000D01*
X140940000Y-100530000D01*
G37*
%TO.C,J_FC1*%
D10*
X103552279Y-70055651D02*
X104052279Y-69555651D01*
X103552279Y-73655651D02*
X103552279Y-70055651D01*
X104052279Y-69555651D02*
X104852279Y-69555651D01*
X104052279Y-74155651D02*
X103552279Y-73655651D01*
X104852279Y-69555651D02*
X105352279Y-70055651D01*
X104852279Y-74155651D02*
X104052279Y-74155651D01*
X105352279Y-70055651D02*
X105352279Y-73655651D01*
X105352279Y-73655651D02*
X104852279Y-74155651D01*
%TO.C,Ro1*%
D11*
X160920000Y-88630000D02*
X167460000Y-88630000D01*
X160920000Y-88960000D02*
X160920000Y-88630000D01*
X160920000Y-91040000D02*
X160920000Y-91370000D01*
X160920000Y-91370000D02*
X167460000Y-91370000D01*
X167460000Y-88630000D02*
X167460000Y-88960000D01*
X167460000Y-91370000D02*
X167460000Y-91040000D01*
%TO.C,J_Vref1*%
D10*
X90220000Y-65084557D02*
X90720000Y-64584557D01*
X90220000Y-65884557D02*
X90220000Y-65084557D01*
X90720000Y-64584557D02*
X94320000Y-64584557D01*
X90720000Y-66384557D02*
X90220000Y-65884557D01*
X94320000Y-64584557D02*
X94820000Y-65084557D01*
X94320000Y-66384557D02*
X90720000Y-66384557D01*
X94820000Y-65084557D02*
X94820000Y-65884557D01*
X94820000Y-65884557D02*
X94320000Y-66384557D01*
%TO.C,R_LC2*%
D11*
X151230000Y-83130000D02*
X151230000Y-83460000D01*
X151230000Y-85870000D02*
X151230000Y-85540000D01*
X157770000Y-83130000D02*
X151230000Y-83130000D01*
X157770000Y-83460000D02*
X157770000Y-83130000D01*
X157770000Y-85540000D02*
X157770000Y-85870000D01*
X157770000Y-85870000D02*
X151230000Y-85870000D01*
%TO.C,Q1*%
X97300000Y-63520000D02*
X97300000Y-67370000D01*
X97300000Y-63520000D02*
G75*
G02*
X97877955Y-63137369I1700000J-1940000D01*
G01*
X97887736Y-67762383D02*
G75*
G02*
X97300000Y-67370000I1112264J2302383D01*
G01*
X100098807Y-63103600D02*
G75*
G02*
X101600000Y-65460000I-1098807J-2356400D01*
G01*
X101600000Y-65460000D02*
G75*
G02*
X100098807Y-67816400I-2600000J0D01*
G01*
%TO.C,R3*%
X122645320Y-83230000D02*
X122645320Y-89770000D01*
X122645320Y-89770000D02*
X122975320Y-89770000D01*
X122975320Y-83230000D02*
X122645320Y-83230000D01*
X125055320Y-83230000D02*
X125385320Y-83230000D01*
X125385320Y-83230000D02*
X125385320Y-89770000D01*
X125385320Y-89770000D02*
X125055320Y-89770000D01*
%TO.C,R_LC3*%
X160130000Y-77230000D02*
X160130000Y-83770000D01*
X160130000Y-83770000D02*
X160460000Y-83770000D01*
X160460000Y-77230000D02*
X160130000Y-77230000D01*
X162540000Y-77230000D02*
X162870000Y-77230000D01*
X162870000Y-77230000D02*
X162870000Y-83770000D01*
X162870000Y-83770000D02*
X162540000Y-83770000D01*
%TO.C,R4*%
X116580654Y-83545334D02*
X116580654Y-90085334D01*
X116580654Y-90085334D02*
X116910654Y-90085334D01*
X116910654Y-83545334D02*
X116580654Y-83545334D01*
X118990654Y-83545334D02*
X119320654Y-83545334D01*
X119320654Y-83545334D02*
X119320654Y-90085334D01*
X119320654Y-90085334D02*
X118990654Y-90085334D01*
%TO.C,R5*%
X159230000Y-43130000D02*
X159230000Y-43460000D01*
X159230000Y-45870000D02*
X159230000Y-45540000D01*
X165770000Y-43130000D02*
X159230000Y-43130000D01*
X165770000Y-43460000D02*
X165770000Y-43130000D01*
X165770000Y-45540000D02*
X165770000Y-45870000D01*
X165770000Y-45870000D02*
X159230000Y-45870000D01*
%TO.C,RS2*%
X145500000Y-72440000D02*
X145500000Y-72550000D01*
X145500000Y-84800000D02*
X145500000Y-84690000D01*
X143130000Y-72550000D02*
X147870000Y-72550000D01*
X147870000Y-84690000D01*
X143130000Y-84690000D01*
X143130000Y-72550000D01*
%TO.C,TP_GND4*%
X116620000Y-94120000D02*
X118000000Y-94120000D01*
X116620000Y-95500000D02*
X116620000Y-94120000D01*
X116620000Y-96770000D02*
X116620000Y-96880000D01*
X116620000Y-96770000D02*
X119380000Y-96770000D01*
X116620000Y-96880000D02*
X119380000Y-96880000D01*
X119380000Y-96770000D02*
X119380000Y-96880000D01*
%TO.C,U1*%
X82650000Y-63660000D02*
X82650000Y-67260000D01*
X82650000Y-63660000D02*
G75*
G02*
X83377205Y-63135816I1850000J-1800000D01*
G01*
X83377205Y-67784184D02*
G75*
G02*
X82650000Y-67260000I1122795J2324184D01*
G01*
X85598807Y-63103600D02*
G75*
G02*
X87100000Y-65460000I-1098807J-2356400D01*
G01*
X87100000Y-65460000D02*
G75*
G02*
X85598807Y-67816400I-2600000J0D01*
G01*
%TO.C,Q6*%
X135850000Y-46240000D02*
X146070000Y-46240000D01*
X135850000Y-47620000D02*
X146070000Y-47620000D01*
X135850000Y-50860000D02*
X135850000Y-46240000D01*
X139110000Y-46240000D02*
X139110000Y-47620000D01*
X142810000Y-46240000D02*
X142810000Y-47620000D01*
X146070000Y-46240000D02*
X146070000Y-50860000D01*
X146070000Y-50860000D02*
X135850000Y-50860000D01*
%TO.C,Gen_In2*%
X83120000Y-73620000D02*
X84500000Y-73620000D01*
X83120000Y-75000000D02*
X83120000Y-73620000D01*
X83120000Y-76270000D02*
X83120000Y-76380000D01*
X83120000Y-76270000D02*
X85880000Y-76270000D01*
X83120000Y-76380000D02*
X85880000Y-76380000D01*
X85880000Y-76270000D02*
X85880000Y-76380000D01*
%TO.C,RE3*%
X97511549Y-86040000D02*
X97511549Y-92580000D01*
X97511549Y-92580000D02*
X97841549Y-92580000D01*
X97841549Y-86040000D02*
X97511549Y-86040000D01*
X99921549Y-86040000D02*
X100251549Y-86040000D01*
X100251549Y-86040000D02*
X100251549Y-92580000D01*
X100251549Y-92580000D02*
X99921549Y-92580000D01*
%TO.C,RE2*%
X110082279Y-41045651D02*
X110082279Y-47585651D01*
X110082279Y-47585651D02*
X110412279Y-47585651D01*
X110412279Y-41045651D02*
X110082279Y-41045651D01*
X112492279Y-41045651D02*
X112822279Y-41045651D01*
X112822279Y-41045651D02*
X112822279Y-47585651D01*
X112822279Y-47585651D02*
X112492279Y-47585651D01*
%TO.C,J_LT1*%
D10*
X117063251Y-70219999D02*
X117563251Y-69719999D01*
X117063251Y-73819999D02*
X117063251Y-70219999D01*
X117563251Y-69719999D02*
X118363251Y-69719999D01*
X117563251Y-74319999D02*
X117063251Y-73819999D01*
X118363251Y-69719999D02*
X118863251Y-70219999D01*
X118363251Y-74319999D02*
X117563251Y-74319999D01*
X118863251Y-70219999D02*
X118863251Y-73819999D01*
X118863251Y-73819999D02*
X118363251Y-74319999D01*
%TO.C,RE1*%
D11*
X97582279Y-41045651D02*
X97582279Y-47585651D01*
X97582279Y-47585651D02*
X97912279Y-47585651D01*
X97912279Y-41045651D02*
X97582279Y-41045651D01*
X99992279Y-41045651D02*
X100322279Y-41045651D01*
X100322279Y-41045651D02*
X100322279Y-47585651D01*
X100322279Y-47585651D02*
X99992279Y-47585651D01*
%TO.C,R1*%
X83130000Y-50540000D02*
X83130000Y-57080000D01*
X83130000Y-57080000D02*
X83460000Y-57080000D01*
X83460000Y-50540000D02*
X83130000Y-50540000D01*
X85540000Y-50540000D02*
X85870000Y-50540000D01*
X85870000Y-50540000D02*
X85870000Y-57080000D01*
X85870000Y-57080000D02*
X85540000Y-57080000D01*
%TO.C,Q2*%
X109545069Y-63645656D02*
X109545069Y-67245656D01*
X109545069Y-63645656D02*
G75*
G02*
X110272274Y-63121472I1850000J-1800000D01*
G01*
X110272274Y-67769840D02*
G75*
G02*
X109545069Y-67245656I1122795J2324184D01*
G01*
X112493876Y-63089256D02*
G75*
G02*
X113995069Y-65445656I-1098807J-2356400D01*
G01*
X113995069Y-65445656D02*
G75*
G02*
X112493876Y-67802056I-2600000J0D01*
G01*
%TO.C,Q5*%
X126790000Y-58700000D02*
X126790000Y-62300000D01*
X126790000Y-58700000D02*
G75*
G02*
X127517205Y-58175816I1850000J-1800000D01*
G01*
X127517205Y-62824184D02*
G75*
G02*
X126790000Y-62300000I1122795J2324184D01*
G01*
X129738807Y-58143600D02*
G75*
G02*
X131240000Y-60500000I-1098807J-2356400D01*
G01*
X131240000Y-60500000D02*
G75*
G02*
X129738807Y-62856400I-2600000J0D01*
G01*
%TO.C,R6*%
X159099384Y-47630000D02*
X165639384Y-47630000D01*
X159099384Y-47960000D02*
X159099384Y-47630000D01*
X159099384Y-50040000D02*
X159099384Y-50370000D01*
X159099384Y-50370000D02*
X165639384Y-50370000D01*
X165639384Y-47630000D02*
X165639384Y-47960000D01*
X165639384Y-50370000D02*
X165639384Y-50040000D01*
%TO.C,Q8*%
X97031549Y-77740000D02*
X97031549Y-81340000D01*
X97031549Y-77740000D02*
G75*
G02*
X97758754Y-77215816I1850000J-1800000D01*
G01*
X97758754Y-81864184D02*
G75*
G02*
X97031549Y-81340000I1122795J2324184D01*
G01*
X99980356Y-77183600D02*
G75*
G02*
X101481549Y-79540000I-1098807J-2356400D01*
G01*
X101481549Y-79540000D02*
G75*
G02*
X99980356Y-81896400I-2600000J0D01*
G01*
%TO.C,Rx2*%
X152862728Y-67880000D02*
X159402728Y-67880000D01*
X152862728Y-68210000D02*
X152862728Y-67880000D01*
X152862728Y-70290000D02*
X152862728Y-70620000D01*
X152862728Y-70620000D02*
X159402728Y-70620000D01*
X159402728Y-67880000D02*
X159402728Y-68210000D01*
X159402728Y-70620000D02*
X159402728Y-70290000D01*
%TO.C,RS1*%
X136500000Y-72440000D02*
X136500000Y-72550000D01*
X136500000Y-84800000D02*
X136500000Y-84690000D01*
X134130000Y-72550000D02*
X138870000Y-72550000D01*
X138870000Y-84690000D01*
X134130000Y-84690000D01*
X134130000Y-72550000D01*
%TD*%
M02*
