%TF.GenerationSoftware,KiCad,Pcbnew,10.0.0*%
%TF.CreationDate,2026-05-26T13:38:22-03:00*%
%TF.ProjectId,PWM_v1,50574d5f-7631-42e6-9b69-6361645f7063,rev?*%
%TF.SameCoordinates,Original*%
%TF.FileFunction,Legend,Top*%
%TF.FilePolarity,Positive*%
%FSLAX46Y46*%
G04 Gerber Fmt 4.6, Leading zero omitted, Abs format (unit mm)*
G04 Created by KiCad (PCBNEW 10.0.0) date 2026-05-26 13:38:22*
%MOMM*%
%LPD*%
G01*
G04 APERTURE LIST*
%ADD10C,0.150000*%
%ADD11C,0.120000*%
G04 APERTURE END LIST*
D10*
X80790559Y-119579779D02*
X81600082Y-119579779D01*
X81600082Y-119579779D02*
X81695320Y-119532160D01*
X81695320Y-119532160D02*
X81742940Y-119484541D01*
X81742940Y-119484541D02*
X81790559Y-119389303D01*
X81790559Y-119389303D02*
X81790559Y-119198827D01*
X81790559Y-119198827D02*
X81742940Y-119103589D01*
X81742940Y-119103589D02*
X81695320Y-119055970D01*
X81695320Y-119055970D02*
X81600082Y-119008351D01*
X81600082Y-119008351D02*
X80790559Y-119008351D01*
X81790559Y-118008351D02*
X81790559Y-118579779D01*
X81790559Y-118294065D02*
X80790559Y-118294065D01*
X80790559Y-118294065D02*
X80933416Y-118389303D01*
X80933416Y-118389303D02*
X81028654Y-118484541D01*
X81028654Y-118484541D02*
X81076273Y-118579779D01*
X102938095Y-129474819D02*
X103509523Y-129474819D01*
X103223809Y-130474819D02*
X103223809Y-129474819D01*
X103842857Y-130474819D02*
X103842857Y-129474819D01*
X103842857Y-129474819D02*
X104223809Y-129474819D01*
X104223809Y-129474819D02*
X104319047Y-129522438D01*
X104319047Y-129522438D02*
X104366666Y-129570057D01*
X104366666Y-129570057D02*
X104414285Y-129665295D01*
X104414285Y-129665295D02*
X104414285Y-129808152D01*
X104414285Y-129808152D02*
X104366666Y-129903390D01*
X104366666Y-129903390D02*
X104319047Y-129951009D01*
X104319047Y-129951009D02*
X104223809Y-129998628D01*
X104223809Y-129998628D02*
X103842857Y-129998628D01*
X104747619Y-129474819D02*
X105414285Y-129474819D01*
X105414285Y-129474819D02*
X104985714Y-130474819D01*
X84652406Y-108427694D02*
X84652406Y-109141979D01*
X84652406Y-109141979D02*
X84604787Y-109284836D01*
X84604787Y-109284836D02*
X84509549Y-109380075D01*
X84509549Y-109380075D02*
X84366692Y-109427694D01*
X84366692Y-109427694D02*
X84271454Y-109427694D01*
X85128597Y-109427694D02*
X85128597Y-108427694D01*
X85128597Y-108427694D02*
X85509549Y-108427694D01*
X85509549Y-108427694D02*
X85604787Y-108475313D01*
X85604787Y-108475313D02*
X85652406Y-108522932D01*
X85652406Y-108522932D02*
X85700025Y-108618170D01*
X85700025Y-108618170D02*
X85700025Y-108761027D01*
X85700025Y-108761027D02*
X85652406Y-108856265D01*
X85652406Y-108856265D02*
X85604787Y-108903884D01*
X85604787Y-108903884D02*
X85509549Y-108951503D01*
X85509549Y-108951503D02*
X85128597Y-108951503D01*
X86557168Y-108761027D02*
X86557168Y-109427694D01*
X86319073Y-108380075D02*
X86080978Y-109094360D01*
X86080978Y-109094360D02*
X86700025Y-109094360D01*
X106454819Y-137595238D02*
X105978628Y-137928571D01*
X106454819Y-138166666D02*
X105454819Y-138166666D01*
X105454819Y-138166666D02*
X105454819Y-137785714D01*
X105454819Y-137785714D02*
X105502438Y-137690476D01*
X105502438Y-137690476D02*
X105550057Y-137642857D01*
X105550057Y-137642857D02*
X105645295Y-137595238D01*
X105645295Y-137595238D02*
X105788152Y-137595238D01*
X105788152Y-137595238D02*
X105883390Y-137642857D01*
X105883390Y-137642857D02*
X105931009Y-137690476D01*
X105931009Y-137690476D02*
X105978628Y-137785714D01*
X105978628Y-137785714D02*
X105978628Y-138166666D01*
X105454819Y-137309523D02*
X106454819Y-136976190D01*
X106454819Y-136976190D02*
X105454819Y-136642857D01*
X106454819Y-135785714D02*
X106454819Y-136357142D01*
X106454819Y-136071428D02*
X105454819Y-136071428D01*
X105454819Y-136071428D02*
X105597676Y-136166666D01*
X105597676Y-136166666D02*
X105692914Y-136261904D01*
X105692914Y-136261904D02*
X105740533Y-136357142D01*
X148666666Y-128334819D02*
X148666666Y-129049104D01*
X148666666Y-129049104D02*
X148619047Y-129191961D01*
X148619047Y-129191961D02*
X148523809Y-129287200D01*
X148523809Y-129287200D02*
X148380952Y-129334819D01*
X148380952Y-129334819D02*
X148285714Y-129334819D01*
X149095238Y-128430057D02*
X149142857Y-128382438D01*
X149142857Y-128382438D02*
X149238095Y-128334819D01*
X149238095Y-128334819D02*
X149476190Y-128334819D01*
X149476190Y-128334819D02*
X149571428Y-128382438D01*
X149571428Y-128382438D02*
X149619047Y-128430057D01*
X149619047Y-128430057D02*
X149666666Y-128525295D01*
X149666666Y-128525295D02*
X149666666Y-128620533D01*
X149666666Y-128620533D02*
X149619047Y-128763390D01*
X149619047Y-128763390D02*
X149047619Y-129334819D01*
X149047619Y-129334819D02*
X149666666Y-129334819D01*
X113594819Y-114261904D02*
X114404342Y-114261904D01*
X114404342Y-114261904D02*
X114499580Y-114214285D01*
X114499580Y-114214285D02*
X114547200Y-114166666D01*
X114547200Y-114166666D02*
X114594819Y-114071428D01*
X114594819Y-114071428D02*
X114594819Y-113880952D01*
X114594819Y-113880952D02*
X114547200Y-113785714D01*
X114547200Y-113785714D02*
X114499580Y-113738095D01*
X114499580Y-113738095D02*
X114404342Y-113690476D01*
X114404342Y-113690476D02*
X113594819Y-113690476D01*
X113594819Y-113309523D02*
X113594819Y-112690476D01*
X113594819Y-112690476D02*
X113975771Y-113023809D01*
X113975771Y-113023809D02*
X113975771Y-112880952D01*
X113975771Y-112880952D02*
X114023390Y-112785714D01*
X114023390Y-112785714D02*
X114071009Y-112738095D01*
X114071009Y-112738095D02*
X114166247Y-112690476D01*
X114166247Y-112690476D02*
X114404342Y-112690476D01*
X114404342Y-112690476D02*
X114499580Y-112738095D01*
X114499580Y-112738095D02*
X114547200Y-112785714D01*
X114547200Y-112785714D02*
X114594819Y-112880952D01*
X114594819Y-112880952D02*
X114594819Y-113166666D01*
X114594819Y-113166666D02*
X114547200Y-113261904D01*
X114547200Y-113261904D02*
X114499580Y-113309523D01*
X115643333Y-104084819D02*
X115310000Y-103608628D01*
X115071905Y-104084819D02*
X115071905Y-103084819D01*
X115071905Y-103084819D02*
X115452857Y-103084819D01*
X115452857Y-103084819D02*
X115548095Y-103132438D01*
X115548095Y-103132438D02*
X115595714Y-103180057D01*
X115595714Y-103180057D02*
X115643333Y-103275295D01*
X115643333Y-103275295D02*
X115643333Y-103418152D01*
X115643333Y-103418152D02*
X115595714Y-103513390D01*
X115595714Y-103513390D02*
X115548095Y-103561009D01*
X115548095Y-103561009D02*
X115452857Y-103608628D01*
X115452857Y-103608628D02*
X115071905Y-103608628D01*
X116024286Y-103180057D02*
X116071905Y-103132438D01*
X116071905Y-103132438D02*
X116167143Y-103084819D01*
X116167143Y-103084819D02*
X116405238Y-103084819D01*
X116405238Y-103084819D02*
X116500476Y-103132438D01*
X116500476Y-103132438D02*
X116548095Y-103180057D01*
X116548095Y-103180057D02*
X116595714Y-103275295D01*
X116595714Y-103275295D02*
X116595714Y-103370533D01*
X116595714Y-103370533D02*
X116548095Y-103513390D01*
X116548095Y-103513390D02*
X115976667Y-104084819D01*
X115976667Y-104084819D02*
X116595714Y-104084819D01*
X109299819Y-129833333D02*
X110014104Y-129833333D01*
X110014104Y-129833333D02*
X110156961Y-129880952D01*
X110156961Y-129880952D02*
X110252200Y-129976190D01*
X110252200Y-129976190D02*
X110299819Y-130119047D01*
X110299819Y-130119047D02*
X110299819Y-130214285D01*
X110299819Y-129357142D02*
X109299819Y-129357142D01*
X109299819Y-129357142D02*
X109299819Y-128976190D01*
X109299819Y-128976190D02*
X109347438Y-128880952D01*
X109347438Y-128880952D02*
X109395057Y-128833333D01*
X109395057Y-128833333D02*
X109490295Y-128785714D01*
X109490295Y-128785714D02*
X109633152Y-128785714D01*
X109633152Y-128785714D02*
X109728390Y-128833333D01*
X109728390Y-128833333D02*
X109776009Y-128880952D01*
X109776009Y-128880952D02*
X109823628Y-128976190D01*
X109823628Y-128976190D02*
X109823628Y-129357142D01*
X109299819Y-128452380D02*
X109299819Y-127833333D01*
X109299819Y-127833333D02*
X109680771Y-128166666D01*
X109680771Y-128166666D02*
X109680771Y-128023809D01*
X109680771Y-128023809D02*
X109728390Y-127928571D01*
X109728390Y-127928571D02*
X109776009Y-127880952D01*
X109776009Y-127880952D02*
X109871247Y-127833333D01*
X109871247Y-127833333D02*
X110109342Y-127833333D01*
X110109342Y-127833333D02*
X110204580Y-127880952D01*
X110204580Y-127880952D02*
X110252200Y-127928571D01*
X110252200Y-127928571D02*
X110299819Y-128023809D01*
X110299819Y-128023809D02*
X110299819Y-128309523D01*
X110299819Y-128309523D02*
X110252200Y-128404761D01*
X110252200Y-128404761D02*
X110204580Y-128452380D01*
X77666666Y-127454819D02*
X77666666Y-128169104D01*
X77666666Y-128169104D02*
X77619047Y-128311961D01*
X77619047Y-128311961D02*
X77523809Y-128407200D01*
X77523809Y-128407200D02*
X77380952Y-128454819D01*
X77380952Y-128454819D02*
X77285714Y-128454819D01*
X78666666Y-128454819D02*
X78095238Y-128454819D01*
X78380952Y-128454819D02*
X78380952Y-127454819D01*
X78380952Y-127454819D02*
X78285714Y-127597676D01*
X78285714Y-127597676D02*
X78190476Y-127692914D01*
X78190476Y-127692914D02*
X78095238Y-127740533D01*
X79333333Y-112359580D02*
X79285714Y-112407200D01*
X79285714Y-112407200D02*
X79142857Y-112454819D01*
X79142857Y-112454819D02*
X79047619Y-112454819D01*
X79047619Y-112454819D02*
X78904762Y-112407200D01*
X78904762Y-112407200D02*
X78809524Y-112311961D01*
X78809524Y-112311961D02*
X78761905Y-112216723D01*
X78761905Y-112216723D02*
X78714286Y-112026247D01*
X78714286Y-112026247D02*
X78714286Y-111883390D01*
X78714286Y-111883390D02*
X78761905Y-111692914D01*
X78761905Y-111692914D02*
X78809524Y-111597676D01*
X78809524Y-111597676D02*
X78904762Y-111502438D01*
X78904762Y-111502438D02*
X79047619Y-111454819D01*
X79047619Y-111454819D02*
X79142857Y-111454819D01*
X79142857Y-111454819D02*
X79285714Y-111502438D01*
X79285714Y-111502438D02*
X79333333Y-111550057D01*
X80285714Y-112454819D02*
X79714286Y-112454819D01*
X80000000Y-112454819D02*
X80000000Y-111454819D01*
X80000000Y-111454819D02*
X79904762Y-111597676D01*
X79904762Y-111597676D02*
X79809524Y-111692914D01*
X79809524Y-111692914D02*
X79714286Y-111740533D01*
X147297618Y-108084819D02*
X146964285Y-107608628D01*
X146726190Y-108084819D02*
X146726190Y-107084819D01*
X146726190Y-107084819D02*
X147107142Y-107084819D01*
X147107142Y-107084819D02*
X147202380Y-107132438D01*
X147202380Y-107132438D02*
X147249999Y-107180057D01*
X147249999Y-107180057D02*
X147297618Y-107275295D01*
X147297618Y-107275295D02*
X147297618Y-107418152D01*
X147297618Y-107418152D02*
X147249999Y-107513390D01*
X147249999Y-107513390D02*
X147202380Y-107561009D01*
X147202380Y-107561009D02*
X147107142Y-107608628D01*
X147107142Y-107608628D02*
X146726190Y-107608628D01*
X147583333Y-107418152D02*
X147964285Y-107418152D01*
X147726190Y-108084819D02*
X147726190Y-107227676D01*
X147726190Y-107227676D02*
X147773809Y-107132438D01*
X147773809Y-107132438D02*
X147869047Y-107084819D01*
X147869047Y-107084819D02*
X147964285Y-107084819D01*
X148821428Y-108084819D02*
X148250000Y-108084819D01*
X148535714Y-108084819D02*
X148535714Y-107084819D01*
X148535714Y-107084819D02*
X148440476Y-107227676D01*
X148440476Y-107227676D02*
X148345238Y-107322914D01*
X148345238Y-107322914D02*
X148250000Y-107370533D01*
X154954819Y-117166666D02*
X154478628Y-117499999D01*
X154954819Y-117738094D02*
X153954819Y-117738094D01*
X153954819Y-117738094D02*
X153954819Y-117357142D01*
X153954819Y-117357142D02*
X154002438Y-117261904D01*
X154002438Y-117261904D02*
X154050057Y-117214285D01*
X154050057Y-117214285D02*
X154145295Y-117166666D01*
X154145295Y-117166666D02*
X154288152Y-117166666D01*
X154288152Y-117166666D02*
X154383390Y-117214285D01*
X154383390Y-117214285D02*
X154431009Y-117261904D01*
X154431009Y-117261904D02*
X154478628Y-117357142D01*
X154478628Y-117357142D02*
X154478628Y-117738094D01*
X153954819Y-116309523D02*
X153954819Y-116499999D01*
X153954819Y-116499999D02*
X154002438Y-116595237D01*
X154002438Y-116595237D02*
X154050057Y-116642856D01*
X154050057Y-116642856D02*
X154192914Y-116738094D01*
X154192914Y-116738094D02*
X154383390Y-116785713D01*
X154383390Y-116785713D02*
X154764342Y-116785713D01*
X154764342Y-116785713D02*
X154859580Y-116738094D01*
X154859580Y-116738094D02*
X154907200Y-116690475D01*
X154907200Y-116690475D02*
X154954819Y-116595237D01*
X154954819Y-116595237D02*
X154954819Y-116404761D01*
X154954819Y-116404761D02*
X154907200Y-116309523D01*
X154907200Y-116309523D02*
X154859580Y-116261904D01*
X154859580Y-116261904D02*
X154764342Y-116214285D01*
X154764342Y-116214285D02*
X154526247Y-116214285D01*
X154526247Y-116214285D02*
X154431009Y-116261904D01*
X154431009Y-116261904D02*
X154383390Y-116309523D01*
X154383390Y-116309523D02*
X154335771Y-116404761D01*
X154335771Y-116404761D02*
X154335771Y-116595237D01*
X154335771Y-116595237D02*
X154383390Y-116690475D01*
X154383390Y-116690475D02*
X154431009Y-116738094D01*
X154431009Y-116738094D02*
X154526247Y-116785713D01*
X115523333Y-123324819D02*
X115190000Y-122848628D01*
X114951905Y-123324819D02*
X114951905Y-122324819D01*
X114951905Y-122324819D02*
X115332857Y-122324819D01*
X115332857Y-122324819D02*
X115428095Y-122372438D01*
X115428095Y-122372438D02*
X115475714Y-122420057D01*
X115475714Y-122420057D02*
X115523333Y-122515295D01*
X115523333Y-122515295D02*
X115523333Y-122658152D01*
X115523333Y-122658152D02*
X115475714Y-122753390D01*
X115475714Y-122753390D02*
X115428095Y-122801009D01*
X115428095Y-122801009D02*
X115332857Y-122848628D01*
X115332857Y-122848628D02*
X114951905Y-122848628D01*
X116428095Y-122324819D02*
X115951905Y-122324819D01*
X115951905Y-122324819D02*
X115904286Y-122801009D01*
X115904286Y-122801009D02*
X115951905Y-122753390D01*
X115951905Y-122753390D02*
X116047143Y-122705771D01*
X116047143Y-122705771D02*
X116285238Y-122705771D01*
X116285238Y-122705771D02*
X116380476Y-122753390D01*
X116380476Y-122753390D02*
X116428095Y-122801009D01*
X116428095Y-122801009D02*
X116475714Y-122896247D01*
X116475714Y-122896247D02*
X116475714Y-123134342D01*
X116475714Y-123134342D02*
X116428095Y-123229580D01*
X116428095Y-123229580D02*
X116380476Y-123277200D01*
X116380476Y-123277200D02*
X116285238Y-123324819D01*
X116285238Y-123324819D02*
X116047143Y-123324819D01*
X116047143Y-123324819D02*
X115951905Y-123277200D01*
X115951905Y-123277200D02*
X115904286Y-123229580D01*
X153333333Y-122609580D02*
X153285714Y-122657200D01*
X153285714Y-122657200D02*
X153142857Y-122704819D01*
X153142857Y-122704819D02*
X153047619Y-122704819D01*
X153047619Y-122704819D02*
X152904762Y-122657200D01*
X152904762Y-122657200D02*
X152809524Y-122561961D01*
X152809524Y-122561961D02*
X152761905Y-122466723D01*
X152761905Y-122466723D02*
X152714286Y-122276247D01*
X152714286Y-122276247D02*
X152714286Y-122133390D01*
X152714286Y-122133390D02*
X152761905Y-121942914D01*
X152761905Y-121942914D02*
X152809524Y-121847676D01*
X152809524Y-121847676D02*
X152904762Y-121752438D01*
X152904762Y-121752438D02*
X153047619Y-121704819D01*
X153047619Y-121704819D02*
X153142857Y-121704819D01*
X153142857Y-121704819D02*
X153285714Y-121752438D01*
X153285714Y-121752438D02*
X153333333Y-121800057D01*
X154190476Y-122038152D02*
X154190476Y-122704819D01*
X153952381Y-121657200D02*
X153714286Y-122371485D01*
X153714286Y-122371485D02*
X154333333Y-122371485D01*
X116333333Y-115359580D02*
X116285714Y-115407200D01*
X116285714Y-115407200D02*
X116142857Y-115454819D01*
X116142857Y-115454819D02*
X116047619Y-115454819D01*
X116047619Y-115454819D02*
X115904762Y-115407200D01*
X115904762Y-115407200D02*
X115809524Y-115311961D01*
X115809524Y-115311961D02*
X115761905Y-115216723D01*
X115761905Y-115216723D02*
X115714286Y-115026247D01*
X115714286Y-115026247D02*
X115714286Y-114883390D01*
X115714286Y-114883390D02*
X115761905Y-114692914D01*
X115761905Y-114692914D02*
X115809524Y-114597676D01*
X115809524Y-114597676D02*
X115904762Y-114502438D01*
X115904762Y-114502438D02*
X116047619Y-114454819D01*
X116047619Y-114454819D02*
X116142857Y-114454819D01*
X116142857Y-114454819D02*
X116285714Y-114502438D01*
X116285714Y-114502438D02*
X116333333Y-114550057D01*
X116666667Y-114454819D02*
X117285714Y-114454819D01*
X117285714Y-114454819D02*
X116952381Y-114835771D01*
X116952381Y-114835771D02*
X117095238Y-114835771D01*
X117095238Y-114835771D02*
X117190476Y-114883390D01*
X117190476Y-114883390D02*
X117238095Y-114931009D01*
X117238095Y-114931009D02*
X117285714Y-115026247D01*
X117285714Y-115026247D02*
X117285714Y-115264342D01*
X117285714Y-115264342D02*
X117238095Y-115359580D01*
X117238095Y-115359580D02*
X117190476Y-115407200D01*
X117190476Y-115407200D02*
X117095238Y-115454819D01*
X117095238Y-115454819D02*
X116809524Y-115454819D01*
X116809524Y-115454819D02*
X116714286Y-115407200D01*
X116714286Y-115407200D02*
X116666667Y-115359580D01*
X159338095Y-133274819D02*
X159909523Y-133274819D01*
X159623809Y-134274819D02*
X159623809Y-133274819D01*
X160242857Y-134274819D02*
X160242857Y-133274819D01*
X160242857Y-133274819D02*
X160623809Y-133274819D01*
X160623809Y-133274819D02*
X160719047Y-133322438D01*
X160719047Y-133322438D02*
X160766666Y-133370057D01*
X160766666Y-133370057D02*
X160814285Y-133465295D01*
X160814285Y-133465295D02*
X160814285Y-133608152D01*
X160814285Y-133608152D02*
X160766666Y-133703390D01*
X160766666Y-133703390D02*
X160719047Y-133751009D01*
X160719047Y-133751009D02*
X160623809Y-133798628D01*
X160623809Y-133798628D02*
X160242857Y-133798628D01*
X161719047Y-133274819D02*
X161242857Y-133274819D01*
X161242857Y-133274819D02*
X161195238Y-133751009D01*
X161195238Y-133751009D02*
X161242857Y-133703390D01*
X161242857Y-133703390D02*
X161338095Y-133655771D01*
X161338095Y-133655771D02*
X161576190Y-133655771D01*
X161576190Y-133655771D02*
X161671428Y-133703390D01*
X161671428Y-133703390D02*
X161719047Y-133751009D01*
X161719047Y-133751009D02*
X161766666Y-133846247D01*
X161766666Y-133846247D02*
X161766666Y-134084342D01*
X161766666Y-134084342D02*
X161719047Y-134179580D01*
X161719047Y-134179580D02*
X161671428Y-134227200D01*
X161671428Y-134227200D02*
X161576190Y-134274819D01*
X161576190Y-134274819D02*
X161338095Y-134274819D01*
X161338095Y-134274819D02*
X161242857Y-134227200D01*
X161242857Y-134227200D02*
X161195238Y-134179580D01*
X78833333Y-126359580D02*
X78785714Y-126407200D01*
X78785714Y-126407200D02*
X78642857Y-126454819D01*
X78642857Y-126454819D02*
X78547619Y-126454819D01*
X78547619Y-126454819D02*
X78404762Y-126407200D01*
X78404762Y-126407200D02*
X78309524Y-126311961D01*
X78309524Y-126311961D02*
X78261905Y-126216723D01*
X78261905Y-126216723D02*
X78214286Y-126026247D01*
X78214286Y-126026247D02*
X78214286Y-125883390D01*
X78214286Y-125883390D02*
X78261905Y-125692914D01*
X78261905Y-125692914D02*
X78309524Y-125597676D01*
X78309524Y-125597676D02*
X78404762Y-125502438D01*
X78404762Y-125502438D02*
X78547619Y-125454819D01*
X78547619Y-125454819D02*
X78642857Y-125454819D01*
X78642857Y-125454819D02*
X78785714Y-125502438D01*
X78785714Y-125502438D02*
X78833333Y-125550057D01*
X79214286Y-125550057D02*
X79261905Y-125502438D01*
X79261905Y-125502438D02*
X79357143Y-125454819D01*
X79357143Y-125454819D02*
X79595238Y-125454819D01*
X79595238Y-125454819D02*
X79690476Y-125502438D01*
X79690476Y-125502438D02*
X79738095Y-125550057D01*
X79738095Y-125550057D02*
X79785714Y-125645295D01*
X79785714Y-125645295D02*
X79785714Y-125740533D01*
X79785714Y-125740533D02*
X79738095Y-125883390D01*
X79738095Y-125883390D02*
X79166667Y-126454819D01*
X79166667Y-126454819D02*
X79785714Y-126454819D01*
X150904819Y-121761904D02*
X151714342Y-121761904D01*
X151714342Y-121761904D02*
X151809580Y-121714285D01*
X151809580Y-121714285D02*
X151857200Y-121666666D01*
X151857200Y-121666666D02*
X151904819Y-121571428D01*
X151904819Y-121571428D02*
X151904819Y-121380952D01*
X151904819Y-121380952D02*
X151857200Y-121285714D01*
X151857200Y-121285714D02*
X151809580Y-121238095D01*
X151809580Y-121238095D02*
X151714342Y-121190476D01*
X151714342Y-121190476D02*
X150904819Y-121190476D01*
X151000057Y-120761904D02*
X150952438Y-120714285D01*
X150952438Y-120714285D02*
X150904819Y-120619047D01*
X150904819Y-120619047D02*
X150904819Y-120380952D01*
X150904819Y-120380952D02*
X150952438Y-120285714D01*
X150952438Y-120285714D02*
X151000057Y-120238095D01*
X151000057Y-120238095D02*
X151095295Y-120190476D01*
X151095295Y-120190476D02*
X151190533Y-120190476D01*
X151190533Y-120190476D02*
X151333390Y-120238095D01*
X151333390Y-120238095D02*
X151904819Y-120809523D01*
X151904819Y-120809523D02*
X151904819Y-120190476D01*
X96667142Y-115584819D02*
X96333809Y-115108628D01*
X96095714Y-115584819D02*
X96095714Y-114584819D01*
X96095714Y-114584819D02*
X96476666Y-114584819D01*
X96476666Y-114584819D02*
X96571904Y-114632438D01*
X96571904Y-114632438D02*
X96619523Y-114680057D01*
X96619523Y-114680057D02*
X96667142Y-114775295D01*
X96667142Y-114775295D02*
X96667142Y-114918152D01*
X96667142Y-114918152D02*
X96619523Y-115013390D01*
X96619523Y-115013390D02*
X96571904Y-115061009D01*
X96571904Y-115061009D02*
X96476666Y-115108628D01*
X96476666Y-115108628D02*
X96095714Y-115108628D01*
X97619523Y-115584819D02*
X97048095Y-115584819D01*
X97333809Y-115584819D02*
X97333809Y-114584819D01*
X97333809Y-114584819D02*
X97238571Y-114727676D01*
X97238571Y-114727676D02*
X97143333Y-114822914D01*
X97143333Y-114822914D02*
X97048095Y-114870533D01*
X98571904Y-115584819D02*
X98000476Y-115584819D01*
X98286190Y-115584819D02*
X98286190Y-114584819D01*
X98286190Y-114584819D02*
X98190952Y-114727676D01*
X98190952Y-114727676D02*
X98095714Y-114822914D01*
X98095714Y-114822914D02*
X98000476Y-114870533D01*
X134084819Y-129202857D02*
X133608628Y-129536190D01*
X134084819Y-129774285D02*
X133084819Y-129774285D01*
X133084819Y-129774285D02*
X133084819Y-129393333D01*
X133084819Y-129393333D02*
X133132438Y-129298095D01*
X133132438Y-129298095D02*
X133180057Y-129250476D01*
X133180057Y-129250476D02*
X133275295Y-129202857D01*
X133275295Y-129202857D02*
X133418152Y-129202857D01*
X133418152Y-129202857D02*
X133513390Y-129250476D01*
X133513390Y-129250476D02*
X133561009Y-129298095D01*
X133561009Y-129298095D02*
X133608628Y-129393333D01*
X133608628Y-129393333D02*
X133608628Y-129774285D01*
X134084819Y-128250476D02*
X134084819Y-128821904D01*
X134084819Y-128536190D02*
X133084819Y-128536190D01*
X133084819Y-128536190D02*
X133227676Y-128631428D01*
X133227676Y-128631428D02*
X133322914Y-128726666D01*
X133322914Y-128726666D02*
X133370533Y-128821904D01*
X133084819Y-127631428D02*
X133084819Y-127536190D01*
X133084819Y-127536190D02*
X133132438Y-127440952D01*
X133132438Y-127440952D02*
X133180057Y-127393333D01*
X133180057Y-127393333D02*
X133275295Y-127345714D01*
X133275295Y-127345714D02*
X133465771Y-127298095D01*
X133465771Y-127298095D02*
X133703866Y-127298095D01*
X133703866Y-127298095D02*
X133894342Y-127345714D01*
X133894342Y-127345714D02*
X133989580Y-127393333D01*
X133989580Y-127393333D02*
X134037200Y-127440952D01*
X134037200Y-127440952D02*
X134084819Y-127536190D01*
X134084819Y-127536190D02*
X134084819Y-127631428D01*
X134084819Y-127631428D02*
X134037200Y-127726666D01*
X134037200Y-127726666D02*
X133989580Y-127774285D01*
X133989580Y-127774285D02*
X133894342Y-127821904D01*
X133894342Y-127821904D02*
X133703866Y-127869523D01*
X133703866Y-127869523D02*
X133465771Y-127869523D01*
X133465771Y-127869523D02*
X133275295Y-127821904D01*
X133275295Y-127821904D02*
X133180057Y-127774285D01*
X133180057Y-127774285D02*
X133132438Y-127726666D01*
X133132438Y-127726666D02*
X133084819Y-127631428D01*
X159238095Y-126324819D02*
X159809523Y-126324819D01*
X159523809Y-127324819D02*
X159523809Y-126324819D01*
X160142857Y-127324819D02*
X160142857Y-126324819D01*
X160142857Y-126324819D02*
X160523809Y-126324819D01*
X160523809Y-126324819D02*
X160619047Y-126372438D01*
X160619047Y-126372438D02*
X160666666Y-126420057D01*
X160666666Y-126420057D02*
X160714285Y-126515295D01*
X160714285Y-126515295D02*
X160714285Y-126658152D01*
X160714285Y-126658152D02*
X160666666Y-126753390D01*
X160666666Y-126753390D02*
X160619047Y-126801009D01*
X160619047Y-126801009D02*
X160523809Y-126848628D01*
X160523809Y-126848628D02*
X160142857Y-126848628D01*
X161571428Y-126658152D02*
X161571428Y-127324819D01*
X161333333Y-126277200D02*
X161095238Y-126991485D01*
X161095238Y-126991485D02*
X161714285Y-126991485D01*
X131333333Y-135084819D02*
X131000000Y-134608628D01*
X130761905Y-135084819D02*
X130761905Y-134084819D01*
X130761905Y-134084819D02*
X131142857Y-134084819D01*
X131142857Y-134084819D02*
X131238095Y-134132438D01*
X131238095Y-134132438D02*
X131285714Y-134180057D01*
X131285714Y-134180057D02*
X131333333Y-134275295D01*
X131333333Y-134275295D02*
X131333333Y-134418152D01*
X131333333Y-134418152D02*
X131285714Y-134513390D01*
X131285714Y-134513390D02*
X131238095Y-134561009D01*
X131238095Y-134561009D02*
X131142857Y-134608628D01*
X131142857Y-134608628D02*
X130761905Y-134608628D01*
X131904762Y-134513390D02*
X131809524Y-134465771D01*
X131809524Y-134465771D02*
X131761905Y-134418152D01*
X131761905Y-134418152D02*
X131714286Y-134322914D01*
X131714286Y-134322914D02*
X131714286Y-134275295D01*
X131714286Y-134275295D02*
X131761905Y-134180057D01*
X131761905Y-134180057D02*
X131809524Y-134132438D01*
X131809524Y-134132438D02*
X131904762Y-134084819D01*
X131904762Y-134084819D02*
X132095238Y-134084819D01*
X132095238Y-134084819D02*
X132190476Y-134132438D01*
X132190476Y-134132438D02*
X132238095Y-134180057D01*
X132238095Y-134180057D02*
X132285714Y-134275295D01*
X132285714Y-134275295D02*
X132285714Y-134322914D01*
X132285714Y-134322914D02*
X132238095Y-134418152D01*
X132238095Y-134418152D02*
X132190476Y-134465771D01*
X132190476Y-134465771D02*
X132095238Y-134513390D01*
X132095238Y-134513390D02*
X131904762Y-134513390D01*
X131904762Y-134513390D02*
X131809524Y-134561009D01*
X131809524Y-134561009D02*
X131761905Y-134608628D01*
X131761905Y-134608628D02*
X131714286Y-134703866D01*
X131714286Y-134703866D02*
X131714286Y-134894342D01*
X131714286Y-134894342D02*
X131761905Y-134989580D01*
X131761905Y-134989580D02*
X131809524Y-135037200D01*
X131809524Y-135037200D02*
X131904762Y-135084819D01*
X131904762Y-135084819D02*
X132095238Y-135084819D01*
X132095238Y-135084819D02*
X132190476Y-135037200D01*
X132190476Y-135037200D02*
X132238095Y-134989580D01*
X132238095Y-134989580D02*
X132285714Y-134894342D01*
X132285714Y-134894342D02*
X132285714Y-134703866D01*
X132285714Y-134703866D02*
X132238095Y-134608628D01*
X132238095Y-134608628D02*
X132190476Y-134561009D01*
X132190476Y-134561009D02*
X132095238Y-134513390D01*
X107833333Y-123359580D02*
X107785714Y-123407200D01*
X107785714Y-123407200D02*
X107642857Y-123454819D01*
X107642857Y-123454819D02*
X107547619Y-123454819D01*
X107547619Y-123454819D02*
X107404762Y-123407200D01*
X107404762Y-123407200D02*
X107309524Y-123311961D01*
X107309524Y-123311961D02*
X107261905Y-123216723D01*
X107261905Y-123216723D02*
X107214286Y-123026247D01*
X107214286Y-123026247D02*
X107214286Y-122883390D01*
X107214286Y-122883390D02*
X107261905Y-122692914D01*
X107261905Y-122692914D02*
X107309524Y-122597676D01*
X107309524Y-122597676D02*
X107404762Y-122502438D01*
X107404762Y-122502438D02*
X107547619Y-122454819D01*
X107547619Y-122454819D02*
X107642857Y-122454819D01*
X107642857Y-122454819D02*
X107785714Y-122502438D01*
X107785714Y-122502438D02*
X107833333Y-122550057D01*
X108738095Y-122454819D02*
X108261905Y-122454819D01*
X108261905Y-122454819D02*
X108214286Y-122931009D01*
X108214286Y-122931009D02*
X108261905Y-122883390D01*
X108261905Y-122883390D02*
X108357143Y-122835771D01*
X108357143Y-122835771D02*
X108595238Y-122835771D01*
X108595238Y-122835771D02*
X108690476Y-122883390D01*
X108690476Y-122883390D02*
X108738095Y-122931009D01*
X108738095Y-122931009D02*
X108785714Y-123026247D01*
X108785714Y-123026247D02*
X108785714Y-123264342D01*
X108785714Y-123264342D02*
X108738095Y-123359580D01*
X108738095Y-123359580D02*
X108690476Y-123407200D01*
X108690476Y-123407200D02*
X108595238Y-123454819D01*
X108595238Y-123454819D02*
X108357143Y-123454819D01*
X108357143Y-123454819D02*
X108261905Y-123407200D01*
X108261905Y-123407200D02*
X108214286Y-123359580D01*
X126138095Y-113474819D02*
X126709523Y-113474819D01*
X126423809Y-114474819D02*
X126423809Y-113474819D01*
X127042857Y-114474819D02*
X127042857Y-113474819D01*
X127042857Y-113474819D02*
X127423809Y-113474819D01*
X127423809Y-113474819D02*
X127519047Y-113522438D01*
X127519047Y-113522438D02*
X127566666Y-113570057D01*
X127566666Y-113570057D02*
X127614285Y-113665295D01*
X127614285Y-113665295D02*
X127614285Y-113808152D01*
X127614285Y-113808152D02*
X127566666Y-113903390D01*
X127566666Y-113903390D02*
X127519047Y-113951009D01*
X127519047Y-113951009D02*
X127423809Y-113998628D01*
X127423809Y-113998628D02*
X127042857Y-113998628D01*
X128471428Y-113474819D02*
X128280952Y-113474819D01*
X128280952Y-113474819D02*
X128185714Y-113522438D01*
X128185714Y-113522438D02*
X128138095Y-113570057D01*
X128138095Y-113570057D02*
X128042857Y-113712914D01*
X128042857Y-113712914D02*
X127995238Y-113903390D01*
X127995238Y-113903390D02*
X127995238Y-114284342D01*
X127995238Y-114284342D02*
X128042857Y-114379580D01*
X128042857Y-114379580D02*
X128090476Y-114427200D01*
X128090476Y-114427200D02*
X128185714Y-114474819D01*
X128185714Y-114474819D02*
X128376190Y-114474819D01*
X128376190Y-114474819D02*
X128471428Y-114427200D01*
X128471428Y-114427200D02*
X128519047Y-114379580D01*
X128519047Y-114379580D02*
X128566666Y-114284342D01*
X128566666Y-114284342D02*
X128566666Y-114046247D01*
X128566666Y-114046247D02*
X128519047Y-113951009D01*
X128519047Y-113951009D02*
X128471428Y-113903390D01*
X128471428Y-113903390D02*
X128376190Y-113855771D01*
X128376190Y-113855771D02*
X128185714Y-113855771D01*
X128185714Y-113855771D02*
X128090476Y-113903390D01*
X128090476Y-113903390D02*
X128042857Y-113951009D01*
X128042857Y-113951009D02*
X127995238Y-114046247D01*
X109324819Y-102166666D02*
X108848628Y-102499999D01*
X109324819Y-102738094D02*
X108324819Y-102738094D01*
X108324819Y-102738094D02*
X108324819Y-102357142D01*
X108324819Y-102357142D02*
X108372438Y-102261904D01*
X108372438Y-102261904D02*
X108420057Y-102214285D01*
X108420057Y-102214285D02*
X108515295Y-102166666D01*
X108515295Y-102166666D02*
X108658152Y-102166666D01*
X108658152Y-102166666D02*
X108753390Y-102214285D01*
X108753390Y-102214285D02*
X108801009Y-102261904D01*
X108801009Y-102261904D02*
X108848628Y-102357142D01*
X108848628Y-102357142D02*
X108848628Y-102738094D01*
X109324819Y-101214285D02*
X109324819Y-101785713D01*
X109324819Y-101499999D02*
X108324819Y-101499999D01*
X108324819Y-101499999D02*
X108467676Y-101595237D01*
X108467676Y-101595237D02*
X108562914Y-101690475D01*
X108562914Y-101690475D02*
X108610533Y-101785713D01*
X137109819Y-120833333D02*
X137824104Y-120833333D01*
X137824104Y-120833333D02*
X137966961Y-120880952D01*
X137966961Y-120880952D02*
X138062200Y-120976190D01*
X138062200Y-120976190D02*
X138109819Y-121119047D01*
X138109819Y-121119047D02*
X138109819Y-121214285D01*
X138109819Y-120357142D02*
X137109819Y-120357142D01*
X137109819Y-120357142D02*
X137109819Y-119976190D01*
X137109819Y-119976190D02*
X137157438Y-119880952D01*
X137157438Y-119880952D02*
X137205057Y-119833333D01*
X137205057Y-119833333D02*
X137300295Y-119785714D01*
X137300295Y-119785714D02*
X137443152Y-119785714D01*
X137443152Y-119785714D02*
X137538390Y-119833333D01*
X137538390Y-119833333D02*
X137586009Y-119880952D01*
X137586009Y-119880952D02*
X137633628Y-119976190D01*
X137633628Y-119976190D02*
X137633628Y-120357142D01*
X137205057Y-119404761D02*
X137157438Y-119357142D01*
X137157438Y-119357142D02*
X137109819Y-119261904D01*
X137109819Y-119261904D02*
X137109819Y-119023809D01*
X137109819Y-119023809D02*
X137157438Y-118928571D01*
X137157438Y-118928571D02*
X137205057Y-118880952D01*
X137205057Y-118880952D02*
X137300295Y-118833333D01*
X137300295Y-118833333D02*
X137395533Y-118833333D01*
X137395533Y-118833333D02*
X137538390Y-118880952D01*
X137538390Y-118880952D02*
X138109819Y-119452380D01*
X138109819Y-119452380D02*
X138109819Y-118833333D01*
X158584819Y-110856666D02*
X158108628Y-111189999D01*
X158584819Y-111428094D02*
X157584819Y-111428094D01*
X157584819Y-111428094D02*
X157584819Y-111047142D01*
X157584819Y-111047142D02*
X157632438Y-110951904D01*
X157632438Y-110951904D02*
X157680057Y-110904285D01*
X157680057Y-110904285D02*
X157775295Y-110856666D01*
X157775295Y-110856666D02*
X157918152Y-110856666D01*
X157918152Y-110856666D02*
X158013390Y-110904285D01*
X158013390Y-110904285D02*
X158061009Y-110951904D01*
X158061009Y-110951904D02*
X158108628Y-111047142D01*
X158108628Y-111047142D02*
X158108628Y-111428094D01*
X158584819Y-110380475D02*
X158584819Y-110189999D01*
X158584819Y-110189999D02*
X158537200Y-110094761D01*
X158537200Y-110094761D02*
X158489580Y-110047142D01*
X158489580Y-110047142D02*
X158346723Y-109951904D01*
X158346723Y-109951904D02*
X158156247Y-109904285D01*
X158156247Y-109904285D02*
X157775295Y-109904285D01*
X157775295Y-109904285D02*
X157680057Y-109951904D01*
X157680057Y-109951904D02*
X157632438Y-109999523D01*
X157632438Y-109999523D02*
X157584819Y-110094761D01*
X157584819Y-110094761D02*
X157584819Y-110285237D01*
X157584819Y-110285237D02*
X157632438Y-110380475D01*
X157632438Y-110380475D02*
X157680057Y-110428094D01*
X157680057Y-110428094D02*
X157775295Y-110475713D01*
X157775295Y-110475713D02*
X158013390Y-110475713D01*
X158013390Y-110475713D02*
X158108628Y-110428094D01*
X158108628Y-110428094D02*
X158156247Y-110380475D01*
X158156247Y-110380475D02*
X158203866Y-110285237D01*
X158203866Y-110285237D02*
X158203866Y-110094761D01*
X158203866Y-110094761D02*
X158156247Y-109999523D01*
X158156247Y-109999523D02*
X158108628Y-109951904D01*
X158108628Y-109951904D02*
X158013390Y-109904285D01*
X139797618Y-109954819D02*
X139464285Y-109478628D01*
X139226190Y-109954819D02*
X139226190Y-108954819D01*
X139226190Y-108954819D02*
X139607142Y-108954819D01*
X139607142Y-108954819D02*
X139702380Y-109002438D01*
X139702380Y-109002438D02*
X139749999Y-109050057D01*
X139749999Y-109050057D02*
X139797618Y-109145295D01*
X139797618Y-109145295D02*
X139797618Y-109288152D01*
X139797618Y-109288152D02*
X139749999Y-109383390D01*
X139749999Y-109383390D02*
X139702380Y-109431009D01*
X139702380Y-109431009D02*
X139607142Y-109478628D01*
X139607142Y-109478628D02*
X139226190Y-109478628D01*
X140083333Y-109288152D02*
X140464285Y-109288152D01*
X140226190Y-109954819D02*
X140226190Y-109097676D01*
X140226190Y-109097676D02*
X140273809Y-109002438D01*
X140273809Y-109002438D02*
X140369047Y-108954819D01*
X140369047Y-108954819D02*
X140464285Y-108954819D01*
X140750000Y-109050057D02*
X140797619Y-109002438D01*
X140797619Y-109002438D02*
X140892857Y-108954819D01*
X140892857Y-108954819D02*
X141130952Y-108954819D01*
X141130952Y-108954819D02*
X141226190Y-109002438D01*
X141226190Y-109002438D02*
X141273809Y-109050057D01*
X141273809Y-109050057D02*
X141321428Y-109145295D01*
X141321428Y-109145295D02*
X141321428Y-109240533D01*
X141321428Y-109240533D02*
X141273809Y-109383390D01*
X141273809Y-109383390D02*
X140702381Y-109954819D01*
X140702381Y-109954819D02*
X141321428Y-109954819D01*
X125267072Y-110567588D02*
X125981357Y-110567588D01*
X125981357Y-110567588D02*
X126124214Y-110615207D01*
X126124214Y-110615207D02*
X126219453Y-110710445D01*
X126219453Y-110710445D02*
X126267072Y-110853302D01*
X126267072Y-110853302D02*
X126267072Y-110948540D01*
X126267072Y-110091397D02*
X125267072Y-110091397D01*
X125267072Y-110091397D02*
X125267072Y-109710445D01*
X125267072Y-109710445D02*
X125314691Y-109615207D01*
X125314691Y-109615207D02*
X125362310Y-109567588D01*
X125362310Y-109567588D02*
X125457548Y-109519969D01*
X125457548Y-109519969D02*
X125600405Y-109519969D01*
X125600405Y-109519969D02*
X125695643Y-109567588D01*
X125695643Y-109567588D02*
X125743262Y-109615207D01*
X125743262Y-109615207D02*
X125790881Y-109710445D01*
X125790881Y-109710445D02*
X125790881Y-110091397D01*
X126267072Y-108567588D02*
X126267072Y-109139016D01*
X126267072Y-108853302D02*
X125267072Y-108853302D01*
X125267072Y-108853302D02*
X125409929Y-108948540D01*
X125409929Y-108948540D02*
X125505167Y-109043778D01*
X125505167Y-109043778D02*
X125552786Y-109139016D01*
X126299819Y-133083333D02*
X127014104Y-133083333D01*
X127014104Y-133083333D02*
X127156961Y-133130952D01*
X127156961Y-133130952D02*
X127252200Y-133226190D01*
X127252200Y-133226190D02*
X127299819Y-133369047D01*
X127299819Y-133369047D02*
X127299819Y-133464285D01*
X127299819Y-132607142D02*
X126299819Y-132607142D01*
X126299819Y-132607142D02*
X126299819Y-132226190D01*
X126299819Y-132226190D02*
X126347438Y-132130952D01*
X126347438Y-132130952D02*
X126395057Y-132083333D01*
X126395057Y-132083333D02*
X126490295Y-132035714D01*
X126490295Y-132035714D02*
X126633152Y-132035714D01*
X126633152Y-132035714D02*
X126728390Y-132083333D01*
X126728390Y-132083333D02*
X126776009Y-132130952D01*
X126776009Y-132130952D02*
X126823628Y-132226190D01*
X126823628Y-132226190D02*
X126823628Y-132607142D01*
X126299819Y-131130952D02*
X126299819Y-131607142D01*
X126299819Y-131607142D02*
X126776009Y-131654761D01*
X126776009Y-131654761D02*
X126728390Y-131607142D01*
X126728390Y-131607142D02*
X126680771Y-131511904D01*
X126680771Y-131511904D02*
X126680771Y-131273809D01*
X126680771Y-131273809D02*
X126728390Y-131178571D01*
X126728390Y-131178571D02*
X126776009Y-131130952D01*
X126776009Y-131130952D02*
X126871247Y-131083333D01*
X126871247Y-131083333D02*
X127109342Y-131083333D01*
X127109342Y-131083333D02*
X127204580Y-131130952D01*
X127204580Y-131130952D02*
X127252200Y-131178571D01*
X127252200Y-131178571D02*
X127299819Y-131273809D01*
X127299819Y-131273809D02*
X127299819Y-131511904D01*
X127299819Y-131511904D02*
X127252200Y-131607142D01*
X127252200Y-131607142D02*
X127204580Y-131654761D01*
%TO.C,U1*%
D11*
X82175740Y-113707875D02*
X86795740Y-113707875D01*
X82175740Y-116967875D02*
X83555740Y-116967875D01*
X82175740Y-120667875D02*
X83555740Y-120667875D01*
X82175740Y-123927875D02*
X82175740Y-113707875D01*
X83555740Y-123927875D02*
X83555740Y-113707875D01*
X86795740Y-113707875D02*
X86795740Y-123927875D01*
X86795740Y-123927875D02*
X82175740Y-123927875D01*
%TO.C,TP7*%
X102820000Y-131020000D02*
X104200000Y-131020000D01*
X102820000Y-132400000D02*
X102820000Y-131020000D01*
X102820000Y-133670000D02*
X102820000Y-133780000D01*
X102820000Y-133670000D02*
X105580000Y-133670000D01*
X102820000Y-133780000D02*
X105580000Y-133780000D01*
X105580000Y-133670000D02*
X105580000Y-133780000D01*
%TO.C,JP4*%
X84105740Y-105322875D02*
X84105740Y-102672875D01*
X86865740Y-102672875D02*
X84105740Y-102672875D01*
X86865740Y-105322875D02*
X84105740Y-105322875D01*
X86865740Y-105322875D02*
X86865740Y-102672875D01*
X86865740Y-106592875D02*
X86865740Y-107972875D01*
X86865740Y-107972875D02*
X85485740Y-107972875D01*
%TO.C,RV1*%
X108390000Y-135390000D02*
X124610000Y-135390000D01*
X108390000Y-143610000D02*
X108390000Y-135390000D01*
X111390000Y-143610000D02*
X121610000Y-143610000D01*
X111390000Y-152610000D02*
X111390000Y-143610000D01*
X113390000Y-152610000D02*
X119610000Y-152610000D01*
X113390000Y-168610000D02*
X113390000Y-152610000D01*
X119610000Y-152610000D02*
X119610000Y-168610000D01*
X119610000Y-168610000D02*
X113390000Y-168610000D01*
X121610000Y-143610000D02*
X121610000Y-152610000D01*
X121610000Y-152610000D02*
X111390000Y-152610000D01*
X124610000Y-135390000D02*
X124610000Y-143610000D01*
X124610000Y-143610000D02*
X108390000Y-143610000D01*
%TO.C,J2*%
X143630000Y-129880000D02*
X154370000Y-129880000D01*
X143630000Y-133500000D02*
X144870000Y-133500000D01*
X143630000Y-134500000D02*
X144870000Y-134500000D01*
X143630000Y-135800000D02*
X144870000Y-135800000D01*
X143630000Y-137920000D02*
X143630000Y-129880000D01*
X146450000Y-137920000D02*
X143630000Y-137920000D01*
X148630000Y-133500000D02*
X149938000Y-133500000D01*
X148630000Y-134500000D02*
X149938000Y-134500000D01*
X148630000Y-135800000D02*
X151207000Y-135800000D01*
X152293000Y-135800000D02*
X154370000Y-135800000D01*
X153562000Y-133500000D02*
X154370000Y-133500000D01*
X153562000Y-134500000D02*
X154370000Y-134500000D01*
X154370000Y-129880000D02*
X154370000Y-137920000D01*
X154370000Y-137920000D02*
X147050000Y-137920000D01*
X147190000Y-138530000D02*
X146310000Y-138530000D01*
X146750000Y-137920000D01*
X147190000Y-138530000D01*
G36*
X147190000Y-138530000D02*
G01*
X146310000Y-138530000D01*
X146750000Y-137920000D01*
X147190000Y-138530000D01*
G37*
%TO.C,U3*%
X102860000Y-111250000D02*
X102860000Y-115750000D01*
X102860000Y-115750000D02*
X113140000Y-115750000D01*
X113140000Y-111250000D02*
X102860000Y-111250000D01*
X113140000Y-112500000D02*
X113140000Y-111250000D01*
X113140000Y-115750000D02*
X113140000Y-114500000D01*
X102800000Y-108250000D02*
X113200000Y-108250000D01*
X113200000Y-118750000D01*
X102800000Y-118750000D01*
X102800000Y-108250000D01*
X113140000Y-114500000D02*
G75*
G02*
X113140000Y-112500000I0J1000000D01*
G01*
%TO.C,R2*%
X112540000Y-104630000D02*
X119080000Y-104630000D01*
X112540000Y-104960000D02*
X112540000Y-104630000D01*
X112540000Y-107040000D02*
X112540000Y-107370000D01*
X112540000Y-107370000D02*
X119080000Y-107370000D01*
X119080000Y-104630000D02*
X119080000Y-104960000D01*
X119080000Y-107370000D02*
X119080000Y-107040000D01*
%TO.C,JP3*%
X110845000Y-130380000D02*
X110845000Y-129000000D01*
X112225000Y-130380000D02*
X110845000Y-130380000D01*
X113495000Y-127620000D02*
X116145000Y-127620000D01*
X113495000Y-130380000D02*
X113495000Y-127620000D01*
X113495000Y-130380000D02*
X116145000Y-130380000D01*
X116145000Y-130380000D02*
X116145000Y-127620000D01*
%TO.C,J1*%
X77365740Y-129197875D02*
X88105740Y-129197875D01*
X77365740Y-132817875D02*
X78605740Y-132817875D01*
X77365740Y-133817875D02*
X78605740Y-133817875D01*
X77365740Y-135117875D02*
X78605740Y-135117875D01*
X77365740Y-137237875D02*
X77365740Y-129197875D01*
X80185740Y-137237875D02*
X77365740Y-137237875D01*
X82365740Y-132817875D02*
X83673740Y-132817875D01*
X82365740Y-133817875D02*
X83673740Y-133817875D01*
X82365740Y-135117875D02*
X84942740Y-135117875D01*
X86028740Y-135117875D02*
X88105740Y-135117875D01*
X87297740Y-132817875D02*
X88105740Y-132817875D01*
X87297740Y-133817875D02*
X88105740Y-133817875D01*
X88105740Y-129197875D02*
X88105740Y-137237875D01*
X88105740Y-137237875D02*
X80785740Y-137237875D01*
X80925740Y-137847875D02*
X80045740Y-137847875D01*
X80485740Y-137237875D01*
X80925740Y-137847875D01*
G36*
X80925740Y-137847875D02*
G01*
X80045740Y-137847875D01*
X80485740Y-137237875D01*
X80925740Y-137847875D01*
G37*
%TO.C,C1*%
X81615740Y-110447875D02*
X86855740Y-110447875D01*
X81615740Y-113187875D02*
X81615740Y-110447875D01*
X86855740Y-110447875D02*
X86855740Y-113187875D01*
X86855740Y-113187875D02*
X81615740Y-113187875D01*
%TO.C,Rf1*%
X144480000Y-108630000D02*
X151020000Y-108630000D01*
X144480000Y-108960000D02*
X144480000Y-108630000D01*
X144480000Y-111040000D02*
X144480000Y-111370000D01*
X144480000Y-111370000D02*
X151020000Y-111370000D01*
X151020000Y-108630000D02*
X151020000Y-108960000D01*
X151020000Y-111370000D02*
X151020000Y-111040000D01*
%TO.C,R6*%
X153230000Y-107290000D02*
X153560000Y-107290000D01*
X153230000Y-113830000D02*
X153230000Y-107290000D01*
X153560000Y-113830000D02*
X153230000Y-113830000D01*
X155640000Y-113830000D02*
X155970000Y-113830000D01*
X155970000Y-107290000D02*
X155640000Y-107290000D01*
X155970000Y-113830000D02*
X155970000Y-107290000D01*
%TO.C,R5*%
X112420000Y-119130000D02*
X112420000Y-119460000D01*
X112420000Y-121870000D02*
X112420000Y-121540000D01*
X118960000Y-119130000D02*
X112420000Y-119130000D01*
X118960000Y-119460000D02*
X118960000Y-119130000D01*
X118960000Y-121540000D02*
X118960000Y-121870000D01*
X118960000Y-121870000D02*
X112420000Y-121870000D01*
%TO.C,C4*%
X150880000Y-123380000D02*
X156120000Y-123380000D01*
X150880000Y-126120000D02*
X150880000Y-123380000D01*
X156120000Y-123380000D02*
X156120000Y-126120000D01*
X156120000Y-126120000D02*
X150880000Y-126120000D01*
%TO.C,C3*%
X113880000Y-116130000D02*
X119120000Y-116130000D01*
X113880000Y-118870000D02*
X113880000Y-116130000D01*
X119120000Y-116130000D02*
X119120000Y-118870000D01*
X119120000Y-118870000D02*
X113880000Y-118870000D01*
%TO.C,TP5*%
X159220000Y-134820000D02*
X160600000Y-134820000D01*
X159220000Y-136200000D02*
X159220000Y-134820000D01*
X159220000Y-137470000D02*
X159220000Y-137580000D01*
X159220000Y-137470000D02*
X161980000Y-137470000D01*
X159220000Y-137580000D02*
X161980000Y-137580000D01*
X161980000Y-137470000D02*
X161980000Y-137580000D01*
%TO.C,C2*%
X81615740Y-124447875D02*
X86855740Y-124447875D01*
X81615740Y-127187875D02*
X81615740Y-124447875D01*
X86855740Y-124447875D02*
X86855740Y-127187875D01*
X86855740Y-127187875D02*
X81615740Y-127187875D01*
%TO.C,U2*%
X140170000Y-118750000D02*
X140170000Y-123250000D01*
X140170000Y-123250000D02*
X150450000Y-123250000D01*
X150450000Y-118750000D02*
X140170000Y-118750000D01*
X150450000Y-120000000D02*
X150450000Y-118750000D01*
X150450000Y-123250000D02*
X150450000Y-122000000D01*
X140110000Y-115750000D02*
X150510000Y-115750000D01*
X150510000Y-126250000D01*
X140110000Y-126250000D01*
X140110000Y-115750000D01*
X150450000Y-122000000D02*
G75*
G02*
X150450000Y-120000000I0J1000000D01*
G01*
%TO.C,R11*%
X94040000Y-116130000D02*
X100580000Y-116130000D01*
X94040000Y-116460000D02*
X94040000Y-116130000D01*
X94040000Y-118540000D02*
X94040000Y-118870000D01*
X94040000Y-118870000D02*
X100580000Y-118870000D01*
X100580000Y-116130000D02*
X100580000Y-116460000D01*
X100580000Y-118870000D02*
X100580000Y-118540000D01*
%TO.C,R7*%
X89130000Y-129730000D02*
X89130000Y-136270000D01*
X89130000Y-136270000D02*
X89460000Y-136270000D01*
X89460000Y-129730000D02*
X89130000Y-129730000D01*
X91540000Y-129730000D02*
X91870000Y-129730000D01*
X91870000Y-129730000D02*
X91870000Y-136270000D01*
X91870000Y-136270000D02*
X91540000Y-136270000D01*
%TO.C,R10*%
X134630000Y-125290000D02*
X134960000Y-125290000D01*
X134630000Y-131830000D02*
X134630000Y-125290000D01*
X134960000Y-131830000D02*
X134630000Y-131830000D01*
X137040000Y-131830000D02*
X137370000Y-131830000D01*
X137370000Y-125290000D02*
X137040000Y-125290000D01*
X137370000Y-131830000D02*
X137370000Y-125290000D01*
%TO.C,TP4*%
X159120000Y-127870000D02*
X160500000Y-127870000D01*
X159120000Y-129250000D02*
X159120000Y-127870000D01*
X159120000Y-130520000D02*
X159120000Y-130630000D01*
X159120000Y-130520000D02*
X161880000Y-130520000D01*
X159120000Y-130630000D02*
X161880000Y-130630000D01*
X161880000Y-130520000D02*
X161880000Y-130630000D01*
%TO.C,R8*%
X128230000Y-135630000D02*
X134770000Y-135630000D01*
X128230000Y-135960000D02*
X128230000Y-135630000D01*
X128230000Y-138040000D02*
X128230000Y-138370000D01*
X128230000Y-138370000D02*
X134770000Y-138370000D01*
X134770000Y-135630000D02*
X134770000Y-135960000D01*
X134770000Y-138370000D02*
X134770000Y-138040000D01*
%TO.C,C5*%
X105380000Y-119130000D02*
X110620000Y-119130000D01*
X105380000Y-121870000D02*
X105380000Y-119130000D01*
X110620000Y-119130000D02*
X110620000Y-121870000D01*
X110620000Y-121870000D02*
X105380000Y-121870000D01*
%TO.C,TP6*%
X126020000Y-115020000D02*
X127400000Y-115020000D01*
X126020000Y-116400000D02*
X126020000Y-115020000D01*
X126020000Y-117670000D02*
X126020000Y-117780000D01*
X126020000Y-117670000D02*
X128780000Y-117670000D01*
X126020000Y-117780000D02*
X128780000Y-117780000D01*
X128780000Y-117670000D02*
X128780000Y-117780000D01*
%TO.C,R1*%
X105130000Y-98730000D02*
X105130000Y-105270000D01*
X105130000Y-105270000D02*
X105460000Y-105270000D01*
X105460000Y-98730000D02*
X105130000Y-98730000D01*
X107540000Y-98730000D02*
X107870000Y-98730000D01*
X107870000Y-98730000D02*
X107870000Y-105270000D01*
X107870000Y-105270000D02*
X107540000Y-105270000D01*
%TO.C,JP2*%
X131355000Y-118620000D02*
X131355000Y-121380000D01*
X134005000Y-118620000D02*
X131355000Y-118620000D01*
X134005000Y-118620000D02*
X134005000Y-121380000D01*
X134005000Y-121380000D02*
X131355000Y-121380000D01*
X135275000Y-118620000D02*
X136655000Y-118620000D01*
X136655000Y-118620000D02*
X136655000Y-120000000D01*
%TO.C,R9*%
X159130000Y-107420000D02*
X159460000Y-107420000D01*
X159130000Y-113960000D02*
X159130000Y-107420000D01*
X159460000Y-113960000D02*
X159130000Y-113960000D01*
X161540000Y-113960000D02*
X161870000Y-113960000D01*
X161870000Y-107420000D02*
X161540000Y-107420000D01*
X161870000Y-113960000D02*
X161870000Y-107420000D01*
%TO.C,Rf2*%
X136980000Y-112130000D02*
X136980000Y-112460000D01*
X136980000Y-114870000D02*
X136980000Y-114540000D01*
X143520000Y-112130000D02*
X136980000Y-112130000D01*
X143520000Y-112460000D02*
X143520000Y-112130000D01*
X143520000Y-114540000D02*
X143520000Y-114870000D01*
X143520000Y-114870000D02*
X136980000Y-114870000D01*
%TO.C,JP1*%
X126812253Y-111114255D02*
X126812253Y-109734255D01*
X128192253Y-111114255D02*
X126812253Y-111114255D01*
X129462253Y-108354255D02*
X132112253Y-108354255D01*
X129462253Y-111114255D02*
X129462253Y-108354255D01*
X129462253Y-111114255D02*
X132112253Y-111114255D01*
X132112253Y-111114255D02*
X132112253Y-108354255D01*
%TO.C,JP5*%
X127845000Y-133630000D02*
X127845000Y-132250000D01*
X129225000Y-133630000D02*
X127845000Y-133630000D01*
X130495000Y-130870000D02*
X133145000Y-130870000D01*
X130495000Y-133630000D02*
X130495000Y-130870000D01*
X130495000Y-133630000D02*
X133145000Y-133630000D01*
X133145000Y-133630000D02*
X133145000Y-130870000D01*
%TD*%
M02*
