M48
; DRILL file KiCad 10.0.0 date 2026-05-26T13:38:27
; FORMAT={-:-/ absolute / metric / decimal}
; #@! TF.CreationDate,2026-05-26T13:38:27-03:00
; #@! TF.GenerationSoftware,Kicad,Pcbnew,10.0.0
; #@! TF.FileFunction,Plated,1,2,PTH
FMAT,2
METRIC
; #@! TA.AperFunction,Plated,PTH,ComponentDrill
T1C0.800
; #@! TA.AperFunction,Plated,PTH,ComponentDrill
T2C1.000
; #@! TA.AperFunction,Plated,PTH,ComponentDrill
T3C1.100
; #@! TA.AperFunction,Plated,PTH,ComponentDrill
T4C1.300
%
G90
G05
T1
X82.986Y-111.818
X82.986Y-125.818
X85.486Y-111.818
X85.486Y-125.818
X90.5Y-129.19
X90.5Y-136.81
X93.5Y-117.5
X101.12Y-117.5
X104.19Y-109.69
X104.19Y-117.31
X106.5Y-98.19
X106.5Y-105.81
X106.73Y-109.69
X106.73Y-117.31
X106.75Y-120.5
X109.25Y-120.5
X109.27Y-109.69
X109.27Y-117.31
X111.81Y-109.69
X111.81Y-117.31
X111.88Y-120.5
X112.0Y-106.0
X115.25Y-117.5
X117.75Y-117.5
X119.5Y-120.5
X119.62Y-106.0
X127.69Y-137.0
X135.31Y-137.0
X136.0Y-124.75
X136.0Y-132.37
X136.44Y-113.5
X141.5Y-117.19
X141.5Y-124.81
X143.94Y-110.0
X144.04Y-117.19
X144.04Y-124.81
X144.06Y-113.5
X146.58Y-117.19
X146.58Y-124.81
X149.12Y-117.19
X149.12Y-124.81
X151.56Y-110.0
X152.25Y-124.75
X154.6Y-106.75
X154.6Y-114.37
X154.75Y-124.75
X160.5Y-106.88
X160.5Y-114.5
T2
X85.486Y-104.053
X85.486Y-106.593
X104.2Y-132.4
X112.225Y-129.0
X114.765Y-129.0
X127.4Y-116.4
X128.192Y-109.734
X129.225Y-132.25
X130.732Y-109.734
X131.765Y-132.25
X132.735Y-120.0
X135.275Y-120.0
X160.5Y-129.25
X160.6Y-136.2
T3
X85.436Y-116.278
X85.436Y-118.818
X85.436Y-121.358
T4
X80.486Y-133.318
X85.486Y-133.318
X111.5Y-137.0
X116.5Y-137.0
X121.5Y-137.0
X146.75Y-134.0
X151.75Y-134.0
M30
