%TF.GenerationSoftware,KiCad,Pcbnew,10.0.0*%
%TF.CreationDate,2026-05-26T13:38:22-03:00*%
%TF.ProjectId,PWM_v1,50574d5f-7631-42e6-9b69-6361645f7063,rev?*%
%TF.SameCoordinates,Original*%
%TF.FileFunction,Copper,L1,Top*%
%TF.FilePolarity,Positive*%
%FSLAX46Y46*%
G04 Gerber Fmt 4.6, Leading zero omitted, Abs format (unit mm)*
G04 Created by KiCad (PCBNEW 10.0.0) date 2026-05-26 13:38:22*
%MOMM*%
%LPD*%
G01*
G04 APERTURE LIST*
G04 Aperture macros list*
%AMRoundRect*
0 Rectangle with rounded corners*
0 $1 Rounding radius*
0 $2 $3 $4 $5 $6 $7 $8 $9 X,Y pos of 4 corners*
0 Add a 4 corners polygon primitive as box body*
4,1,4,$2,$3,$4,$5,$6,$7,$8,$9,$2,$3,0*
0 Add four circle primitives for the rounded corners*
1,1,$1+$1,$2,$3*
1,1,$1+$1,$4,$5*
1,1,$1+$1,$6,$7*
1,1,$1+$1,$8,$9*
0 Add four rect primitives between the rounded corners*
20,1,$1+$1,$2,$3,$4,$5,0*
20,1,$1+$1,$4,$5,$6,$7,0*
20,1,$1+$1,$6,$7,$8,$9,0*
20,1,$1+$1,$8,$9,$2,$3,0*%
G04 Aperture macros list end*
%TA.AperFunction,ComponentPad*%
%ADD10R,2.000000X1.905000*%
%TD*%
%TA.AperFunction,ComponentPad*%
%ADD11O,2.000000X1.905000*%
%TD*%
%TA.AperFunction,ComponentPad*%
%ADD12R,1.700000X1.700000*%
%TD*%
%TA.AperFunction,ComponentPad*%
%ADD13C,1.700000*%
%TD*%
%TA.AperFunction,ComponentPad*%
%ADD14C,2.340000*%
%TD*%
%TA.AperFunction,ComponentPad*%
%ADD15RoundRect,0.250001X-1.149999X-1.149999X1.149999X-1.149999X1.149999X1.149999X-1.149999X1.149999X0*%
%TD*%
%TA.AperFunction,ComponentPad*%
%ADD16C,2.800000*%
%TD*%
%TA.AperFunction,ComponentPad*%
%ADD17RoundRect,0.250000X-0.550000X0.950000X-0.550000X-0.950000X0.550000X-0.950000X0.550000X0.950000X0*%
%TD*%
%TA.AperFunction,ComponentPad*%
%ADD18O,1.600000X2.400000*%
%TD*%
%TA.AperFunction,ComponentPad*%
%ADD19C,1.600000*%
%TD*%
G04 APERTURE END LIST*
D10*
%TO.P,U1,1,VI_1*%
%TO.N,+BATT*%
X85435740Y-121357875D03*
D11*
%TO.P,U1,2,GND_2*%
%TO.N,GND*%
X85435740Y-118817875D03*
%TO.P,U1,3,VO_3*%
%TO.N,Net-(JP4-A)*%
X85435740Y-116277875D03*
%TD*%
D12*
%TO.P,TP7,1,1_1*%
%TO.N,GND*%
X104200000Y-132400000D03*
%TD*%
%TO.P,JP4,1,A_1*%
%TO.N,Net-(JP4-A)*%
X85485740Y-106592875D03*
D13*
%TO.P,JP4,2,B_2*%
%TO.N,+9V*%
X85485740Y-104052875D03*
%TD*%
D14*
%TO.P,RV1,1,1_1*%
%TO.N,Net-(R7-Pad2)*%
X111500000Y-137000000D03*
%TO.P,RV1,2,2_2*%
%TO.N,Net-(JP5-A)*%
X116500000Y-137000000D03*
%TO.P,RV1,3,3_3*%
%TO.N,Net-(R8-Pad1)*%
X121500000Y-137000000D03*
%TD*%
D15*
%TO.P,J2,1,Pin_1_1*%
%TO.N,/PWM*%
X146750000Y-134000000D03*
D16*
%TO.P,J2,2,Pin_2_2*%
%TO.N,GND*%
X151750000Y-134000000D03*
%TD*%
D17*
%TO.P,U3,1*%
%TO.N,Net-(JP1-A)*%
X111810000Y-109690000D03*
D18*
%TO.P,U3,2,-_2*%
X109270000Y-109690000D03*
%TO.P,U3,3,+_3*%
%TO.N,Net-(U3A-+)*%
X106730000Y-109690000D03*
%TO.P,U3,4,V-_4*%
%TO.N,GND*%
X104190000Y-109690000D03*
%TO.P,U3,5,+_5*%
%TO.N,/Vref_opamp*%
X104190000Y-117310000D03*
%TO.P,U3,6,-_6*%
%TO.N,Net-(U3B--)*%
X106730000Y-117310000D03*
%TO.P,U3,7*%
%TO.N,/Triang*%
X109270000Y-117310000D03*
%TO.P,U3,8,V+_8*%
%TO.N,+9V*%
X111810000Y-117310000D03*
%TD*%
D19*
%TO.P,R2,1*%
%TO.N,Net-(U3A-+)*%
X112000000Y-106000000D03*
%TO.P,R2,2*%
%TO.N,GND*%
X119620000Y-106000000D03*
%TD*%
D12*
%TO.P,JP3,1,A_1*%
%TO.N,/Triang*%
X112225000Y-129000000D03*
D13*
%TO.P,JP3,2,B_2*%
%TO.N,Net-(JP3-B)*%
X114765000Y-129000000D03*
%TD*%
D15*
%TO.P,J1,1,Pin_1_1*%
%TO.N,GND*%
X80485740Y-133317875D03*
D16*
%TO.P,J1,2,Pin_2_2*%
%TO.N,+BATT*%
X85485740Y-133317875D03*
%TD*%
D19*
%TO.P,C1,1*%
%TO.N,Net-(JP4-A)*%
X85485740Y-111817875D03*
%TO.P,C1,2*%
%TO.N,GND*%
X82985740Y-111817875D03*
%TD*%
%TO.P,Rf1,1*%
%TO.N,Net-(U2A-+)*%
X143940000Y-110000000D03*
%TO.P,Rf1,2*%
%TO.N,/Cuad*%
X151560000Y-110000000D03*
%TD*%
%TO.P,R6,1*%
%TO.N,/Cuad*%
X154600000Y-114370000D03*
%TO.P,R6,2*%
%TO.N,+9V*%
X154600000Y-106750000D03*
%TD*%
%TO.P,R5,1*%
%TO.N,Net-(JP2-B)*%
X119500000Y-120500000D03*
%TO.P,R5,2*%
%TO.N,Net-(U3B--)*%
X111880000Y-120500000D03*
%TD*%
%TO.P,C4,1*%
%TO.N,+9V*%
X152250000Y-124750000D03*
%TO.P,C4,2*%
%TO.N,GND*%
X154750000Y-124750000D03*
%TD*%
%TO.P,C3,1*%
%TO.N,+9V*%
X115250000Y-117500000D03*
%TO.P,C3,2*%
%TO.N,GND*%
X117750000Y-117500000D03*
%TD*%
D12*
%TO.P,TP5,1,1_1*%
%TO.N,GND*%
X160600000Y-136200000D03*
%TD*%
D19*
%TO.P,C2,1*%
%TO.N,+BATT*%
X85485740Y-125817875D03*
%TO.P,C2,2*%
%TO.N,GND*%
X82985740Y-125817875D03*
%TD*%
D17*
%TO.P,U2,1*%
%TO.N,/Cuad*%
X149120000Y-117190000D03*
D18*
%TO.P,U2,2,-_2*%
%TO.N,/Vref*%
X146580000Y-117190000D03*
%TO.P,U2,3,+_3*%
%TO.N,Net-(U2A-+)*%
X144040000Y-117190000D03*
%TO.P,U2,4,V-_4*%
%TO.N,GND*%
X141500000Y-117190000D03*
%TO.P,U2,5,+_5*%
%TO.N,/PWM_ref*%
X141500000Y-124810000D03*
%TO.P,U2,6,-_6*%
%TO.N,Net-(JP3-B)*%
X144040000Y-124810000D03*
%TO.P,U2,7*%
%TO.N,/PWM*%
X146580000Y-124810000D03*
%TO.P,U2,8,V+_8*%
%TO.N,+9V*%
X149120000Y-124810000D03*
%TD*%
D19*
%TO.P,R11,1*%
%TO.N,/Vref*%
X93500000Y-117500000D03*
%TO.P,R11,2*%
%TO.N,/Vref_opamp*%
X101120000Y-117500000D03*
%TD*%
%TO.P,R7,1*%
%TO.N,+9V*%
X90500000Y-129190000D03*
%TO.P,R7,2*%
%TO.N,Net-(R7-Pad2)*%
X90500000Y-136810000D03*
%TD*%
%TO.P,R10,1*%
%TO.N,Net-(JP5-B)*%
X136000000Y-132370000D03*
%TO.P,R10,2*%
%TO.N,/PWM_ref*%
X136000000Y-124750000D03*
%TD*%
D12*
%TO.P,TP4,1,1_1*%
%TO.N,/PWM*%
X160500000Y-129250000D03*
%TD*%
D19*
%TO.P,R8,1*%
%TO.N,Net-(R8-Pad1)*%
X127690000Y-137000000D03*
%TO.P,R8,2*%
%TO.N,GND*%
X135310000Y-137000000D03*
%TD*%
%TO.P,C5,1*%
%TO.N,/Triang*%
X109250000Y-120500000D03*
%TO.P,C5,2*%
%TO.N,Net-(U3B--)*%
X106750000Y-120500000D03*
%TD*%
D12*
%TO.P,TP6,1,1_1*%
%TO.N,GND*%
X127400000Y-116400000D03*
%TD*%
D19*
%TO.P,R1,1*%
%TO.N,+9V*%
X106500000Y-98190000D03*
%TO.P,R1,2*%
%TO.N,Net-(U3A-+)*%
X106500000Y-105810000D03*
%TD*%
D12*
%TO.P,JP2,1,A_1*%
%TO.N,/Cuad*%
X135275000Y-120000000D03*
D13*
%TO.P,JP2,2,B_2*%
%TO.N,Net-(JP2-B)*%
X132735000Y-120000000D03*
%TD*%
D19*
%TO.P,R9,1*%
%TO.N,/PWM*%
X160500000Y-114500000D03*
%TO.P,R9,2*%
%TO.N,+9V*%
X160500000Y-106880000D03*
%TD*%
%TO.P,Rf2,1*%
%TO.N,Net-(U2A-+)*%
X144060000Y-113500000D03*
%TO.P,Rf2,2*%
%TO.N,/Triang*%
X136440000Y-113500000D03*
%TD*%
D12*
%TO.P,JP1,1,A_1*%
%TO.N,Net-(JP1-A)*%
X128192253Y-109734255D03*
D13*
%TO.P,JP1,2,B_2*%
%TO.N,/Vref*%
X130732253Y-109734255D03*
%TD*%
D12*
%TO.P,JP5,1,A_1*%
%TO.N,Net-(JP5-A)*%
X129225000Y-132250000D03*
D13*
%TO.P,JP5,2,B_2*%
%TO.N,Net-(JP5-B)*%
X131765000Y-132250000D03*
%TD*%
M02*
