M48
; DRILL file KiCad 10.0.0 date 2026-04-27T08:07:47
; FORMAT={-:-/ absolute / metric / decimal}
; #@! TF.CreationDate,2026-04-27T08:07:47-03:00
; #@! TF.GenerationSoftware,Kicad,Pcbnew,10.0.0
; #@! TF.FileFunction,Plated,1,2,PTH
FMAT,2
METRIC
; #@! TA.AperFunction,Plated,PTH,ComponentDrill
T1C0.800
; #@! TA.AperFunction,Plated,PTH,ComponentDrill
T2C1.000
; #@! TA.AperFunction,Plated,PTH,ComponentDrill
T3C1.100
; #@! TA.AperFunction,Plated,PTH,ComponentDrill
T4C1.200
; #@! TA.AperFunction,Plated,PTH,ComponentDrill
T5C1.300
%
G90
G05
T1
X76.0Y-60.38
X76.0Y-68.0
X84.5Y-50.0
X84.5Y-57.62
X84.5Y-62.92
X84.5Y-65.46
X84.5Y-68.0
X92.35Y-65.985
X94.89Y-65.985
X108.983Y-63.133
X108.983Y-65.673
X108.983Y-68.213
X109.483Y-40.593
X109.483Y-48.213
X109.483Y-81.045
X109.483Y-83.585
X109.483Y-86.125
X109.483Y-90.965
X109.483Y-98.585
X109.548Y-51.213
X109.548Y-53.753
X109.548Y-56.293
X114.983Y-73.673
X114.983Y-76.213
X121.926Y-62.993
X121.926Y-65.533
X121.926Y-68.073
X121.983Y-40.593
X121.983Y-48.213
X121.983Y-90.593
X121.983Y-98.213
X122.096Y-51.25
X122.096Y-53.79
X122.096Y-56.33
X122.123Y-81.045
X122.123Y-83.585
X122.123Y-86.125
X132.0Y-75.46
X132.0Y-78.0
X133.0Y-91.38
X133.0Y-99.0
X139.065Y-91.065
X139.065Y-98.685
X139.5Y-79.96
X139.5Y-82.5
X139.5Y-85.04
X141.922Y-40.77
X141.922Y-48.39
X141.922Y-51.915
X141.922Y-54.415
X146.972Y-60.404
X146.972Y-62.944
X146.972Y-65.484
X177.997Y-70.0
X185.442Y-72.667
X185.442Y-80.287
X185.617Y-70.0
X191.88Y-99.5
X198.25Y-77.96
X198.25Y-85.58
X198.255Y-89.0
X199.0Y-63.0
X199.116Y-55.793
X199.5Y-99.5
X199.5Y-104.69
X199.5Y-112.31
X200.79Y-77.96
X200.79Y-85.58
X200.795Y-89.0
X201.5Y-71.0
X203.33Y-77.96
X203.33Y-85.58
X204.0Y-71.0
X205.87Y-77.96
X205.87Y-85.58
X206.62Y-63.0
X206.736Y-55.793
T2
X84.5Y-75.0
X95.0Y-75.0
X95.0Y-85.5
X101.0Y-66.0
X131.949Y-62.946
X131.96Y-55.462
X133.0Y-86.5
X133.0Y-105.0
X147.0Y-82.5
X163.5Y-40.5
X174.497Y-70.0
X179.407Y-100.0
X179.497Y-107.403
T3
X158.46Y-51.45
X161.0Y-51.45
X163.54Y-51.45
T4
X157.5Y-77.76
X157.5Y-93.0
X166.5Y-77.76
X166.5Y-93.0
T5
X81.282Y-36.0
X81.282Y-41.0
X167.497Y-105.403
X172.497Y-105.403
M30
