%TF.GenerationSoftware,KiCad,Pcbnew,10.0.0*%
%TF.CreationDate,2026-04-27T08:07:42-03:00*%
%TF.ProjectId,Dise_o_v3,44697365-f16f-45f7-9633-2e6b69636164,rev?*%
%TF.SameCoordinates,Original*%
%TF.FileFunction,Soldermask,Top*%
%TF.FilePolarity,Negative*%
%FSLAX46Y46*%
G04 Gerber Fmt 4.6, Leading zero omitted, Abs format (unit mm)*
G04 Created by KiCad (PCBNEW 10.0.0) date 2026-04-27 08:07:42*
%MOMM*%
%LPD*%
G01*
G04 APERTURE LIST*
G04 Aperture macros list*
%AMRoundRect*
0 Rectangle with rounded corners*
0 $1 Rounding radius*
0 $2 $3 $4 $5 $6 $7 $8 $9 X,Y pos of 4 corners*
0 Add a 4 corners polygon primitive as box body*
4,1,4,$2,$3,$4,$5,$6,$7,$8,$9,$2,$3,0*
0 Add four circle primitives for the rounded corners*
1,1,$1+$1,$2,$3*
1,1,$1+$1,$4,$5*
1,1,$1+$1,$6,$7*
1,1,$1+$1,$8,$9*
0 Add four rect primitives between the rounded corners*
20,1,$1+$1,$2,$3,$4,$5,0*
20,1,$1+$1,$4,$5,$6,$7,0*
20,1,$1+$1,$6,$7,$8,$9,0*
20,1,$1+$1,$8,$9,$2,$3,0*%
G04 Aperture macros list end*
%ADD10C,3.200000*%
%ADD11R,1.700000X1.700000*%
%ADD12RoundRect,0.250001X-1.149999X1.149999X-1.149999X-1.149999X1.149999X-1.149999X1.149999X1.149999X0*%
%ADD13C,2.800000*%
%ADD14C,1.600000*%
%ADD15R,1.500000X1.500000*%
%ADD16C,1.500000*%
%ADD17RoundRect,0.250000X0.550000X-0.950000X0.550000X0.950000X-0.550000X0.950000X-0.550000X-0.950000X0*%
%ADD18O,1.600000X2.400000*%
%ADD19RoundRect,0.250001X-1.149999X-1.149999X1.149999X-1.149999X1.149999X1.149999X-1.149999X1.149999X0*%
%ADD20C,1.400000*%
%ADD21C,2.400000*%
%ADD22R,1.905000X2.000000*%
%ADD23O,1.905000X2.000000*%
G04 APERTURE END LIST*
D10*
%TO.C,REF\u002A\u002A*%
X65000000Y-25000000D03*
%TD*%
D11*
%TO.C,Vreg1*%
X163500000Y-40500000D03*
%TD*%
D12*
%TO.C,J1*%
X81282500Y-36000000D03*
D13*
X81282500Y-41000000D03*
%TD*%
D10*
%TO.C,REF\u002A\u002A*%
X215000000Y-125000000D03*
%TD*%
D11*
%TO.C,TP_GND5*%
X95000000Y-85500000D03*
%TD*%
%TO.C,Gen_In1*%
X95000000Y-75000000D03*
%TD*%
D14*
%TO.C,C_COMP1*%
X141921625Y-51914681D03*
X141921625Y-54414681D03*
%TD*%
D15*
%TO.C,Q3*%
X109547514Y-56292719D03*
D16*
X109547514Y-53752719D03*
X109547514Y-51212719D03*
%TD*%
D17*
%TO.C,U2*%
X198250000Y-85580000D03*
D18*
X200790000Y-85580000D03*
X203330000Y-85580000D03*
X205870000Y-85580000D03*
X205870000Y-77960000D03*
X203330000Y-77960000D03*
X200790000Y-77960000D03*
X198250000Y-77960000D03*
%TD*%
D14*
%TO.C,Rf1*%
X200795000Y-89000000D03*
X198255000Y-89000000D03*
%TD*%
%TO.C,R_COMP1*%
X141921625Y-40769681D03*
X141921625Y-48389681D03*
%TD*%
D10*
%TO.C,REF\u002A\u002A*%
X65000000Y-125000000D03*
%TD*%
D15*
%TO.C,Q4*%
X122095761Y-56329971D03*
D16*
X122095761Y-53789971D03*
X122095761Y-51249971D03*
%TD*%
D11*
%TO.C,TP_Vo1*%
X179407286Y-100000000D03*
%TD*%
D15*
%TO.C,Q9*%
X139500000Y-79960000D03*
D16*
X139500000Y-82500000D03*
X139500000Y-85040000D03*
%TD*%
D14*
%TO.C,C_Op2*%
X204000000Y-71000000D03*
X201500000Y-71000000D03*
%TD*%
D11*
%TO.C,TP_LC1*%
X147000000Y-82500000D03*
%TD*%
D14*
%TO.C,Rref1*%
X199500000Y-112310000D03*
X199500000Y-104690000D03*
%TD*%
D11*
%TO.C,TP_Vx1*%
X174497272Y-70000000D03*
%TD*%
D14*
%TO.C,R2*%
X76000000Y-60380000D03*
X76000000Y-68000000D03*
%TD*%
D15*
%TO.C,Q7*%
X122123486Y-81045036D03*
D16*
X122123486Y-83585036D03*
X122123486Y-86125036D03*
%TD*%
D14*
%TO.C,RE4*%
X121983486Y-90592719D03*
X121983486Y-98212719D03*
%TD*%
%TO.C,Rx1*%
X177997272Y-70000000D03*
X185617272Y-70000000D03*
%TD*%
D19*
%TO.C,J2*%
X167496824Y-105403316D03*
D13*
X172496824Y-105403316D03*
%TD*%
D20*
%TO.C,J_FC1*%
X114983486Y-73672719D03*
X114983486Y-76212719D03*
%TD*%
D14*
%TO.C,Ro1*%
X191880000Y-99500000D03*
X199500000Y-99500000D03*
%TD*%
D20*
%TO.C,J_Vref1*%
X92350028Y-65984557D03*
X94890028Y-65984557D03*
%TD*%
D15*
%TO.C,Q1*%
X108983486Y-63132719D03*
D16*
X108983486Y-65672719D03*
X108983486Y-68212719D03*
%TD*%
D14*
%TO.C,R3*%
X139064666Y-91064666D03*
X139064666Y-98684666D03*
%TD*%
%TO.C,R4*%
X133000000Y-91380000D03*
X133000000Y-99000000D03*
%TD*%
%TO.C,R5*%
X206735548Y-55792554D03*
X199115548Y-55792554D03*
%TD*%
D11*
%TO.C,TP_GND1*%
X179496824Y-107403316D03*
%TD*%
D21*
%TO.C,RS2*%
X166500000Y-77760000D03*
X166500000Y-93000000D03*
%TD*%
D11*
%TO.C,TP_GND4*%
X133000000Y-105000000D03*
%TD*%
D15*
%TO.C,U1*%
X84500000Y-62920000D03*
D16*
X84500000Y-65460000D03*
X84500000Y-68000000D03*
%TD*%
D22*
%TO.C,Q6*%
X158460000Y-51450000D03*
D23*
X161000000Y-51450000D03*
X163540000Y-51450000D03*
%TD*%
D11*
%TO.C,Gen_In2*%
X84500000Y-75000000D03*
%TD*%
D14*
%TO.C,RE3*%
X109483486Y-90965036D03*
X109483486Y-98585036D03*
%TD*%
D11*
%TO.C,TP_Out_f1*%
X133000000Y-86500000D03*
%TD*%
D14*
%TO.C,RE2*%
X121983486Y-40592719D03*
X121983486Y-48212719D03*
%TD*%
D11*
%TO.C,TP_Vref1*%
X101000000Y-66000000D03*
%TD*%
D20*
%TO.C,J_LT1*%
X132000000Y-75460000D03*
X132000000Y-78000000D03*
%TD*%
D14*
%TO.C,RE1*%
X109483486Y-40592719D03*
X109483486Y-48212719D03*
%TD*%
%TO.C,R1*%
X84500000Y-50000000D03*
X84500000Y-57620000D03*
%TD*%
D15*
%TO.C,Q2*%
X121926276Y-62992724D03*
D16*
X121926276Y-65532724D03*
X121926276Y-68072724D03*
%TD*%
D10*
%TO.C,REF\u002A\u002A*%
X215126066Y-24952403D03*
%TD*%
D15*
%TO.C,Q5*%
X146972364Y-60404121D03*
D16*
X146972364Y-62944121D03*
X146972364Y-65484121D03*
%TD*%
D14*
%TO.C,R6*%
X199000000Y-63000000D03*
X206620000Y-63000000D03*
%TD*%
D15*
%TO.C,Q8*%
X109483486Y-81045036D03*
D16*
X109483486Y-83585036D03*
X109483486Y-86125036D03*
%TD*%
D11*
%TO.C,TP_Out_PD1*%
X131949186Y-62945583D03*
%TD*%
D14*
%TO.C,Rx2*%
X185441809Y-80286522D03*
X185441809Y-72666522D03*
%TD*%
D11*
%TO.C,TP_GND2*%
X131960069Y-55462261D03*
%TD*%
D21*
%TO.C,RS1*%
X157500000Y-77760000D03*
X157500000Y-93000000D03*
%TD*%
M02*
